M48
; DRILL file {KiCad (5.1.10)-1} date 11/11/22 04:49:45
; FORMAT={-:-/ absolute / inch / decimal}
; #@! TF.CreationDate,2022-11-11T04:49:45+00:00
; #@! TF.GenerationSoftware,Kicad,Pcbnew,(5.1.10)-1
FMAT,2
INCH
T1C0.0118
T2C0.0236
T3C0.0276
T4C0.0315
T5C0.0350
T6C0.0394
T7C0.0433
T8C0.0902
T9C0.1260
T10C0.0394
T11C0.1260
%
G90
G05
T1
X0.6299Y-0.8504
X0.6299Y-0.9921
X0.6299Y-2.3307
X0.6299Y-4.5512
X0.6299Y-4.6929
X0.6378Y-2.9528
X0.6457Y-1.7953
X0.6457Y-3.6142
X0.6614Y-3.811
X0.6772Y-3.7953
X0.7323Y-3.2362
X0.748Y-3.8346
X0.7717Y-0.8504
X0.7717Y-0.9921
X0.7717Y-4.5512
X0.7717Y-4.6929
X0.7953Y-1.4252
X0.7953Y-3.7559
X1.0Y-3.4882
X1.0Y-4.3465
X1.0551Y-1.5354
X1.0709Y-1.3701
X1.0866Y-1.8346
X1.1102Y-2.252
X1.1181Y-2.5748
X1.1181Y-2.7165
X1.126Y-3.8425
X1.126Y-3.9685
X1.1339Y-4.6535
X1.1417Y-4.7087
X1.1654Y-4.5118
X1.1732Y-1.6457
X1.2283Y-4.1024
X1.252Y-3.8425
X1.252Y-3.9685
X1.2598Y-2.5748
X1.2598Y-2.7165
X1.2677Y-1.7165
X1.2835Y-3.3543
X1.3071Y-4.6772
X1.315Y-1.6457
X1.315Y-4.063
X1.3543Y-1.4724
X1.3622Y-4.2126
X1.3858Y-4.6535
X1.4331Y-4.6772
X1.4409Y-1.7874
X1.4488Y-3.2756
X1.4488Y-4.063
X1.4567Y-1.6457
X1.4567Y-4.2126
X1.4882Y-3.2362
X1.4882Y-3.315
X1.4961Y-1.4724
X1.5118Y-2.8504
X1.5118Y-4.1024
X1.5906Y-4.6772
X1.5984Y-3.2362
X1.5984Y-3.315
X1.5984Y-4.2598
X1.6063Y-4.0866
X1.6378Y-3.2756
X1.6378Y-3.6535
X1.6772Y-1.7717
X1.685Y-4.2362
X1.7165Y-4.2362
X1.7244Y-4.6614
X1.748Y-1.3071
X1.748Y-1.6378
X1.7953Y-4.2598
X1.8031Y-3.2756
X1.8425Y-3.2362
X1.8425Y-3.315
X1.8898Y-1.3071
X1.8898Y-4.2126
X1.9449Y-3.6299
X1.9449Y-4.0866
X1.9528Y-3.2362
X1.9528Y-3.315
X1.9606Y-4.5433
X1.9685Y-2.8898
X1.9764Y-2.3307
X1.9764Y-2.3543
X1.9843Y-4.6063
X1.9921Y-3.2756
X2.0236Y-1.4646
X2.0236Y-1.685
X2.0315Y-3.7165
X2.063Y-1.811
X2.0709Y-4.4252
X2.0709Y-4.5197
X2.0709Y-4.7087
X2.1024Y-2.1496
X2.1024Y-2.4803
X2.1024Y-3.6299
X2.1339Y-2.7244
X2.1496Y-1.6457
X2.1575Y-4.378
X2.1732Y-2.811
X2.1732Y-3.2598
X2.1811Y-4.4252
X2.189Y-3.7165
X2.1969Y-2.1496
X2.2205Y-3.1575
X2.2283Y-2.4331
X2.2598Y-3.1575
X2.2835Y-4.5118
X2.315Y-1.937
X2.315Y-2.4016
X2.3307Y-2.4331
X2.3387Y-2.1811
X2.3701Y-2.7795
X2.378Y-2.5748
X2.378Y-2.7165
X2.378Y-3.8346
X2.378Y-3.9764
X2.3937Y-1.6457
X2.3937Y-4.1575
X2.5118Y-2.7717
X2.5197Y-2.5748
X2.5197Y-2.7165
X2.5197Y-3.8346
X2.5197Y-3.9764
X2.5354Y-2.3937
X2.5433Y-4.315
X2.5512Y-2.1575
X2.5512Y-2.1811
X2.5512Y-2.378
X2.5748Y-2.5118
X2.5827Y-1.6772
X2.5984Y-3.5118
X2.6142Y-3.5512
X2.622Y-1.4331
X2.622Y-2.8346
X2.622Y-2.8976
X2.622Y-2.9606
X2.622Y-3.0236
X2.622Y-3.0866
X2.622Y-3.5984
X2.6378Y-3.5827
X2.6535Y-1.5512
X2.6614Y-3.1496
X2.6614Y-3.2126
X2.6614Y-3.2756
X2.6772Y-2.5591
X2.6929Y-1.5906
X2.7165Y-2.4252
X2.8031Y-1.2677
X2.8346Y-1.7165
X2.8346Y-1.7717
X2.8346Y-3.7323
X2.874Y-4.3937
X2.8819Y-1.2677
X2.937Y-3.2756
X2.9921Y-3.126
X3.0006Y-2.8577
X3.0315Y-2.7874
X3.0472Y-3.2756
X3.063Y-1.126
X3.1024Y-2.9764
X3.2205Y-2.4803
X3.2283Y-2.7244
X3.2598Y-1.4331
X3.2598Y-2.8583
X3.3307Y-3.1417
X3.378Y-1.3386
X3.4488Y-3.4252
X3.4882Y-4.4567
X3.5276Y-4.4961
X3.5748Y-2.0709
X3.5906Y-4.3937
X3.5984Y-3.3071
X3.6063Y-2.4173
X3.6457Y-2.7874
X3.7087Y-2.8189
X3.8425Y-2.3858
X3.8425Y-2.685
X3.874Y-3.6693
X3.8898Y-1.8189
X3.8898Y-2.1575
X3.8898Y-2.3386
X3.8898Y-2.4488
X3.9055Y-1.8346
X3.9055Y-4.3071
X3.9528Y-1.7087
X3.9843Y-4.4252
X3.9921Y-1.6693
X3.9921Y-1.748
X4.0315Y-1.937
X4.0472Y-1.5197
X4.0472Y-1.9213
X4.1024Y-1.6693
X4.1024Y-1.748
X4.1417Y-1.7087
X4.2283Y-1.4567
X4.2283Y-3.4961
X4.3307Y-0.8504
X4.3307Y-0.9921
X4.3307Y-4.4094
X4.3307Y-4.5512
X4.3307Y-4.6929
X4.3386Y-3.6457
X4.4016Y-1.9134
X4.4724Y-0.8504
X4.4724Y-0.9921
X4.4724Y-4.5512
X4.4724Y-4.6929
T4
X0.7528Y-3.4252
X0.7528Y-4.1654
X0.9449Y-3.4252
X0.9449Y-4.1654
X1.1496Y-2.8425
X1.1496Y-2.9213
X1.1496Y-3.0
X1.1496Y-3.0787
X1.1496Y-3.1575
X1.1496Y-3.2362
X1.1496Y-3.315
X1.1496Y-3.3937
X1.1496Y-3.4724
X1.1496Y-3.5512
X1.1496Y-3.6299
X1.1496Y-3.7087
X1.2283Y-2.8425
X1.2283Y-2.9213
X1.2283Y-3.0
X1.2283Y-3.0787
X1.2283Y-3.1575
X1.2283Y-3.2362
X1.2283Y-3.315
X1.2283Y-3.3937
X1.2283Y-3.4724
X1.2283Y-3.5512
X1.2283Y-3.6299
X1.2283Y-3.7087
X1.3858Y-2.6063
X1.3858Y-2.685
X1.3858Y-3.9055
X1.3858Y-3.9843
X1.4646Y-2.6063
X1.4646Y-2.685
X1.4646Y-3.9055
X1.4646Y-3.9843
X1.5433Y-2.6063
X1.5433Y-2.685
X1.5433Y-3.9055
X1.5433Y-3.9843
X1.622Y-2.6063
X1.622Y-2.685
X1.622Y-3.9055
X1.622Y-3.9843
X1.7008Y-2.6063
X1.7008Y-2.685
X1.7008Y-3.9055
X1.7008Y-3.9843
X1.7795Y-2.6063
X1.7795Y-2.685
X1.7795Y-3.9055
X1.7795Y-3.9843
X1.8583Y-2.6063
X1.8583Y-2.685
X1.8583Y-3.9055
X1.8583Y-3.9843
X1.937Y-2.6063
X1.937Y-2.685
X1.937Y-3.9055
X1.937Y-3.9843
X2.0157Y-2.6063
X2.0157Y-2.685
X2.0157Y-3.9055
X2.0157Y-3.9843
X2.0945Y-2.6063
X2.0945Y-2.685
X2.0945Y-3.9055
X2.0945Y-3.9843
X2.1732Y-2.6063
X2.1732Y-2.685
X2.1732Y-3.9055
X2.1732Y-3.9843
X2.252Y-2.6063
X2.252Y-2.685
X2.252Y-3.9055
X2.252Y-3.9843
X2.4094Y-2.8425
X2.4094Y-2.9213
X2.4094Y-3.0
X2.4094Y-3.0787
X2.4094Y-3.1575
X2.4094Y-3.2362
X2.4094Y-3.315
X2.4094Y-3.3937
X2.4094Y-3.4724
X2.4094Y-3.5512
X2.4094Y-3.6299
X2.4094Y-3.7087
X2.4882Y-2.8425
X2.4882Y-2.9213
X2.4882Y-3.0
X2.4882Y-3.0787
X2.4882Y-3.1575
X2.4882Y-3.2362
X2.4882Y-3.315
X2.4882Y-3.3937
X2.4882Y-3.4724
X2.4882Y-3.5512
X2.4882Y-3.6299
X2.4882Y-3.7087
T5
X4.0752Y-2.872
X4.0752Y-3.1358
X4.1732Y-2.872
X4.1732Y-2.9528
X4.1732Y-3.0551
X4.1732Y-3.1358
T6
X0.7661Y-2.4811
X0.7661Y-2.5811
X0.7661Y-2.6811
X0.7661Y-2.7811
X0.7661Y-2.8811
X0.7661Y-2.9811
X0.7661Y-3.0811
X0.7661Y-3.1811
X0.8661Y-2.4811
X0.8661Y-2.5811
X0.8661Y-2.6811
X0.8661Y-2.7811
X0.8661Y-2.8811
X0.8661Y-2.9811
X0.8661Y-3.0811
X0.8661Y-3.1811
X1.2856Y-1.0165
X1.3307Y-0.9386
X1.3307Y-1.0945
X1.3758Y-1.0165
X1.4209Y-0.9386
X1.4209Y-1.0945
X1.4659Y-1.0165
X1.511Y-0.9386
X1.511Y-1.0945
X1.5561Y-1.0165
X1.6012Y-0.9386
X1.6012Y-1.0945
X1.6463Y-1.0165
X1.6913Y-0.9386
X1.6913Y-1.0945
X2.0646Y-2.2362
X2.0646Y-2.3362
X2.1646Y-2.2362
X2.1646Y-2.3362
X2.2646Y-2.2362
X2.2646Y-2.3362
X2.3646Y-2.2362
X2.3646Y-2.3362
X2.4646Y-2.2362
X2.4646Y-2.3362
X2.9197Y-0.9189
X2.9197Y-1.0189
X2.9197Y-1.1189
X2.9197Y-1.2189
X2.9197Y-1.3189
X2.9197Y-1.4189
X2.9197Y-1.5189
X2.9197Y-1.6189
X2.9197Y-1.7189
X2.9197Y-1.8189
X2.9197Y-1.9189
X2.9197Y-2.0189
X2.9197Y-2.1189
X2.9197Y-2.2189
X2.9197Y-2.3189
X2.9197Y-2.4189
X2.9197Y-2.5189
X2.9197Y-2.6189
X2.9197Y-2.7189
X2.9197Y-2.8189
X3.0315Y-3.3858
X3.1315Y-3.3858
X3.2315Y-3.3858
X3.3315Y-3.3858
X3.5197Y-0.9189
X3.5197Y-1.0189
X3.5197Y-1.1189
X3.5197Y-1.2189
X3.5197Y-1.3189
X3.5197Y-1.4189
X3.5197Y-1.5189
X3.5197Y-1.6189
X3.5197Y-1.7189
X3.5197Y-1.8189
X3.5197Y-1.9189
X3.5197Y-2.0189
X3.5197Y-2.1189
X3.5197Y-2.2189
X3.5197Y-2.3189
X3.5197Y-2.4189
X3.5197Y-2.5189
X3.5197Y-2.6189
X3.5197Y-2.7189
X3.5197Y-2.8189
T7
X2.6969Y-4.4921
X2.6969Y-4.6693
X2.9528Y-4.4921
X2.9528Y-4.6693
X3.4055Y-4.4921
X3.4055Y-4.6693
X3.6614Y-4.4921
X3.6614Y-4.6693
X3.8189Y-3.3622
X3.8189Y-3.6181
X3.8189Y-3.9921
X3.8189Y-4.248
X3.9961Y-3.3622
X3.9961Y-3.6181
X3.9961Y-3.9921
X3.9961Y-4.248
T8
X4.2913Y-2.7378
X4.2913Y-3.2701
X4.3232Y-3.0039
T9
X1.0085Y-1.0138
X1.9927Y-1.0138
T10
X2.189Y-0.8858
X2.189Y-0.9843
X2.3858Y-1.1811
X2.5827Y-0.8858
X2.5827Y-0.9843
X4.3543Y-2.1791
X4.3543Y-2.4933
T11
X0.7008Y-0.9213
X0.7008Y-4.622
X1.189Y-2.6457
X1.189Y-3.9055
X2.4488Y-2.6457
X2.4488Y-3.9055
X4.4016Y-0.9213
X4.4016Y-4.622
T2
G00X2.189Y-1.1988
M15
G01X2.189Y-1.1634
M16
G05
G00X2.2874Y-1.1988
M15
G01X2.2874Y-1.1634
M16
G05
G00X2.3681Y-0.9843
M15
G01X2.4035Y-0.9843
M16
G05
G00X2.4843Y-1.1634
M15
G01X2.4843Y-1.1988
M16
G05
G00X2.5827Y-1.1634
M15
G01X2.5827Y-1.1988
M16
G05
T3
G00X3.8583Y-1.1319
M15
G01X3.8583Y-1.1516
M16
G05
T4
G00X3.7795Y-1.2047
M15
G01X3.7795Y-1.2913
M16
G05
G00X3.9803Y-1.0512
M15
G01X3.9567Y-1.0512
M16
G05
G00X4.0118Y-1.1102
M15
G01X3.9252Y-1.1102
M16
G05
G00X3.9803Y-1.2441
M15
G01X3.9567Y-1.2441
M16
G05
G00X4.0217Y-1.3465
M15
G01X3.9154Y-1.3465
M16
G05
T0
M30
