%TF.GenerationSoftware,KiCad,Pcbnew,(5.1.10)-1*%
%TF.CreationDate,2022-11-11T04:49:51+00:00*%
%TF.ProjectId,HeikouBox,4865696b-6f75-4426-9f78-2e6b69636164,rev?*%
%TF.SameCoordinates,Original*%
%TF.FileFunction,Soldermask,Bot*%
%TF.FilePolarity,Negative*%
%FSLAX46Y46*%
G04 Gerber Fmt 4.6, Leading zero omitted, Abs format (unit mm)*
G04 Created by KiCad (PCBNEW (5.1.10)-1) date 2022-11-11 04:49:51*
%MOMM*%
%LPD*%
G01*
G04 APERTURE LIST*
%ADD10C,0.400000*%
%TA.AperFunction,Profile*%
%ADD11C,0.150000*%
%TD*%
%ADD12O,1.800000X1.800000*%
%ADD13C,1.800000*%
%ADD14C,0.100000*%
%ADD15O,2.900000X1.700000*%
%ADD16O,1.400000X2.300000*%
%ADD17O,3.700000X2.900000*%
%ADD18O,2.500000X4.100000*%
%ADD19C,3.500000*%
%ADD20C,1.600000*%
%ADD21C,1.100000*%
%ADD22O,2.300000X1.400000*%
%ADD23C,3.300000*%
%ADD24O,1.450000X1.450000*%
%ADD25C,2.100000*%
%ADD26C,1.700000*%
%ADD27C,4.100000*%
G04 APERTURE END LIST*
D10*
G36*
X78000000Y-81800000D02*
G01*
X76800000Y-81800000D01*
X76800000Y-80200000D01*
X78000000Y-80200000D01*
X78000000Y-81800000D01*
G37*
X78000000Y-81800000D02*
X76800000Y-81800000D01*
X76800000Y-80200000D01*
X78000000Y-80200000D01*
X78000000Y-81800000D01*
G36*
X75200000Y-81800000D02*
G01*
X74000000Y-81800000D01*
X74000000Y-80200000D01*
X75200000Y-80200000D01*
X75200000Y-81800000D01*
G37*
X75200000Y-81800000D02*
X74000000Y-81800000D01*
X74000000Y-80200000D01*
X75200000Y-80200000D01*
X75200000Y-81800000D01*
D11*
X62800000Y-20400000D02*
X114800000Y-20400000D01*
X62800000Y-22000000D02*
X62800000Y-20400000D01*
X58400000Y-22000000D02*
X62800000Y-22000000D01*
X58400000Y-20400000D02*
X58400000Y-22000000D01*
X114800000Y-120400000D02*
X114800000Y-20400000D01*
X14800000Y-120400000D02*
X114800000Y-120400000D01*
X14800000Y-20400000D02*
X14800000Y-120400000D01*
X58400000Y-20400000D02*
X14800000Y-20400000D01*
D12*
%TO.C,U501*%
X74160000Y-36040000D03*
X74160000Y-30960000D03*
X74160000Y-43660000D03*
X74160000Y-58900000D03*
X74160000Y-53820000D03*
X74160000Y-61440000D03*
X74160000Y-23340000D03*
X74160000Y-46200000D03*
X74160000Y-28420000D03*
X74160000Y-41120000D03*
X74160000Y-56360000D03*
X74160000Y-48740000D03*
X74160000Y-66520000D03*
X74160000Y-69060000D03*
X74160000Y-51280000D03*
D13*
X74160000Y-71600000D03*
D12*
X74160000Y-38580000D03*
X74160000Y-25880000D03*
X74160000Y-33500000D03*
X74160000Y-63980000D03*
X89400000Y-33500000D03*
G36*
G01*
X90300000Y-70750000D02*
X90300000Y-72450000D01*
G75*
G02*
X90250000Y-72500000I-50000J0D01*
G01*
X88550000Y-72500000D01*
G75*
G02*
X88500000Y-72450000I0J50000D01*
G01*
X88500000Y-70750000D01*
G75*
G02*
X88550000Y-70700000I50000J0D01*
G01*
X90250000Y-70700000D01*
G75*
G02*
X90300000Y-70750000I0J-50000D01*
G01*
G37*
X89400000Y-38580000D03*
X89400000Y-41120000D03*
X89400000Y-48740000D03*
X89400000Y-53820000D03*
X89400000Y-30960000D03*
X89400000Y-63980000D03*
X89400000Y-61440000D03*
X89400000Y-28420000D03*
X89400000Y-51280000D03*
X89400000Y-56360000D03*
X89400000Y-36040000D03*
X89400000Y-46200000D03*
X89400000Y-23340000D03*
X89400000Y-25880000D03*
X89400000Y-43660000D03*
X89400000Y-58900000D03*
X89400000Y-69060000D03*
X89400000Y-66520000D03*
%TD*%
D13*
%TO.C,DS501*%
X84620000Y-86000000D03*
X82080000Y-86000000D03*
X79540000Y-86000000D03*
G36*
G01*
X76100000Y-86850000D02*
X76100000Y-85150000D01*
G75*
G02*
X76150000Y-85100000I50000J0D01*
G01*
X77850000Y-85100000D01*
G75*
G02*
X77900000Y-85150000I0J-50000D01*
G01*
X77900000Y-86850000D01*
G75*
G02*
X77850000Y-86900000I-50000J0D01*
G01*
X76150000Y-86900000D01*
G75*
G02*
X76100000Y-86850000I0J50000D01*
G01*
G37*
%TD*%
D14*
%TO.C,JP502*%
G36*
X75399039Y-80259755D02*
G01*
X75396194Y-80269134D01*
X75391573Y-80277779D01*
X75385355Y-80285355D01*
X75377779Y-80291573D01*
X75369134Y-80296194D01*
X75359755Y-80299039D01*
X75350000Y-80300000D01*
X73850000Y-80300000D01*
X73840245Y-80299039D01*
X73830866Y-80296194D01*
X73822221Y-80291573D01*
X73814645Y-80285355D01*
X73808427Y-80277779D01*
X73803806Y-80269134D01*
X73800961Y-80259755D01*
X73800000Y-80250000D01*
X73800000Y-79700000D01*
X73800602Y-79693889D01*
X73800602Y-79675466D01*
X73800843Y-79670565D01*
X73805653Y-79621734D01*
X73806373Y-79616881D01*
X73815945Y-79568756D01*
X73817137Y-79563995D01*
X73831381Y-79517040D01*
X73833034Y-79512421D01*
X73851811Y-79467088D01*
X73853909Y-79462651D01*
X73877040Y-79419378D01*
X73879562Y-79415171D01*
X73906822Y-79374372D01*
X73909746Y-79370430D01*
X73940874Y-79332501D01*
X73944169Y-79328866D01*
X73978866Y-79294169D01*
X73982501Y-79290874D01*
X74020430Y-79259746D01*
X74024372Y-79256822D01*
X74065171Y-79229562D01*
X74069378Y-79227040D01*
X74112651Y-79203909D01*
X74117088Y-79201811D01*
X74162421Y-79183034D01*
X74167040Y-79181381D01*
X74213995Y-79167137D01*
X74218756Y-79165945D01*
X74266881Y-79156373D01*
X74271734Y-79155653D01*
X74320565Y-79150843D01*
X74325466Y-79150602D01*
X74343889Y-79150602D01*
X74350000Y-79150000D01*
X74850000Y-79150000D01*
X74856111Y-79150602D01*
X74874534Y-79150602D01*
X74879435Y-79150843D01*
X74928266Y-79155653D01*
X74933119Y-79156373D01*
X74981244Y-79165945D01*
X74986005Y-79167137D01*
X75032960Y-79181381D01*
X75037579Y-79183034D01*
X75082912Y-79201811D01*
X75087349Y-79203909D01*
X75130622Y-79227040D01*
X75134829Y-79229562D01*
X75175628Y-79256822D01*
X75179570Y-79259746D01*
X75217499Y-79290874D01*
X75221134Y-79294169D01*
X75255831Y-79328866D01*
X75259126Y-79332501D01*
X75290254Y-79370430D01*
X75293178Y-79374372D01*
X75320438Y-79415171D01*
X75322960Y-79419378D01*
X75346091Y-79462651D01*
X75348189Y-79467088D01*
X75366966Y-79512421D01*
X75368619Y-79517040D01*
X75382863Y-79563995D01*
X75384055Y-79568756D01*
X75393627Y-79616881D01*
X75394347Y-79621734D01*
X75399157Y-79670565D01*
X75399398Y-79675466D01*
X75399398Y-79693889D01*
X75400000Y-79700000D01*
X75400000Y-80250000D01*
X75399039Y-80259755D01*
G37*
G36*
X75399398Y-82306111D02*
G01*
X75399398Y-82324534D01*
X75399157Y-82329435D01*
X75394347Y-82378266D01*
X75393627Y-82383119D01*
X75384055Y-82431244D01*
X75382863Y-82436005D01*
X75368619Y-82482960D01*
X75366966Y-82487579D01*
X75348189Y-82532912D01*
X75346091Y-82537349D01*
X75322960Y-82580622D01*
X75320438Y-82584829D01*
X75293178Y-82625628D01*
X75290254Y-82629570D01*
X75259126Y-82667499D01*
X75255831Y-82671134D01*
X75221134Y-82705831D01*
X75217499Y-82709126D01*
X75179570Y-82740254D01*
X75175628Y-82743178D01*
X75134829Y-82770438D01*
X75130622Y-82772960D01*
X75087349Y-82796091D01*
X75082912Y-82798189D01*
X75037579Y-82816966D01*
X75032960Y-82818619D01*
X74986005Y-82832863D01*
X74981244Y-82834055D01*
X74933119Y-82843627D01*
X74928266Y-82844347D01*
X74879435Y-82849157D01*
X74874534Y-82849398D01*
X74856111Y-82849398D01*
X74850000Y-82850000D01*
X74350000Y-82850000D01*
X74343889Y-82849398D01*
X74325466Y-82849398D01*
X74320565Y-82849157D01*
X74271734Y-82844347D01*
X74266881Y-82843627D01*
X74218756Y-82834055D01*
X74213995Y-82832863D01*
X74167040Y-82818619D01*
X74162421Y-82816966D01*
X74117088Y-82798189D01*
X74112651Y-82796091D01*
X74069378Y-82772960D01*
X74065171Y-82770438D01*
X74024372Y-82743178D01*
X74020430Y-82740254D01*
X73982501Y-82709126D01*
X73978866Y-82705831D01*
X73944169Y-82671134D01*
X73940874Y-82667499D01*
X73909746Y-82629570D01*
X73906822Y-82625628D01*
X73879562Y-82584829D01*
X73877040Y-82580622D01*
X73853909Y-82537349D01*
X73851811Y-82532912D01*
X73833034Y-82487579D01*
X73831381Y-82482960D01*
X73817137Y-82436005D01*
X73815945Y-82431244D01*
X73806373Y-82383119D01*
X73805653Y-82378266D01*
X73800843Y-82329435D01*
X73800602Y-82324534D01*
X73800602Y-82306111D01*
X73800000Y-82300000D01*
X73800000Y-81750000D01*
X73800961Y-81740245D01*
X73803806Y-81730866D01*
X73808427Y-81722221D01*
X73814645Y-81714645D01*
X73822221Y-81708427D01*
X73830866Y-81703806D01*
X73840245Y-81700961D01*
X73850000Y-81700000D01*
X75350000Y-81700000D01*
X75359755Y-81700961D01*
X75369134Y-81703806D01*
X75377779Y-81708427D01*
X75385355Y-81714645D01*
X75391573Y-81722221D01*
X75396194Y-81730866D01*
X75399039Y-81740245D01*
X75400000Y-81750000D01*
X75400000Y-82300000D01*
X75399398Y-82306111D01*
G37*
G36*
G01*
X73850000Y-80450000D02*
X75350000Y-80450000D01*
G75*
G02*
X75400000Y-80500000I0J-50000D01*
G01*
X75400000Y-81500000D01*
G75*
G02*
X75350000Y-81550000I-50000J0D01*
G01*
X73850000Y-81550000D01*
G75*
G02*
X73800000Y-81500000I0J50000D01*
G01*
X73800000Y-80500000D01*
G75*
G02*
X73850000Y-80450000I50000J0D01*
G01*
G37*
%TD*%
%TO.C,JP503*%
G36*
X76600961Y-81740245D02*
G01*
X76603806Y-81730866D01*
X76608427Y-81722221D01*
X76614645Y-81714645D01*
X76622221Y-81708427D01*
X76630866Y-81703806D01*
X76640245Y-81700961D01*
X76650000Y-81700000D01*
X78150000Y-81700000D01*
X78159755Y-81700961D01*
X78169134Y-81703806D01*
X78177779Y-81708427D01*
X78185355Y-81714645D01*
X78191573Y-81722221D01*
X78196194Y-81730866D01*
X78199039Y-81740245D01*
X78200000Y-81750000D01*
X78200000Y-82300000D01*
X78199398Y-82306111D01*
X78199398Y-82324534D01*
X78199157Y-82329435D01*
X78194347Y-82378266D01*
X78193627Y-82383119D01*
X78184055Y-82431244D01*
X78182863Y-82436005D01*
X78168619Y-82482960D01*
X78166966Y-82487579D01*
X78148189Y-82532912D01*
X78146091Y-82537349D01*
X78122960Y-82580622D01*
X78120438Y-82584829D01*
X78093178Y-82625628D01*
X78090254Y-82629570D01*
X78059126Y-82667499D01*
X78055831Y-82671134D01*
X78021134Y-82705831D01*
X78017499Y-82709126D01*
X77979570Y-82740254D01*
X77975628Y-82743178D01*
X77934829Y-82770438D01*
X77930622Y-82772960D01*
X77887349Y-82796091D01*
X77882912Y-82798189D01*
X77837579Y-82816966D01*
X77832960Y-82818619D01*
X77786005Y-82832863D01*
X77781244Y-82834055D01*
X77733119Y-82843627D01*
X77728266Y-82844347D01*
X77679435Y-82849157D01*
X77674534Y-82849398D01*
X77656111Y-82849398D01*
X77650000Y-82850000D01*
X77150000Y-82850000D01*
X77143889Y-82849398D01*
X77125466Y-82849398D01*
X77120565Y-82849157D01*
X77071734Y-82844347D01*
X77066881Y-82843627D01*
X77018756Y-82834055D01*
X77013995Y-82832863D01*
X76967040Y-82818619D01*
X76962421Y-82816966D01*
X76917088Y-82798189D01*
X76912651Y-82796091D01*
X76869378Y-82772960D01*
X76865171Y-82770438D01*
X76824372Y-82743178D01*
X76820430Y-82740254D01*
X76782501Y-82709126D01*
X76778866Y-82705831D01*
X76744169Y-82671134D01*
X76740874Y-82667499D01*
X76709746Y-82629570D01*
X76706822Y-82625628D01*
X76679562Y-82584829D01*
X76677040Y-82580622D01*
X76653909Y-82537349D01*
X76651811Y-82532912D01*
X76633034Y-82487579D01*
X76631381Y-82482960D01*
X76617137Y-82436005D01*
X76615945Y-82431244D01*
X76606373Y-82383119D01*
X76605653Y-82378266D01*
X76600843Y-82329435D01*
X76600602Y-82324534D01*
X76600602Y-82306111D01*
X76600000Y-82300000D01*
X76600000Y-81750000D01*
X76600961Y-81740245D01*
G37*
G36*
X76600602Y-79693889D02*
G01*
X76600602Y-79675466D01*
X76600843Y-79670565D01*
X76605653Y-79621734D01*
X76606373Y-79616881D01*
X76615945Y-79568756D01*
X76617137Y-79563995D01*
X76631381Y-79517040D01*
X76633034Y-79512421D01*
X76651811Y-79467088D01*
X76653909Y-79462651D01*
X76677040Y-79419378D01*
X76679562Y-79415171D01*
X76706822Y-79374372D01*
X76709746Y-79370430D01*
X76740874Y-79332501D01*
X76744169Y-79328866D01*
X76778866Y-79294169D01*
X76782501Y-79290874D01*
X76820430Y-79259746D01*
X76824372Y-79256822D01*
X76865171Y-79229562D01*
X76869378Y-79227040D01*
X76912651Y-79203909D01*
X76917088Y-79201811D01*
X76962421Y-79183034D01*
X76967040Y-79181381D01*
X77013995Y-79167137D01*
X77018756Y-79165945D01*
X77066881Y-79156373D01*
X77071734Y-79155653D01*
X77120565Y-79150843D01*
X77125466Y-79150602D01*
X77143889Y-79150602D01*
X77150000Y-79150000D01*
X77650000Y-79150000D01*
X77656111Y-79150602D01*
X77674534Y-79150602D01*
X77679435Y-79150843D01*
X77728266Y-79155653D01*
X77733119Y-79156373D01*
X77781244Y-79165945D01*
X77786005Y-79167137D01*
X77832960Y-79181381D01*
X77837579Y-79183034D01*
X77882912Y-79201811D01*
X77887349Y-79203909D01*
X77930622Y-79227040D01*
X77934829Y-79229562D01*
X77975628Y-79256822D01*
X77979570Y-79259746D01*
X78017499Y-79290874D01*
X78021134Y-79294169D01*
X78055831Y-79328866D01*
X78059126Y-79332501D01*
X78090254Y-79370430D01*
X78093178Y-79374372D01*
X78120438Y-79415171D01*
X78122960Y-79419378D01*
X78146091Y-79462651D01*
X78148189Y-79467088D01*
X78166966Y-79512421D01*
X78168619Y-79517040D01*
X78182863Y-79563995D01*
X78184055Y-79568756D01*
X78193627Y-79616881D01*
X78194347Y-79621734D01*
X78199157Y-79670565D01*
X78199398Y-79675466D01*
X78199398Y-79693889D01*
X78200000Y-79700000D01*
X78200000Y-80250000D01*
X78199039Y-80259755D01*
X78196194Y-80269134D01*
X78191573Y-80277779D01*
X78185355Y-80285355D01*
X78177779Y-80291573D01*
X78169134Y-80296194D01*
X78159755Y-80299039D01*
X78150000Y-80300000D01*
X76650000Y-80300000D01*
X76640245Y-80299039D01*
X76630866Y-80296194D01*
X76622221Y-80291573D01*
X76614645Y-80285355D01*
X76608427Y-80277779D01*
X76603806Y-80269134D01*
X76600961Y-80259755D01*
X76600000Y-80250000D01*
X76600000Y-79700000D01*
X76600602Y-79693889D01*
G37*
G36*
G01*
X78150000Y-81550000D02*
X76650000Y-81550000D01*
G75*
G02*
X76600000Y-81500000I0J50000D01*
G01*
X76600000Y-80500000D01*
G75*
G02*
X76650000Y-80450000I50000J0D01*
G01*
X78150000Y-80450000D01*
G75*
G02*
X78200000Y-80500000I0J-50000D01*
G01*
X78200000Y-81500000D01*
G75*
G02*
X78150000Y-81550000I-50000J0D01*
G01*
G37*
%TD*%
%TO.C,J101*%
G36*
G01*
X102050000Y-30700000D02*
X102050000Y-32500000D01*
G75*
G02*
X102000000Y-32550000I-50000J0D01*
G01*
X99600000Y-32550000D01*
G75*
G02*
X99550000Y-32500000I0J50000D01*
G01*
X99550000Y-30700000D01*
G75*
G02*
X99600000Y-30650000I50000J0D01*
G01*
X102000000Y-30650000D01*
G75*
G02*
X102050000Y-30700000I0J-50000D01*
G01*
G37*
D15*
X100800000Y-26700000D03*
D16*
X98000000Y-29000000D03*
D17*
X100800000Y-28200000D03*
D18*
X96000000Y-31700000D03*
G36*
G01*
X103150000Y-32800000D02*
X103150000Y-35600000D01*
G75*
G02*
X103100000Y-35650000I-50000J0D01*
G01*
X98500000Y-35650000D01*
G75*
G02*
X98450000Y-35600000I0J50000D01*
G01*
X98450000Y-32800000D01*
G75*
G02*
X98500000Y-32750000I50000J0D01*
G01*
X103100000Y-32750000D01*
G75*
G02*
X103150000Y-32800000I0J-50000D01*
G01*
G37*
%TD*%
D19*
%TO.C,J503*%
X109000000Y-69540000D03*
X109000000Y-83060000D03*
X109810000Y-76300000D03*
D20*
X103510000Y-72950000D03*
X103510000Y-79650000D03*
X106000000Y-72950000D03*
X106000000Y-79650000D03*
G36*
G01*
X105250000Y-74200000D02*
X106750000Y-74200000D01*
G75*
G02*
X106800000Y-74250000I0J-50000D01*
G01*
X106800000Y-75750000D01*
G75*
G02*
X106750000Y-75800000I-50000J0D01*
G01*
X105250000Y-75800000D01*
G75*
G02*
X105200000Y-75750000I0J50000D01*
G01*
X105200000Y-74250000D01*
G75*
G02*
X105250000Y-74200000I50000J0D01*
G01*
G37*
X106000000Y-77600000D03*
%TD*%
%TO.C,D504*%
G36*
G01*
X105550000Y-32500000D02*
X105550000Y-31500000D01*
G75*
G02*
X105600000Y-31450000I50000J0D01*
G01*
X107100000Y-31450000D01*
G75*
G02*
X107150000Y-31500000I0J-50000D01*
G01*
X107150000Y-32500000D01*
G75*
G02*
X107100000Y-32550000I-50000J0D01*
G01*
X105600000Y-32550000D01*
G75*
G02*
X105550000Y-32500000I0J50000D01*
G01*
G37*
G36*
G01*
X105550000Y-29300000D02*
X105550000Y-28300000D01*
G75*
G02*
X105600000Y-28250000I50000J0D01*
G01*
X107100000Y-28250000D01*
G75*
G02*
X107150000Y-28300000I0J-50000D01*
G01*
X107150000Y-29300000D01*
G75*
G02*
X107100000Y-29350000I-50000J0D01*
G01*
X105600000Y-29350000D01*
G75*
G02*
X105550000Y-29300000I0J50000D01*
G01*
G37*
G36*
G01*
X110450000Y-32500000D02*
X110450000Y-31500000D01*
G75*
G02*
X110500000Y-31450000I50000J0D01*
G01*
X112000000Y-31450000D01*
G75*
G02*
X112050000Y-31500000I0J-50000D01*
G01*
X112050000Y-32500000D01*
G75*
G02*
X112000000Y-32550000I-50000J0D01*
G01*
X110500000Y-32550000D01*
G75*
G02*
X110450000Y-32500000I0J50000D01*
G01*
G37*
G36*
G01*
X110450000Y-29300000D02*
X110450000Y-28300000D01*
G75*
G02*
X110500000Y-28250000I50000J0D01*
G01*
X112000000Y-28250000D01*
G75*
G02*
X112050000Y-28300000I0J-50000D01*
G01*
X112050000Y-29300000D01*
G75*
G02*
X112000000Y-29350000I-50000J0D01*
G01*
X110500000Y-29350000D01*
G75*
G02*
X110450000Y-29300000I0J50000D01*
G01*
G37*
%TD*%
%TO.C,D503*%
G36*
G01*
X110450000Y-109300000D02*
X110450000Y-108300000D01*
G75*
G02*
X110500000Y-108250000I50000J0D01*
G01*
X112000000Y-108250000D01*
G75*
G02*
X112050000Y-108300000I0J-50000D01*
G01*
X112050000Y-109300000D01*
G75*
G02*
X112000000Y-109350000I-50000J0D01*
G01*
X110500000Y-109350000D01*
G75*
G02*
X110450000Y-109300000I0J50000D01*
G01*
G37*
G36*
G01*
X110450000Y-112500000D02*
X110450000Y-111500000D01*
G75*
G02*
X110500000Y-111450000I50000J0D01*
G01*
X112000000Y-111450000D01*
G75*
G02*
X112050000Y-111500000I0J-50000D01*
G01*
X112050000Y-112500000D01*
G75*
G02*
X112000000Y-112550000I-50000J0D01*
G01*
X110500000Y-112550000D01*
G75*
G02*
X110450000Y-112500000I0J50000D01*
G01*
G37*
G36*
G01*
X105550000Y-109300000D02*
X105550000Y-108300000D01*
G75*
G02*
X105600000Y-108250000I50000J0D01*
G01*
X107100000Y-108250000D01*
G75*
G02*
X107150000Y-108300000I0J-50000D01*
G01*
X107150000Y-109300000D01*
G75*
G02*
X107100000Y-109350000I-50000J0D01*
G01*
X105600000Y-109350000D01*
G75*
G02*
X105550000Y-109300000I0J50000D01*
G01*
G37*
G36*
G01*
X105550000Y-112500000D02*
X105550000Y-111500000D01*
G75*
G02*
X105600000Y-111450000I50000J0D01*
G01*
X107100000Y-111450000D01*
G75*
G02*
X107150000Y-111500000I0J-50000D01*
G01*
X107150000Y-112500000D01*
G75*
G02*
X107100000Y-112550000I-50000J0D01*
G01*
X105600000Y-112550000D01*
G75*
G02*
X105550000Y-112500000I0J50000D01*
G01*
G37*
%TD*%
%TO.C,D502*%
G36*
G01*
X22450000Y-109300000D02*
X22450000Y-108300000D01*
G75*
G02*
X22500000Y-108250000I50000J0D01*
G01*
X24000000Y-108250000D01*
G75*
G02*
X24050000Y-108300000I0J-50000D01*
G01*
X24050000Y-109300000D01*
G75*
G02*
X24000000Y-109350000I-50000J0D01*
G01*
X22500000Y-109350000D01*
G75*
G02*
X22450000Y-109300000I0J50000D01*
G01*
G37*
G36*
G01*
X22450000Y-112500000D02*
X22450000Y-111500000D01*
G75*
G02*
X22500000Y-111450000I50000J0D01*
G01*
X24000000Y-111450000D01*
G75*
G02*
X24050000Y-111500000I0J-50000D01*
G01*
X24050000Y-112500000D01*
G75*
G02*
X24000000Y-112550000I-50000J0D01*
G01*
X22500000Y-112550000D01*
G75*
G02*
X22450000Y-112500000I0J50000D01*
G01*
G37*
G36*
G01*
X17550000Y-109300000D02*
X17550000Y-108300000D01*
G75*
G02*
X17600000Y-108250000I50000J0D01*
G01*
X19100000Y-108250000D01*
G75*
G02*
X19150000Y-108300000I0J-50000D01*
G01*
X19150000Y-109300000D01*
G75*
G02*
X19100000Y-109350000I-50000J0D01*
G01*
X17600000Y-109350000D01*
G75*
G02*
X17550000Y-109300000I0J50000D01*
G01*
G37*
G36*
G01*
X17550000Y-112500000D02*
X17550000Y-111500000D01*
G75*
G02*
X17600000Y-111450000I50000J0D01*
G01*
X19100000Y-111450000D01*
G75*
G02*
X19150000Y-111500000I0J-50000D01*
G01*
X19150000Y-112500000D01*
G75*
G02*
X19100000Y-112550000I-50000J0D01*
G01*
X17600000Y-112550000D01*
G75*
G02*
X17550000Y-112500000I0J50000D01*
G01*
G37*
%TD*%
%TO.C,D501*%
G36*
G01*
X22450000Y-29300000D02*
X22450000Y-28300000D01*
G75*
G02*
X22500000Y-28250000I50000J0D01*
G01*
X24000000Y-28250000D01*
G75*
G02*
X24050000Y-28300000I0J-50000D01*
G01*
X24050000Y-29300000D01*
G75*
G02*
X24000000Y-29350000I-50000J0D01*
G01*
X22500000Y-29350000D01*
G75*
G02*
X22450000Y-29300000I0J50000D01*
G01*
G37*
G36*
G01*
X22450000Y-32500000D02*
X22450000Y-31500000D01*
G75*
G02*
X22500000Y-31450000I50000J0D01*
G01*
X24000000Y-31450000D01*
G75*
G02*
X24050000Y-31500000I0J-50000D01*
G01*
X24050000Y-32500000D01*
G75*
G02*
X24000000Y-32550000I-50000J0D01*
G01*
X22500000Y-32550000D01*
G75*
G02*
X22450000Y-32500000I0J50000D01*
G01*
G37*
G36*
G01*
X17550000Y-29300000D02*
X17550000Y-28300000D01*
G75*
G02*
X17600000Y-28250000I50000J0D01*
G01*
X19100000Y-28250000D01*
G75*
G02*
X19150000Y-28300000I0J-50000D01*
G01*
X19150000Y-29300000D01*
G75*
G02*
X19100000Y-29350000I-50000J0D01*
G01*
X17600000Y-29350000D01*
G75*
G02*
X17550000Y-29300000I0J50000D01*
G01*
G37*
G36*
G01*
X17550000Y-32500000D02*
X17550000Y-31500000D01*
G75*
G02*
X17600000Y-31450000I50000J0D01*
G01*
X19100000Y-31450000D01*
G75*
G02*
X19150000Y-31500000I0J-50000D01*
G01*
X19150000Y-32500000D01*
G75*
G02*
X19100000Y-32550000I-50000J0D01*
G01*
X17600000Y-32550000D01*
G75*
G02*
X17550000Y-32500000I0J50000D01*
G01*
G37*
%TD*%
D21*
%TO.C,J302*%
X60600000Y-30000000D03*
X65600000Y-25000000D03*
X65600000Y-22500000D03*
X55600000Y-25000000D03*
X55600000Y-22500000D03*
D16*
X63100000Y-30000000D03*
X58100000Y-30000000D03*
D22*
X60600000Y-25000000D03*
D16*
X55600000Y-30000000D03*
X65600000Y-30000000D03*
%TD*%
D21*
%TO.C,J501*%
X110600000Y-55350000D03*
X110600000Y-63330000D03*
%TD*%
D23*
%TO.C,U201*%
X62200000Y-99200000D03*
X30200000Y-99200000D03*
X30200000Y-67200000D03*
X62200000Y-67200000D03*
D24*
X55200000Y-66200000D03*
X43200000Y-66200000D03*
X53200000Y-66200000D03*
X35200000Y-66200000D03*
X57200000Y-68200000D03*
G36*
G01*
X56525000Y-65475000D02*
X57875000Y-65475000D01*
G75*
G02*
X57925000Y-65525000I0J-50000D01*
G01*
X57925000Y-66875000D01*
G75*
G02*
X57875000Y-66925000I-50000J0D01*
G01*
X56525000Y-66925000D01*
G75*
G02*
X56475000Y-66875000I0J50000D01*
G01*
X56475000Y-65525000D01*
G75*
G02*
X56525000Y-65475000I50000J0D01*
G01*
G37*
X43200000Y-68200000D03*
X39200000Y-68200000D03*
X39200000Y-66200000D03*
X49200000Y-66200000D03*
X37200000Y-66200000D03*
X53200000Y-68200000D03*
X51200000Y-68200000D03*
X45200000Y-68200000D03*
X45200000Y-66200000D03*
X49200000Y-68200000D03*
X35200000Y-68200000D03*
X51200000Y-66200000D03*
X47200000Y-68200000D03*
X41200000Y-68200000D03*
X47200000Y-66200000D03*
X55200000Y-68200000D03*
X37200000Y-68200000D03*
X41200000Y-66200000D03*
X31200000Y-82200000D03*
X31200000Y-88200000D03*
X29200000Y-78200000D03*
X29200000Y-72200000D03*
X29200000Y-76200000D03*
X31200000Y-78200000D03*
X29200000Y-82200000D03*
X29200000Y-74200000D03*
X29200000Y-90200000D03*
X29200000Y-80200000D03*
X31200000Y-72200000D03*
X29200000Y-92200000D03*
X31200000Y-84200000D03*
G36*
G01*
X31925000Y-93525000D02*
X31925000Y-94875000D01*
G75*
G02*
X31875000Y-94925000I-50000J0D01*
G01*
X30525000Y-94925000D01*
G75*
G02*
X30475000Y-94875000I0J50000D01*
G01*
X30475000Y-93525000D01*
G75*
G02*
X30525000Y-93475000I50000J0D01*
G01*
X31875000Y-93475000D01*
G75*
G02*
X31925000Y-93525000I0J-50000D01*
G01*
G37*
X29200000Y-94200000D03*
X31200000Y-74200000D03*
X31200000Y-86200000D03*
X29200000Y-84200000D03*
X31200000Y-76200000D03*
X31200000Y-92200000D03*
X31200000Y-80200000D03*
X31200000Y-90200000D03*
X29200000Y-86200000D03*
X29200000Y-88200000D03*
X45200000Y-99200000D03*
X51200000Y-99200000D03*
X41200000Y-101200000D03*
X35200000Y-101200000D03*
X39200000Y-101200000D03*
X41200000Y-99200000D03*
X45200000Y-101200000D03*
X37200000Y-101200000D03*
X53200000Y-101200000D03*
X43200000Y-101200000D03*
X35200000Y-99200000D03*
X55200000Y-101200000D03*
X47200000Y-99200000D03*
G36*
G01*
X56525000Y-98475000D02*
X57875000Y-98475000D01*
G75*
G02*
X57925000Y-98525000I0J-50000D01*
G01*
X57925000Y-99875000D01*
G75*
G02*
X57875000Y-99925000I-50000J0D01*
G01*
X56525000Y-99925000D01*
G75*
G02*
X56475000Y-99875000I0J50000D01*
G01*
X56475000Y-98525000D01*
G75*
G02*
X56525000Y-98475000I50000J0D01*
G01*
G37*
X57200000Y-101200000D03*
X37200000Y-99200000D03*
X49200000Y-99200000D03*
X47200000Y-101200000D03*
X39200000Y-99200000D03*
X55200000Y-99200000D03*
X43200000Y-99200000D03*
X53200000Y-99200000D03*
X49200000Y-101200000D03*
X51200000Y-101200000D03*
X61200000Y-94200000D03*
X61200000Y-90200000D03*
X61200000Y-88200000D03*
X63200000Y-84200000D03*
X63200000Y-92200000D03*
G36*
G01*
X63925000Y-93525000D02*
X63925000Y-94875000D01*
G75*
G02*
X63875000Y-94925000I-50000J0D01*
G01*
X62525000Y-94925000D01*
G75*
G02*
X62475000Y-94875000I0J50000D01*
G01*
X62475000Y-93525000D01*
G75*
G02*
X62525000Y-93475000I50000J0D01*
G01*
X63875000Y-93475000D01*
G75*
G02*
X63925000Y-93525000I0J-50000D01*
G01*
G37*
X63200000Y-90200000D03*
X61200000Y-84200000D03*
X63200000Y-80200000D03*
X63200000Y-76200000D03*
X61200000Y-74200000D03*
X63200000Y-72200000D03*
X61200000Y-92200000D03*
X61200000Y-86200000D03*
X61200000Y-80200000D03*
X63200000Y-86200000D03*
X63200000Y-74200000D03*
X61200000Y-82200000D03*
X63200000Y-78200000D03*
X61200000Y-76200000D03*
X61200000Y-72200000D03*
X61200000Y-78200000D03*
X63200000Y-88200000D03*
X63200000Y-82200000D03*
%TD*%
D13*
%TO.C,J201*%
X52440000Y-59340000D03*
X54980000Y-59340000D03*
X57520000Y-59340000D03*
X60060000Y-59340000D03*
X62600000Y-59340000D03*
X52440000Y-56800000D03*
X54980000Y-56800000D03*
X57520000Y-56800000D03*
X60060000Y-56800000D03*
G36*
G01*
X61964705Y-55900000D02*
X63235295Y-55900000D01*
G75*
G02*
X63500000Y-56164705I0J-264705D01*
G01*
X63500000Y-57435295D01*
G75*
G02*
X63235295Y-57700000I-264705J0D01*
G01*
X61964705Y-57700000D01*
G75*
G02*
X61700000Y-57435295I0J264705D01*
G01*
X61700000Y-56164705D01*
G75*
G02*
X61964705Y-55900000I264705J0D01*
G01*
G37*
%TD*%
D25*
%TO.C,SW502*%
X86500000Y-118600000D03*
X86500000Y-114100000D03*
X93000000Y-118600000D03*
X93000000Y-114100000D03*
%TD*%
%TO.C,SW504*%
X97000000Y-101400000D03*
X101500000Y-101400000D03*
X97000000Y-107900000D03*
X101500000Y-107900000D03*
%TD*%
%TO.C,SW503*%
X97000000Y-85400000D03*
X101500000Y-85400000D03*
X97000000Y-91900000D03*
X101500000Y-91900000D03*
%TD*%
%TO.C,SW501*%
X68500000Y-118600000D03*
X68500000Y-114100000D03*
X75000000Y-118600000D03*
X75000000Y-114100000D03*
%TD*%
D20*
%TO.C,Y202*%
X24000000Y-105800000D03*
X19120000Y-105800000D03*
%TD*%
%TO.C,Y201*%
X19120000Y-87000000D03*
X24000000Y-87000000D03*
%TD*%
D23*
%TO.C,MH4*%
X111800000Y-117400000D03*
%TD*%
%TO.C,MH3*%
X17800000Y-117400000D03*
%TD*%
%TO.C,MH2*%
X111800000Y-23400000D03*
%TD*%
%TO.C,MH1*%
X17800000Y-23400000D03*
%TD*%
D12*
%TO.C,J202*%
X19460000Y-63020000D03*
X22000000Y-63020000D03*
X19460000Y-65560000D03*
X22000000Y-65560000D03*
X19460000Y-68100000D03*
X22000000Y-68100000D03*
X19460000Y-70640000D03*
X22000000Y-70640000D03*
X19460000Y-73180000D03*
X22000000Y-73180000D03*
X19460000Y-75720000D03*
X22000000Y-75720000D03*
X19460000Y-78260000D03*
X22000000Y-78260000D03*
X19460000Y-80800000D03*
G36*
G01*
X22900000Y-79950000D02*
X22900000Y-81650000D01*
G75*
G02*
X22850000Y-81700000I-50000J0D01*
G01*
X21150000Y-81700000D01*
G75*
G02*
X21100000Y-81650000I0J50000D01*
G01*
X21100000Y-79950000D01*
G75*
G02*
X21150000Y-79900000I50000J0D01*
G01*
X22850000Y-79900000D01*
G75*
G02*
X22900000Y-79950000I0J-50000D01*
G01*
G37*
%TD*%
%TO.C,J301*%
G36*
G01*
X34650000Y-27000000D02*
X34650000Y-28600000D01*
G75*
G02*
X34600000Y-28650000I-50000J0D01*
G01*
X33000000Y-28650000D01*
G75*
G02*
X32950000Y-28600000I0J50000D01*
G01*
X32950000Y-27000000D01*
G75*
G02*
X33000000Y-26950000I50000J0D01*
G01*
X34600000Y-26950000D01*
G75*
G02*
X34650000Y-27000000I0J-50000D01*
G01*
G37*
D26*
X36090000Y-27800000D03*
X38380000Y-27800000D03*
X40670000Y-27800000D03*
X42960000Y-27800000D03*
X32655000Y-25820000D03*
X34945000Y-25820000D03*
X37235000Y-25820000D03*
X39525000Y-25820000D03*
X41815000Y-25820000D03*
X33800000Y-23840000D03*
X36090000Y-23840000D03*
X38380000Y-23840000D03*
X40670000Y-23840000D03*
X42960000Y-23840000D03*
D27*
X50615000Y-25750000D03*
X25615000Y-25750000D03*
%TD*%
M02*
