G04 #@! TF.GenerationSoftware,KiCad,Pcbnew,(5.1.6)-1*
G04 #@! TF.CreationDate,2020-08-25T01:19:47+01:00*
G04 #@! TF.ProjectId,HeikouBoxCore,4865696b-6f75-4426-9f78-436f72652e6b,rev?*
G04 #@! TF.SameCoordinates,Original*
G04 #@! TF.FileFunction,Legend,Top*
G04 #@! TF.FilePolarity,Positive*
%FSLAX46Y46*%
G04 Gerber Fmt 4.6, Leading zero omitted, Abs format (unit mm)*
G04 Created by KiCad (PCBNEW (5.1.6)-1) date 2020-08-25 01:19:47*
%MOMM*%
%LPD*%
G01*
G04 APERTURE LIST*
%ADD10C,0.250000*%
%ADD11C,0.175000*%
%ADD12C,0.150000*%
G04 #@! TA.AperFunction,Profile*
%ADD13C,0.150000*%
G04 #@! TD*
%ADD14C,3.000000*%
%ADD15R,1.650000X0.400000*%
%ADD16R,0.400000X1.650000*%
%ADD17R,1.450000X1.450000*%
%ADD18O,1.450000X1.450000*%
%ADD19C,3.300000*%
G04 APERTURE END LIST*
D10*
X25464285Y-24223809D02*
X25464285Y-22623809D01*
X25464285Y-23385714D02*
X26321428Y-23385714D01*
X26321428Y-24223809D02*
X26321428Y-22623809D01*
X27607142Y-24147619D02*
X27464285Y-24223809D01*
X27178571Y-24223809D01*
X27035714Y-24147619D01*
X26964285Y-23995238D01*
X26964285Y-23385714D01*
X27035714Y-23233333D01*
X27178571Y-23157142D01*
X27464285Y-23157142D01*
X27607142Y-23233333D01*
X27678571Y-23385714D01*
X27678571Y-23538095D01*
X26964285Y-23690476D01*
X28321428Y-24223809D02*
X28321428Y-23157142D01*
X28321428Y-22623809D02*
X28250000Y-22700000D01*
X28321428Y-22776190D01*
X28392857Y-22700000D01*
X28321428Y-22623809D01*
X28321428Y-22776190D01*
X29035714Y-24223809D02*
X29035714Y-22623809D01*
X29178571Y-23614285D02*
X29607142Y-24223809D01*
X29607142Y-23157142D02*
X29035714Y-23766666D01*
X30464285Y-24223809D02*
X30321428Y-24147619D01*
X30250000Y-24071428D01*
X30178571Y-23919047D01*
X30178571Y-23461904D01*
X30250000Y-23309523D01*
X30321428Y-23233333D01*
X30464285Y-23157142D01*
X30678571Y-23157142D01*
X30821428Y-23233333D01*
X30892857Y-23309523D01*
X30964285Y-23461904D01*
X30964285Y-23919047D01*
X30892857Y-24071428D01*
X30821428Y-24147619D01*
X30678571Y-24223809D01*
X30464285Y-24223809D01*
X32250000Y-23157142D02*
X32250000Y-24223809D01*
X31607142Y-23157142D02*
X31607142Y-23995238D01*
X31678571Y-24147619D01*
X31821428Y-24223809D01*
X32035714Y-24223809D01*
X32178571Y-24147619D01*
X32250000Y-24071428D01*
X33464285Y-23385714D02*
X33678571Y-23461904D01*
X33750000Y-23538095D01*
X33821428Y-23690476D01*
X33821428Y-23919047D01*
X33750000Y-24071428D01*
X33678571Y-24147619D01*
X33535714Y-24223809D01*
X32964285Y-24223809D01*
X32964285Y-22623809D01*
X33464285Y-22623809D01*
X33607142Y-22700000D01*
X33678571Y-22776190D01*
X33750000Y-22928571D01*
X33750000Y-23080952D01*
X33678571Y-23233333D01*
X33607142Y-23309523D01*
X33464285Y-23385714D01*
X32964285Y-23385714D01*
X34678571Y-24223809D02*
X34535714Y-24147619D01*
X34464285Y-24071428D01*
X34392857Y-23919047D01*
X34392857Y-23461904D01*
X34464285Y-23309523D01*
X34535714Y-23233333D01*
X34678571Y-23157142D01*
X34892857Y-23157142D01*
X35035714Y-23233333D01*
X35107142Y-23309523D01*
X35178571Y-23461904D01*
X35178571Y-23919047D01*
X35107142Y-24071428D01*
X35035714Y-24147619D01*
X34892857Y-24223809D01*
X34678571Y-24223809D01*
X35678571Y-24223809D02*
X36464285Y-23157142D01*
X35678571Y-23157142D02*
X36464285Y-24223809D01*
X39035714Y-24071428D02*
X38964285Y-24147619D01*
X38750000Y-24223809D01*
X38607142Y-24223809D01*
X38392857Y-24147619D01*
X38250000Y-23995238D01*
X38178571Y-23842857D01*
X38107142Y-23538095D01*
X38107142Y-23309523D01*
X38178571Y-23004761D01*
X38250000Y-22852380D01*
X38392857Y-22700000D01*
X38607142Y-22623809D01*
X38750000Y-22623809D01*
X38964285Y-22700000D01*
X39035714Y-22776190D01*
X39892857Y-24223809D02*
X39750000Y-24147619D01*
X39678571Y-24071428D01*
X39607142Y-23919047D01*
X39607142Y-23461904D01*
X39678571Y-23309523D01*
X39750000Y-23233333D01*
X39892857Y-23157142D01*
X40107142Y-23157142D01*
X40250000Y-23233333D01*
X40321428Y-23309523D01*
X40392857Y-23461904D01*
X40392857Y-23919047D01*
X40321428Y-24071428D01*
X40250000Y-24147619D01*
X40107142Y-24223809D01*
X39892857Y-24223809D01*
X41035714Y-24223809D02*
X41035714Y-23157142D01*
X41035714Y-23461904D02*
X41107142Y-23309523D01*
X41178571Y-23233333D01*
X41321428Y-23157142D01*
X41464285Y-23157142D01*
X42535714Y-24147619D02*
X42392857Y-24223809D01*
X42107142Y-24223809D01*
X41964285Y-24147619D01*
X41892857Y-23995238D01*
X41892857Y-23385714D01*
X41964285Y-23233333D01*
X42107142Y-23157142D01*
X42392857Y-23157142D01*
X42535714Y-23233333D01*
X42607142Y-23385714D01*
X42607142Y-23538095D01*
X41892857Y-23690476D01*
X44178571Y-22623809D02*
X44678571Y-24223809D01*
X45178571Y-22623809D01*
X45964285Y-22623809D02*
X46107142Y-22623809D01*
X46250000Y-22700000D01*
X46321428Y-22776190D01*
X46392857Y-22928571D01*
X46464285Y-23233333D01*
X46464285Y-23614285D01*
X46392857Y-23919047D01*
X46321428Y-24071428D01*
X46250000Y-24147619D01*
X46107142Y-24223809D01*
X45964285Y-24223809D01*
X45821428Y-24147619D01*
X45750000Y-24071428D01*
X45678571Y-23919047D01*
X45607142Y-23614285D01*
X45607142Y-23233333D01*
X45678571Y-22928571D01*
X45750000Y-22776190D01*
X45821428Y-22700000D01*
X45964285Y-22623809D01*
X47107142Y-24071428D02*
X47178571Y-24147619D01*
X47107142Y-24223809D01*
X47035714Y-24147619D01*
X47107142Y-24071428D01*
X47107142Y-24223809D01*
X47750000Y-22776190D02*
X47821428Y-22700000D01*
X47964285Y-22623809D01*
X48321428Y-22623809D01*
X48464285Y-22700000D01*
X48535714Y-22776190D01*
X48607142Y-22928571D01*
X48607142Y-23080952D01*
X48535714Y-23309523D01*
X47678571Y-24223809D01*
X48607142Y-24223809D01*
D11*
X31457142Y-30842857D02*
X31457142Y-31700000D01*
X31400000Y-31871428D01*
X31285714Y-31985714D01*
X31114285Y-32042857D01*
X31000000Y-32042857D01*
X32600000Y-32042857D02*
X32028571Y-32042857D01*
X32028571Y-30842857D01*
X33685714Y-31928571D02*
X33628571Y-31985714D01*
X33457142Y-32042857D01*
X33342857Y-32042857D01*
X33171428Y-31985714D01*
X33057142Y-31871428D01*
X33000000Y-31757142D01*
X32942857Y-31528571D01*
X32942857Y-31357142D01*
X33000000Y-31128571D01*
X33057142Y-31014285D01*
X33171428Y-30900000D01*
X33342857Y-30842857D01*
X33457142Y-30842857D01*
X33628571Y-30900000D01*
X33685714Y-30957142D01*
X34542857Y-30842857D02*
X34542857Y-31700000D01*
X34485714Y-31871428D01*
X34371428Y-31985714D01*
X34200000Y-32042857D01*
X34085714Y-32042857D01*
X35685714Y-32042857D02*
X35114285Y-32042857D01*
X35114285Y-30842857D01*
X36771428Y-31928571D02*
X36714285Y-31985714D01*
X36542857Y-32042857D01*
X36428571Y-32042857D01*
X36257142Y-31985714D01*
X36142857Y-31871428D01*
X36085714Y-31757142D01*
X36028571Y-31528571D01*
X36028571Y-31357142D01*
X36085714Y-31128571D01*
X36142857Y-31014285D01*
X36257142Y-30900000D01*
X36428571Y-30842857D01*
X36542857Y-30842857D01*
X36714285Y-30900000D01*
X36771428Y-30957142D01*
X37628571Y-30842857D02*
X37628571Y-31700000D01*
X37571428Y-31871428D01*
X37457142Y-31985714D01*
X37285714Y-32042857D01*
X37171428Y-32042857D01*
X38771428Y-32042857D02*
X38200000Y-32042857D01*
X38200000Y-30842857D01*
X39857142Y-31928571D02*
X39800000Y-31985714D01*
X39628571Y-32042857D01*
X39514285Y-32042857D01*
X39342857Y-31985714D01*
X39228571Y-31871428D01*
X39171428Y-31757142D01*
X39114285Y-31528571D01*
X39114285Y-31357142D01*
X39171428Y-31128571D01*
X39228571Y-31014285D01*
X39342857Y-30900000D01*
X39514285Y-30842857D01*
X39628571Y-30842857D01*
X39800000Y-30900000D01*
X39857142Y-30957142D01*
X40714285Y-30842857D02*
X40714285Y-31700000D01*
X40657142Y-31871428D01*
X40542857Y-31985714D01*
X40371428Y-32042857D01*
X40257142Y-32042857D01*
X41857142Y-32042857D02*
X41285714Y-32042857D01*
X41285714Y-30842857D01*
X42942857Y-31928571D02*
X42885714Y-31985714D01*
X42714285Y-32042857D01*
X42600000Y-32042857D01*
X42428571Y-31985714D01*
X42314285Y-31871428D01*
X42257142Y-31757142D01*
X42200000Y-31528571D01*
X42200000Y-31357142D01*
X42257142Y-31128571D01*
X42314285Y-31014285D01*
X42428571Y-30900000D01*
X42600000Y-30842857D01*
X42714285Y-30842857D01*
X42885714Y-30900000D01*
X42942857Y-30957142D01*
D12*
X34357142Y-50171428D02*
X34690476Y-50171428D01*
X34833333Y-50747619D02*
X34357142Y-50747619D01*
X34357142Y-49647619D01*
X34833333Y-49647619D01*
X35261904Y-50747619D02*
X35261904Y-49647619D01*
X35642857Y-49647619D01*
X35738095Y-49700000D01*
X35785714Y-49752380D01*
X35833333Y-49857142D01*
X35833333Y-50014285D01*
X35785714Y-50119047D01*
X35738095Y-50171428D01*
X35642857Y-50223809D01*
X35261904Y-50223809D01*
X36166666Y-49647619D02*
X36785714Y-49647619D01*
X36452380Y-50066666D01*
X36595238Y-50066666D01*
X36690476Y-50119047D01*
X36738095Y-50171428D01*
X36785714Y-50276190D01*
X36785714Y-50538095D01*
X36738095Y-50642857D01*
X36690476Y-50695238D01*
X36595238Y-50747619D01*
X36309523Y-50747619D01*
X36214285Y-50695238D01*
X36166666Y-50642857D01*
X37785714Y-50642857D02*
X37738095Y-50695238D01*
X37595238Y-50747619D01*
X37500000Y-50747619D01*
X37357142Y-50695238D01*
X37261904Y-50590476D01*
X37214285Y-50485714D01*
X37166666Y-50276190D01*
X37166666Y-50119047D01*
X37214285Y-49909523D01*
X37261904Y-49804761D01*
X37357142Y-49700000D01*
X37500000Y-49647619D01*
X37595238Y-49647619D01*
X37738095Y-49700000D01*
X37785714Y-49752380D01*
X38166666Y-49752380D02*
X38214285Y-49700000D01*
X38309523Y-49647619D01*
X38547619Y-49647619D01*
X38642857Y-49700000D01*
X38690476Y-49752380D01*
X38738095Y-49857142D01*
X38738095Y-49961904D01*
X38690476Y-50119047D01*
X38119047Y-50747619D01*
X38738095Y-50747619D01*
X39642857Y-49647619D02*
X39166666Y-49647619D01*
X39119047Y-50171428D01*
X39166666Y-50119047D01*
X39261904Y-50066666D01*
X39500000Y-50066666D01*
X39595238Y-50119047D01*
X39642857Y-50171428D01*
X39690476Y-50276190D01*
X39690476Y-50538095D01*
X39642857Y-50642857D01*
X39595238Y-50695238D01*
X39500000Y-50747619D01*
X39261904Y-50747619D01*
X39166666Y-50695238D01*
X39119047Y-50642857D01*
D13*
X17000000Y-57000000D02*
X17000000Y-17000000D01*
X57000000Y-57000000D02*
X17000000Y-57000000D01*
X57000000Y-17000000D02*
X57000000Y-57000000D01*
X17000000Y-17000000D02*
X57000000Y-17000000D01*
D12*
G04 #@! TO.C,U1*
X26825000Y-26825000D02*
X26825000Y-27800000D01*
X47175000Y-26825000D02*
X47175000Y-27875000D01*
X47175000Y-47175000D02*
X47175000Y-46125000D01*
X26825000Y-47175000D02*
X26825000Y-46125000D01*
X26825000Y-26825000D02*
X27875000Y-26825000D01*
X26825000Y-47175000D02*
X27875000Y-47175000D01*
X47175000Y-47175000D02*
X46125000Y-47175000D01*
X47175000Y-26825000D02*
X46125000Y-26825000D01*
X26825000Y-27800000D02*
X25525000Y-27800000D01*
G04 #@! TD*
G04 #@! TO.C,U1*
X36238095Y-41952380D02*
X36238095Y-42761904D01*
X36285714Y-42857142D01*
X36333333Y-42904761D01*
X36428571Y-42952380D01*
X36619047Y-42952380D01*
X36714285Y-42904761D01*
X36761904Y-42857142D01*
X36809523Y-42761904D01*
X36809523Y-41952380D01*
X37809523Y-42952380D02*
X37238095Y-42952380D01*
X37523809Y-42952380D02*
X37523809Y-41952380D01*
X37428571Y-42095238D01*
X37333333Y-42190476D01*
X37238095Y-42238095D01*
G04 #@! TD*
%LPC*%
D14*
G04 #@! TO.C,U1*
X38500000Y-37000000D02*
G75*
G03*
X38500000Y-37000000I-1500000J0D01*
G01*
G04 #@! TD*
D15*
G04 #@! TO.C,U1*
X26300000Y-28250000D03*
X26300000Y-28750000D03*
X26300000Y-29250000D03*
X26300000Y-29750000D03*
X26300000Y-30250000D03*
X26300000Y-30750000D03*
X26300000Y-31250000D03*
X26300000Y-31750000D03*
X26300000Y-32250000D03*
X26300000Y-32750000D03*
X26300000Y-33250000D03*
X26300000Y-33750000D03*
X26300000Y-34250000D03*
X26300000Y-34750000D03*
X26300000Y-35250000D03*
X26300000Y-35750000D03*
X26300000Y-36250000D03*
X26300000Y-36750000D03*
X26300000Y-37250000D03*
X26300000Y-37750000D03*
X26300000Y-38250000D03*
X26300000Y-38750000D03*
X26300000Y-39250000D03*
X26300000Y-39750000D03*
X26300000Y-40250000D03*
X26300000Y-40750000D03*
X26300000Y-41250000D03*
X26300000Y-41750000D03*
X26300000Y-42250000D03*
X26300000Y-42750000D03*
X26300000Y-43250000D03*
X26300000Y-43750000D03*
X26300000Y-44250000D03*
X26300000Y-44750000D03*
X26300000Y-45250000D03*
X26300000Y-45750000D03*
D16*
X28250000Y-47700000D03*
X28750000Y-47700000D03*
X29250000Y-47700000D03*
X29750000Y-47700000D03*
X30250000Y-47700000D03*
X30750000Y-47700000D03*
X31250000Y-47700000D03*
X31750000Y-47700000D03*
X32250000Y-47700000D03*
X32750000Y-47700000D03*
X33250000Y-47700000D03*
X33750000Y-47700000D03*
X34250000Y-47700000D03*
X34750000Y-47700000D03*
X35250000Y-47700000D03*
X35750000Y-47700000D03*
X36250000Y-47700000D03*
X36750000Y-47700000D03*
X37250000Y-47700000D03*
X37750000Y-47700000D03*
X38250000Y-47700000D03*
X38750000Y-47700000D03*
X39250000Y-47700000D03*
X39750000Y-47700000D03*
X40250000Y-47700000D03*
X40750000Y-47700000D03*
X41250000Y-47700000D03*
X41750000Y-47700000D03*
X42250000Y-47700000D03*
X42750000Y-47700000D03*
X43250000Y-47700000D03*
X43750000Y-47700000D03*
X44250000Y-47700000D03*
X44750000Y-47700000D03*
X45250000Y-47700000D03*
X45750000Y-47700000D03*
D15*
X47700000Y-45750000D03*
X47700000Y-45250000D03*
X47700000Y-44750000D03*
X47700000Y-44250000D03*
X47700000Y-43750000D03*
X47700000Y-43250000D03*
X47700000Y-42750000D03*
X47700000Y-42250000D03*
X47700000Y-41750000D03*
X47700000Y-41250000D03*
X47700000Y-40750000D03*
X47700000Y-40250000D03*
X47700000Y-39750000D03*
X47700000Y-39250000D03*
X47700000Y-38750000D03*
X47700000Y-38250000D03*
X47700000Y-37750000D03*
X47700000Y-37250000D03*
X47700000Y-36750000D03*
X47700000Y-36250000D03*
X47700000Y-35750000D03*
X47700000Y-35250000D03*
X47700000Y-34750000D03*
X47700000Y-34250000D03*
X47700000Y-33750000D03*
X47700000Y-33250000D03*
X47700000Y-32750000D03*
X47700000Y-32250000D03*
X47700000Y-31750000D03*
X47700000Y-31250000D03*
X47700000Y-30750000D03*
X47700000Y-30250000D03*
X47700000Y-29750000D03*
X47700000Y-29250000D03*
X47700000Y-28750000D03*
X47700000Y-28250000D03*
D16*
X45750000Y-26300000D03*
X45250000Y-26300000D03*
X44750000Y-26300000D03*
X44250000Y-26300000D03*
X43750000Y-26300000D03*
X43250000Y-26300000D03*
X42750000Y-26300000D03*
X42250000Y-26300000D03*
X41750000Y-26300000D03*
X41250000Y-26300000D03*
X40750000Y-26300000D03*
X40250000Y-26300000D03*
X39750000Y-26300000D03*
X39250000Y-26300000D03*
X38750000Y-26300000D03*
X38250000Y-26300000D03*
X37750000Y-26300000D03*
X37250000Y-26300000D03*
X36750000Y-26300000D03*
X36250000Y-26300000D03*
X35750000Y-26300000D03*
X35250000Y-26300000D03*
X34750000Y-26300000D03*
X34250000Y-26300000D03*
X33750000Y-26300000D03*
X33250000Y-26300000D03*
X32750000Y-26300000D03*
X32250000Y-26300000D03*
X31750000Y-26300000D03*
X31250000Y-26300000D03*
X30750000Y-26300000D03*
X30250000Y-26300000D03*
X29750000Y-26300000D03*
X29250000Y-26300000D03*
X28750000Y-26300000D03*
X28250000Y-26300000D03*
G04 #@! TD*
D17*
G04 #@! TO.C,J1*
X20000000Y-26000000D03*
D18*
X22000000Y-26000000D03*
X20000000Y-28000000D03*
X22000000Y-28000000D03*
X20000000Y-30000000D03*
X22000000Y-30000000D03*
X20000000Y-32000000D03*
X22000000Y-32000000D03*
X20000000Y-34000000D03*
X22000000Y-34000000D03*
X20000000Y-36000000D03*
X22000000Y-36000000D03*
X20000000Y-38000000D03*
X22000000Y-38000000D03*
X20000000Y-40000000D03*
X22000000Y-40000000D03*
X20000000Y-42000000D03*
X22000000Y-42000000D03*
X20000000Y-44000000D03*
X22000000Y-44000000D03*
X20000000Y-46000000D03*
X22000000Y-46000000D03*
X20000000Y-48000000D03*
X22000000Y-48000000D03*
G04 #@! TD*
D17*
G04 #@! TO.C,J2*
X26000000Y-54000000D03*
D18*
X26000000Y-52000000D03*
X28000000Y-54000000D03*
X28000000Y-52000000D03*
X30000000Y-54000000D03*
X30000000Y-52000000D03*
X32000000Y-54000000D03*
X32000000Y-52000000D03*
X34000000Y-54000000D03*
X34000000Y-52000000D03*
X36000000Y-54000000D03*
X36000000Y-52000000D03*
X38000000Y-54000000D03*
X38000000Y-52000000D03*
X40000000Y-54000000D03*
X40000000Y-52000000D03*
X42000000Y-54000000D03*
X42000000Y-52000000D03*
X44000000Y-54000000D03*
X44000000Y-52000000D03*
X46000000Y-54000000D03*
X46000000Y-52000000D03*
X48000000Y-54000000D03*
X48000000Y-52000000D03*
G04 #@! TD*
D17*
G04 #@! TO.C,J3*
X52000000Y-26000000D03*
D18*
X54000000Y-26000000D03*
X52000000Y-28000000D03*
X54000000Y-28000000D03*
X52000000Y-30000000D03*
X54000000Y-30000000D03*
X52000000Y-32000000D03*
X54000000Y-32000000D03*
X52000000Y-34000000D03*
X54000000Y-34000000D03*
X52000000Y-36000000D03*
X54000000Y-36000000D03*
X52000000Y-38000000D03*
X54000000Y-38000000D03*
X52000000Y-40000000D03*
X54000000Y-40000000D03*
X52000000Y-42000000D03*
X54000000Y-42000000D03*
X52000000Y-44000000D03*
X54000000Y-44000000D03*
X52000000Y-46000000D03*
X54000000Y-46000000D03*
X52000000Y-48000000D03*
X54000000Y-48000000D03*
G04 #@! TD*
D17*
G04 #@! TO.C,J4*
X26000000Y-21000000D03*
D18*
X26000000Y-19000000D03*
X28000000Y-21000000D03*
X28000000Y-19000000D03*
X30000000Y-21000000D03*
X30000000Y-19000000D03*
X32000000Y-21000000D03*
X32000000Y-19000000D03*
X34000000Y-21000000D03*
X34000000Y-19000000D03*
X36000000Y-21000000D03*
X36000000Y-19000000D03*
X38000000Y-21000000D03*
X38000000Y-19000000D03*
X40000000Y-21000000D03*
X40000000Y-19000000D03*
X42000000Y-21000000D03*
X42000000Y-19000000D03*
X44000000Y-21000000D03*
X44000000Y-19000000D03*
X46000000Y-21000000D03*
X46000000Y-19000000D03*
X48000000Y-21000000D03*
X48000000Y-19000000D03*
G04 #@! TD*
D19*
G04 #@! TO.C,MH4*
X53000000Y-53000000D03*
G04 #@! TD*
G04 #@! TO.C,MH3*
X21000000Y-53000000D03*
G04 #@! TD*
G04 #@! TO.C,MH1*
X21000000Y-21000000D03*
G04 #@! TD*
G04 #@! TO.C,MH2*
X53000000Y-21000000D03*
G04 #@! TD*
M02*
