%TF.GenerationSoftware,KiCad,Pcbnew,(5.0.0)*%
%TF.CreationDate,2020-04-09T18:14:40+01:00*%
%TF.ProjectId,HeikouBoxCore,4865696B6F75426F78436F72652E6B69,rev?*%
%TF.SameCoordinates,Original*%
%TF.FileFunction,Copper,L1,Top,Signal*%
%TF.FilePolarity,Positive*%
%FSLAX46Y46*%
G04 Gerber Fmt 4.6, Leading zero omitted, Abs format (unit mm)*
G04 Created by KiCad (PCBNEW (5.0.0)) date 04/09/20 18:14:40*
%MOMM*%
%LPD*%
G01*
G04 APERTURE LIST*
%ADD10C,0.150000*%
%ADD11O,1.350000X1.350000*%
%ADD12R,1.350000X1.350000*%
%ADD13R,1.550000X0.300000*%
%ADD14R,0.300000X1.550000*%
%ADD15R,6.000000X6.000000*%
%ADD16C,0.600000*%
%ADD17C,0.254000*%
%ADD18C,0.175000*%
%ADD19C,0.762000*%
%ADD20C,1.016000*%
%ADD21C,0.127000*%
G04 APERTURE END LIST*
D10*
X17000000Y-57000000D02*
X17000000Y-17000000D01*
X57000000Y-57000000D02*
X17000000Y-57000000D01*
X57000000Y-17000000D02*
X57000000Y-57000000D01*
X17000000Y-17000000D02*
X57000000Y-17000000D01*
D11*
X28000000Y-21250000D03*
X40000000Y-21250000D03*
X30000000Y-21250000D03*
X48000000Y-21250000D03*
X26000000Y-19250000D03*
D12*
X26000000Y-21250000D03*
D11*
X40000000Y-19250000D03*
X44000000Y-19250000D03*
X44000000Y-21250000D03*
X34000000Y-21250000D03*
X46000000Y-21250000D03*
X30000000Y-19250000D03*
X32000000Y-19250000D03*
X38000000Y-19250000D03*
X38000000Y-21250000D03*
X34000000Y-19250000D03*
X48000000Y-19250000D03*
X32000000Y-21250000D03*
X36000000Y-19250000D03*
X42000000Y-19250000D03*
X36000000Y-21250000D03*
X28000000Y-19250000D03*
X46000000Y-19250000D03*
X42000000Y-21250000D03*
X51750000Y-38000000D03*
X51750000Y-32000000D03*
X53750000Y-42000000D03*
X53750000Y-48000000D03*
X53750000Y-44000000D03*
X51750000Y-42000000D03*
X53750000Y-38000000D03*
X53750000Y-46000000D03*
X53750000Y-30000000D03*
X53750000Y-40000000D03*
X51750000Y-48000000D03*
X53750000Y-28000000D03*
X51750000Y-36000000D03*
D12*
X51750000Y-26000000D03*
D11*
X53750000Y-26000000D03*
X51750000Y-46000000D03*
X51750000Y-34000000D03*
X53750000Y-36000000D03*
X51750000Y-44000000D03*
X51750000Y-28000000D03*
X51750000Y-40000000D03*
X51750000Y-30000000D03*
X53750000Y-34000000D03*
X53750000Y-32000000D03*
X38000000Y-53750000D03*
X32000000Y-53750000D03*
X42000000Y-51750000D03*
X48000000Y-51750000D03*
X44000000Y-51750000D03*
X42000000Y-53750000D03*
X38000000Y-51750000D03*
X46000000Y-51750000D03*
X30000000Y-51750000D03*
X40000000Y-51750000D03*
X48000000Y-53750000D03*
X28000000Y-51750000D03*
X36000000Y-53750000D03*
D12*
X26000000Y-53750000D03*
D11*
X26000000Y-51750000D03*
X46000000Y-53750000D03*
X34000000Y-53750000D03*
X36000000Y-51750000D03*
X44000000Y-53750000D03*
X28000000Y-53750000D03*
X40000000Y-53750000D03*
X30000000Y-53750000D03*
X34000000Y-51750000D03*
X32000000Y-51750000D03*
X22250000Y-26000000D03*
X22250000Y-30000000D03*
X22250000Y-32000000D03*
X20250000Y-36000000D03*
X20250000Y-28000000D03*
D12*
X20250000Y-26000000D03*
D11*
X20250000Y-30000000D03*
X22250000Y-36000000D03*
X20250000Y-40000000D03*
X20250000Y-44000000D03*
X22250000Y-46000000D03*
X20250000Y-48000000D03*
X22250000Y-28000000D03*
X22250000Y-34000000D03*
X22250000Y-40000000D03*
X20250000Y-34000000D03*
X20250000Y-46000000D03*
X22250000Y-38000000D03*
X20250000Y-42000000D03*
X22250000Y-44000000D03*
X22250000Y-48000000D03*
X22250000Y-42000000D03*
X20250000Y-32000000D03*
X20250000Y-38000000D03*
D13*
X26300000Y-28250000D03*
X26300000Y-28750000D03*
X26300000Y-29250000D03*
X26300000Y-29750000D03*
X26300000Y-30250000D03*
X26300000Y-30750000D03*
X26300000Y-31250000D03*
X26300000Y-31750000D03*
X26300000Y-32250000D03*
X26300000Y-32750000D03*
X26300000Y-33250000D03*
X26300000Y-33750000D03*
X26300000Y-34250000D03*
X26300000Y-34750000D03*
X26300000Y-35250000D03*
X26300000Y-35750000D03*
X26300000Y-36250000D03*
X26300000Y-36750000D03*
X26300000Y-37250000D03*
X26300000Y-37750000D03*
X26300000Y-38250000D03*
X26300000Y-38750000D03*
X26300000Y-39250000D03*
X26300000Y-39750000D03*
X26300000Y-40250000D03*
X26300000Y-40750000D03*
X26300000Y-41250000D03*
X26300000Y-41750000D03*
X26300000Y-42250000D03*
X26300000Y-42750000D03*
X26300000Y-43250000D03*
X26300000Y-43750000D03*
X26300000Y-44250000D03*
X26300000Y-44750000D03*
X26300000Y-45250000D03*
X26300000Y-45750000D03*
D14*
X28250000Y-47700000D03*
X28750000Y-47700000D03*
X29250000Y-47700000D03*
X29750000Y-47700000D03*
X30250000Y-47700000D03*
X30750000Y-47700000D03*
X31250000Y-47700000D03*
X31750000Y-47700000D03*
X32250000Y-47700000D03*
X32750000Y-47700000D03*
X33250000Y-47700000D03*
X33750000Y-47700000D03*
X34250000Y-47700000D03*
X34750000Y-47700000D03*
X35250000Y-47700000D03*
X35750000Y-47700000D03*
X36250000Y-47700000D03*
X36750000Y-47700000D03*
X37250000Y-47700000D03*
X37750000Y-47700000D03*
X38250000Y-47700000D03*
X38750000Y-47700000D03*
X39250000Y-47700000D03*
X39750000Y-47700000D03*
X40250000Y-47700000D03*
X40750000Y-47700000D03*
X41250000Y-47700000D03*
X41750000Y-47700000D03*
X42250000Y-47700000D03*
X42750000Y-47700000D03*
X43250000Y-47700000D03*
X43750000Y-47700000D03*
X44250000Y-47700000D03*
X44750000Y-47700000D03*
X45250000Y-47700000D03*
X45750000Y-47700000D03*
D13*
X47700000Y-45750000D03*
X47700000Y-45250000D03*
X47700000Y-44750000D03*
X47700000Y-44250000D03*
X47700000Y-43750000D03*
X47700000Y-43250000D03*
X47700000Y-42750000D03*
X47700000Y-42250000D03*
X47700000Y-41750000D03*
X47700000Y-41250000D03*
X47700000Y-40750000D03*
X47700000Y-40250000D03*
X47700000Y-39750000D03*
X47700000Y-39250000D03*
X47700000Y-38750000D03*
X47700000Y-38250000D03*
X47700000Y-37750000D03*
X47700000Y-37250000D03*
X47700000Y-36750000D03*
X47700000Y-36250000D03*
X47700000Y-35750000D03*
X47700000Y-35250000D03*
X47700000Y-34750000D03*
X47700000Y-34250000D03*
X47700000Y-33750000D03*
X47700000Y-33250000D03*
X47700000Y-32750000D03*
X47700000Y-32250000D03*
X47700000Y-31750000D03*
X47700000Y-31250000D03*
X47700000Y-30750000D03*
X47700000Y-30250000D03*
X47700000Y-29750000D03*
X47700000Y-29250000D03*
X47700000Y-28750000D03*
X47700000Y-28250000D03*
D14*
X45750000Y-26300000D03*
X45250000Y-26300000D03*
X44750000Y-26300000D03*
X44250000Y-26300000D03*
X43750000Y-26300000D03*
X43250000Y-26300000D03*
X42750000Y-26300000D03*
X42250000Y-26300000D03*
X41750000Y-26300000D03*
X41250000Y-26300000D03*
X40750000Y-26300000D03*
X40250000Y-26300000D03*
X39750000Y-26300000D03*
X39250000Y-26300000D03*
X38750000Y-26300000D03*
X38250000Y-26300000D03*
X37750000Y-26300000D03*
X37250000Y-26300000D03*
X36750000Y-26300000D03*
X36250000Y-26300000D03*
X35750000Y-26300000D03*
X35250000Y-26300000D03*
X34750000Y-26300000D03*
X34250000Y-26300000D03*
X33750000Y-26300000D03*
X33250000Y-26300000D03*
X32750000Y-26300000D03*
X32250000Y-26300000D03*
X31750000Y-26300000D03*
X31250000Y-26300000D03*
X30750000Y-26300000D03*
X30250000Y-26300000D03*
X29750000Y-26300000D03*
X29250000Y-26300000D03*
X28750000Y-26300000D03*
X28250000Y-26300000D03*
D15*
X37000000Y-37000000D03*
D16*
X32250000Y-46250000D03*
X46250000Y-43250000D03*
X40000000Y-46250000D03*
X31500000Y-27750000D03*
X33250000Y-27750000D03*
X38250000Y-27750000D03*
X42500000Y-27750000D03*
X45750000Y-27750000D03*
X46250000Y-31250000D03*
X27750000Y-28250000D03*
X27750000Y-30250000D03*
X46250000Y-40250000D03*
X46250000Y-45750000D03*
X44750000Y-46250000D03*
X28250000Y-46250000D03*
X27750000Y-42750000D03*
X27750000Y-44500000D03*
X28750000Y-46250000D03*
X33500000Y-49000000D03*
X49000000Y-45250000D03*
X49000000Y-41500000D03*
X40500000Y-35000000D03*
X40500000Y-37000000D03*
X40500000Y-39000000D03*
X39000000Y-40500000D03*
X37000000Y-40500000D03*
X33500000Y-37000000D03*
X33500000Y-35000000D03*
X33500000Y-39000000D03*
X39000000Y-33500000D03*
X35000000Y-33500000D03*
X37000000Y-33500000D03*
X30276000Y-31684000D03*
X38500000Y-30250000D03*
X43750000Y-31750000D03*
X43750000Y-40750000D03*
X41250000Y-43750000D03*
X35000000Y-30250000D03*
X34750000Y-43750000D03*
X27500000Y-38250000D03*
X27500000Y-37250000D03*
X27750000Y-41500000D03*
X38000000Y-49000000D03*
X49000000Y-27750000D03*
X26500000Y-46500000D03*
X35000000Y-40500000D03*
X49000000Y-35500000D03*
X49000000Y-35000000D03*
X49000000Y-34500000D03*
X49000000Y-34000000D03*
X35000000Y-25000000D03*
X26500000Y-47250000D03*
X30250000Y-42750000D03*
X48500000Y-46500000D03*
X46750000Y-48000000D03*
X47750000Y-49000000D03*
X43750000Y-42000000D03*
X41500000Y-24750000D03*
X29000000Y-35250000D03*
X25000000Y-28500000D03*
X26250000Y-26500000D03*
X27250000Y-25500000D03*
X26500000Y-49250000D03*
X30500000Y-25000000D03*
X32500000Y-24750000D03*
X38750000Y-24750000D03*
X30000000Y-49000000D03*
X41000000Y-49000000D03*
X45000000Y-29000000D03*
X29000000Y-29250000D03*
X45000000Y-44750000D03*
X29000000Y-45000000D03*
X40500000Y-30250000D03*
X33000000Y-30250000D03*
X43750000Y-38750000D03*
X39250000Y-43750000D03*
X31500000Y-43750000D03*
X29000000Y-38500000D03*
X29000000Y-40250000D03*
D17*
X42500000Y-27750000D02*
X42250000Y-27500000D01*
X47700000Y-31250000D02*
X46250000Y-31250000D01*
X27750000Y-28250000D02*
X26250000Y-28250000D01*
X27750000Y-30250000D02*
X26250000Y-30250000D01*
X33250000Y-26300000D02*
X33250000Y-27750000D01*
X38250000Y-26300000D02*
X38250000Y-27750000D01*
X42250000Y-26300000D02*
X42250000Y-27500000D01*
X45750000Y-26300000D02*
X45750000Y-27750000D01*
X31250000Y-27500000D02*
X31500000Y-27750000D01*
X31250000Y-26300000D02*
X31250000Y-27500000D01*
X46250000Y-40250000D02*
X46076000Y-40268000D01*
X47700000Y-40250000D02*
X46250000Y-40250000D01*
X47700000Y-43250000D02*
X46250000Y-43250000D01*
X46138000Y-45768000D02*
X46250000Y-45750000D01*
X47700000Y-45750000D02*
X46250000Y-45750000D01*
X44630000Y-46286000D02*
X44750000Y-46250000D01*
X44750000Y-47700000D02*
X44750000Y-46250000D01*
X40250000Y-46500000D02*
X40000000Y-46250000D01*
X40250000Y-47700000D02*
X40250000Y-46500000D01*
X32250000Y-46250000D02*
X32250000Y-47700000D01*
X27250000Y-42250000D02*
X27750000Y-42750000D01*
X26300000Y-42250000D02*
X27250000Y-42250000D01*
X27500000Y-44750000D02*
X26300000Y-44750000D01*
X27750000Y-44500000D02*
X27500000Y-44750000D01*
X28250000Y-47700000D02*
X28250000Y-46250000D01*
X28750000Y-46250000D02*
X28750000Y-47700000D01*
X47750000Y-28200000D02*
X47700000Y-28250000D01*
X45250000Y-28750000D02*
X47750000Y-28750000D01*
X45000000Y-29000000D02*
X45250000Y-28750000D01*
X26250000Y-29250000D02*
X29000000Y-29250000D01*
X47700000Y-44750000D02*
X45000000Y-44750000D01*
X26300000Y-45250000D02*
X28750000Y-45250000D01*
X28750000Y-45250000D02*
X29000000Y-45000000D01*
D18*
X23750000Y-27500000D02*
X22250000Y-26000000D01*
X23750000Y-28250000D02*
X23750000Y-27500000D01*
X26300000Y-29750000D02*
X25250000Y-29750000D01*
X25250000Y-29750000D02*
X23750000Y-28250000D01*
X25500000Y-30750000D02*
X23250000Y-28500000D01*
X26300000Y-30750000D02*
X25500000Y-30750000D01*
X23250000Y-28500000D02*
X23250000Y-27500000D01*
X23250000Y-27500000D02*
X22750000Y-27000000D01*
X22750000Y-27000000D02*
X21250000Y-27000000D01*
X21250000Y-27000000D02*
X20250000Y-28000000D01*
X25500000Y-31250000D02*
X23750000Y-29500000D01*
X26300000Y-31250000D02*
X25500000Y-31250000D01*
X23750000Y-29500000D02*
X22250000Y-28000000D01*
X25500000Y-31750000D02*
X22750000Y-29000000D01*
X26300000Y-31750000D02*
X25500000Y-31750000D01*
X22750000Y-29000000D02*
X21250000Y-29000000D01*
X21250000Y-29000000D02*
X20250000Y-30000000D01*
X26300000Y-32250000D02*
X24500000Y-32250000D01*
X24500000Y-32250000D02*
X22250000Y-30000000D01*
X24500000Y-32750000D02*
X22750000Y-31000000D01*
X26300000Y-32750000D02*
X24500000Y-32750000D01*
X22750000Y-31000000D02*
X21250000Y-31000000D01*
X21250000Y-31000000D02*
X20250000Y-32000000D01*
X22250000Y-32000000D02*
X23500000Y-33250000D01*
X23500000Y-33250000D02*
X26300000Y-33250000D01*
X36750000Y-22500000D02*
X38000000Y-21250000D01*
X36750000Y-26300000D02*
X36750000Y-22500000D01*
X23250000Y-34000000D02*
X23500000Y-34250000D01*
X22250000Y-34000000D02*
X23250000Y-34000000D01*
X23500000Y-34250000D02*
X26300000Y-34250000D01*
X23000000Y-34750000D02*
X22750000Y-35000000D01*
X26300000Y-34750000D02*
X23000000Y-34750000D01*
X22750000Y-35000000D02*
X21250000Y-35000000D01*
X21250000Y-35000000D02*
X20250000Y-36000000D01*
X26300000Y-35250000D02*
X23000000Y-35250000D01*
X23000000Y-35250000D02*
X22250000Y-36000000D01*
X24000000Y-35750000D02*
X22750000Y-37000000D01*
X26300000Y-35750000D02*
X24000000Y-35750000D01*
X22750000Y-37000000D02*
X21250000Y-37000000D01*
X21250000Y-37000000D02*
X20250000Y-38000000D01*
D17*
X40630000Y-44952000D02*
X40690000Y-44892000D01*
X37630000Y-44904000D02*
X37642000Y-44892000D01*
D19*
X33000000Y-30250000D02*
X33000000Y-29000000D01*
D20*
X40500000Y-29000000D02*
X39250000Y-29000000D01*
X40500000Y-29000000D02*
X41750000Y-29000000D01*
X35250000Y-29000000D02*
X33000000Y-29000000D01*
X39250000Y-29000000D02*
X35250000Y-29000000D01*
X33000000Y-29000000D02*
X31250000Y-29000000D01*
D17*
X30750000Y-26300000D02*
X30750000Y-28500000D01*
X30750000Y-28500000D02*
X31250000Y-29000000D01*
X35250000Y-26300000D02*
X35250000Y-29000000D01*
X39250000Y-26300000D02*
X39250000Y-29000000D01*
X41750000Y-26300000D02*
X41750000Y-29000000D01*
D19*
X40500000Y-29000000D02*
X40500000Y-30250000D01*
D20*
X45000000Y-31000000D02*
X45000000Y-35750000D01*
X41750000Y-29000000D02*
X43000000Y-29000000D01*
X43000000Y-29000000D02*
X45000000Y-31000000D01*
D17*
X46671000Y-35750000D02*
X45000000Y-35750000D01*
X47700000Y-35750000D02*
X46671000Y-35750000D01*
X47700000Y-41750000D02*
X45000000Y-41750000D01*
D20*
X45000000Y-35750000D02*
X45000000Y-41750000D01*
D19*
X45000000Y-38750000D02*
X43750000Y-38750000D01*
D20*
X43000000Y-45000000D02*
X40750000Y-45000000D01*
X45000000Y-41750000D02*
X45000000Y-43000000D01*
X45000000Y-43000000D02*
X43000000Y-45000000D01*
D17*
X40750000Y-45000000D02*
X40750000Y-47700000D01*
X37750000Y-45000000D02*
X37750000Y-47700000D01*
D20*
X39250000Y-45000000D02*
X37750000Y-45000000D01*
X40750000Y-45000000D02*
X39250000Y-45000000D01*
D19*
X39250000Y-43750000D02*
X39250000Y-45000000D01*
D20*
X37750000Y-45000000D02*
X33250000Y-45000000D01*
D17*
X33250000Y-47700000D02*
X33250000Y-45000000D01*
X29750000Y-45750000D02*
X29750000Y-47700000D01*
X30500000Y-45000000D02*
X29750000Y-45750000D01*
D20*
X30500000Y-45000000D02*
X31500000Y-45000000D01*
X31500000Y-45000000D02*
X33250000Y-45000000D01*
D19*
X31500000Y-43750000D02*
X31500000Y-45000000D01*
D20*
X29000000Y-43500000D02*
X30500000Y-45000000D01*
X29000000Y-38500000D02*
X29000000Y-38500000D01*
X29000000Y-40750000D02*
X29000000Y-43500000D01*
D17*
X26300000Y-40750000D02*
X29000000Y-40750000D01*
D20*
X29000000Y-38500000D02*
X29000000Y-36500000D01*
D17*
X28750000Y-36250000D02*
X29000000Y-36500000D01*
X26300000Y-36250000D02*
X28750000Y-36250000D01*
D20*
X29000000Y-38500000D02*
X29000000Y-40250000D01*
X29000000Y-40250000D02*
X29000000Y-40750000D01*
D18*
X26300000Y-36750000D02*
X23500000Y-36750000D01*
X23500000Y-36750000D02*
X22250000Y-38000000D01*
X24000000Y-37750000D02*
X22750000Y-39000000D01*
X26300000Y-37750000D02*
X24000000Y-37750000D01*
X22750000Y-39000000D02*
X21250000Y-39000000D01*
X21250000Y-39000000D02*
X20250000Y-40000000D01*
X26300000Y-38750000D02*
X23500000Y-38750000D01*
X23500000Y-38750000D02*
X22250000Y-40000000D01*
X24500000Y-39250000D02*
X22750000Y-41000000D01*
X26300000Y-39250000D02*
X24500000Y-39250000D01*
X22750000Y-41000000D02*
X21250000Y-41000000D01*
X21250000Y-41000000D02*
X20250000Y-42000000D01*
X26300000Y-39750000D02*
X24500000Y-39750000D01*
X24500000Y-39750000D02*
X22250000Y-42000000D01*
X25500000Y-40250000D02*
X22750000Y-43000000D01*
X26300000Y-40250000D02*
X25500000Y-40250000D01*
X22750000Y-43000000D02*
X21250000Y-43000000D01*
X21250000Y-43000000D02*
X20250000Y-44000000D01*
X26300000Y-41750000D02*
X24500000Y-41750000D01*
X24500000Y-41750000D02*
X22250000Y-44000000D01*
X25000000Y-42750000D02*
X22750000Y-45000000D01*
X26300000Y-42750000D02*
X25000000Y-42750000D01*
X22750000Y-45000000D02*
X21250000Y-45000000D01*
X21250000Y-45000000D02*
X20250000Y-46000000D01*
X26300000Y-43250000D02*
X25000000Y-43250000D01*
X25000000Y-43250000D02*
X22250000Y-46000000D01*
X25500000Y-43750000D02*
X23250000Y-46000000D01*
X26300000Y-43750000D02*
X25500000Y-43750000D01*
X23250000Y-46000000D02*
X23250000Y-46500000D01*
X23250000Y-46500000D02*
X22750000Y-47000000D01*
X22750000Y-47000000D02*
X21250000Y-47000000D01*
X21250000Y-47000000D02*
X20250000Y-48000000D01*
X25500000Y-44250000D02*
X23750000Y-46000000D01*
X23750000Y-46000000D02*
X23750000Y-46500000D01*
X23750000Y-46500000D02*
X22922992Y-47327008D01*
X22922992Y-47327008D02*
X22250000Y-48000000D01*
X26300000Y-44250000D02*
X25500000Y-44250000D01*
X29250000Y-48500000D02*
X28172990Y-49577010D01*
X29250000Y-47700000D02*
X29250000Y-48500000D01*
X28172990Y-49577010D02*
X26000000Y-51750000D01*
X30750000Y-49250000D02*
X30250000Y-49750000D01*
X30750000Y-47700000D02*
X30750000Y-49250000D01*
X30250000Y-49750000D02*
X28500000Y-49750000D01*
X28500000Y-49750000D02*
X27000000Y-51250000D01*
X27000000Y-51250000D02*
X27000000Y-52750000D01*
X27000000Y-52750000D02*
X28000000Y-53750000D01*
X31250000Y-49250000D02*
X30250000Y-50250000D01*
X31250000Y-47700000D02*
X31250000Y-49250000D01*
X30250000Y-50250000D02*
X29500000Y-50250000D01*
X29500000Y-50250000D02*
X28000000Y-51750000D01*
X29000000Y-52750000D02*
X30000000Y-53750000D01*
X29000000Y-51250000D02*
X29000000Y-52750000D01*
X29500000Y-50750000D02*
X29000000Y-51250000D01*
X30250000Y-50750000D02*
X29500000Y-50750000D01*
X31750000Y-47700000D02*
X31750000Y-49250000D01*
X31750000Y-49250000D02*
X30250000Y-50750000D01*
X32750000Y-49000000D02*
X30000000Y-51750000D01*
X32750000Y-47700000D02*
X32750000Y-49000000D01*
X34250000Y-49250000D02*
X33750000Y-49750000D01*
X34250000Y-47700000D02*
X34250000Y-49250000D01*
X33750000Y-49750000D02*
X32500000Y-49750000D01*
X32500000Y-49750000D02*
X31000000Y-51250000D01*
X31000000Y-51250000D02*
X31000000Y-52750000D01*
X31000000Y-52750000D02*
X32000000Y-53750000D01*
X33500000Y-50250000D02*
X32000000Y-51750000D01*
X33750000Y-50250000D02*
X33500000Y-50250000D01*
X34750000Y-47700000D02*
X34750000Y-49250000D01*
X34750000Y-49250000D02*
X33750000Y-50250000D01*
X33000000Y-52750000D02*
X34000000Y-53750000D01*
X33000000Y-51250000D02*
X33000000Y-52750000D01*
X33500000Y-50750000D02*
X33000000Y-51250000D01*
X33750000Y-50750000D02*
X33500000Y-50750000D01*
X35250000Y-47700000D02*
X35250000Y-49250000D01*
X35250000Y-49250000D02*
X33750000Y-50750000D01*
X35750000Y-50000000D02*
X34000000Y-51750000D01*
X35750000Y-47700000D02*
X35750000Y-50000000D01*
X35000000Y-52750000D02*
X36000000Y-53750000D01*
X35000000Y-51250000D02*
X35000000Y-52750000D01*
X36250000Y-47700000D02*
X36250000Y-50000000D01*
X36250000Y-50000000D02*
X35000000Y-51250000D01*
X36750000Y-51000000D02*
X36000000Y-51750000D01*
X36750000Y-47700000D02*
X36750000Y-51000000D01*
X37000000Y-52750000D02*
X38000000Y-53750000D01*
X37000000Y-51250000D02*
X37000000Y-52750000D01*
X37250000Y-47700000D02*
X37250000Y-51000000D01*
X37250000Y-51000000D02*
X37000000Y-51250000D01*
X38750000Y-51000000D02*
X38000000Y-51750000D01*
X38750000Y-47700000D02*
X38750000Y-51000000D01*
X39000000Y-52750000D02*
X40000000Y-53750000D01*
X39000000Y-51250000D02*
X39000000Y-52750000D01*
X39250000Y-47700000D02*
X39250000Y-51000000D01*
X39250000Y-51000000D02*
X39000000Y-51250000D01*
X40000000Y-50750000D02*
X40000000Y-51750000D01*
X39750000Y-47700000D02*
X39750000Y-50500000D01*
X39750000Y-50500000D02*
X40000000Y-50750000D01*
X41000000Y-52750000D02*
X42000000Y-53750000D01*
X41000000Y-51250000D02*
X41000000Y-52750000D01*
X41750000Y-47700000D02*
X41750000Y-50500000D01*
X41750000Y-50500000D02*
X41000000Y-51250000D01*
X42000000Y-50750000D02*
X42000000Y-51750000D01*
X42250000Y-47700000D02*
X42250000Y-50500000D01*
X42250000Y-50500000D02*
X42000000Y-50750000D01*
X43000000Y-52750000D02*
X44000000Y-53750000D01*
X43000000Y-51250000D02*
X43000000Y-52750000D01*
X42750000Y-47700000D02*
X42750000Y-51000000D01*
X42750000Y-51000000D02*
X43000000Y-51250000D01*
X43250000Y-51000000D02*
X44000000Y-51750000D01*
X43250000Y-47700000D02*
X43250000Y-51000000D01*
X45000000Y-52750000D02*
X46000000Y-53750000D01*
X45000000Y-51250000D02*
X45000000Y-52750000D01*
X43750000Y-47700000D02*
X43750000Y-50000000D01*
X43750000Y-50000000D02*
X45000000Y-51250000D01*
X44250000Y-50000000D02*
X46000000Y-51750000D01*
X44250000Y-47700000D02*
X44250000Y-50000000D01*
X47000000Y-52750000D02*
X48000000Y-53750000D01*
X47000000Y-51250000D02*
X47000000Y-52750000D01*
X45250000Y-47700000D02*
X45250000Y-49500000D01*
X45250000Y-49500000D02*
X47000000Y-51250000D01*
X45750000Y-49500000D02*
X48000000Y-51750000D01*
X45750000Y-47700000D02*
X45750000Y-49500000D01*
X52750000Y-47000000D02*
X53750000Y-46000000D01*
X51250000Y-47000000D02*
X52750000Y-47000000D01*
X50750000Y-46500000D02*
X51250000Y-47000000D01*
X50750000Y-46000000D02*
X50750000Y-46500000D01*
X47700000Y-44250000D02*
X49000000Y-44250000D01*
X49000000Y-44250000D02*
X50750000Y-46000000D01*
X47700000Y-43750000D02*
X49500000Y-43750000D01*
X49500000Y-43750000D02*
X51750000Y-46000000D01*
X52750000Y-45000000D02*
X53750000Y-44000000D01*
X51250000Y-45000000D02*
X52750000Y-45000000D01*
X47700000Y-42750000D02*
X49000000Y-42750000D01*
X49000000Y-42750000D02*
X51250000Y-45000000D01*
X47700000Y-42250000D02*
X50000000Y-42250000D01*
X50000000Y-42250000D02*
X51750000Y-44000000D01*
X49250000Y-40750000D02*
X50750000Y-42250000D01*
X47700000Y-40750000D02*
X49250000Y-40750000D01*
X50750000Y-42250000D02*
X50750000Y-42500000D01*
X50750000Y-42500000D02*
X51250000Y-43000000D01*
X51250000Y-43000000D02*
X52750000Y-43000000D01*
X52750000Y-43000000D02*
X53750000Y-42000000D01*
X49500000Y-39750000D02*
X51750000Y-42000000D01*
X47700000Y-39750000D02*
X49500000Y-39750000D01*
X52750000Y-41000000D02*
X53750000Y-40000000D01*
X51250000Y-41000000D02*
X52750000Y-41000000D01*
X47700000Y-39250000D02*
X49500000Y-39250000D01*
X49500000Y-39250000D02*
X51250000Y-41000000D01*
X50500000Y-38750000D02*
X51750000Y-40000000D01*
X47700000Y-38750000D02*
X50500000Y-38750000D01*
X47700000Y-38250000D02*
X50500000Y-38250000D01*
X50500000Y-38250000D02*
X51250000Y-39000000D01*
X51250000Y-39000000D02*
X52750000Y-39000000D01*
X52750000Y-39000000D02*
X53750000Y-38000000D01*
X47700000Y-37750000D02*
X50500000Y-37750000D01*
X50500000Y-37750000D02*
X50750000Y-38000000D01*
X50750000Y-38000000D02*
X51750000Y-38000000D01*
X47700000Y-37250000D02*
X51000000Y-37250000D01*
X51000000Y-37250000D02*
X51250000Y-37000000D01*
X51250000Y-37000000D02*
X52750000Y-37000000D01*
X52750000Y-37000000D02*
X53750000Y-36000000D01*
X51000000Y-36750000D02*
X51750000Y-36000000D01*
X47700000Y-36750000D02*
X51000000Y-36750000D01*
X51000000Y-33250000D02*
X51750000Y-34000000D01*
X47700000Y-33250000D02*
X51000000Y-33250000D01*
X47700000Y-32750000D02*
X51000000Y-32750000D01*
X51000000Y-32750000D02*
X51250000Y-33000000D01*
X51250000Y-33000000D02*
X52750000Y-33000000D01*
X52750000Y-33000000D02*
X53750000Y-32000000D01*
X47700000Y-32250000D02*
X50500000Y-32250000D01*
X50500000Y-32250000D02*
X50750000Y-32000000D01*
X50750000Y-32000000D02*
X51750000Y-32000000D01*
X47700000Y-31750000D02*
X50500000Y-31750000D01*
X50500000Y-31750000D02*
X51250000Y-31000000D01*
X51250000Y-31000000D02*
X52750000Y-31000000D01*
X52750000Y-31000000D02*
X53750000Y-30000000D01*
X51000000Y-30750000D02*
X51750000Y-30000000D01*
X47700000Y-30750000D02*
X51000000Y-30750000D01*
X47700000Y-30250000D02*
X50000000Y-30250000D01*
X50000000Y-30250000D02*
X51250000Y-29000000D01*
X52750000Y-29000000D02*
X53750000Y-28000000D01*
X51250000Y-29000000D02*
X52750000Y-29000000D01*
X50000000Y-29750000D02*
X51750000Y-28000000D01*
X47700000Y-29750000D02*
X50000000Y-29750000D01*
X47700000Y-29250000D02*
X49000000Y-29250000D01*
X49000000Y-29250000D02*
X51250000Y-27000000D01*
X52750000Y-27000000D02*
X53750000Y-26000000D01*
X51250000Y-27000000D02*
X52750000Y-27000000D01*
X49000000Y-20250000D02*
X48000000Y-19250000D01*
X49000000Y-21750000D02*
X49000000Y-20250000D01*
X45250000Y-26300000D02*
X45250000Y-25500000D01*
X45250000Y-25500000D02*
X49000000Y-21750000D01*
X44750000Y-24500000D02*
X48000000Y-21250000D01*
X44750000Y-26300000D02*
X44750000Y-24500000D01*
X47000000Y-20250000D02*
X46000000Y-19250000D01*
X47000000Y-21750000D02*
X47000000Y-20250000D01*
X44250000Y-26300000D02*
X44250000Y-24500000D01*
X44250000Y-24500000D02*
X47000000Y-21750000D01*
X43750000Y-23500000D02*
X46000000Y-21250000D01*
X43750000Y-26300000D02*
X43750000Y-23500000D01*
X45000000Y-20250000D02*
X44000000Y-19250000D01*
X45000000Y-21750000D02*
X45000000Y-20250000D01*
X43250000Y-26300000D02*
X43250000Y-23500000D01*
X43250000Y-23500000D02*
X45000000Y-21750000D01*
X42750000Y-22500000D02*
X44000000Y-21250000D01*
X42750000Y-26300000D02*
X42750000Y-22500000D01*
X43000000Y-20250000D02*
X42000000Y-19250000D01*
X43000000Y-21750000D02*
X43000000Y-20250000D01*
X40750000Y-26300000D02*
X40750000Y-24000000D01*
X40750000Y-24000000D02*
X43000000Y-21750000D01*
X40250000Y-23000000D02*
X42000000Y-21250000D01*
X40250000Y-26300000D02*
X40250000Y-23000000D01*
X41000000Y-20250000D02*
X40000000Y-19250000D01*
X41000000Y-21750000D02*
X41000000Y-20250000D01*
X39750000Y-26300000D02*
X39750000Y-23000000D01*
X39750000Y-23000000D02*
X41000000Y-21750000D01*
X37750000Y-23500000D02*
X40000000Y-21250000D01*
X37750000Y-26300000D02*
X37750000Y-23500000D01*
X39000000Y-20250000D02*
X38000000Y-19250000D01*
X39000000Y-21750000D02*
X39000000Y-20250000D01*
X37250000Y-26300000D02*
X37250000Y-23500000D01*
X37250000Y-23500000D02*
X39000000Y-21750000D01*
X37000000Y-20250000D02*
X36000000Y-19250000D01*
X37000000Y-21750000D02*
X37000000Y-20250000D01*
X36250000Y-26300000D02*
X36250000Y-22500000D01*
X36250000Y-22500000D02*
X37000000Y-21750000D01*
X36000000Y-22250000D02*
X36000000Y-21750000D01*
X35750000Y-26300000D02*
X35750000Y-22500000D01*
X35750000Y-22500000D02*
X36000000Y-22250000D01*
X35000000Y-20250000D02*
X34000000Y-19250000D01*
X35000000Y-21750000D02*
X35000000Y-20250000D01*
X34250000Y-26300000D02*
X34250000Y-22500000D01*
X34250000Y-22500000D02*
X35000000Y-21750000D01*
X34000000Y-22250000D02*
X34000000Y-21750000D01*
X33750000Y-26300000D02*
X33750000Y-22500000D01*
X33750000Y-22500000D02*
X34000000Y-22250000D01*
X33000000Y-20250000D02*
X32000000Y-19250000D01*
X33000000Y-22250000D02*
X33000000Y-20250000D01*
X33250000Y-22500000D02*
X33000000Y-22250000D01*
X33250000Y-25000000D02*
X33250000Y-22500000D01*
X32750000Y-26300000D02*
X32750000Y-25500000D01*
X32750000Y-25500000D02*
X33250000Y-25000000D01*
X32000000Y-22250000D02*
X32000000Y-21750000D01*
X31750000Y-22500000D02*
X32000000Y-22250000D01*
X31750000Y-25000000D02*
X31750000Y-22500000D01*
X32250000Y-26300000D02*
X32250000Y-25500000D01*
X32250000Y-25500000D02*
X31750000Y-25000000D01*
X31750000Y-25500000D02*
X31750000Y-26300000D01*
X31250000Y-25000000D02*
X31750000Y-25500000D01*
X31250000Y-22000000D02*
X31250000Y-25000000D01*
X31000000Y-21750000D02*
X31250000Y-22000000D01*
X30000000Y-19250000D02*
X31000000Y-20250000D01*
X31000000Y-20250000D02*
X31000000Y-21750000D01*
X30000000Y-22250000D02*
X30000000Y-21750000D01*
X29750000Y-26300000D02*
X29750000Y-22500000D01*
X29750000Y-22500000D02*
X30000000Y-22250000D01*
X29000000Y-20250000D02*
X28000000Y-19250000D01*
X29000000Y-21750000D02*
X29000000Y-20250000D01*
X29250000Y-26300000D02*
X29250000Y-22000000D01*
X29250000Y-22000000D02*
X29000000Y-21750000D01*
X28750000Y-22000000D02*
X28000000Y-21250000D01*
X28750000Y-26300000D02*
X28750000Y-22000000D01*
X27000000Y-20250000D02*
X26000000Y-19250000D01*
X27000000Y-21750000D02*
X27000000Y-20250000D01*
X28250000Y-26300000D02*
X28250000Y-23000000D01*
X28250000Y-23000000D02*
X27000000Y-21750000D01*
X21250000Y-33000000D02*
X22750000Y-33000000D01*
X20250000Y-34000000D02*
X21250000Y-33000000D01*
X22750000Y-33000000D02*
X23500000Y-33750000D01*
X23500000Y-33750000D02*
X26300000Y-33750000D01*
X52750000Y-35000000D02*
X53750000Y-34000000D01*
X47700000Y-36250000D02*
X50000000Y-36250000D01*
X50000000Y-36250000D02*
X51250000Y-35000000D01*
X51250000Y-35000000D02*
X52750000Y-35000000D01*
D21*
G36*
X56436500Y-56436500D02*
X17563500Y-56436500D01*
X17563500Y-52634300D01*
X19161500Y-52634300D01*
X19161500Y-53365700D01*
X19441395Y-54041426D01*
X19958574Y-54558605D01*
X20634300Y-54838500D01*
X21365700Y-54838500D01*
X22041426Y-54558605D01*
X22558605Y-54041426D01*
X22838500Y-53365700D01*
X22838500Y-52634300D01*
X22558605Y-51958574D01*
X22041426Y-51441395D01*
X21365700Y-51161500D01*
X20634300Y-51161500D01*
X19958574Y-51441395D01*
X19441395Y-51958574D01*
X19161500Y-52634300D01*
X17563500Y-52634300D01*
X17563500Y-28000000D01*
X19318604Y-28000000D01*
X19389502Y-28356430D01*
X19591404Y-28658596D01*
X19893570Y-28860498D01*
X20160030Y-28913500D01*
X20339970Y-28913500D01*
X20606430Y-28860498D01*
X20908596Y-28658596D01*
X21110498Y-28356430D01*
X21181396Y-28000000D01*
X21110498Y-27643570D01*
X21093261Y-27617772D01*
X21385033Y-27326000D01*
X21614458Y-27326000D01*
X21591404Y-27341404D01*
X21389502Y-27643570D01*
X21318604Y-28000000D01*
X21389502Y-28356430D01*
X21591404Y-28658596D01*
X21614458Y-28674000D01*
X21282101Y-28674000D01*
X21250000Y-28667615D01*
X21217899Y-28674000D01*
X21217895Y-28674000D01*
X21122801Y-28692915D01*
X21014968Y-28764968D01*
X20996782Y-28792185D01*
X20632228Y-29156739D01*
X20606430Y-29139502D01*
X20339970Y-29086500D01*
X20160030Y-29086500D01*
X19893570Y-29139502D01*
X19591404Y-29341404D01*
X19389502Y-29643570D01*
X19318604Y-30000000D01*
X19389502Y-30356430D01*
X19591404Y-30658596D01*
X19893570Y-30860498D01*
X20160030Y-30913500D01*
X20339970Y-30913500D01*
X20606430Y-30860498D01*
X20908596Y-30658596D01*
X21110498Y-30356430D01*
X21181396Y-30000000D01*
X21110498Y-29643570D01*
X21093261Y-29617772D01*
X21385033Y-29326000D01*
X21614458Y-29326000D01*
X21591404Y-29341404D01*
X21389502Y-29643570D01*
X21318604Y-30000000D01*
X21389502Y-30356430D01*
X21591404Y-30658596D01*
X21614458Y-30674000D01*
X21282101Y-30674000D01*
X21250000Y-30667615D01*
X21217899Y-30674000D01*
X21217895Y-30674000D01*
X21122801Y-30692915D01*
X21014968Y-30764968D01*
X20996782Y-30792185D01*
X20632228Y-31156739D01*
X20606430Y-31139502D01*
X20339970Y-31086500D01*
X20160030Y-31086500D01*
X19893570Y-31139502D01*
X19591404Y-31341404D01*
X19389502Y-31643570D01*
X19318604Y-32000000D01*
X19389502Y-32356430D01*
X19591404Y-32658596D01*
X19893570Y-32860498D01*
X20160030Y-32913500D01*
X20339970Y-32913500D01*
X20606430Y-32860498D01*
X20908596Y-32658596D01*
X21110498Y-32356430D01*
X21181396Y-32000000D01*
X21110498Y-31643570D01*
X21093261Y-31617772D01*
X21385033Y-31326000D01*
X21614458Y-31326000D01*
X21591404Y-31341404D01*
X21389502Y-31643570D01*
X21318604Y-32000000D01*
X21389502Y-32356430D01*
X21591404Y-32658596D01*
X21614458Y-32674000D01*
X21282101Y-32674000D01*
X21250000Y-32667615D01*
X21217899Y-32674000D01*
X21217895Y-32674000D01*
X21122801Y-32692915D01*
X21014968Y-32764968D01*
X20996783Y-32792184D01*
X20632228Y-33156739D01*
X20606430Y-33139502D01*
X20339970Y-33086500D01*
X20160030Y-33086500D01*
X19893570Y-33139502D01*
X19591404Y-33341404D01*
X19389502Y-33643570D01*
X19318604Y-34000000D01*
X19389502Y-34356430D01*
X19591404Y-34658596D01*
X19893570Y-34860498D01*
X20160030Y-34913500D01*
X20339970Y-34913500D01*
X20606430Y-34860498D01*
X20908596Y-34658596D01*
X21110498Y-34356430D01*
X21181396Y-34000000D01*
X21110498Y-33643570D01*
X21093261Y-33617772D01*
X21385033Y-33326000D01*
X21614458Y-33326000D01*
X21591404Y-33341404D01*
X21389502Y-33643570D01*
X21318604Y-34000000D01*
X21389502Y-34356430D01*
X21591404Y-34658596D01*
X21614458Y-34674000D01*
X21282101Y-34674000D01*
X21250000Y-34667615D01*
X21217899Y-34674000D01*
X21217895Y-34674000D01*
X21122801Y-34692915D01*
X21014968Y-34764968D01*
X20996782Y-34792185D01*
X20632228Y-35156739D01*
X20606430Y-35139502D01*
X20339970Y-35086500D01*
X20160030Y-35086500D01*
X19893570Y-35139502D01*
X19591404Y-35341404D01*
X19389502Y-35643570D01*
X19318604Y-36000000D01*
X19389502Y-36356430D01*
X19591404Y-36658596D01*
X19893570Y-36860498D01*
X20160030Y-36913500D01*
X20339970Y-36913500D01*
X20606430Y-36860498D01*
X20908596Y-36658596D01*
X21110498Y-36356430D01*
X21181396Y-36000000D01*
X21110498Y-35643570D01*
X21093261Y-35617772D01*
X21385033Y-35326000D01*
X21614458Y-35326000D01*
X21591404Y-35341404D01*
X21389502Y-35643570D01*
X21318604Y-36000000D01*
X21389502Y-36356430D01*
X21591404Y-36658596D01*
X21614458Y-36674000D01*
X21282101Y-36674000D01*
X21250000Y-36667615D01*
X21217899Y-36674000D01*
X21217895Y-36674000D01*
X21122801Y-36692915D01*
X21014968Y-36764968D01*
X20996782Y-36792185D01*
X20632228Y-37156739D01*
X20606430Y-37139502D01*
X20339970Y-37086500D01*
X20160030Y-37086500D01*
X19893570Y-37139502D01*
X19591404Y-37341404D01*
X19389502Y-37643570D01*
X19318604Y-38000000D01*
X19389502Y-38356430D01*
X19591404Y-38658596D01*
X19893570Y-38860498D01*
X20160030Y-38913500D01*
X20339970Y-38913500D01*
X20606430Y-38860498D01*
X20908596Y-38658596D01*
X21110498Y-38356430D01*
X21181396Y-38000000D01*
X21110498Y-37643570D01*
X21093261Y-37617772D01*
X21385033Y-37326000D01*
X21614458Y-37326000D01*
X21591404Y-37341404D01*
X21389502Y-37643570D01*
X21318604Y-38000000D01*
X21389502Y-38356430D01*
X21591404Y-38658596D01*
X21614458Y-38674000D01*
X21282101Y-38674000D01*
X21250000Y-38667615D01*
X21217899Y-38674000D01*
X21217895Y-38674000D01*
X21122801Y-38692915D01*
X21014968Y-38764968D01*
X20996783Y-38792184D01*
X20632228Y-39156739D01*
X20606430Y-39139502D01*
X20339970Y-39086500D01*
X20160030Y-39086500D01*
X19893570Y-39139502D01*
X19591404Y-39341404D01*
X19389502Y-39643570D01*
X19318604Y-40000000D01*
X19389502Y-40356430D01*
X19591404Y-40658596D01*
X19893570Y-40860498D01*
X20160030Y-40913500D01*
X20339970Y-40913500D01*
X20606430Y-40860498D01*
X20908596Y-40658596D01*
X21110498Y-40356430D01*
X21181396Y-40000000D01*
X21110498Y-39643570D01*
X21093261Y-39617772D01*
X21385033Y-39326000D01*
X21614458Y-39326000D01*
X21591404Y-39341404D01*
X21389502Y-39643570D01*
X21318604Y-40000000D01*
X21389502Y-40356430D01*
X21591404Y-40658596D01*
X21614458Y-40674000D01*
X21282101Y-40674000D01*
X21250000Y-40667615D01*
X21217899Y-40674000D01*
X21217895Y-40674000D01*
X21122801Y-40692915D01*
X21014968Y-40764968D01*
X20996782Y-40792185D01*
X20632228Y-41156739D01*
X20606430Y-41139502D01*
X20339970Y-41086500D01*
X20160030Y-41086500D01*
X19893570Y-41139502D01*
X19591404Y-41341404D01*
X19389502Y-41643570D01*
X19318604Y-42000000D01*
X19389502Y-42356430D01*
X19591404Y-42658596D01*
X19893570Y-42860498D01*
X20160030Y-42913500D01*
X20339970Y-42913500D01*
X20606430Y-42860498D01*
X20908596Y-42658596D01*
X21110498Y-42356430D01*
X21181396Y-42000000D01*
X21110498Y-41643570D01*
X21093261Y-41617772D01*
X21385033Y-41326000D01*
X21614458Y-41326000D01*
X21591404Y-41341404D01*
X21389502Y-41643570D01*
X21318604Y-42000000D01*
X21389502Y-42356430D01*
X21591404Y-42658596D01*
X21614458Y-42674000D01*
X21282101Y-42674000D01*
X21250000Y-42667615D01*
X21217899Y-42674000D01*
X21217895Y-42674000D01*
X21122801Y-42692915D01*
X21014968Y-42764968D01*
X20996782Y-42792185D01*
X20632228Y-43156739D01*
X20606430Y-43139502D01*
X20339970Y-43086500D01*
X20160030Y-43086500D01*
X19893570Y-43139502D01*
X19591404Y-43341404D01*
X19389502Y-43643570D01*
X19318604Y-44000000D01*
X19389502Y-44356430D01*
X19591404Y-44658596D01*
X19893570Y-44860498D01*
X20160030Y-44913500D01*
X20339970Y-44913500D01*
X20606430Y-44860498D01*
X20908596Y-44658596D01*
X21110498Y-44356430D01*
X21181396Y-44000000D01*
X21110498Y-43643570D01*
X21093261Y-43617772D01*
X21385033Y-43326000D01*
X21614458Y-43326000D01*
X21591404Y-43341404D01*
X21389502Y-43643570D01*
X21318604Y-44000000D01*
X21389502Y-44356430D01*
X21591404Y-44658596D01*
X21614458Y-44674000D01*
X21282101Y-44674000D01*
X21250000Y-44667615D01*
X21217899Y-44674000D01*
X21217895Y-44674000D01*
X21122801Y-44692915D01*
X21014968Y-44764968D01*
X20996782Y-44792185D01*
X20632228Y-45156739D01*
X20606430Y-45139502D01*
X20339970Y-45086500D01*
X20160030Y-45086500D01*
X19893570Y-45139502D01*
X19591404Y-45341404D01*
X19389502Y-45643570D01*
X19318604Y-46000000D01*
X19389502Y-46356430D01*
X19591404Y-46658596D01*
X19893570Y-46860498D01*
X20160030Y-46913500D01*
X20339970Y-46913500D01*
X20606430Y-46860498D01*
X20908596Y-46658596D01*
X21110498Y-46356430D01*
X21181396Y-46000000D01*
X21110498Y-45643570D01*
X21093261Y-45617772D01*
X21385033Y-45326000D01*
X21614458Y-45326000D01*
X21591404Y-45341404D01*
X21389502Y-45643570D01*
X21318604Y-46000000D01*
X21389502Y-46356430D01*
X21591404Y-46658596D01*
X21614458Y-46674000D01*
X21282101Y-46674000D01*
X21250000Y-46667615D01*
X21217899Y-46674000D01*
X21217895Y-46674000D01*
X21122801Y-46692915D01*
X21014968Y-46764968D01*
X20996782Y-46792185D01*
X20632228Y-47156739D01*
X20606430Y-47139502D01*
X20339970Y-47086500D01*
X20160030Y-47086500D01*
X19893570Y-47139502D01*
X19591404Y-47341404D01*
X19389502Y-47643570D01*
X19318604Y-48000000D01*
X19389502Y-48356430D01*
X19591404Y-48658596D01*
X19893570Y-48860498D01*
X20160030Y-48913500D01*
X20339970Y-48913500D01*
X20606430Y-48860498D01*
X20908596Y-48658596D01*
X21110498Y-48356430D01*
X21181396Y-48000000D01*
X21110498Y-47643570D01*
X21093261Y-47617772D01*
X21385033Y-47326000D01*
X21614458Y-47326000D01*
X21591404Y-47341404D01*
X21389502Y-47643570D01*
X21318604Y-48000000D01*
X21389502Y-48356430D01*
X21591404Y-48658596D01*
X21893570Y-48860498D01*
X22160030Y-48913500D01*
X22339970Y-48913500D01*
X22606430Y-48860498D01*
X22908596Y-48658596D01*
X23110498Y-48356430D01*
X23181396Y-48000000D01*
X23110498Y-47643570D01*
X23093261Y-47617773D01*
X23176210Y-47534824D01*
X23176212Y-47534821D01*
X23957817Y-46753217D01*
X23985032Y-46735032D01*
X24003216Y-46707818D01*
X24003218Y-46707816D01*
X24057085Y-46627199D01*
X24057085Y-46627198D01*
X24076000Y-46532105D01*
X24076000Y-46532101D01*
X24082385Y-46500000D01*
X24076000Y-46467899D01*
X24076000Y-46135033D01*
X24338408Y-45872625D01*
X25334500Y-45872625D01*
X25334500Y-45937893D01*
X25363502Y-46007909D01*
X25417090Y-46061498D01*
X25487107Y-46090500D01*
X26061875Y-46090500D01*
X26109500Y-46042875D01*
X26109500Y-45825000D01*
X26490500Y-45825000D01*
X26490500Y-46042875D01*
X26538125Y-46090500D01*
X27112893Y-46090500D01*
X27182910Y-46061498D01*
X27236498Y-46007909D01*
X27265500Y-45937893D01*
X27265500Y-45872625D01*
X27217875Y-45825000D01*
X26490500Y-45825000D01*
X26109500Y-45825000D01*
X25382125Y-45825000D01*
X25334500Y-45872625D01*
X24338408Y-45872625D01*
X25286673Y-44924360D01*
X25300338Y-44993058D01*
X25304976Y-45000000D01*
X25300338Y-45006942D01*
X25281828Y-45100000D01*
X25281828Y-45400000D01*
X25300338Y-45493058D01*
X25339083Y-45551044D01*
X25334500Y-45562107D01*
X25334500Y-45627375D01*
X25382125Y-45675000D01*
X26109500Y-45675000D01*
X26109500Y-45643172D01*
X26490500Y-45643172D01*
X26490500Y-45675000D01*
X27217875Y-45675000D01*
X27265500Y-45627375D01*
X27265500Y-45615500D01*
X28714008Y-45615500D01*
X28750000Y-45622659D01*
X28785992Y-45615500D01*
X28785996Y-45615500D01*
X28892611Y-45594293D01*
X28976110Y-45538500D01*
X29107114Y-45538500D01*
X29305036Y-45456518D01*
X29456518Y-45305036D01*
X29538500Y-45107114D01*
X29538500Y-45094210D01*
X29713698Y-45269408D01*
X29517007Y-45466099D01*
X29486490Y-45486490D01*
X29405707Y-45607390D01*
X29384500Y-45714005D01*
X29384500Y-45714008D01*
X29377341Y-45750000D01*
X29384500Y-45785992D01*
X29384500Y-46681828D01*
X29115500Y-46681828D01*
X29115500Y-46646054D01*
X29206518Y-46555036D01*
X29288500Y-46357114D01*
X29288500Y-46142886D01*
X29206518Y-45944964D01*
X29055036Y-45793482D01*
X28857114Y-45711500D01*
X28642886Y-45711500D01*
X28500000Y-45770685D01*
X28357114Y-45711500D01*
X28142886Y-45711500D01*
X27944964Y-45793482D01*
X27793482Y-45944964D01*
X27711500Y-46142886D01*
X27711500Y-46357114D01*
X27793482Y-46555036D01*
X27884501Y-46646055D01*
X27884501Y-46818229D01*
X27875338Y-46831942D01*
X27856828Y-46925000D01*
X27856828Y-48475000D01*
X27875338Y-48568058D01*
X27928051Y-48646949D01*
X28006942Y-48699662D01*
X28100000Y-48718172D01*
X28400000Y-48718172D01*
X28493058Y-48699662D01*
X28500000Y-48695024D01*
X28506942Y-48699662D01*
X28575640Y-48713327D01*
X27965177Y-49323790D01*
X27965174Y-49323792D01*
X26382227Y-50906739D01*
X26356430Y-50889502D01*
X26089970Y-50836500D01*
X25910030Y-50836500D01*
X25643570Y-50889502D01*
X25341404Y-51091404D01*
X25139502Y-51393570D01*
X25068604Y-51750000D01*
X25139502Y-52106430D01*
X25341404Y-52408596D01*
X25643570Y-52610498D01*
X25910030Y-52663500D01*
X26089970Y-52663500D01*
X26356430Y-52610498D01*
X26658596Y-52408596D01*
X26674001Y-52385541D01*
X26674001Y-52717894D01*
X26667615Y-52750000D01*
X26684257Y-52833669D01*
X26675000Y-52831828D01*
X25325000Y-52831828D01*
X25231942Y-52850338D01*
X25153051Y-52903051D01*
X25100338Y-52981942D01*
X25081828Y-53075000D01*
X25081828Y-54425000D01*
X25100338Y-54518058D01*
X25153051Y-54596949D01*
X25231942Y-54649662D01*
X25325000Y-54668172D01*
X26675000Y-54668172D01*
X26768058Y-54649662D01*
X26846949Y-54596949D01*
X26899662Y-54518058D01*
X26918172Y-54425000D01*
X26918172Y-53129205D01*
X27156739Y-53367772D01*
X27139502Y-53393570D01*
X27068604Y-53750000D01*
X27139502Y-54106430D01*
X27341404Y-54408596D01*
X27643570Y-54610498D01*
X27910030Y-54663500D01*
X28089970Y-54663500D01*
X28356430Y-54610498D01*
X28658596Y-54408596D01*
X28860498Y-54106430D01*
X28931396Y-53750000D01*
X28860498Y-53393570D01*
X28658596Y-53091404D01*
X28356430Y-52889502D01*
X28089970Y-52836500D01*
X27910030Y-52836500D01*
X27643570Y-52889502D01*
X27617772Y-52906739D01*
X27326000Y-52614967D01*
X27326000Y-52385542D01*
X27341404Y-52408596D01*
X27643570Y-52610498D01*
X27910030Y-52663500D01*
X28089970Y-52663500D01*
X28356430Y-52610498D01*
X28658596Y-52408596D01*
X28674001Y-52385541D01*
X28674001Y-52717894D01*
X28667615Y-52750000D01*
X28692915Y-52877198D01*
X28746782Y-52957815D01*
X28746785Y-52957818D01*
X28764969Y-52985032D01*
X28792183Y-53003216D01*
X29156739Y-53367772D01*
X29139502Y-53393570D01*
X29068604Y-53750000D01*
X29139502Y-54106430D01*
X29341404Y-54408596D01*
X29643570Y-54610498D01*
X29910030Y-54663500D01*
X30089970Y-54663500D01*
X30356430Y-54610498D01*
X30658596Y-54408596D01*
X30860498Y-54106430D01*
X30931396Y-53750000D01*
X30860498Y-53393570D01*
X30658596Y-53091404D01*
X30356430Y-52889502D01*
X30089970Y-52836500D01*
X29910030Y-52836500D01*
X29643570Y-52889502D01*
X29617772Y-52906739D01*
X29326000Y-52614967D01*
X29326000Y-52385542D01*
X29341404Y-52408596D01*
X29643570Y-52610498D01*
X29910030Y-52663500D01*
X30089970Y-52663500D01*
X30356430Y-52610498D01*
X30658596Y-52408596D01*
X30674001Y-52385541D01*
X30674001Y-52717894D01*
X30667615Y-52750000D01*
X30692915Y-52877198D01*
X30746782Y-52957815D01*
X30746785Y-52957818D01*
X30764969Y-52985032D01*
X30792183Y-53003216D01*
X31156739Y-53367772D01*
X31139502Y-53393570D01*
X31068604Y-53750000D01*
X31139502Y-54106430D01*
X31341404Y-54408596D01*
X31643570Y-54610498D01*
X31910030Y-54663500D01*
X32089970Y-54663500D01*
X32356430Y-54610498D01*
X32658596Y-54408596D01*
X32860498Y-54106430D01*
X32931396Y-53750000D01*
X32860498Y-53393570D01*
X32658596Y-53091404D01*
X32356430Y-52889502D01*
X32089970Y-52836500D01*
X31910030Y-52836500D01*
X31643570Y-52889502D01*
X31617772Y-52906739D01*
X31326000Y-52614967D01*
X31326000Y-52385542D01*
X31341404Y-52408596D01*
X31643570Y-52610498D01*
X31910030Y-52663500D01*
X32089970Y-52663500D01*
X32356430Y-52610498D01*
X32658596Y-52408596D01*
X32674001Y-52385541D01*
X32674001Y-52717894D01*
X32667615Y-52750000D01*
X32692915Y-52877198D01*
X32746782Y-52957815D01*
X32746785Y-52957818D01*
X32764969Y-52985032D01*
X32792183Y-53003216D01*
X33156739Y-53367772D01*
X33139502Y-53393570D01*
X33068604Y-53750000D01*
X33139502Y-54106430D01*
X33341404Y-54408596D01*
X33643570Y-54610498D01*
X33910030Y-54663500D01*
X34089970Y-54663500D01*
X34356430Y-54610498D01*
X34658596Y-54408596D01*
X34860498Y-54106430D01*
X34931396Y-53750000D01*
X34860498Y-53393570D01*
X34658596Y-53091404D01*
X34356430Y-52889502D01*
X34089970Y-52836500D01*
X33910030Y-52836500D01*
X33643570Y-52889502D01*
X33617772Y-52906739D01*
X33326000Y-52614967D01*
X33326000Y-52385542D01*
X33341404Y-52408596D01*
X33643570Y-52610498D01*
X33910030Y-52663500D01*
X34089970Y-52663500D01*
X34356430Y-52610498D01*
X34658596Y-52408596D01*
X34674001Y-52385541D01*
X34674001Y-52717894D01*
X34667615Y-52750000D01*
X34692915Y-52877198D01*
X34746782Y-52957815D01*
X34746785Y-52957818D01*
X34764969Y-52985032D01*
X34792183Y-53003216D01*
X35156739Y-53367772D01*
X35139502Y-53393570D01*
X35068604Y-53750000D01*
X35139502Y-54106430D01*
X35341404Y-54408596D01*
X35643570Y-54610498D01*
X35910030Y-54663500D01*
X36089970Y-54663500D01*
X36356430Y-54610498D01*
X36658596Y-54408596D01*
X36860498Y-54106430D01*
X36931396Y-53750000D01*
X36860498Y-53393570D01*
X36658596Y-53091404D01*
X36356430Y-52889502D01*
X36089970Y-52836500D01*
X35910030Y-52836500D01*
X35643570Y-52889502D01*
X35617772Y-52906739D01*
X35326000Y-52614967D01*
X35326000Y-52385542D01*
X35341404Y-52408596D01*
X35643570Y-52610498D01*
X35910030Y-52663500D01*
X36089970Y-52663500D01*
X36356430Y-52610498D01*
X36658596Y-52408596D01*
X36674001Y-52385541D01*
X36674001Y-52717894D01*
X36667615Y-52750000D01*
X36692915Y-52877198D01*
X36746782Y-52957815D01*
X36746785Y-52957818D01*
X36764969Y-52985032D01*
X36792183Y-53003216D01*
X37156739Y-53367772D01*
X37139502Y-53393570D01*
X37068604Y-53750000D01*
X37139502Y-54106430D01*
X37341404Y-54408596D01*
X37643570Y-54610498D01*
X37910030Y-54663500D01*
X38089970Y-54663500D01*
X38356430Y-54610498D01*
X38658596Y-54408596D01*
X38860498Y-54106430D01*
X38931396Y-53750000D01*
X38860498Y-53393570D01*
X38658596Y-53091404D01*
X38356430Y-52889502D01*
X38089970Y-52836500D01*
X37910030Y-52836500D01*
X37643570Y-52889502D01*
X37617772Y-52906739D01*
X37326000Y-52614967D01*
X37326000Y-52385542D01*
X37341404Y-52408596D01*
X37643570Y-52610498D01*
X37910030Y-52663500D01*
X38089970Y-52663500D01*
X38356430Y-52610498D01*
X38658596Y-52408596D01*
X38674001Y-52385541D01*
X38674001Y-52717894D01*
X38667615Y-52750000D01*
X38692915Y-52877198D01*
X38746782Y-52957815D01*
X38746785Y-52957818D01*
X38764969Y-52985032D01*
X38792183Y-53003216D01*
X39156739Y-53367772D01*
X39139502Y-53393570D01*
X39068604Y-53750000D01*
X39139502Y-54106430D01*
X39341404Y-54408596D01*
X39643570Y-54610498D01*
X39910030Y-54663500D01*
X40089970Y-54663500D01*
X40356430Y-54610498D01*
X40658596Y-54408596D01*
X40860498Y-54106430D01*
X40931396Y-53750000D01*
X40860498Y-53393570D01*
X40658596Y-53091404D01*
X40356430Y-52889502D01*
X40089970Y-52836500D01*
X39910030Y-52836500D01*
X39643570Y-52889502D01*
X39617772Y-52906739D01*
X39326000Y-52614967D01*
X39326000Y-52385542D01*
X39341404Y-52408596D01*
X39643570Y-52610498D01*
X39910030Y-52663500D01*
X40089970Y-52663500D01*
X40356430Y-52610498D01*
X40658596Y-52408596D01*
X40674001Y-52385541D01*
X40674001Y-52717894D01*
X40667615Y-52750000D01*
X40692915Y-52877198D01*
X40746782Y-52957815D01*
X40746785Y-52957818D01*
X40764969Y-52985032D01*
X40792183Y-53003216D01*
X41156739Y-53367772D01*
X41139502Y-53393570D01*
X41068604Y-53750000D01*
X41139502Y-54106430D01*
X41341404Y-54408596D01*
X41643570Y-54610498D01*
X41910030Y-54663500D01*
X42089970Y-54663500D01*
X42356430Y-54610498D01*
X42658596Y-54408596D01*
X42860498Y-54106430D01*
X42931396Y-53750000D01*
X42860498Y-53393570D01*
X42658596Y-53091404D01*
X42356430Y-52889502D01*
X42089970Y-52836500D01*
X41910030Y-52836500D01*
X41643570Y-52889502D01*
X41617772Y-52906739D01*
X41326000Y-52614967D01*
X41326000Y-52385542D01*
X41341404Y-52408596D01*
X41643570Y-52610498D01*
X41910030Y-52663500D01*
X42089970Y-52663500D01*
X42356430Y-52610498D01*
X42658596Y-52408596D01*
X42674001Y-52385541D01*
X42674001Y-52717894D01*
X42667615Y-52750000D01*
X42692915Y-52877198D01*
X42746782Y-52957815D01*
X42746785Y-52957818D01*
X42764969Y-52985032D01*
X42792183Y-53003216D01*
X43156739Y-53367772D01*
X43139502Y-53393570D01*
X43068604Y-53750000D01*
X43139502Y-54106430D01*
X43341404Y-54408596D01*
X43643570Y-54610498D01*
X43910030Y-54663500D01*
X44089970Y-54663500D01*
X44356430Y-54610498D01*
X44658596Y-54408596D01*
X44860498Y-54106430D01*
X44931396Y-53750000D01*
X44860498Y-53393570D01*
X44658596Y-53091404D01*
X44356430Y-52889502D01*
X44089970Y-52836500D01*
X43910030Y-52836500D01*
X43643570Y-52889502D01*
X43617772Y-52906739D01*
X43326000Y-52614967D01*
X43326000Y-52385542D01*
X43341404Y-52408596D01*
X43643570Y-52610498D01*
X43910030Y-52663500D01*
X44089970Y-52663500D01*
X44356430Y-52610498D01*
X44658596Y-52408596D01*
X44674001Y-52385541D01*
X44674001Y-52717894D01*
X44667615Y-52750000D01*
X44692915Y-52877198D01*
X44746782Y-52957815D01*
X44746785Y-52957818D01*
X44764969Y-52985032D01*
X44792183Y-53003216D01*
X45156739Y-53367772D01*
X45139502Y-53393570D01*
X45068604Y-53750000D01*
X45139502Y-54106430D01*
X45341404Y-54408596D01*
X45643570Y-54610498D01*
X45910030Y-54663500D01*
X46089970Y-54663500D01*
X46356430Y-54610498D01*
X46658596Y-54408596D01*
X46860498Y-54106430D01*
X46931396Y-53750000D01*
X46860498Y-53393570D01*
X46658596Y-53091404D01*
X46356430Y-52889502D01*
X46089970Y-52836500D01*
X45910030Y-52836500D01*
X45643570Y-52889502D01*
X45617772Y-52906739D01*
X45326000Y-52614967D01*
X45326000Y-52385542D01*
X45341404Y-52408596D01*
X45643570Y-52610498D01*
X45910030Y-52663500D01*
X46089970Y-52663500D01*
X46356430Y-52610498D01*
X46658596Y-52408596D01*
X46674001Y-52385541D01*
X46674001Y-52717894D01*
X46667615Y-52750000D01*
X46692915Y-52877198D01*
X46746782Y-52957815D01*
X46746785Y-52957818D01*
X46764969Y-52985032D01*
X46792183Y-53003216D01*
X47156739Y-53367772D01*
X47139502Y-53393570D01*
X47068604Y-53750000D01*
X47139502Y-54106430D01*
X47341404Y-54408596D01*
X47643570Y-54610498D01*
X47910030Y-54663500D01*
X48089970Y-54663500D01*
X48356430Y-54610498D01*
X48658596Y-54408596D01*
X48860498Y-54106430D01*
X48931396Y-53750000D01*
X48860498Y-53393570D01*
X48658596Y-53091404D01*
X48356430Y-52889502D01*
X48089970Y-52836500D01*
X47910030Y-52836500D01*
X47643570Y-52889502D01*
X47617772Y-52906739D01*
X47326000Y-52614967D01*
X47326000Y-52385542D01*
X47341404Y-52408596D01*
X47643570Y-52610498D01*
X47910030Y-52663500D01*
X48089970Y-52663500D01*
X48236768Y-52634300D01*
X51161500Y-52634300D01*
X51161500Y-53365700D01*
X51441395Y-54041426D01*
X51958574Y-54558605D01*
X52634300Y-54838500D01*
X53365700Y-54838500D01*
X54041426Y-54558605D01*
X54558605Y-54041426D01*
X54838500Y-53365700D01*
X54838500Y-52634300D01*
X54558605Y-51958574D01*
X54041426Y-51441395D01*
X53365700Y-51161500D01*
X52634300Y-51161500D01*
X51958574Y-51441395D01*
X51441395Y-51958574D01*
X51161500Y-52634300D01*
X48236768Y-52634300D01*
X48356430Y-52610498D01*
X48658596Y-52408596D01*
X48860498Y-52106430D01*
X48931396Y-51750000D01*
X48860498Y-51393570D01*
X48658596Y-51091404D01*
X48356430Y-50889502D01*
X48089970Y-50836500D01*
X47910030Y-50836500D01*
X47643570Y-50889502D01*
X47617772Y-50906739D01*
X46076000Y-49364967D01*
X46076000Y-48640886D01*
X46124662Y-48568058D01*
X46143172Y-48475000D01*
X46143172Y-46925000D01*
X46124662Y-46831942D01*
X46071949Y-46753051D01*
X45993058Y-46700338D01*
X45900000Y-46681828D01*
X45600000Y-46681828D01*
X45506942Y-46700338D01*
X45500000Y-46704976D01*
X45493058Y-46700338D01*
X45400000Y-46681828D01*
X45115500Y-46681828D01*
X45115500Y-46646054D01*
X45206518Y-46555036D01*
X45288500Y-46357114D01*
X45288500Y-46142886D01*
X45206518Y-45944964D01*
X45055036Y-45793482D01*
X44857114Y-45711500D01*
X44642886Y-45711500D01*
X44444964Y-45793482D01*
X44293482Y-45944964D01*
X44211500Y-46142886D01*
X44211500Y-46357114D01*
X44293482Y-46555036D01*
X44384501Y-46646055D01*
X44384501Y-46681828D01*
X44100000Y-46681828D01*
X44006942Y-46700338D01*
X44000000Y-46704976D01*
X43993058Y-46700338D01*
X43900000Y-46681828D01*
X43600000Y-46681828D01*
X43506942Y-46700338D01*
X43500000Y-46704976D01*
X43493058Y-46700338D01*
X43400000Y-46681828D01*
X43100000Y-46681828D01*
X43006942Y-46700338D01*
X43000000Y-46704976D01*
X42993058Y-46700338D01*
X42900000Y-46681828D01*
X42600000Y-46681828D01*
X42506942Y-46700338D01*
X42500000Y-46704976D01*
X42493058Y-46700338D01*
X42400000Y-46681828D01*
X42100000Y-46681828D01*
X42006942Y-46700338D01*
X42000000Y-46704976D01*
X41993058Y-46700338D01*
X41900000Y-46681828D01*
X41600000Y-46681828D01*
X41506942Y-46700338D01*
X41448956Y-46739083D01*
X41437893Y-46734500D01*
X41372625Y-46734500D01*
X41325000Y-46782125D01*
X41325000Y-47509500D01*
X41356828Y-47509500D01*
X41356828Y-47890500D01*
X41325000Y-47890500D01*
X41325000Y-48617875D01*
X41372625Y-48665500D01*
X41424000Y-48665500D01*
X41424001Y-50364965D01*
X40792185Y-50996782D01*
X40764968Y-51014968D01*
X40692915Y-51122802D01*
X40689855Y-51138186D01*
X40658596Y-51091404D01*
X40356430Y-50889502D01*
X40326000Y-50883449D01*
X40326000Y-50782099D01*
X40332385Y-50749999D01*
X40326000Y-50717899D01*
X40326000Y-50717895D01*
X40307085Y-50622801D01*
X40263174Y-50557085D01*
X40253218Y-50542184D01*
X40253216Y-50542182D01*
X40235032Y-50514968D01*
X40207818Y-50496784D01*
X40076000Y-50364967D01*
X40076000Y-48713398D01*
X40100000Y-48718172D01*
X40400000Y-48718172D01*
X40493058Y-48699662D01*
X40500000Y-48695024D01*
X40506942Y-48699662D01*
X40600000Y-48718172D01*
X40900000Y-48718172D01*
X40993058Y-48699662D01*
X41051044Y-48660917D01*
X41062107Y-48665500D01*
X41127375Y-48665500D01*
X41175000Y-48617875D01*
X41175000Y-47890500D01*
X41143172Y-47890500D01*
X41143172Y-47509500D01*
X41175000Y-47509500D01*
X41175000Y-46782125D01*
X41127375Y-46734500D01*
X41115500Y-46734500D01*
X41115500Y-45746500D01*
X42926480Y-45746500D01*
X43000000Y-45761124D01*
X43073520Y-45746500D01*
X43291270Y-45703187D01*
X43381516Y-45642886D01*
X45711500Y-45642886D01*
X45711500Y-45857114D01*
X45793482Y-46055036D01*
X45944964Y-46206518D01*
X46142886Y-46288500D01*
X46357114Y-46288500D01*
X46555036Y-46206518D01*
X46646054Y-46115500D01*
X46818230Y-46115500D01*
X46831942Y-46124662D01*
X46925000Y-46143172D01*
X48475000Y-46143172D01*
X48568058Y-46124662D01*
X48646949Y-46071949D01*
X48699662Y-45993058D01*
X48718172Y-45900000D01*
X48718172Y-45600000D01*
X48699662Y-45506942D01*
X48660917Y-45448956D01*
X48665500Y-45437893D01*
X48665500Y-45372625D01*
X48617875Y-45325000D01*
X47890500Y-45325000D01*
X47890500Y-45356828D01*
X47509500Y-45356828D01*
X47509500Y-45325000D01*
X46782125Y-45325000D01*
X46734500Y-45372625D01*
X46734500Y-45384500D01*
X46646054Y-45384500D01*
X46555036Y-45293482D01*
X46357114Y-45211500D01*
X46142886Y-45211500D01*
X45944964Y-45293482D01*
X45793482Y-45444964D01*
X45711500Y-45642886D01*
X43381516Y-45642886D01*
X43538196Y-45538196D01*
X43579845Y-45475864D01*
X44495920Y-44559790D01*
X44461500Y-44642886D01*
X44461500Y-44857114D01*
X44543482Y-45055036D01*
X44694964Y-45206518D01*
X44892886Y-45288500D01*
X45107114Y-45288500D01*
X45305036Y-45206518D01*
X45396054Y-45115500D01*
X46734500Y-45115500D01*
X46734500Y-45127375D01*
X46782125Y-45175000D01*
X47509500Y-45175000D01*
X47509500Y-45143172D01*
X47890500Y-45143172D01*
X47890500Y-45175000D01*
X48617875Y-45175000D01*
X48665500Y-45127375D01*
X48665500Y-45062107D01*
X48660917Y-45051044D01*
X48699662Y-44993058D01*
X48718172Y-44900000D01*
X48718172Y-44600000D01*
X48713398Y-44576000D01*
X48864967Y-44576000D01*
X50424000Y-46135033D01*
X50424001Y-46467894D01*
X50417615Y-46500000D01*
X50442915Y-46627198D01*
X50496782Y-46707815D01*
X50496785Y-46707818D01*
X50514969Y-46735032D01*
X50542183Y-46753216D01*
X50996782Y-47207815D01*
X51014968Y-47235032D01*
X51122801Y-47307085D01*
X51138186Y-47310145D01*
X51091404Y-47341404D01*
X50889502Y-47643570D01*
X50818604Y-48000000D01*
X50889502Y-48356430D01*
X51091404Y-48658596D01*
X51393570Y-48860498D01*
X51660030Y-48913500D01*
X51839970Y-48913500D01*
X52106430Y-48860498D01*
X52408596Y-48658596D01*
X52610498Y-48356430D01*
X52617698Y-48320228D01*
X52945920Y-48320228D01*
X52954974Y-48342150D01*
X53146427Y-48620349D01*
X53429768Y-48804105D01*
X53559500Y-48796675D01*
X53559500Y-48190500D01*
X53940500Y-48190500D01*
X53940500Y-48796675D01*
X54070232Y-48804105D01*
X54353573Y-48620349D01*
X54545026Y-48342150D01*
X54554080Y-48320228D01*
X54545380Y-48190500D01*
X53940500Y-48190500D01*
X53559500Y-48190500D01*
X52954620Y-48190500D01*
X52945920Y-48320228D01*
X52617698Y-48320228D01*
X52681396Y-48000000D01*
X52617699Y-47679772D01*
X52945920Y-47679772D01*
X52954620Y-47809500D01*
X53559500Y-47809500D01*
X53559500Y-47203325D01*
X53940500Y-47203325D01*
X53940500Y-47809500D01*
X54545380Y-47809500D01*
X54554080Y-47679772D01*
X54545026Y-47657850D01*
X54353573Y-47379651D01*
X54070232Y-47195895D01*
X53940500Y-47203325D01*
X53559500Y-47203325D01*
X53429768Y-47195895D01*
X53146427Y-47379651D01*
X52954974Y-47657850D01*
X52945920Y-47679772D01*
X52617699Y-47679772D01*
X52610498Y-47643570D01*
X52408596Y-47341404D01*
X52385542Y-47326000D01*
X52717899Y-47326000D01*
X52750000Y-47332385D01*
X52782101Y-47326000D01*
X52782105Y-47326000D01*
X52877199Y-47307085D01*
X52985032Y-47235032D01*
X53003218Y-47207815D01*
X53367772Y-46843261D01*
X53393570Y-46860498D01*
X53660030Y-46913500D01*
X53839970Y-46913500D01*
X54106430Y-46860498D01*
X54408596Y-46658596D01*
X54610498Y-46356430D01*
X54681396Y-46000000D01*
X54610498Y-45643570D01*
X54408596Y-45341404D01*
X54106430Y-45139502D01*
X53839970Y-45086500D01*
X53660030Y-45086500D01*
X53393570Y-45139502D01*
X53091404Y-45341404D01*
X52889502Y-45643570D01*
X52818604Y-46000000D01*
X52889502Y-46356430D01*
X52906739Y-46382228D01*
X52614967Y-46674000D01*
X52385542Y-46674000D01*
X52408596Y-46658596D01*
X52610498Y-46356430D01*
X52681396Y-46000000D01*
X52610498Y-45643570D01*
X52408596Y-45341404D01*
X52385542Y-45326000D01*
X52717899Y-45326000D01*
X52750000Y-45332385D01*
X52782101Y-45326000D01*
X52782105Y-45326000D01*
X52877199Y-45307085D01*
X52985032Y-45235032D01*
X53003218Y-45207815D01*
X53367772Y-44843261D01*
X53393570Y-44860498D01*
X53660030Y-44913500D01*
X53839970Y-44913500D01*
X54106430Y-44860498D01*
X54408596Y-44658596D01*
X54610498Y-44356430D01*
X54681396Y-44000000D01*
X54610498Y-43643570D01*
X54408596Y-43341404D01*
X54106430Y-43139502D01*
X53839970Y-43086500D01*
X53660030Y-43086500D01*
X53393570Y-43139502D01*
X53091404Y-43341404D01*
X52889502Y-43643570D01*
X52818604Y-44000000D01*
X52889502Y-44356430D01*
X52906739Y-44382228D01*
X52614967Y-44674000D01*
X52385542Y-44674000D01*
X52408596Y-44658596D01*
X52610498Y-44356430D01*
X52681396Y-44000000D01*
X52610498Y-43643570D01*
X52408596Y-43341404D01*
X52385542Y-43326000D01*
X52717899Y-43326000D01*
X52750000Y-43332385D01*
X52782101Y-43326000D01*
X52782105Y-43326000D01*
X52877199Y-43307085D01*
X52985032Y-43235032D01*
X53003218Y-43207815D01*
X53367772Y-42843261D01*
X53393570Y-42860498D01*
X53660030Y-42913500D01*
X53839970Y-42913500D01*
X54106430Y-42860498D01*
X54408596Y-42658596D01*
X54610498Y-42356430D01*
X54681396Y-42000000D01*
X54610498Y-41643570D01*
X54408596Y-41341404D01*
X54106430Y-41139502D01*
X53839970Y-41086500D01*
X53660030Y-41086500D01*
X53393570Y-41139502D01*
X53091404Y-41341404D01*
X52889502Y-41643570D01*
X52818604Y-42000000D01*
X52889502Y-42356430D01*
X52906739Y-42382228D01*
X52614967Y-42674000D01*
X52385542Y-42674000D01*
X52408596Y-42658596D01*
X52610498Y-42356430D01*
X52681396Y-42000000D01*
X52610498Y-41643570D01*
X52408596Y-41341404D01*
X52385542Y-41326000D01*
X52717899Y-41326000D01*
X52750000Y-41332385D01*
X52782101Y-41326000D01*
X52782105Y-41326000D01*
X52877199Y-41307085D01*
X52985032Y-41235032D01*
X53003218Y-41207815D01*
X53367772Y-40843261D01*
X53393570Y-40860498D01*
X53660030Y-40913500D01*
X53839970Y-40913500D01*
X54106430Y-40860498D01*
X54408596Y-40658596D01*
X54610498Y-40356430D01*
X54681396Y-40000000D01*
X54610498Y-39643570D01*
X54408596Y-39341404D01*
X54106430Y-39139502D01*
X53839970Y-39086500D01*
X53660030Y-39086500D01*
X53393570Y-39139502D01*
X53091404Y-39341404D01*
X52889502Y-39643570D01*
X52818604Y-40000000D01*
X52889502Y-40356430D01*
X52906739Y-40382228D01*
X52614967Y-40674000D01*
X52385542Y-40674000D01*
X52408596Y-40658596D01*
X52610498Y-40356430D01*
X52681396Y-40000000D01*
X52610498Y-39643570D01*
X52408596Y-39341404D01*
X52385542Y-39326000D01*
X52717899Y-39326000D01*
X52750000Y-39332385D01*
X52782101Y-39326000D01*
X52782105Y-39326000D01*
X52877199Y-39307085D01*
X52985032Y-39235032D01*
X53003218Y-39207815D01*
X53367772Y-38843261D01*
X53393570Y-38860498D01*
X53660030Y-38913500D01*
X53839970Y-38913500D01*
X54106430Y-38860498D01*
X54408596Y-38658596D01*
X54610498Y-38356430D01*
X54681396Y-38000000D01*
X54610498Y-37643570D01*
X54408596Y-37341404D01*
X54106430Y-37139502D01*
X53839970Y-37086500D01*
X53660030Y-37086500D01*
X53393570Y-37139502D01*
X53091404Y-37341404D01*
X52889502Y-37643570D01*
X52818604Y-38000000D01*
X52889502Y-38356430D01*
X52906739Y-38382228D01*
X52614967Y-38674000D01*
X52385542Y-38674000D01*
X52408596Y-38658596D01*
X52610498Y-38356430D01*
X52681396Y-38000000D01*
X52610498Y-37643570D01*
X52408596Y-37341404D01*
X52385542Y-37326000D01*
X52717899Y-37326000D01*
X52750000Y-37332385D01*
X52782101Y-37326000D01*
X52782105Y-37326000D01*
X52877199Y-37307085D01*
X52985032Y-37235032D01*
X53003218Y-37207815D01*
X53367772Y-36843261D01*
X53393570Y-36860498D01*
X53660030Y-36913500D01*
X53839970Y-36913500D01*
X54106430Y-36860498D01*
X54408596Y-36658596D01*
X54610498Y-36356430D01*
X54681396Y-36000000D01*
X54610498Y-35643570D01*
X54408596Y-35341404D01*
X54106430Y-35139502D01*
X53839970Y-35086500D01*
X53660030Y-35086500D01*
X53393570Y-35139502D01*
X53091404Y-35341404D01*
X52889502Y-35643570D01*
X52818604Y-36000000D01*
X52889502Y-36356430D01*
X52906739Y-36382228D01*
X52614967Y-36674000D01*
X52385542Y-36674000D01*
X52408596Y-36658596D01*
X52610498Y-36356430D01*
X52681396Y-36000000D01*
X52610498Y-35643570D01*
X52408596Y-35341404D01*
X52385542Y-35326000D01*
X52717899Y-35326000D01*
X52750000Y-35332385D01*
X52782101Y-35326000D01*
X52782105Y-35326000D01*
X52877199Y-35307085D01*
X52985032Y-35235032D01*
X53003218Y-35207815D01*
X53367772Y-34843261D01*
X53393570Y-34860498D01*
X53660030Y-34913500D01*
X53839970Y-34913500D01*
X54106430Y-34860498D01*
X54408596Y-34658596D01*
X54610498Y-34356430D01*
X54681396Y-34000000D01*
X54610498Y-33643570D01*
X54408596Y-33341404D01*
X54106430Y-33139502D01*
X53839970Y-33086500D01*
X53660030Y-33086500D01*
X53393570Y-33139502D01*
X53091404Y-33341404D01*
X52889502Y-33643570D01*
X52818604Y-34000000D01*
X52889502Y-34356430D01*
X52906739Y-34382228D01*
X52614967Y-34674000D01*
X52385542Y-34674000D01*
X52408596Y-34658596D01*
X52610498Y-34356430D01*
X52681396Y-34000000D01*
X52610498Y-33643570D01*
X52408596Y-33341404D01*
X52385542Y-33326000D01*
X52717899Y-33326000D01*
X52750000Y-33332385D01*
X52782101Y-33326000D01*
X52782105Y-33326000D01*
X52877199Y-33307085D01*
X52985032Y-33235032D01*
X53003218Y-33207815D01*
X53367772Y-32843261D01*
X53393570Y-32860498D01*
X53660030Y-32913500D01*
X53839970Y-32913500D01*
X54106430Y-32860498D01*
X54408596Y-32658596D01*
X54610498Y-32356430D01*
X54681396Y-32000000D01*
X54610498Y-31643570D01*
X54408596Y-31341404D01*
X54106430Y-31139502D01*
X53839970Y-31086500D01*
X53660030Y-31086500D01*
X53393570Y-31139502D01*
X53091404Y-31341404D01*
X52889502Y-31643570D01*
X52818604Y-32000000D01*
X52889502Y-32356430D01*
X52906739Y-32382228D01*
X52614967Y-32674000D01*
X52385542Y-32674000D01*
X52408596Y-32658596D01*
X52610498Y-32356430D01*
X52681396Y-32000000D01*
X52610498Y-31643570D01*
X52408596Y-31341404D01*
X52385542Y-31326000D01*
X52717899Y-31326000D01*
X52750000Y-31332385D01*
X52782101Y-31326000D01*
X52782105Y-31326000D01*
X52877199Y-31307085D01*
X52985032Y-31235032D01*
X53003218Y-31207815D01*
X53367772Y-30843261D01*
X53393570Y-30860498D01*
X53660030Y-30913500D01*
X53839970Y-30913500D01*
X54106430Y-30860498D01*
X54408596Y-30658596D01*
X54610498Y-30356430D01*
X54681396Y-30000000D01*
X54610498Y-29643570D01*
X54408596Y-29341404D01*
X54106430Y-29139502D01*
X53839970Y-29086500D01*
X53660030Y-29086500D01*
X53393570Y-29139502D01*
X53091404Y-29341404D01*
X52889502Y-29643570D01*
X52818604Y-30000000D01*
X52889502Y-30356430D01*
X52906739Y-30382228D01*
X52614967Y-30674000D01*
X52385542Y-30674000D01*
X52408596Y-30658596D01*
X52610498Y-30356430D01*
X52681396Y-30000000D01*
X52610498Y-29643570D01*
X52408596Y-29341404D01*
X52385542Y-29326000D01*
X52717899Y-29326000D01*
X52750000Y-29332385D01*
X52782101Y-29326000D01*
X52782105Y-29326000D01*
X52877199Y-29307085D01*
X52985032Y-29235032D01*
X53003218Y-29207815D01*
X53367772Y-28843261D01*
X53393570Y-28860498D01*
X53660030Y-28913500D01*
X53839970Y-28913500D01*
X54106430Y-28860498D01*
X54408596Y-28658596D01*
X54610498Y-28356430D01*
X54681396Y-28000000D01*
X54610498Y-27643570D01*
X54408596Y-27341404D01*
X54106430Y-27139502D01*
X53839970Y-27086500D01*
X53660030Y-27086500D01*
X53393570Y-27139502D01*
X53091404Y-27341404D01*
X52889502Y-27643570D01*
X52818604Y-28000000D01*
X52889502Y-28356430D01*
X52906739Y-28382228D01*
X52614967Y-28674000D01*
X52385542Y-28674000D01*
X52408596Y-28658596D01*
X52610498Y-28356430D01*
X52681396Y-28000000D01*
X52610498Y-27643570D01*
X52408596Y-27341404D01*
X52385542Y-27326000D01*
X52717899Y-27326000D01*
X52750000Y-27332385D01*
X52782101Y-27326000D01*
X52782105Y-27326000D01*
X52877199Y-27307085D01*
X52985032Y-27235032D01*
X53003218Y-27207815D01*
X53367772Y-26843261D01*
X53393570Y-26860498D01*
X53660030Y-26913500D01*
X53839970Y-26913500D01*
X54106430Y-26860498D01*
X54408596Y-26658596D01*
X54610498Y-26356430D01*
X54681396Y-26000000D01*
X54610498Y-25643570D01*
X54408596Y-25341404D01*
X54106430Y-25139502D01*
X53839970Y-25086500D01*
X53660030Y-25086500D01*
X53393570Y-25139502D01*
X53091404Y-25341404D01*
X52889502Y-25643570D01*
X52818604Y-26000000D01*
X52889502Y-26356430D01*
X52906739Y-26382228D01*
X52615500Y-26673467D01*
X52615500Y-26238125D01*
X52567875Y-26190500D01*
X51940500Y-26190500D01*
X51940500Y-26210500D01*
X51559500Y-26210500D01*
X51559500Y-26190500D01*
X50932125Y-26190500D01*
X50884500Y-26238125D01*
X50884500Y-26712893D01*
X50913502Y-26782909D01*
X50959780Y-26829187D01*
X48864967Y-28924000D01*
X48713398Y-28924000D01*
X48718172Y-28900000D01*
X48718172Y-28600000D01*
X48699662Y-28506942D01*
X48660917Y-28448956D01*
X48665500Y-28437893D01*
X48665500Y-28372625D01*
X48617875Y-28325000D01*
X47890500Y-28325000D01*
X47890500Y-28356828D01*
X47509500Y-28356828D01*
X47509500Y-28325000D01*
X46782125Y-28325000D01*
X46734500Y-28372625D01*
X46734500Y-28384500D01*
X45285990Y-28384500D01*
X45249999Y-28377341D01*
X45214008Y-28384500D01*
X45214004Y-28384500D01*
X45107389Y-28405707D01*
X45038344Y-28451842D01*
X45023889Y-28461500D01*
X44892886Y-28461500D01*
X44694964Y-28543482D01*
X44543482Y-28694964D01*
X44461500Y-28892886D01*
X44461500Y-29107114D01*
X44543482Y-29305036D01*
X44694964Y-29456518D01*
X44892886Y-29538500D01*
X45107114Y-29538500D01*
X45305036Y-29456518D01*
X45456518Y-29305036D01*
X45535026Y-29115500D01*
X46681828Y-29115500D01*
X46681828Y-29400000D01*
X46700338Y-29493058D01*
X46704976Y-29500000D01*
X46700338Y-29506942D01*
X46681828Y-29600000D01*
X46681828Y-29900000D01*
X46700338Y-29993058D01*
X46704976Y-30000000D01*
X46700338Y-30006942D01*
X46681828Y-30100000D01*
X46681828Y-30400000D01*
X46700338Y-30493058D01*
X46704976Y-30500000D01*
X46700338Y-30506942D01*
X46681828Y-30600000D01*
X46681828Y-30884500D01*
X46646054Y-30884500D01*
X46555036Y-30793482D01*
X46357114Y-30711500D01*
X46142886Y-30711500D01*
X45944964Y-30793482D01*
X45793482Y-30944964D01*
X45752289Y-31044414D01*
X45761123Y-30999999D01*
X45746500Y-30926481D01*
X45746500Y-30926480D01*
X45703187Y-30708730D01*
X45538196Y-30461804D01*
X45475867Y-30420157D01*
X43579845Y-28524136D01*
X43538196Y-28461804D01*
X43291270Y-28296813D01*
X43073520Y-28253500D01*
X43000000Y-28238876D01*
X42926480Y-28253500D01*
X42691611Y-28253500D01*
X42805036Y-28206518D01*
X42956518Y-28055036D01*
X43038500Y-27857114D01*
X43038500Y-27642886D01*
X42956518Y-27444964D01*
X42829726Y-27318172D01*
X42900000Y-27318172D01*
X42993058Y-27299662D01*
X43000000Y-27295024D01*
X43006942Y-27299662D01*
X43100000Y-27318172D01*
X43400000Y-27318172D01*
X43493058Y-27299662D01*
X43500000Y-27295024D01*
X43506942Y-27299662D01*
X43600000Y-27318172D01*
X43900000Y-27318172D01*
X43993058Y-27299662D01*
X44000000Y-27295024D01*
X44006942Y-27299662D01*
X44100000Y-27318172D01*
X44400000Y-27318172D01*
X44493058Y-27299662D01*
X44500000Y-27295024D01*
X44506942Y-27299662D01*
X44600000Y-27318172D01*
X44900000Y-27318172D01*
X44993058Y-27299662D01*
X45000000Y-27295024D01*
X45006942Y-27299662D01*
X45100000Y-27318172D01*
X45384501Y-27318172D01*
X45384501Y-27353945D01*
X45293482Y-27444964D01*
X45211500Y-27642886D01*
X45211500Y-27857114D01*
X45293482Y-28055036D01*
X45444964Y-28206518D01*
X45642886Y-28288500D01*
X45857114Y-28288500D01*
X46055036Y-28206518D01*
X46199447Y-28062107D01*
X46734500Y-28062107D01*
X46734500Y-28127375D01*
X46782125Y-28175000D01*
X47509500Y-28175000D01*
X47509500Y-27957125D01*
X47890500Y-27957125D01*
X47890500Y-28175000D01*
X48617875Y-28175000D01*
X48665500Y-28127375D01*
X48665500Y-28062107D01*
X48636498Y-27992091D01*
X48582910Y-27938502D01*
X48512893Y-27909500D01*
X47938125Y-27909500D01*
X47890500Y-27957125D01*
X47509500Y-27957125D01*
X47461875Y-27909500D01*
X46887107Y-27909500D01*
X46817090Y-27938502D01*
X46763502Y-27992091D01*
X46734500Y-28062107D01*
X46199447Y-28062107D01*
X46206518Y-28055036D01*
X46288500Y-27857114D01*
X46288500Y-27642886D01*
X46206518Y-27444964D01*
X46115500Y-27353946D01*
X46115500Y-27181770D01*
X46124662Y-27168058D01*
X46143172Y-27075000D01*
X46143172Y-25525000D01*
X46124662Y-25431942D01*
X46071949Y-25353051D01*
X45993058Y-25300338D01*
X45926542Y-25287107D01*
X50884500Y-25287107D01*
X50884500Y-25761875D01*
X50932125Y-25809500D01*
X51559500Y-25809500D01*
X51559500Y-25182125D01*
X51940500Y-25182125D01*
X51940500Y-25809500D01*
X52567875Y-25809500D01*
X52615500Y-25761875D01*
X52615500Y-25287107D01*
X52586498Y-25217091D01*
X52532910Y-25163502D01*
X52462893Y-25134500D01*
X51988125Y-25134500D01*
X51940500Y-25182125D01*
X51559500Y-25182125D01*
X51511875Y-25134500D01*
X51037107Y-25134500D01*
X50967090Y-25163502D01*
X50913502Y-25217091D01*
X50884500Y-25287107D01*
X45926542Y-25287107D01*
X45924360Y-25286673D01*
X49207818Y-22003216D01*
X49235032Y-21985032D01*
X49253216Y-21957818D01*
X49253218Y-21957816D01*
X49307085Y-21877199D01*
X49323995Y-21792184D01*
X49326000Y-21782105D01*
X49326000Y-21782101D01*
X49332385Y-21750000D01*
X49326000Y-21717899D01*
X49326000Y-20634300D01*
X51161500Y-20634300D01*
X51161500Y-21365700D01*
X51441395Y-22041426D01*
X51958574Y-22558605D01*
X52634300Y-22838500D01*
X53365700Y-22838500D01*
X54041426Y-22558605D01*
X54558605Y-22041426D01*
X54838500Y-21365700D01*
X54838500Y-20634300D01*
X54558605Y-19958574D01*
X54041426Y-19441395D01*
X53365700Y-19161500D01*
X52634300Y-19161500D01*
X51958574Y-19441395D01*
X51441395Y-19958574D01*
X51161500Y-20634300D01*
X49326000Y-20634300D01*
X49326000Y-20282101D01*
X49332385Y-20250000D01*
X49326000Y-20217899D01*
X49326000Y-20217895D01*
X49307085Y-20122801D01*
X49235032Y-20014968D01*
X49207815Y-19996782D01*
X48843261Y-19632228D01*
X48860498Y-19606430D01*
X48931396Y-19250000D01*
X48860498Y-18893570D01*
X48658596Y-18591404D01*
X48356430Y-18389502D01*
X48089970Y-18336500D01*
X47910030Y-18336500D01*
X47643570Y-18389502D01*
X47341404Y-18591404D01*
X47139502Y-18893570D01*
X47068604Y-19250000D01*
X47139502Y-19606430D01*
X47341404Y-19908596D01*
X47643570Y-20110498D01*
X47910030Y-20163500D01*
X48089970Y-20163500D01*
X48356430Y-20110498D01*
X48382228Y-20093261D01*
X48674001Y-20385034D01*
X48674001Y-20614459D01*
X48658596Y-20591404D01*
X48356430Y-20389502D01*
X48089970Y-20336500D01*
X47910030Y-20336500D01*
X47643570Y-20389502D01*
X47341404Y-20591404D01*
X47326000Y-20614458D01*
X47326000Y-20282101D01*
X47332385Y-20250000D01*
X47326000Y-20217899D01*
X47326000Y-20217895D01*
X47307085Y-20122801D01*
X47235032Y-20014968D01*
X47207815Y-19996782D01*
X46843261Y-19632228D01*
X46860498Y-19606430D01*
X46931396Y-19250000D01*
X46860498Y-18893570D01*
X46658596Y-18591404D01*
X46356430Y-18389502D01*
X46089970Y-18336500D01*
X45910030Y-18336500D01*
X45643570Y-18389502D01*
X45341404Y-18591404D01*
X45139502Y-18893570D01*
X45068604Y-19250000D01*
X45139502Y-19606430D01*
X45341404Y-19908596D01*
X45643570Y-20110498D01*
X45910030Y-20163500D01*
X46089970Y-20163500D01*
X46356430Y-20110498D01*
X46382228Y-20093261D01*
X46674001Y-20385034D01*
X46674001Y-20614459D01*
X46658596Y-20591404D01*
X46356430Y-20389502D01*
X46089970Y-20336500D01*
X45910030Y-20336500D01*
X45643570Y-20389502D01*
X45341404Y-20591404D01*
X45326000Y-20614458D01*
X45326000Y-20282101D01*
X45332385Y-20250000D01*
X45326000Y-20217899D01*
X45326000Y-20217895D01*
X45307085Y-20122801D01*
X45235032Y-20014968D01*
X45207815Y-19996782D01*
X44843261Y-19632228D01*
X44860498Y-19606430D01*
X44931396Y-19250000D01*
X44860498Y-18893570D01*
X44658596Y-18591404D01*
X44356430Y-18389502D01*
X44089970Y-18336500D01*
X43910030Y-18336500D01*
X43643570Y-18389502D01*
X43341404Y-18591404D01*
X43139502Y-18893570D01*
X43068604Y-19250000D01*
X43139502Y-19606430D01*
X43341404Y-19908596D01*
X43643570Y-20110498D01*
X43910030Y-20163500D01*
X44089970Y-20163500D01*
X44356430Y-20110498D01*
X44382228Y-20093261D01*
X44674001Y-20385034D01*
X44674001Y-20614459D01*
X44658596Y-20591404D01*
X44356430Y-20389502D01*
X44089970Y-20336500D01*
X43910030Y-20336500D01*
X43643570Y-20389502D01*
X43341404Y-20591404D01*
X43326000Y-20614458D01*
X43326000Y-20282101D01*
X43332385Y-20250000D01*
X43326000Y-20217899D01*
X43326000Y-20217895D01*
X43307085Y-20122801D01*
X43235032Y-20014968D01*
X43207815Y-19996782D01*
X42843261Y-19632228D01*
X42860498Y-19606430D01*
X42931396Y-19250000D01*
X42860498Y-18893570D01*
X42658596Y-18591404D01*
X42356430Y-18389502D01*
X42089970Y-18336500D01*
X41910030Y-18336500D01*
X41643570Y-18389502D01*
X41341404Y-18591404D01*
X41139502Y-18893570D01*
X41068604Y-19250000D01*
X41139502Y-19606430D01*
X41341404Y-19908596D01*
X41643570Y-20110498D01*
X41910030Y-20163500D01*
X42089970Y-20163500D01*
X42356430Y-20110498D01*
X42382228Y-20093261D01*
X42674001Y-20385034D01*
X42674001Y-20614459D01*
X42658596Y-20591404D01*
X42356430Y-20389502D01*
X42089970Y-20336500D01*
X41910030Y-20336500D01*
X41643570Y-20389502D01*
X41341404Y-20591404D01*
X41326000Y-20614458D01*
X41326000Y-20282101D01*
X41332385Y-20250000D01*
X41326000Y-20217899D01*
X41326000Y-20217895D01*
X41307085Y-20122801D01*
X41235032Y-20014968D01*
X41207815Y-19996782D01*
X40843261Y-19632228D01*
X40860498Y-19606430D01*
X40931396Y-19250000D01*
X40860498Y-18893570D01*
X40658596Y-18591404D01*
X40356430Y-18389502D01*
X40089970Y-18336500D01*
X39910030Y-18336500D01*
X39643570Y-18389502D01*
X39341404Y-18591404D01*
X39139502Y-18893570D01*
X39068604Y-19250000D01*
X39139502Y-19606430D01*
X39341404Y-19908596D01*
X39643570Y-20110498D01*
X39910030Y-20163500D01*
X40089970Y-20163500D01*
X40356430Y-20110498D01*
X40382228Y-20093261D01*
X40674001Y-20385034D01*
X40674001Y-20614459D01*
X40658596Y-20591404D01*
X40356430Y-20389502D01*
X40089970Y-20336500D01*
X39910030Y-20336500D01*
X39643570Y-20389502D01*
X39341404Y-20591404D01*
X39326000Y-20614458D01*
X39326000Y-20282101D01*
X39332385Y-20250000D01*
X39326000Y-20217899D01*
X39326000Y-20217895D01*
X39307085Y-20122801D01*
X39235032Y-20014968D01*
X39207815Y-19996782D01*
X38843261Y-19632228D01*
X38860498Y-19606430D01*
X38931396Y-19250000D01*
X38860498Y-18893570D01*
X38658596Y-18591404D01*
X38356430Y-18389502D01*
X38089970Y-18336500D01*
X37910030Y-18336500D01*
X37643570Y-18389502D01*
X37341404Y-18591404D01*
X37139502Y-18893570D01*
X37068604Y-19250000D01*
X37139502Y-19606430D01*
X37341404Y-19908596D01*
X37643570Y-20110498D01*
X37910030Y-20163500D01*
X38089970Y-20163500D01*
X38356430Y-20110498D01*
X38382228Y-20093261D01*
X38674001Y-20385034D01*
X38674001Y-20614459D01*
X38658596Y-20591404D01*
X38356430Y-20389502D01*
X38089970Y-20336500D01*
X37910030Y-20336500D01*
X37643570Y-20389502D01*
X37341404Y-20591404D01*
X37326000Y-20614458D01*
X37326000Y-20282101D01*
X37332385Y-20250000D01*
X37326000Y-20217899D01*
X37326000Y-20217895D01*
X37307085Y-20122801D01*
X37235032Y-20014968D01*
X37207815Y-19996782D01*
X36843261Y-19632228D01*
X36860498Y-19606430D01*
X36931396Y-19250000D01*
X36860498Y-18893570D01*
X36658596Y-18591404D01*
X36356430Y-18389502D01*
X36089970Y-18336500D01*
X35910030Y-18336500D01*
X35643570Y-18389502D01*
X35341404Y-18591404D01*
X35139502Y-18893570D01*
X35068604Y-19250000D01*
X35139502Y-19606430D01*
X35341404Y-19908596D01*
X35643570Y-20110498D01*
X35910030Y-20163500D01*
X36089970Y-20163500D01*
X36356430Y-20110498D01*
X36382228Y-20093261D01*
X36674001Y-20385034D01*
X36674001Y-20614459D01*
X36658596Y-20591404D01*
X36356430Y-20389502D01*
X36089970Y-20336500D01*
X35910030Y-20336500D01*
X35643570Y-20389502D01*
X35341404Y-20591404D01*
X35326000Y-20614458D01*
X35326000Y-20282101D01*
X35332385Y-20250000D01*
X35326000Y-20217899D01*
X35326000Y-20217895D01*
X35307085Y-20122801D01*
X35235032Y-20014968D01*
X35207815Y-19996782D01*
X34843261Y-19632228D01*
X34860498Y-19606430D01*
X34931396Y-19250000D01*
X34860498Y-18893570D01*
X34658596Y-18591404D01*
X34356430Y-18389502D01*
X34089970Y-18336500D01*
X33910030Y-18336500D01*
X33643570Y-18389502D01*
X33341404Y-18591404D01*
X33139502Y-18893570D01*
X33068604Y-19250000D01*
X33139502Y-19606430D01*
X33341404Y-19908596D01*
X33643570Y-20110498D01*
X33910030Y-20163500D01*
X34089970Y-20163500D01*
X34356430Y-20110498D01*
X34382228Y-20093261D01*
X34674001Y-20385034D01*
X34674001Y-20614459D01*
X34658596Y-20591404D01*
X34356430Y-20389502D01*
X34089970Y-20336500D01*
X33910030Y-20336500D01*
X33643570Y-20389502D01*
X33341404Y-20591404D01*
X33326000Y-20614458D01*
X33326000Y-20282101D01*
X33332385Y-20250000D01*
X33326000Y-20217899D01*
X33326000Y-20217895D01*
X33307085Y-20122801D01*
X33235032Y-20014968D01*
X33207815Y-19996782D01*
X32843261Y-19632228D01*
X32860498Y-19606430D01*
X32931396Y-19250000D01*
X32860498Y-18893570D01*
X32658596Y-18591404D01*
X32356430Y-18389502D01*
X32089970Y-18336500D01*
X31910030Y-18336500D01*
X31643570Y-18389502D01*
X31341404Y-18591404D01*
X31139502Y-18893570D01*
X31068604Y-19250000D01*
X31139502Y-19606430D01*
X31341404Y-19908596D01*
X31643570Y-20110498D01*
X31910030Y-20163500D01*
X32089970Y-20163500D01*
X32356430Y-20110498D01*
X32382228Y-20093261D01*
X32674001Y-20385034D01*
X32674001Y-20614459D01*
X32658596Y-20591404D01*
X32356430Y-20389502D01*
X32089970Y-20336500D01*
X31910030Y-20336500D01*
X31643570Y-20389502D01*
X31341404Y-20591404D01*
X31326000Y-20614458D01*
X31326000Y-20282101D01*
X31332385Y-20250000D01*
X31326000Y-20217899D01*
X31326000Y-20217895D01*
X31307085Y-20122801D01*
X31235032Y-20014968D01*
X31207815Y-19996782D01*
X30843261Y-19632228D01*
X30860498Y-19606430D01*
X30931396Y-19250000D01*
X30860498Y-18893570D01*
X30658596Y-18591404D01*
X30356430Y-18389502D01*
X30089970Y-18336500D01*
X29910030Y-18336500D01*
X29643570Y-18389502D01*
X29341404Y-18591404D01*
X29139502Y-18893570D01*
X29068604Y-19250000D01*
X29139502Y-19606430D01*
X29341404Y-19908596D01*
X29643570Y-20110498D01*
X29910030Y-20163500D01*
X30089970Y-20163500D01*
X30356430Y-20110498D01*
X30382228Y-20093261D01*
X30674000Y-20385033D01*
X30674000Y-20614458D01*
X30658596Y-20591404D01*
X30356430Y-20389502D01*
X30089970Y-20336500D01*
X29910030Y-20336500D01*
X29643570Y-20389502D01*
X29341404Y-20591404D01*
X29326000Y-20614458D01*
X29326000Y-20282101D01*
X29332385Y-20250000D01*
X29326000Y-20217899D01*
X29326000Y-20217895D01*
X29307085Y-20122801D01*
X29235032Y-20014968D01*
X29207815Y-19996782D01*
X28843261Y-19632228D01*
X28860498Y-19606430D01*
X28931396Y-19250000D01*
X28860498Y-18893570D01*
X28658596Y-18591404D01*
X28356430Y-18389502D01*
X28089970Y-18336500D01*
X27910030Y-18336500D01*
X27643570Y-18389502D01*
X27341404Y-18591404D01*
X27139502Y-18893570D01*
X27068604Y-19250000D01*
X27139502Y-19606430D01*
X27341404Y-19908596D01*
X27643570Y-20110498D01*
X27910030Y-20163500D01*
X28089970Y-20163500D01*
X28356430Y-20110498D01*
X28382228Y-20093261D01*
X28674001Y-20385034D01*
X28674001Y-20614459D01*
X28658596Y-20591404D01*
X28356430Y-20389502D01*
X28089970Y-20336500D01*
X27910030Y-20336500D01*
X27643570Y-20389502D01*
X27341404Y-20591404D01*
X27326000Y-20614458D01*
X27326000Y-20282101D01*
X27332385Y-20250000D01*
X27326000Y-20217899D01*
X27326000Y-20217895D01*
X27307085Y-20122801D01*
X27235032Y-20014968D01*
X27207815Y-19996782D01*
X26843261Y-19632228D01*
X26860498Y-19606430D01*
X26931396Y-19250000D01*
X26860498Y-18893570D01*
X26658596Y-18591404D01*
X26356430Y-18389502D01*
X26089970Y-18336500D01*
X25910030Y-18336500D01*
X25643570Y-18389502D01*
X25341404Y-18591404D01*
X25139502Y-18893570D01*
X25068604Y-19250000D01*
X25139502Y-19606430D01*
X25341404Y-19908596D01*
X25643570Y-20110498D01*
X25910030Y-20163500D01*
X26089970Y-20163500D01*
X26356430Y-20110498D01*
X26382228Y-20093261D01*
X26620795Y-20331828D01*
X25325000Y-20331828D01*
X25231942Y-20350338D01*
X25153051Y-20403051D01*
X25100338Y-20481942D01*
X25081828Y-20575000D01*
X25081828Y-21925000D01*
X25100338Y-22018058D01*
X25153051Y-22096949D01*
X25231942Y-22149662D01*
X25325000Y-22168172D01*
X26675000Y-22168172D01*
X26768058Y-22149662D01*
X26846949Y-22096949D01*
X26862557Y-22073590D01*
X27924001Y-23135035D01*
X27924000Y-25359113D01*
X27875338Y-25431942D01*
X27856828Y-25525000D01*
X27856828Y-27075000D01*
X27875338Y-27168058D01*
X27928051Y-27246949D01*
X28006942Y-27299662D01*
X28100000Y-27318172D01*
X28400000Y-27318172D01*
X28493058Y-27299662D01*
X28500000Y-27295024D01*
X28506942Y-27299662D01*
X28600000Y-27318172D01*
X28900000Y-27318172D01*
X28993058Y-27299662D01*
X29000000Y-27295024D01*
X29006942Y-27299662D01*
X29100000Y-27318172D01*
X29400000Y-27318172D01*
X29493058Y-27299662D01*
X29500000Y-27295024D01*
X29506942Y-27299662D01*
X29600000Y-27318172D01*
X29900000Y-27318172D01*
X29993058Y-27299662D01*
X30051044Y-27260917D01*
X30062107Y-27265500D01*
X30127375Y-27265500D01*
X30175000Y-27217875D01*
X30175000Y-26490500D01*
X30143172Y-26490500D01*
X30143172Y-26109500D01*
X30175000Y-26109500D01*
X30175000Y-25382125D01*
X30127375Y-25334500D01*
X30076000Y-25334500D01*
X30076000Y-22635033D01*
X30207818Y-22503216D01*
X30235032Y-22485032D01*
X30253216Y-22457818D01*
X30253218Y-22457816D01*
X30271736Y-22430102D01*
X30307085Y-22377199D01*
X30326000Y-22282105D01*
X30326000Y-22282101D01*
X30332385Y-22250001D01*
X30326000Y-22217901D01*
X30326000Y-22116551D01*
X30356430Y-22110498D01*
X30658596Y-21908596D01*
X30689855Y-21861814D01*
X30692915Y-21877198D01*
X30746782Y-21957815D01*
X30746785Y-21957818D01*
X30764969Y-21985032D01*
X30792183Y-22003216D01*
X30924000Y-22135034D01*
X30924001Y-24967894D01*
X30917615Y-25000000D01*
X30942915Y-25127198D01*
X30996782Y-25207815D01*
X30996785Y-25207818D01*
X31014969Y-25235032D01*
X31042183Y-25253216D01*
X31075640Y-25286673D01*
X31006942Y-25300338D01*
X31000000Y-25304976D01*
X30993058Y-25300338D01*
X30900000Y-25281828D01*
X30600000Y-25281828D01*
X30506942Y-25300338D01*
X30448956Y-25339083D01*
X30437893Y-25334500D01*
X30372625Y-25334500D01*
X30325000Y-25382125D01*
X30325000Y-26109500D01*
X30356828Y-26109500D01*
X30356828Y-26490500D01*
X30325000Y-26490500D01*
X30325000Y-27217875D01*
X30372625Y-27265500D01*
X30384500Y-27265500D01*
X30384501Y-28464003D01*
X30377341Y-28500000D01*
X30405707Y-28642610D01*
X30466100Y-28732994D01*
X30466102Y-28732996D01*
X30486491Y-28763510D01*
X30517005Y-28783899D01*
X30529396Y-28796290D01*
X30488876Y-29000000D01*
X30546813Y-29291270D01*
X30711804Y-29538196D01*
X30958730Y-29703187D01*
X31176480Y-29746500D01*
X32380500Y-29746500D01*
X32380500Y-30311011D01*
X32416444Y-30491716D01*
X32553366Y-30696634D01*
X32758283Y-30833556D01*
X33000000Y-30881636D01*
X33241716Y-30833556D01*
X33446634Y-30696634D01*
X33583556Y-30491717D01*
X33619500Y-30311012D01*
X33619500Y-29746500D01*
X39880501Y-29746500D01*
X39880501Y-30311012D01*
X39916445Y-30491717D01*
X40053367Y-30696634D01*
X40258284Y-30833556D01*
X40500000Y-30881636D01*
X40741717Y-30833556D01*
X40946634Y-30696634D01*
X41083556Y-30491717D01*
X41119500Y-30311012D01*
X41119500Y-29746500D01*
X42690791Y-29746500D01*
X44253500Y-31309210D01*
X44253501Y-35676476D01*
X44253500Y-35676481D01*
X44253500Y-38130500D01*
X43688988Y-38130500D01*
X43508283Y-38166444D01*
X43303366Y-38303366D01*
X43166444Y-38508283D01*
X43118364Y-38750000D01*
X43166444Y-38991717D01*
X43303366Y-39196634D01*
X43508283Y-39333556D01*
X43688988Y-39369500D01*
X44253501Y-39369500D01*
X44253501Y-41676476D01*
X44253500Y-41676481D01*
X44253501Y-42690789D01*
X42690791Y-44253500D01*
X39869500Y-44253500D01*
X39869500Y-43688988D01*
X39833556Y-43508283D01*
X39696634Y-43303366D01*
X39491716Y-43166444D01*
X39250000Y-43118364D01*
X39008283Y-43166444D01*
X38803366Y-43303366D01*
X38666444Y-43508284D01*
X38630500Y-43688989D01*
X38630500Y-44253500D01*
X32119500Y-44253500D01*
X32119500Y-43688988D01*
X32083556Y-43508283D01*
X31946634Y-43303366D01*
X31741716Y-43166444D01*
X31500000Y-43118364D01*
X31258283Y-43166444D01*
X31053366Y-43303366D01*
X30916444Y-43508284D01*
X30880500Y-43688989D01*
X30880500Y-44253500D01*
X30809210Y-44253500D01*
X29746500Y-43190791D01*
X29746500Y-38573519D01*
X29761124Y-38500000D01*
X29746500Y-38426480D01*
X29746500Y-37238125D01*
X33809500Y-37238125D01*
X33809500Y-40037893D01*
X33838502Y-40107909D01*
X33892090Y-40161498D01*
X33962107Y-40190500D01*
X36761875Y-40190500D01*
X36809500Y-40142875D01*
X36809500Y-37190500D01*
X37190500Y-37190500D01*
X37190500Y-40142875D01*
X37238125Y-40190500D01*
X40037893Y-40190500D01*
X40107910Y-40161498D01*
X40161498Y-40107909D01*
X40190500Y-40037893D01*
X40190500Y-37238125D01*
X40142875Y-37190500D01*
X37190500Y-37190500D01*
X36809500Y-37190500D01*
X33857125Y-37190500D01*
X33809500Y-37238125D01*
X29746500Y-37238125D01*
X29746500Y-36426480D01*
X29703187Y-36208730D01*
X29538196Y-35961804D01*
X29291270Y-35796813D01*
X29000000Y-35738876D01*
X28708731Y-35796813D01*
X28577498Y-35884500D01*
X27318172Y-35884500D01*
X27318172Y-35600000D01*
X27299662Y-35506942D01*
X27295024Y-35500000D01*
X27299662Y-35493058D01*
X27318172Y-35400000D01*
X27318172Y-35100000D01*
X27299662Y-35006942D01*
X27295024Y-35000000D01*
X27299662Y-34993058D01*
X27318172Y-34900000D01*
X27318172Y-34600000D01*
X27299662Y-34506942D01*
X27295024Y-34500000D01*
X27299662Y-34493058D01*
X27318172Y-34400000D01*
X27318172Y-34100000D01*
X27299662Y-34006942D01*
X27295024Y-34000000D01*
X27299662Y-33993058D01*
X27305818Y-33962107D01*
X33809500Y-33962107D01*
X33809500Y-36761875D01*
X33857125Y-36809500D01*
X36809500Y-36809500D01*
X36809500Y-33857125D01*
X37190500Y-33857125D01*
X37190500Y-36809500D01*
X40142875Y-36809500D01*
X40190500Y-36761875D01*
X40190500Y-33962107D01*
X40161498Y-33892091D01*
X40107910Y-33838502D01*
X40037893Y-33809500D01*
X37238125Y-33809500D01*
X37190500Y-33857125D01*
X36809500Y-33857125D01*
X36761875Y-33809500D01*
X33962107Y-33809500D01*
X33892090Y-33838502D01*
X33838502Y-33892091D01*
X33809500Y-33962107D01*
X27305818Y-33962107D01*
X27318172Y-33900000D01*
X27318172Y-33600000D01*
X27299662Y-33506942D01*
X27295024Y-33500000D01*
X27299662Y-33493058D01*
X27318172Y-33400000D01*
X27318172Y-33100000D01*
X27299662Y-33006942D01*
X27295024Y-33000000D01*
X27299662Y-32993058D01*
X27318172Y-32900000D01*
X27318172Y-32600000D01*
X27299662Y-32506942D01*
X27295024Y-32500000D01*
X27299662Y-32493058D01*
X27318172Y-32400000D01*
X27318172Y-32100000D01*
X27299662Y-32006942D01*
X27295024Y-32000000D01*
X27299662Y-31993058D01*
X27318172Y-31900000D01*
X27318172Y-31600000D01*
X27299662Y-31506942D01*
X27295024Y-31500000D01*
X27299662Y-31493058D01*
X27318172Y-31400000D01*
X27318172Y-31100000D01*
X27299662Y-31006942D01*
X27295024Y-31000000D01*
X27299662Y-30993058D01*
X27318172Y-30900000D01*
X27318172Y-30615500D01*
X27353946Y-30615500D01*
X27444964Y-30706518D01*
X27642886Y-30788500D01*
X27857114Y-30788500D01*
X28055036Y-30706518D01*
X28206518Y-30555036D01*
X28288500Y-30357114D01*
X28288500Y-30142886D01*
X28206518Y-29944964D01*
X28055036Y-29793482D01*
X27857114Y-29711500D01*
X27642886Y-29711500D01*
X27444964Y-29793482D01*
X27353946Y-29884500D01*
X27318172Y-29884500D01*
X27318172Y-29615500D01*
X28603946Y-29615500D01*
X28694964Y-29706518D01*
X28892886Y-29788500D01*
X29107114Y-29788500D01*
X29305036Y-29706518D01*
X29456518Y-29555036D01*
X29538500Y-29357114D01*
X29538500Y-29142886D01*
X29456518Y-28944964D01*
X29305036Y-28793482D01*
X29107114Y-28711500D01*
X28892886Y-28711500D01*
X28694964Y-28793482D01*
X28603946Y-28884500D01*
X27265500Y-28884500D01*
X27265500Y-28872625D01*
X27217875Y-28825000D01*
X26490500Y-28825000D01*
X26490500Y-28856828D01*
X26109500Y-28856828D01*
X26109500Y-28825000D01*
X25382125Y-28825000D01*
X25334500Y-28872625D01*
X25334500Y-28937893D01*
X25339083Y-28948956D01*
X25300338Y-29006942D01*
X25281828Y-29100000D01*
X25281828Y-29320794D01*
X24076000Y-28114967D01*
X24076000Y-28100000D01*
X25281828Y-28100000D01*
X25281828Y-28400000D01*
X25300338Y-28493058D01*
X25339083Y-28551044D01*
X25334500Y-28562107D01*
X25334500Y-28627375D01*
X25382125Y-28675000D01*
X26109500Y-28675000D01*
X26109500Y-28643172D01*
X26490500Y-28643172D01*
X26490500Y-28675000D01*
X27217875Y-28675000D01*
X27265500Y-28627375D01*
X27265500Y-28615500D01*
X27353946Y-28615500D01*
X27444964Y-28706518D01*
X27642886Y-28788500D01*
X27857114Y-28788500D01*
X28055036Y-28706518D01*
X28206518Y-28555036D01*
X28288500Y-28357114D01*
X28288500Y-28142886D01*
X28206518Y-27944964D01*
X28055036Y-27793482D01*
X27857114Y-27711500D01*
X27642886Y-27711500D01*
X27444964Y-27793482D01*
X27353946Y-27884500D01*
X27181770Y-27884500D01*
X27168058Y-27875338D01*
X27075000Y-27856828D01*
X25525000Y-27856828D01*
X25431942Y-27875338D01*
X25353051Y-27928051D01*
X25300338Y-28006942D01*
X25281828Y-28100000D01*
X24076000Y-28100000D01*
X24076000Y-27532099D01*
X24082385Y-27499999D01*
X24076000Y-27467899D01*
X24076000Y-27467895D01*
X24057085Y-27372801D01*
X24013174Y-27307085D01*
X24003218Y-27292184D01*
X24003216Y-27292182D01*
X23985032Y-27264968D01*
X23957817Y-27246784D01*
X23093261Y-26382227D01*
X23110498Y-26356430D01*
X23181396Y-26000000D01*
X23110498Y-25643570D01*
X22908596Y-25341404D01*
X22606430Y-25139502D01*
X22339970Y-25086500D01*
X22160030Y-25086500D01*
X21893570Y-25139502D01*
X21591404Y-25341404D01*
X21389502Y-25643570D01*
X21318604Y-26000000D01*
X21389502Y-26356430D01*
X21591404Y-26658596D01*
X21614458Y-26674000D01*
X21282101Y-26674000D01*
X21250000Y-26667615D01*
X21217899Y-26674000D01*
X21217895Y-26674000D01*
X21122801Y-26692915D01*
X21115500Y-26697793D01*
X21115500Y-26238125D01*
X21067875Y-26190500D01*
X20440500Y-26190500D01*
X20440500Y-26817875D01*
X20488125Y-26865500D01*
X20923467Y-26865500D01*
X20632228Y-27156739D01*
X20606430Y-27139502D01*
X20339970Y-27086500D01*
X20160030Y-27086500D01*
X19893570Y-27139502D01*
X19591404Y-27341404D01*
X19389502Y-27643570D01*
X19318604Y-28000000D01*
X17563500Y-28000000D01*
X17563500Y-26238125D01*
X19384500Y-26238125D01*
X19384500Y-26712893D01*
X19413502Y-26782909D01*
X19467090Y-26836498D01*
X19537107Y-26865500D01*
X20011875Y-26865500D01*
X20059500Y-26817875D01*
X20059500Y-26190500D01*
X19432125Y-26190500D01*
X19384500Y-26238125D01*
X17563500Y-26238125D01*
X17563500Y-25287107D01*
X19384500Y-25287107D01*
X19384500Y-25761875D01*
X19432125Y-25809500D01*
X20059500Y-25809500D01*
X20059500Y-25182125D01*
X20440500Y-25182125D01*
X20440500Y-25809500D01*
X21067875Y-25809500D01*
X21115500Y-25761875D01*
X21115500Y-25287107D01*
X21086498Y-25217091D01*
X21032910Y-25163502D01*
X20962893Y-25134500D01*
X20488125Y-25134500D01*
X20440500Y-25182125D01*
X20059500Y-25182125D01*
X20011875Y-25134500D01*
X19537107Y-25134500D01*
X19467090Y-25163502D01*
X19413502Y-25217091D01*
X19384500Y-25287107D01*
X17563500Y-25287107D01*
X17563500Y-20634300D01*
X19161500Y-20634300D01*
X19161500Y-21365700D01*
X19441395Y-22041426D01*
X19958574Y-22558605D01*
X20634300Y-22838500D01*
X21365700Y-22838500D01*
X22041426Y-22558605D01*
X22558605Y-22041426D01*
X22838500Y-21365700D01*
X22838500Y-20634300D01*
X22558605Y-19958574D01*
X22041426Y-19441395D01*
X21365700Y-19161500D01*
X20634300Y-19161500D01*
X19958574Y-19441395D01*
X19441395Y-19958574D01*
X19161500Y-20634300D01*
X17563500Y-20634300D01*
X17563500Y-17563500D01*
X56436500Y-17563500D01*
X56436500Y-56436500D01*
X56436500Y-56436500D01*
G37*
X56436500Y-56436500D02*
X17563500Y-56436500D01*
X17563500Y-52634300D01*
X19161500Y-52634300D01*
X19161500Y-53365700D01*
X19441395Y-54041426D01*
X19958574Y-54558605D01*
X20634300Y-54838500D01*
X21365700Y-54838500D01*
X22041426Y-54558605D01*
X22558605Y-54041426D01*
X22838500Y-53365700D01*
X22838500Y-52634300D01*
X22558605Y-51958574D01*
X22041426Y-51441395D01*
X21365700Y-51161500D01*
X20634300Y-51161500D01*
X19958574Y-51441395D01*
X19441395Y-51958574D01*
X19161500Y-52634300D01*
X17563500Y-52634300D01*
X17563500Y-28000000D01*
X19318604Y-28000000D01*
X19389502Y-28356430D01*
X19591404Y-28658596D01*
X19893570Y-28860498D01*
X20160030Y-28913500D01*
X20339970Y-28913500D01*
X20606430Y-28860498D01*
X20908596Y-28658596D01*
X21110498Y-28356430D01*
X21181396Y-28000000D01*
X21110498Y-27643570D01*
X21093261Y-27617772D01*
X21385033Y-27326000D01*
X21614458Y-27326000D01*
X21591404Y-27341404D01*
X21389502Y-27643570D01*
X21318604Y-28000000D01*
X21389502Y-28356430D01*
X21591404Y-28658596D01*
X21614458Y-28674000D01*
X21282101Y-28674000D01*
X21250000Y-28667615D01*
X21217899Y-28674000D01*
X21217895Y-28674000D01*
X21122801Y-28692915D01*
X21014968Y-28764968D01*
X20996782Y-28792185D01*
X20632228Y-29156739D01*
X20606430Y-29139502D01*
X20339970Y-29086500D01*
X20160030Y-29086500D01*
X19893570Y-29139502D01*
X19591404Y-29341404D01*
X19389502Y-29643570D01*
X19318604Y-30000000D01*
X19389502Y-30356430D01*
X19591404Y-30658596D01*
X19893570Y-30860498D01*
X20160030Y-30913500D01*
X20339970Y-30913500D01*
X20606430Y-30860498D01*
X20908596Y-30658596D01*
X21110498Y-30356430D01*
X21181396Y-30000000D01*
X21110498Y-29643570D01*
X21093261Y-29617772D01*
X21385033Y-29326000D01*
X21614458Y-29326000D01*
X21591404Y-29341404D01*
X21389502Y-29643570D01*
X21318604Y-30000000D01*
X21389502Y-30356430D01*
X21591404Y-30658596D01*
X21614458Y-30674000D01*
X21282101Y-30674000D01*
X21250000Y-30667615D01*
X21217899Y-30674000D01*
X21217895Y-30674000D01*
X21122801Y-30692915D01*
X21014968Y-30764968D01*
X20996782Y-30792185D01*
X20632228Y-31156739D01*
X20606430Y-31139502D01*
X20339970Y-31086500D01*
X20160030Y-31086500D01*
X19893570Y-31139502D01*
X19591404Y-31341404D01*
X19389502Y-31643570D01*
X19318604Y-32000000D01*
X19389502Y-32356430D01*
X19591404Y-32658596D01*
X19893570Y-32860498D01*
X20160030Y-32913500D01*
X20339970Y-32913500D01*
X20606430Y-32860498D01*
X20908596Y-32658596D01*
X21110498Y-32356430D01*
X21181396Y-32000000D01*
X21110498Y-31643570D01*
X21093261Y-31617772D01*
X21385033Y-31326000D01*
X21614458Y-31326000D01*
X21591404Y-31341404D01*
X21389502Y-31643570D01*
X21318604Y-32000000D01*
X21389502Y-32356430D01*
X21591404Y-32658596D01*
X21614458Y-32674000D01*
X21282101Y-32674000D01*
X21250000Y-32667615D01*
X21217899Y-32674000D01*
X21217895Y-32674000D01*
X21122801Y-32692915D01*
X21014968Y-32764968D01*
X20996783Y-32792184D01*
X20632228Y-33156739D01*
X20606430Y-33139502D01*
X20339970Y-33086500D01*
X20160030Y-33086500D01*
X19893570Y-33139502D01*
X19591404Y-33341404D01*
X19389502Y-33643570D01*
X19318604Y-34000000D01*
X19389502Y-34356430D01*
X19591404Y-34658596D01*
X19893570Y-34860498D01*
X20160030Y-34913500D01*
X20339970Y-34913500D01*
X20606430Y-34860498D01*
X20908596Y-34658596D01*
X21110498Y-34356430D01*
X21181396Y-34000000D01*
X21110498Y-33643570D01*
X21093261Y-33617772D01*
X21385033Y-33326000D01*
X21614458Y-33326000D01*
X21591404Y-33341404D01*
X21389502Y-33643570D01*
X21318604Y-34000000D01*
X21389502Y-34356430D01*
X21591404Y-34658596D01*
X21614458Y-34674000D01*
X21282101Y-34674000D01*
X21250000Y-34667615D01*
X21217899Y-34674000D01*
X21217895Y-34674000D01*
X21122801Y-34692915D01*
X21014968Y-34764968D01*
X20996782Y-34792185D01*
X20632228Y-35156739D01*
X20606430Y-35139502D01*
X20339970Y-35086500D01*
X20160030Y-35086500D01*
X19893570Y-35139502D01*
X19591404Y-35341404D01*
X19389502Y-35643570D01*
X19318604Y-36000000D01*
X19389502Y-36356430D01*
X19591404Y-36658596D01*
X19893570Y-36860498D01*
X20160030Y-36913500D01*
X20339970Y-36913500D01*
X20606430Y-36860498D01*
X20908596Y-36658596D01*
X21110498Y-36356430D01*
X21181396Y-36000000D01*
X21110498Y-35643570D01*
X21093261Y-35617772D01*
X21385033Y-35326000D01*
X21614458Y-35326000D01*
X21591404Y-35341404D01*
X21389502Y-35643570D01*
X21318604Y-36000000D01*
X21389502Y-36356430D01*
X21591404Y-36658596D01*
X21614458Y-36674000D01*
X21282101Y-36674000D01*
X21250000Y-36667615D01*
X21217899Y-36674000D01*
X21217895Y-36674000D01*
X21122801Y-36692915D01*
X21014968Y-36764968D01*
X20996782Y-36792185D01*
X20632228Y-37156739D01*
X20606430Y-37139502D01*
X20339970Y-37086500D01*
X20160030Y-37086500D01*
X19893570Y-37139502D01*
X19591404Y-37341404D01*
X19389502Y-37643570D01*
X19318604Y-38000000D01*
X19389502Y-38356430D01*
X19591404Y-38658596D01*
X19893570Y-38860498D01*
X20160030Y-38913500D01*
X20339970Y-38913500D01*
X20606430Y-38860498D01*
X20908596Y-38658596D01*
X21110498Y-38356430D01*
X21181396Y-38000000D01*
X21110498Y-37643570D01*
X21093261Y-37617772D01*
X21385033Y-37326000D01*
X21614458Y-37326000D01*
X21591404Y-37341404D01*
X21389502Y-37643570D01*
X21318604Y-38000000D01*
X21389502Y-38356430D01*
X21591404Y-38658596D01*
X21614458Y-38674000D01*
X21282101Y-38674000D01*
X21250000Y-38667615D01*
X21217899Y-38674000D01*
X21217895Y-38674000D01*
X21122801Y-38692915D01*
X21014968Y-38764968D01*
X20996783Y-38792184D01*
X20632228Y-39156739D01*
X20606430Y-39139502D01*
X20339970Y-39086500D01*
X20160030Y-39086500D01*
X19893570Y-39139502D01*
X19591404Y-39341404D01*
X19389502Y-39643570D01*
X19318604Y-40000000D01*
X19389502Y-40356430D01*
X19591404Y-40658596D01*
X19893570Y-40860498D01*
X20160030Y-40913500D01*
X20339970Y-40913500D01*
X20606430Y-40860498D01*
X20908596Y-40658596D01*
X21110498Y-40356430D01*
X21181396Y-40000000D01*
X21110498Y-39643570D01*
X21093261Y-39617772D01*
X21385033Y-39326000D01*
X21614458Y-39326000D01*
X21591404Y-39341404D01*
X21389502Y-39643570D01*
X21318604Y-40000000D01*
X21389502Y-40356430D01*
X21591404Y-40658596D01*
X21614458Y-40674000D01*
X21282101Y-40674000D01*
X21250000Y-40667615D01*
X21217899Y-40674000D01*
X21217895Y-40674000D01*
X21122801Y-40692915D01*
X21014968Y-40764968D01*
X20996782Y-40792185D01*
X20632228Y-41156739D01*
X20606430Y-41139502D01*
X20339970Y-41086500D01*
X20160030Y-41086500D01*
X19893570Y-41139502D01*
X19591404Y-41341404D01*
X19389502Y-41643570D01*
X19318604Y-42000000D01*
X19389502Y-42356430D01*
X19591404Y-42658596D01*
X19893570Y-42860498D01*
X20160030Y-42913500D01*
X20339970Y-42913500D01*
X20606430Y-42860498D01*
X20908596Y-42658596D01*
X21110498Y-42356430D01*
X21181396Y-42000000D01*
X21110498Y-41643570D01*
X21093261Y-41617772D01*
X21385033Y-41326000D01*
X21614458Y-41326000D01*
X21591404Y-41341404D01*
X21389502Y-41643570D01*
X21318604Y-42000000D01*
X21389502Y-42356430D01*
X21591404Y-42658596D01*
X21614458Y-42674000D01*
X21282101Y-42674000D01*
X21250000Y-42667615D01*
X21217899Y-42674000D01*
X21217895Y-42674000D01*
X21122801Y-42692915D01*
X21014968Y-42764968D01*
X20996782Y-42792185D01*
X20632228Y-43156739D01*
X20606430Y-43139502D01*
X20339970Y-43086500D01*
X20160030Y-43086500D01*
X19893570Y-43139502D01*
X19591404Y-43341404D01*
X19389502Y-43643570D01*
X19318604Y-44000000D01*
X19389502Y-44356430D01*
X19591404Y-44658596D01*
X19893570Y-44860498D01*
X20160030Y-44913500D01*
X20339970Y-44913500D01*
X20606430Y-44860498D01*
X20908596Y-44658596D01*
X21110498Y-44356430D01*
X21181396Y-44000000D01*
X21110498Y-43643570D01*
X21093261Y-43617772D01*
X21385033Y-43326000D01*
X21614458Y-43326000D01*
X21591404Y-43341404D01*
X21389502Y-43643570D01*
X21318604Y-44000000D01*
X21389502Y-44356430D01*
X21591404Y-44658596D01*
X21614458Y-44674000D01*
X21282101Y-44674000D01*
X21250000Y-44667615D01*
X21217899Y-44674000D01*
X21217895Y-44674000D01*
X21122801Y-44692915D01*
X21014968Y-44764968D01*
X20996782Y-44792185D01*
X20632228Y-45156739D01*
X20606430Y-45139502D01*
X20339970Y-45086500D01*
X20160030Y-45086500D01*
X19893570Y-45139502D01*
X19591404Y-45341404D01*
X19389502Y-45643570D01*
X19318604Y-46000000D01*
X19389502Y-46356430D01*
X19591404Y-46658596D01*
X19893570Y-46860498D01*
X20160030Y-46913500D01*
X20339970Y-46913500D01*
X20606430Y-46860498D01*
X20908596Y-46658596D01*
X21110498Y-46356430D01*
X21181396Y-46000000D01*
X21110498Y-45643570D01*
X21093261Y-45617772D01*
X21385033Y-45326000D01*
X21614458Y-45326000D01*
X21591404Y-45341404D01*
X21389502Y-45643570D01*
X21318604Y-46000000D01*
X21389502Y-46356430D01*
X21591404Y-46658596D01*
X21614458Y-46674000D01*
X21282101Y-46674000D01*
X21250000Y-46667615D01*
X21217899Y-46674000D01*
X21217895Y-46674000D01*
X21122801Y-46692915D01*
X21014968Y-46764968D01*
X20996782Y-46792185D01*
X20632228Y-47156739D01*
X20606430Y-47139502D01*
X20339970Y-47086500D01*
X20160030Y-47086500D01*
X19893570Y-47139502D01*
X19591404Y-47341404D01*
X19389502Y-47643570D01*
X19318604Y-48000000D01*
X19389502Y-48356430D01*
X19591404Y-48658596D01*
X19893570Y-48860498D01*
X20160030Y-48913500D01*
X20339970Y-48913500D01*
X20606430Y-48860498D01*
X20908596Y-48658596D01*
X21110498Y-48356430D01*
X21181396Y-48000000D01*
X21110498Y-47643570D01*
X21093261Y-47617772D01*
X21385033Y-47326000D01*
X21614458Y-47326000D01*
X21591404Y-47341404D01*
X21389502Y-47643570D01*
X21318604Y-48000000D01*
X21389502Y-48356430D01*
X21591404Y-48658596D01*
X21893570Y-48860498D01*
X22160030Y-48913500D01*
X22339970Y-48913500D01*
X22606430Y-48860498D01*
X22908596Y-48658596D01*
X23110498Y-48356430D01*
X23181396Y-48000000D01*
X23110498Y-47643570D01*
X23093261Y-47617773D01*
X23176210Y-47534824D01*
X23176212Y-47534821D01*
X23957817Y-46753217D01*
X23985032Y-46735032D01*
X24003216Y-46707818D01*
X24003218Y-46707816D01*
X24057085Y-46627199D01*
X24057085Y-46627198D01*
X24076000Y-46532105D01*
X24076000Y-46532101D01*
X24082385Y-46500000D01*
X24076000Y-46467899D01*
X24076000Y-46135033D01*
X24338408Y-45872625D01*
X25334500Y-45872625D01*
X25334500Y-45937893D01*
X25363502Y-46007909D01*
X25417090Y-46061498D01*
X25487107Y-46090500D01*
X26061875Y-46090500D01*
X26109500Y-46042875D01*
X26109500Y-45825000D01*
X26490500Y-45825000D01*
X26490500Y-46042875D01*
X26538125Y-46090500D01*
X27112893Y-46090500D01*
X27182910Y-46061498D01*
X27236498Y-46007909D01*
X27265500Y-45937893D01*
X27265500Y-45872625D01*
X27217875Y-45825000D01*
X26490500Y-45825000D01*
X26109500Y-45825000D01*
X25382125Y-45825000D01*
X25334500Y-45872625D01*
X24338408Y-45872625D01*
X25286673Y-44924360D01*
X25300338Y-44993058D01*
X25304976Y-45000000D01*
X25300338Y-45006942D01*
X25281828Y-45100000D01*
X25281828Y-45400000D01*
X25300338Y-45493058D01*
X25339083Y-45551044D01*
X25334500Y-45562107D01*
X25334500Y-45627375D01*
X25382125Y-45675000D01*
X26109500Y-45675000D01*
X26109500Y-45643172D01*
X26490500Y-45643172D01*
X26490500Y-45675000D01*
X27217875Y-45675000D01*
X27265500Y-45627375D01*
X27265500Y-45615500D01*
X28714008Y-45615500D01*
X28750000Y-45622659D01*
X28785992Y-45615500D01*
X28785996Y-45615500D01*
X28892611Y-45594293D01*
X28976110Y-45538500D01*
X29107114Y-45538500D01*
X29305036Y-45456518D01*
X29456518Y-45305036D01*
X29538500Y-45107114D01*
X29538500Y-45094210D01*
X29713698Y-45269408D01*
X29517007Y-45466099D01*
X29486490Y-45486490D01*
X29405707Y-45607390D01*
X29384500Y-45714005D01*
X29384500Y-45714008D01*
X29377341Y-45750000D01*
X29384500Y-45785992D01*
X29384500Y-46681828D01*
X29115500Y-46681828D01*
X29115500Y-46646054D01*
X29206518Y-46555036D01*
X29288500Y-46357114D01*
X29288500Y-46142886D01*
X29206518Y-45944964D01*
X29055036Y-45793482D01*
X28857114Y-45711500D01*
X28642886Y-45711500D01*
X28500000Y-45770685D01*
X28357114Y-45711500D01*
X28142886Y-45711500D01*
X27944964Y-45793482D01*
X27793482Y-45944964D01*
X27711500Y-46142886D01*
X27711500Y-46357114D01*
X27793482Y-46555036D01*
X27884501Y-46646055D01*
X27884501Y-46818229D01*
X27875338Y-46831942D01*
X27856828Y-46925000D01*
X27856828Y-48475000D01*
X27875338Y-48568058D01*
X27928051Y-48646949D01*
X28006942Y-48699662D01*
X28100000Y-48718172D01*
X28400000Y-48718172D01*
X28493058Y-48699662D01*
X28500000Y-48695024D01*
X28506942Y-48699662D01*
X28575640Y-48713327D01*
X27965177Y-49323790D01*
X27965174Y-49323792D01*
X26382227Y-50906739D01*
X26356430Y-50889502D01*
X26089970Y-50836500D01*
X25910030Y-50836500D01*
X25643570Y-50889502D01*
X25341404Y-51091404D01*
X25139502Y-51393570D01*
X25068604Y-51750000D01*
X25139502Y-52106430D01*
X25341404Y-52408596D01*
X25643570Y-52610498D01*
X25910030Y-52663500D01*
X26089970Y-52663500D01*
X26356430Y-52610498D01*
X26658596Y-52408596D01*
X26674001Y-52385541D01*
X26674001Y-52717894D01*
X26667615Y-52750000D01*
X26684257Y-52833669D01*
X26675000Y-52831828D01*
X25325000Y-52831828D01*
X25231942Y-52850338D01*
X25153051Y-52903051D01*
X25100338Y-52981942D01*
X25081828Y-53075000D01*
X25081828Y-54425000D01*
X25100338Y-54518058D01*
X25153051Y-54596949D01*
X25231942Y-54649662D01*
X25325000Y-54668172D01*
X26675000Y-54668172D01*
X26768058Y-54649662D01*
X26846949Y-54596949D01*
X26899662Y-54518058D01*
X26918172Y-54425000D01*
X26918172Y-53129205D01*
X27156739Y-53367772D01*
X27139502Y-53393570D01*
X27068604Y-53750000D01*
X27139502Y-54106430D01*
X27341404Y-54408596D01*
X27643570Y-54610498D01*
X27910030Y-54663500D01*
X28089970Y-54663500D01*
X28356430Y-54610498D01*
X28658596Y-54408596D01*
X28860498Y-54106430D01*
X28931396Y-53750000D01*
X28860498Y-53393570D01*
X28658596Y-53091404D01*
X28356430Y-52889502D01*
X28089970Y-52836500D01*
X27910030Y-52836500D01*
X27643570Y-52889502D01*
X27617772Y-52906739D01*
X27326000Y-52614967D01*
X27326000Y-52385542D01*
X27341404Y-52408596D01*
X27643570Y-52610498D01*
X27910030Y-52663500D01*
X28089970Y-52663500D01*
X28356430Y-52610498D01*
X28658596Y-52408596D01*
X28674001Y-52385541D01*
X28674001Y-52717894D01*
X28667615Y-52750000D01*
X28692915Y-52877198D01*
X28746782Y-52957815D01*
X28746785Y-52957818D01*
X28764969Y-52985032D01*
X28792183Y-53003216D01*
X29156739Y-53367772D01*
X29139502Y-53393570D01*
X29068604Y-53750000D01*
X29139502Y-54106430D01*
X29341404Y-54408596D01*
X29643570Y-54610498D01*
X29910030Y-54663500D01*
X30089970Y-54663500D01*
X30356430Y-54610498D01*
X30658596Y-54408596D01*
X30860498Y-54106430D01*
X30931396Y-53750000D01*
X30860498Y-53393570D01*
X30658596Y-53091404D01*
X30356430Y-52889502D01*
X30089970Y-52836500D01*
X29910030Y-52836500D01*
X29643570Y-52889502D01*
X29617772Y-52906739D01*
X29326000Y-52614967D01*
X29326000Y-52385542D01*
X29341404Y-52408596D01*
X29643570Y-52610498D01*
X29910030Y-52663500D01*
X30089970Y-52663500D01*
X30356430Y-52610498D01*
X30658596Y-52408596D01*
X30674001Y-52385541D01*
X30674001Y-52717894D01*
X30667615Y-52750000D01*
X30692915Y-52877198D01*
X30746782Y-52957815D01*
X30746785Y-52957818D01*
X30764969Y-52985032D01*
X30792183Y-53003216D01*
X31156739Y-53367772D01*
X31139502Y-53393570D01*
X31068604Y-53750000D01*
X31139502Y-54106430D01*
X31341404Y-54408596D01*
X31643570Y-54610498D01*
X31910030Y-54663500D01*
X32089970Y-54663500D01*
X32356430Y-54610498D01*
X32658596Y-54408596D01*
X32860498Y-54106430D01*
X32931396Y-53750000D01*
X32860498Y-53393570D01*
X32658596Y-53091404D01*
X32356430Y-52889502D01*
X32089970Y-52836500D01*
X31910030Y-52836500D01*
X31643570Y-52889502D01*
X31617772Y-52906739D01*
X31326000Y-52614967D01*
X31326000Y-52385542D01*
X31341404Y-52408596D01*
X31643570Y-52610498D01*
X31910030Y-52663500D01*
X32089970Y-52663500D01*
X32356430Y-52610498D01*
X32658596Y-52408596D01*
X32674001Y-52385541D01*
X32674001Y-52717894D01*
X32667615Y-52750000D01*
X32692915Y-52877198D01*
X32746782Y-52957815D01*
X32746785Y-52957818D01*
X32764969Y-52985032D01*
X32792183Y-53003216D01*
X33156739Y-53367772D01*
X33139502Y-53393570D01*
X33068604Y-53750000D01*
X33139502Y-54106430D01*
X33341404Y-54408596D01*
X33643570Y-54610498D01*
X33910030Y-54663500D01*
X34089970Y-54663500D01*
X34356430Y-54610498D01*
X34658596Y-54408596D01*
X34860498Y-54106430D01*
X34931396Y-53750000D01*
X34860498Y-53393570D01*
X34658596Y-53091404D01*
X34356430Y-52889502D01*
X34089970Y-52836500D01*
X33910030Y-52836500D01*
X33643570Y-52889502D01*
X33617772Y-52906739D01*
X33326000Y-52614967D01*
X33326000Y-52385542D01*
X33341404Y-52408596D01*
X33643570Y-52610498D01*
X33910030Y-52663500D01*
X34089970Y-52663500D01*
X34356430Y-52610498D01*
X34658596Y-52408596D01*
X34674001Y-52385541D01*
X34674001Y-52717894D01*
X34667615Y-52750000D01*
X34692915Y-52877198D01*
X34746782Y-52957815D01*
X34746785Y-52957818D01*
X34764969Y-52985032D01*
X34792183Y-53003216D01*
X35156739Y-53367772D01*
X35139502Y-53393570D01*
X35068604Y-53750000D01*
X35139502Y-54106430D01*
X35341404Y-54408596D01*
X35643570Y-54610498D01*
X35910030Y-54663500D01*
X36089970Y-54663500D01*
X36356430Y-54610498D01*
X36658596Y-54408596D01*
X36860498Y-54106430D01*
X36931396Y-53750000D01*
X36860498Y-53393570D01*
X36658596Y-53091404D01*
X36356430Y-52889502D01*
X36089970Y-52836500D01*
X35910030Y-52836500D01*
X35643570Y-52889502D01*
X35617772Y-52906739D01*
X35326000Y-52614967D01*
X35326000Y-52385542D01*
X35341404Y-52408596D01*
X35643570Y-52610498D01*
X35910030Y-52663500D01*
X36089970Y-52663500D01*
X36356430Y-52610498D01*
X36658596Y-52408596D01*
X36674001Y-52385541D01*
X36674001Y-52717894D01*
X36667615Y-52750000D01*
X36692915Y-52877198D01*
X36746782Y-52957815D01*
X36746785Y-52957818D01*
X36764969Y-52985032D01*
X36792183Y-53003216D01*
X37156739Y-53367772D01*
X37139502Y-53393570D01*
X37068604Y-53750000D01*
X37139502Y-54106430D01*
X37341404Y-54408596D01*
X37643570Y-54610498D01*
X37910030Y-54663500D01*
X38089970Y-54663500D01*
X38356430Y-54610498D01*
X38658596Y-54408596D01*
X38860498Y-54106430D01*
X38931396Y-53750000D01*
X38860498Y-53393570D01*
X38658596Y-53091404D01*
X38356430Y-52889502D01*
X38089970Y-52836500D01*
X37910030Y-52836500D01*
X37643570Y-52889502D01*
X37617772Y-52906739D01*
X37326000Y-52614967D01*
X37326000Y-52385542D01*
X37341404Y-52408596D01*
X37643570Y-52610498D01*
X37910030Y-52663500D01*
X38089970Y-52663500D01*
X38356430Y-52610498D01*
X38658596Y-52408596D01*
X38674001Y-52385541D01*
X38674001Y-52717894D01*
X38667615Y-52750000D01*
X38692915Y-52877198D01*
X38746782Y-52957815D01*
X38746785Y-52957818D01*
X38764969Y-52985032D01*
X38792183Y-53003216D01*
X39156739Y-53367772D01*
X39139502Y-53393570D01*
X39068604Y-53750000D01*
X39139502Y-54106430D01*
X39341404Y-54408596D01*
X39643570Y-54610498D01*
X39910030Y-54663500D01*
X40089970Y-54663500D01*
X40356430Y-54610498D01*
X40658596Y-54408596D01*
X40860498Y-54106430D01*
X40931396Y-53750000D01*
X40860498Y-53393570D01*
X40658596Y-53091404D01*
X40356430Y-52889502D01*
X40089970Y-52836500D01*
X39910030Y-52836500D01*
X39643570Y-52889502D01*
X39617772Y-52906739D01*
X39326000Y-52614967D01*
X39326000Y-52385542D01*
X39341404Y-52408596D01*
X39643570Y-52610498D01*
X39910030Y-52663500D01*
X40089970Y-52663500D01*
X40356430Y-52610498D01*
X40658596Y-52408596D01*
X40674001Y-52385541D01*
X40674001Y-52717894D01*
X40667615Y-52750000D01*
X40692915Y-52877198D01*
X40746782Y-52957815D01*
X40746785Y-52957818D01*
X40764969Y-52985032D01*
X40792183Y-53003216D01*
X41156739Y-53367772D01*
X41139502Y-53393570D01*
X41068604Y-53750000D01*
X41139502Y-54106430D01*
X41341404Y-54408596D01*
X41643570Y-54610498D01*
X41910030Y-54663500D01*
X42089970Y-54663500D01*
X42356430Y-54610498D01*
X42658596Y-54408596D01*
X42860498Y-54106430D01*
X42931396Y-53750000D01*
X42860498Y-53393570D01*
X42658596Y-53091404D01*
X42356430Y-52889502D01*
X42089970Y-52836500D01*
X41910030Y-52836500D01*
X41643570Y-52889502D01*
X41617772Y-52906739D01*
X41326000Y-52614967D01*
X41326000Y-52385542D01*
X41341404Y-52408596D01*
X41643570Y-52610498D01*
X41910030Y-52663500D01*
X42089970Y-52663500D01*
X42356430Y-52610498D01*
X42658596Y-52408596D01*
X42674001Y-52385541D01*
X42674001Y-52717894D01*
X42667615Y-52750000D01*
X42692915Y-52877198D01*
X42746782Y-52957815D01*
X42746785Y-52957818D01*
X42764969Y-52985032D01*
X42792183Y-53003216D01*
X43156739Y-53367772D01*
X43139502Y-53393570D01*
X43068604Y-53750000D01*
X43139502Y-54106430D01*
X43341404Y-54408596D01*
X43643570Y-54610498D01*
X43910030Y-54663500D01*
X44089970Y-54663500D01*
X44356430Y-54610498D01*
X44658596Y-54408596D01*
X44860498Y-54106430D01*
X44931396Y-53750000D01*
X44860498Y-53393570D01*
X44658596Y-53091404D01*
X44356430Y-52889502D01*
X44089970Y-52836500D01*
X43910030Y-52836500D01*
X43643570Y-52889502D01*
X43617772Y-52906739D01*
X43326000Y-52614967D01*
X43326000Y-52385542D01*
X43341404Y-52408596D01*
X43643570Y-52610498D01*
X43910030Y-52663500D01*
X44089970Y-52663500D01*
X44356430Y-52610498D01*
X44658596Y-52408596D01*
X44674001Y-52385541D01*
X44674001Y-52717894D01*
X44667615Y-52750000D01*
X44692915Y-52877198D01*
X44746782Y-52957815D01*
X44746785Y-52957818D01*
X44764969Y-52985032D01*
X44792183Y-53003216D01*
X45156739Y-53367772D01*
X45139502Y-53393570D01*
X45068604Y-53750000D01*
X45139502Y-54106430D01*
X45341404Y-54408596D01*
X45643570Y-54610498D01*
X45910030Y-54663500D01*
X46089970Y-54663500D01*
X46356430Y-54610498D01*
X46658596Y-54408596D01*
X46860498Y-54106430D01*
X46931396Y-53750000D01*
X46860498Y-53393570D01*
X46658596Y-53091404D01*
X46356430Y-52889502D01*
X46089970Y-52836500D01*
X45910030Y-52836500D01*
X45643570Y-52889502D01*
X45617772Y-52906739D01*
X45326000Y-52614967D01*
X45326000Y-52385542D01*
X45341404Y-52408596D01*
X45643570Y-52610498D01*
X45910030Y-52663500D01*
X46089970Y-52663500D01*
X46356430Y-52610498D01*
X46658596Y-52408596D01*
X46674001Y-52385541D01*
X46674001Y-52717894D01*
X46667615Y-52750000D01*
X46692915Y-52877198D01*
X46746782Y-52957815D01*
X46746785Y-52957818D01*
X46764969Y-52985032D01*
X46792183Y-53003216D01*
X47156739Y-53367772D01*
X47139502Y-53393570D01*
X47068604Y-53750000D01*
X47139502Y-54106430D01*
X47341404Y-54408596D01*
X47643570Y-54610498D01*
X47910030Y-54663500D01*
X48089970Y-54663500D01*
X48356430Y-54610498D01*
X48658596Y-54408596D01*
X48860498Y-54106430D01*
X48931396Y-53750000D01*
X48860498Y-53393570D01*
X48658596Y-53091404D01*
X48356430Y-52889502D01*
X48089970Y-52836500D01*
X47910030Y-52836500D01*
X47643570Y-52889502D01*
X47617772Y-52906739D01*
X47326000Y-52614967D01*
X47326000Y-52385542D01*
X47341404Y-52408596D01*
X47643570Y-52610498D01*
X47910030Y-52663500D01*
X48089970Y-52663500D01*
X48236768Y-52634300D01*
X51161500Y-52634300D01*
X51161500Y-53365700D01*
X51441395Y-54041426D01*
X51958574Y-54558605D01*
X52634300Y-54838500D01*
X53365700Y-54838500D01*
X54041426Y-54558605D01*
X54558605Y-54041426D01*
X54838500Y-53365700D01*
X54838500Y-52634300D01*
X54558605Y-51958574D01*
X54041426Y-51441395D01*
X53365700Y-51161500D01*
X52634300Y-51161500D01*
X51958574Y-51441395D01*
X51441395Y-51958574D01*
X51161500Y-52634300D01*
X48236768Y-52634300D01*
X48356430Y-52610498D01*
X48658596Y-52408596D01*
X48860498Y-52106430D01*
X48931396Y-51750000D01*
X48860498Y-51393570D01*
X48658596Y-51091404D01*
X48356430Y-50889502D01*
X48089970Y-50836500D01*
X47910030Y-50836500D01*
X47643570Y-50889502D01*
X47617772Y-50906739D01*
X46076000Y-49364967D01*
X46076000Y-48640886D01*
X46124662Y-48568058D01*
X46143172Y-48475000D01*
X46143172Y-46925000D01*
X46124662Y-46831942D01*
X46071949Y-46753051D01*
X45993058Y-46700338D01*
X45900000Y-46681828D01*
X45600000Y-46681828D01*
X45506942Y-46700338D01*
X45500000Y-46704976D01*
X45493058Y-46700338D01*
X45400000Y-46681828D01*
X45115500Y-46681828D01*
X45115500Y-46646054D01*
X45206518Y-46555036D01*
X45288500Y-46357114D01*
X45288500Y-46142886D01*
X45206518Y-45944964D01*
X45055036Y-45793482D01*
X44857114Y-45711500D01*
X44642886Y-45711500D01*
X44444964Y-45793482D01*
X44293482Y-45944964D01*
X44211500Y-46142886D01*
X44211500Y-46357114D01*
X44293482Y-46555036D01*
X44384501Y-46646055D01*
X44384501Y-46681828D01*
X44100000Y-46681828D01*
X44006942Y-46700338D01*
X44000000Y-46704976D01*
X43993058Y-46700338D01*
X43900000Y-46681828D01*
X43600000Y-46681828D01*
X43506942Y-46700338D01*
X43500000Y-46704976D01*
X43493058Y-46700338D01*
X43400000Y-46681828D01*
X43100000Y-46681828D01*
X43006942Y-46700338D01*
X43000000Y-46704976D01*
X42993058Y-46700338D01*
X42900000Y-46681828D01*
X42600000Y-46681828D01*
X42506942Y-46700338D01*
X42500000Y-46704976D01*
X42493058Y-46700338D01*
X42400000Y-46681828D01*
X42100000Y-46681828D01*
X42006942Y-46700338D01*
X42000000Y-46704976D01*
X41993058Y-46700338D01*
X41900000Y-46681828D01*
X41600000Y-46681828D01*
X41506942Y-46700338D01*
X41448956Y-46739083D01*
X41437893Y-46734500D01*
X41372625Y-46734500D01*
X41325000Y-46782125D01*
X41325000Y-47509500D01*
X41356828Y-47509500D01*
X41356828Y-47890500D01*
X41325000Y-47890500D01*
X41325000Y-48617875D01*
X41372625Y-48665500D01*
X41424000Y-48665500D01*
X41424001Y-50364965D01*
X40792185Y-50996782D01*
X40764968Y-51014968D01*
X40692915Y-51122802D01*
X40689855Y-51138186D01*
X40658596Y-51091404D01*
X40356430Y-50889502D01*
X40326000Y-50883449D01*
X40326000Y-50782099D01*
X40332385Y-50749999D01*
X40326000Y-50717899D01*
X40326000Y-50717895D01*
X40307085Y-50622801D01*
X40263174Y-50557085D01*
X40253218Y-50542184D01*
X40253216Y-50542182D01*
X40235032Y-50514968D01*
X40207818Y-50496784D01*
X40076000Y-50364967D01*
X40076000Y-48713398D01*
X40100000Y-48718172D01*
X40400000Y-48718172D01*
X40493058Y-48699662D01*
X40500000Y-48695024D01*
X40506942Y-48699662D01*
X40600000Y-48718172D01*
X40900000Y-48718172D01*
X40993058Y-48699662D01*
X41051044Y-48660917D01*
X41062107Y-48665500D01*
X41127375Y-48665500D01*
X41175000Y-48617875D01*
X41175000Y-47890500D01*
X41143172Y-47890500D01*
X41143172Y-47509500D01*
X41175000Y-47509500D01*
X41175000Y-46782125D01*
X41127375Y-46734500D01*
X41115500Y-46734500D01*
X41115500Y-45746500D01*
X42926480Y-45746500D01*
X43000000Y-45761124D01*
X43073520Y-45746500D01*
X43291270Y-45703187D01*
X43381516Y-45642886D01*
X45711500Y-45642886D01*
X45711500Y-45857114D01*
X45793482Y-46055036D01*
X45944964Y-46206518D01*
X46142886Y-46288500D01*
X46357114Y-46288500D01*
X46555036Y-46206518D01*
X46646054Y-46115500D01*
X46818230Y-46115500D01*
X46831942Y-46124662D01*
X46925000Y-46143172D01*
X48475000Y-46143172D01*
X48568058Y-46124662D01*
X48646949Y-46071949D01*
X48699662Y-45993058D01*
X48718172Y-45900000D01*
X48718172Y-45600000D01*
X48699662Y-45506942D01*
X48660917Y-45448956D01*
X48665500Y-45437893D01*
X48665500Y-45372625D01*
X48617875Y-45325000D01*
X47890500Y-45325000D01*
X47890500Y-45356828D01*
X47509500Y-45356828D01*
X47509500Y-45325000D01*
X46782125Y-45325000D01*
X46734500Y-45372625D01*
X46734500Y-45384500D01*
X46646054Y-45384500D01*
X46555036Y-45293482D01*
X46357114Y-45211500D01*
X46142886Y-45211500D01*
X45944964Y-45293482D01*
X45793482Y-45444964D01*
X45711500Y-45642886D01*
X43381516Y-45642886D01*
X43538196Y-45538196D01*
X43579845Y-45475864D01*
X44495920Y-44559790D01*
X44461500Y-44642886D01*
X44461500Y-44857114D01*
X44543482Y-45055036D01*
X44694964Y-45206518D01*
X44892886Y-45288500D01*
X45107114Y-45288500D01*
X45305036Y-45206518D01*
X45396054Y-45115500D01*
X46734500Y-45115500D01*
X46734500Y-45127375D01*
X46782125Y-45175000D01*
X47509500Y-45175000D01*
X47509500Y-45143172D01*
X47890500Y-45143172D01*
X47890500Y-45175000D01*
X48617875Y-45175000D01*
X48665500Y-45127375D01*
X48665500Y-45062107D01*
X48660917Y-45051044D01*
X48699662Y-44993058D01*
X48718172Y-44900000D01*
X48718172Y-44600000D01*
X48713398Y-44576000D01*
X48864967Y-44576000D01*
X50424000Y-46135033D01*
X50424001Y-46467894D01*
X50417615Y-46500000D01*
X50442915Y-46627198D01*
X50496782Y-46707815D01*
X50496785Y-46707818D01*
X50514969Y-46735032D01*
X50542183Y-46753216D01*
X50996782Y-47207815D01*
X51014968Y-47235032D01*
X51122801Y-47307085D01*
X51138186Y-47310145D01*
X51091404Y-47341404D01*
X50889502Y-47643570D01*
X50818604Y-48000000D01*
X50889502Y-48356430D01*
X51091404Y-48658596D01*
X51393570Y-48860498D01*
X51660030Y-48913500D01*
X51839970Y-48913500D01*
X52106430Y-48860498D01*
X52408596Y-48658596D01*
X52610498Y-48356430D01*
X52617698Y-48320228D01*
X52945920Y-48320228D01*
X52954974Y-48342150D01*
X53146427Y-48620349D01*
X53429768Y-48804105D01*
X53559500Y-48796675D01*
X53559500Y-48190500D01*
X53940500Y-48190500D01*
X53940500Y-48796675D01*
X54070232Y-48804105D01*
X54353573Y-48620349D01*
X54545026Y-48342150D01*
X54554080Y-48320228D01*
X54545380Y-48190500D01*
X53940500Y-48190500D01*
X53559500Y-48190500D01*
X52954620Y-48190500D01*
X52945920Y-48320228D01*
X52617698Y-48320228D01*
X52681396Y-48000000D01*
X52617699Y-47679772D01*
X52945920Y-47679772D01*
X52954620Y-47809500D01*
X53559500Y-47809500D01*
X53559500Y-47203325D01*
X53940500Y-47203325D01*
X53940500Y-47809500D01*
X54545380Y-47809500D01*
X54554080Y-47679772D01*
X54545026Y-47657850D01*
X54353573Y-47379651D01*
X54070232Y-47195895D01*
X53940500Y-47203325D01*
X53559500Y-47203325D01*
X53429768Y-47195895D01*
X53146427Y-47379651D01*
X52954974Y-47657850D01*
X52945920Y-47679772D01*
X52617699Y-47679772D01*
X52610498Y-47643570D01*
X52408596Y-47341404D01*
X52385542Y-47326000D01*
X52717899Y-47326000D01*
X52750000Y-47332385D01*
X52782101Y-47326000D01*
X52782105Y-47326000D01*
X52877199Y-47307085D01*
X52985032Y-47235032D01*
X53003218Y-47207815D01*
X53367772Y-46843261D01*
X53393570Y-46860498D01*
X53660030Y-46913500D01*
X53839970Y-46913500D01*
X54106430Y-46860498D01*
X54408596Y-46658596D01*
X54610498Y-46356430D01*
X54681396Y-46000000D01*
X54610498Y-45643570D01*
X54408596Y-45341404D01*
X54106430Y-45139502D01*
X53839970Y-45086500D01*
X53660030Y-45086500D01*
X53393570Y-45139502D01*
X53091404Y-45341404D01*
X52889502Y-45643570D01*
X52818604Y-46000000D01*
X52889502Y-46356430D01*
X52906739Y-46382228D01*
X52614967Y-46674000D01*
X52385542Y-46674000D01*
X52408596Y-46658596D01*
X52610498Y-46356430D01*
X52681396Y-46000000D01*
X52610498Y-45643570D01*
X52408596Y-45341404D01*
X52385542Y-45326000D01*
X52717899Y-45326000D01*
X52750000Y-45332385D01*
X52782101Y-45326000D01*
X52782105Y-45326000D01*
X52877199Y-45307085D01*
X52985032Y-45235032D01*
X53003218Y-45207815D01*
X53367772Y-44843261D01*
X53393570Y-44860498D01*
X53660030Y-44913500D01*
X53839970Y-44913500D01*
X54106430Y-44860498D01*
X54408596Y-44658596D01*
X54610498Y-44356430D01*
X54681396Y-44000000D01*
X54610498Y-43643570D01*
X54408596Y-43341404D01*
X54106430Y-43139502D01*
X53839970Y-43086500D01*
X53660030Y-43086500D01*
X53393570Y-43139502D01*
X53091404Y-43341404D01*
X52889502Y-43643570D01*
X52818604Y-44000000D01*
X52889502Y-44356430D01*
X52906739Y-44382228D01*
X52614967Y-44674000D01*
X52385542Y-44674000D01*
X52408596Y-44658596D01*
X52610498Y-44356430D01*
X52681396Y-44000000D01*
X52610498Y-43643570D01*
X52408596Y-43341404D01*
X52385542Y-43326000D01*
X52717899Y-43326000D01*
X52750000Y-43332385D01*
X52782101Y-43326000D01*
X52782105Y-43326000D01*
X52877199Y-43307085D01*
X52985032Y-43235032D01*
X53003218Y-43207815D01*
X53367772Y-42843261D01*
X53393570Y-42860498D01*
X53660030Y-42913500D01*
X53839970Y-42913500D01*
X54106430Y-42860498D01*
X54408596Y-42658596D01*
X54610498Y-42356430D01*
X54681396Y-42000000D01*
X54610498Y-41643570D01*
X54408596Y-41341404D01*
X54106430Y-41139502D01*
X53839970Y-41086500D01*
X53660030Y-41086500D01*
X53393570Y-41139502D01*
X53091404Y-41341404D01*
X52889502Y-41643570D01*
X52818604Y-42000000D01*
X52889502Y-42356430D01*
X52906739Y-42382228D01*
X52614967Y-42674000D01*
X52385542Y-42674000D01*
X52408596Y-42658596D01*
X52610498Y-42356430D01*
X52681396Y-42000000D01*
X52610498Y-41643570D01*
X52408596Y-41341404D01*
X52385542Y-41326000D01*
X52717899Y-41326000D01*
X52750000Y-41332385D01*
X52782101Y-41326000D01*
X52782105Y-41326000D01*
X52877199Y-41307085D01*
X52985032Y-41235032D01*
X53003218Y-41207815D01*
X53367772Y-40843261D01*
X53393570Y-40860498D01*
X53660030Y-40913500D01*
X53839970Y-40913500D01*
X54106430Y-40860498D01*
X54408596Y-40658596D01*
X54610498Y-40356430D01*
X54681396Y-40000000D01*
X54610498Y-39643570D01*
X54408596Y-39341404D01*
X54106430Y-39139502D01*
X53839970Y-39086500D01*
X53660030Y-39086500D01*
X53393570Y-39139502D01*
X53091404Y-39341404D01*
X52889502Y-39643570D01*
X52818604Y-40000000D01*
X52889502Y-40356430D01*
X52906739Y-40382228D01*
X52614967Y-40674000D01*
X52385542Y-40674000D01*
X52408596Y-40658596D01*
X52610498Y-40356430D01*
X52681396Y-40000000D01*
X52610498Y-39643570D01*
X52408596Y-39341404D01*
X52385542Y-39326000D01*
X52717899Y-39326000D01*
X52750000Y-39332385D01*
X52782101Y-39326000D01*
X52782105Y-39326000D01*
X52877199Y-39307085D01*
X52985032Y-39235032D01*
X53003218Y-39207815D01*
X53367772Y-38843261D01*
X53393570Y-38860498D01*
X53660030Y-38913500D01*
X53839970Y-38913500D01*
X54106430Y-38860498D01*
X54408596Y-38658596D01*
X54610498Y-38356430D01*
X54681396Y-38000000D01*
X54610498Y-37643570D01*
X54408596Y-37341404D01*
X54106430Y-37139502D01*
X53839970Y-37086500D01*
X53660030Y-37086500D01*
X53393570Y-37139502D01*
X53091404Y-37341404D01*
X52889502Y-37643570D01*
X52818604Y-38000000D01*
X52889502Y-38356430D01*
X52906739Y-38382228D01*
X52614967Y-38674000D01*
X52385542Y-38674000D01*
X52408596Y-38658596D01*
X52610498Y-38356430D01*
X52681396Y-38000000D01*
X52610498Y-37643570D01*
X52408596Y-37341404D01*
X52385542Y-37326000D01*
X52717899Y-37326000D01*
X52750000Y-37332385D01*
X52782101Y-37326000D01*
X52782105Y-37326000D01*
X52877199Y-37307085D01*
X52985032Y-37235032D01*
X53003218Y-37207815D01*
X53367772Y-36843261D01*
X53393570Y-36860498D01*
X53660030Y-36913500D01*
X53839970Y-36913500D01*
X54106430Y-36860498D01*
X54408596Y-36658596D01*
X54610498Y-36356430D01*
X54681396Y-36000000D01*
X54610498Y-35643570D01*
X54408596Y-35341404D01*
X54106430Y-35139502D01*
X53839970Y-35086500D01*
X53660030Y-35086500D01*
X53393570Y-35139502D01*
X53091404Y-35341404D01*
X52889502Y-35643570D01*
X52818604Y-36000000D01*
X52889502Y-36356430D01*
X52906739Y-36382228D01*
X52614967Y-36674000D01*
X52385542Y-36674000D01*
X52408596Y-36658596D01*
X52610498Y-36356430D01*
X52681396Y-36000000D01*
X52610498Y-35643570D01*
X52408596Y-35341404D01*
X52385542Y-35326000D01*
X52717899Y-35326000D01*
X52750000Y-35332385D01*
X52782101Y-35326000D01*
X52782105Y-35326000D01*
X52877199Y-35307085D01*
X52985032Y-35235032D01*
X53003218Y-35207815D01*
X53367772Y-34843261D01*
X53393570Y-34860498D01*
X53660030Y-34913500D01*
X53839970Y-34913500D01*
X54106430Y-34860498D01*
X54408596Y-34658596D01*
X54610498Y-34356430D01*
X54681396Y-34000000D01*
X54610498Y-33643570D01*
X54408596Y-33341404D01*
X54106430Y-33139502D01*
X53839970Y-33086500D01*
X53660030Y-33086500D01*
X53393570Y-33139502D01*
X53091404Y-33341404D01*
X52889502Y-33643570D01*
X52818604Y-34000000D01*
X52889502Y-34356430D01*
X52906739Y-34382228D01*
X52614967Y-34674000D01*
X52385542Y-34674000D01*
X52408596Y-34658596D01*
X52610498Y-34356430D01*
X52681396Y-34000000D01*
X52610498Y-33643570D01*
X52408596Y-33341404D01*
X52385542Y-33326000D01*
X52717899Y-33326000D01*
X52750000Y-33332385D01*
X52782101Y-33326000D01*
X52782105Y-33326000D01*
X52877199Y-33307085D01*
X52985032Y-33235032D01*
X53003218Y-33207815D01*
X53367772Y-32843261D01*
X53393570Y-32860498D01*
X53660030Y-32913500D01*
X53839970Y-32913500D01*
X54106430Y-32860498D01*
X54408596Y-32658596D01*
X54610498Y-32356430D01*
X54681396Y-32000000D01*
X54610498Y-31643570D01*
X54408596Y-31341404D01*
X54106430Y-31139502D01*
X53839970Y-31086500D01*
X53660030Y-31086500D01*
X53393570Y-31139502D01*
X53091404Y-31341404D01*
X52889502Y-31643570D01*
X52818604Y-32000000D01*
X52889502Y-32356430D01*
X52906739Y-32382228D01*
X52614967Y-32674000D01*
X52385542Y-32674000D01*
X52408596Y-32658596D01*
X52610498Y-32356430D01*
X52681396Y-32000000D01*
X52610498Y-31643570D01*
X52408596Y-31341404D01*
X52385542Y-31326000D01*
X52717899Y-31326000D01*
X52750000Y-31332385D01*
X52782101Y-31326000D01*
X52782105Y-31326000D01*
X52877199Y-31307085D01*
X52985032Y-31235032D01*
X53003218Y-31207815D01*
X53367772Y-30843261D01*
X53393570Y-30860498D01*
X53660030Y-30913500D01*
X53839970Y-30913500D01*
X54106430Y-30860498D01*
X54408596Y-30658596D01*
X54610498Y-30356430D01*
X54681396Y-30000000D01*
X54610498Y-29643570D01*
X54408596Y-29341404D01*
X54106430Y-29139502D01*
X53839970Y-29086500D01*
X53660030Y-29086500D01*
X53393570Y-29139502D01*
X53091404Y-29341404D01*
X52889502Y-29643570D01*
X52818604Y-30000000D01*
X52889502Y-30356430D01*
X52906739Y-30382228D01*
X52614967Y-30674000D01*
X52385542Y-30674000D01*
X52408596Y-30658596D01*
X52610498Y-30356430D01*
X52681396Y-30000000D01*
X52610498Y-29643570D01*
X52408596Y-29341404D01*
X52385542Y-29326000D01*
X52717899Y-29326000D01*
X52750000Y-29332385D01*
X52782101Y-29326000D01*
X52782105Y-29326000D01*
X52877199Y-29307085D01*
X52985032Y-29235032D01*
X53003218Y-29207815D01*
X53367772Y-28843261D01*
X53393570Y-28860498D01*
X53660030Y-28913500D01*
X53839970Y-28913500D01*
X54106430Y-28860498D01*
X54408596Y-28658596D01*
X54610498Y-28356430D01*
X54681396Y-28000000D01*
X54610498Y-27643570D01*
X54408596Y-27341404D01*
X54106430Y-27139502D01*
X53839970Y-27086500D01*
X53660030Y-27086500D01*
X53393570Y-27139502D01*
X53091404Y-27341404D01*
X52889502Y-27643570D01*
X52818604Y-28000000D01*
X52889502Y-28356430D01*
X52906739Y-28382228D01*
X52614967Y-28674000D01*
X52385542Y-28674000D01*
X52408596Y-28658596D01*
X52610498Y-28356430D01*
X52681396Y-28000000D01*
X52610498Y-27643570D01*
X52408596Y-27341404D01*
X52385542Y-27326000D01*
X52717899Y-27326000D01*
X52750000Y-27332385D01*
X52782101Y-27326000D01*
X52782105Y-27326000D01*
X52877199Y-27307085D01*
X52985032Y-27235032D01*
X53003218Y-27207815D01*
X53367772Y-26843261D01*
X53393570Y-26860498D01*
X53660030Y-26913500D01*
X53839970Y-26913500D01*
X54106430Y-26860498D01*
X54408596Y-26658596D01*
X54610498Y-26356430D01*
X54681396Y-26000000D01*
X54610498Y-25643570D01*
X54408596Y-25341404D01*
X54106430Y-25139502D01*
X53839970Y-25086500D01*
X53660030Y-25086500D01*
X53393570Y-25139502D01*
X53091404Y-25341404D01*
X52889502Y-25643570D01*
X52818604Y-26000000D01*
X52889502Y-26356430D01*
X52906739Y-26382228D01*
X52615500Y-26673467D01*
X52615500Y-26238125D01*
X52567875Y-26190500D01*
X51940500Y-26190500D01*
X51940500Y-26210500D01*
X51559500Y-26210500D01*
X51559500Y-26190500D01*
X50932125Y-26190500D01*
X50884500Y-26238125D01*
X50884500Y-26712893D01*
X50913502Y-26782909D01*
X50959780Y-26829187D01*
X48864967Y-28924000D01*
X48713398Y-28924000D01*
X48718172Y-28900000D01*
X48718172Y-28600000D01*
X48699662Y-28506942D01*
X48660917Y-28448956D01*
X48665500Y-28437893D01*
X48665500Y-28372625D01*
X48617875Y-28325000D01*
X47890500Y-28325000D01*
X47890500Y-28356828D01*
X47509500Y-28356828D01*
X47509500Y-28325000D01*
X46782125Y-28325000D01*
X46734500Y-28372625D01*
X46734500Y-28384500D01*
X45285990Y-28384500D01*
X45249999Y-28377341D01*
X45214008Y-28384500D01*
X45214004Y-28384500D01*
X45107389Y-28405707D01*
X45038344Y-28451842D01*
X45023889Y-28461500D01*
X44892886Y-28461500D01*
X44694964Y-28543482D01*
X44543482Y-28694964D01*
X44461500Y-28892886D01*
X44461500Y-29107114D01*
X44543482Y-29305036D01*
X44694964Y-29456518D01*
X44892886Y-29538500D01*
X45107114Y-29538500D01*
X45305036Y-29456518D01*
X45456518Y-29305036D01*
X45535026Y-29115500D01*
X46681828Y-29115500D01*
X46681828Y-29400000D01*
X46700338Y-29493058D01*
X46704976Y-29500000D01*
X46700338Y-29506942D01*
X46681828Y-29600000D01*
X46681828Y-29900000D01*
X46700338Y-29993058D01*
X46704976Y-30000000D01*
X46700338Y-30006942D01*
X46681828Y-30100000D01*
X46681828Y-30400000D01*
X46700338Y-30493058D01*
X46704976Y-30500000D01*
X46700338Y-30506942D01*
X46681828Y-30600000D01*
X46681828Y-30884500D01*
X46646054Y-30884500D01*
X46555036Y-30793482D01*
X46357114Y-30711500D01*
X46142886Y-30711500D01*
X45944964Y-30793482D01*
X45793482Y-30944964D01*
X45752289Y-31044414D01*
X45761123Y-30999999D01*
X45746500Y-30926481D01*
X45746500Y-30926480D01*
X45703187Y-30708730D01*
X45538196Y-30461804D01*
X45475867Y-30420157D01*
X43579845Y-28524136D01*
X43538196Y-28461804D01*
X43291270Y-28296813D01*
X43073520Y-28253500D01*
X43000000Y-28238876D01*
X42926480Y-28253500D01*
X42691611Y-28253500D01*
X42805036Y-28206518D01*
X42956518Y-28055036D01*
X43038500Y-27857114D01*
X43038500Y-27642886D01*
X42956518Y-27444964D01*
X42829726Y-27318172D01*
X42900000Y-27318172D01*
X42993058Y-27299662D01*
X43000000Y-27295024D01*
X43006942Y-27299662D01*
X43100000Y-27318172D01*
X43400000Y-27318172D01*
X43493058Y-27299662D01*
X43500000Y-27295024D01*
X43506942Y-27299662D01*
X43600000Y-27318172D01*
X43900000Y-27318172D01*
X43993058Y-27299662D01*
X44000000Y-27295024D01*
X44006942Y-27299662D01*
X44100000Y-27318172D01*
X44400000Y-27318172D01*
X44493058Y-27299662D01*
X44500000Y-27295024D01*
X44506942Y-27299662D01*
X44600000Y-27318172D01*
X44900000Y-27318172D01*
X44993058Y-27299662D01*
X45000000Y-27295024D01*
X45006942Y-27299662D01*
X45100000Y-27318172D01*
X45384501Y-27318172D01*
X45384501Y-27353945D01*
X45293482Y-27444964D01*
X45211500Y-27642886D01*
X45211500Y-27857114D01*
X45293482Y-28055036D01*
X45444964Y-28206518D01*
X45642886Y-28288500D01*
X45857114Y-28288500D01*
X46055036Y-28206518D01*
X46199447Y-28062107D01*
X46734500Y-28062107D01*
X46734500Y-28127375D01*
X46782125Y-28175000D01*
X47509500Y-28175000D01*
X47509500Y-27957125D01*
X47890500Y-27957125D01*
X47890500Y-28175000D01*
X48617875Y-28175000D01*
X48665500Y-28127375D01*
X48665500Y-28062107D01*
X48636498Y-27992091D01*
X48582910Y-27938502D01*
X48512893Y-27909500D01*
X47938125Y-27909500D01*
X47890500Y-27957125D01*
X47509500Y-27957125D01*
X47461875Y-27909500D01*
X46887107Y-27909500D01*
X46817090Y-27938502D01*
X46763502Y-27992091D01*
X46734500Y-28062107D01*
X46199447Y-28062107D01*
X46206518Y-28055036D01*
X46288500Y-27857114D01*
X46288500Y-27642886D01*
X46206518Y-27444964D01*
X46115500Y-27353946D01*
X46115500Y-27181770D01*
X46124662Y-27168058D01*
X46143172Y-27075000D01*
X46143172Y-25525000D01*
X46124662Y-25431942D01*
X46071949Y-25353051D01*
X45993058Y-25300338D01*
X45926542Y-25287107D01*
X50884500Y-25287107D01*
X50884500Y-25761875D01*
X50932125Y-25809500D01*
X51559500Y-25809500D01*
X51559500Y-25182125D01*
X51940500Y-25182125D01*
X51940500Y-25809500D01*
X52567875Y-25809500D01*
X52615500Y-25761875D01*
X52615500Y-25287107D01*
X52586498Y-25217091D01*
X52532910Y-25163502D01*
X52462893Y-25134500D01*
X51988125Y-25134500D01*
X51940500Y-25182125D01*
X51559500Y-25182125D01*
X51511875Y-25134500D01*
X51037107Y-25134500D01*
X50967090Y-25163502D01*
X50913502Y-25217091D01*
X50884500Y-25287107D01*
X45926542Y-25287107D01*
X45924360Y-25286673D01*
X49207818Y-22003216D01*
X49235032Y-21985032D01*
X49253216Y-21957818D01*
X49253218Y-21957816D01*
X49307085Y-21877199D01*
X49323995Y-21792184D01*
X49326000Y-21782105D01*
X49326000Y-21782101D01*
X49332385Y-21750000D01*
X49326000Y-21717899D01*
X49326000Y-20634300D01*
X51161500Y-20634300D01*
X51161500Y-21365700D01*
X51441395Y-22041426D01*
X51958574Y-22558605D01*
X52634300Y-22838500D01*
X53365700Y-22838500D01*
X54041426Y-22558605D01*
X54558605Y-22041426D01*
X54838500Y-21365700D01*
X54838500Y-20634300D01*
X54558605Y-19958574D01*
X54041426Y-19441395D01*
X53365700Y-19161500D01*
X52634300Y-19161500D01*
X51958574Y-19441395D01*
X51441395Y-19958574D01*
X51161500Y-20634300D01*
X49326000Y-20634300D01*
X49326000Y-20282101D01*
X49332385Y-20250000D01*
X49326000Y-20217899D01*
X49326000Y-20217895D01*
X49307085Y-20122801D01*
X49235032Y-20014968D01*
X49207815Y-19996782D01*
X48843261Y-19632228D01*
X48860498Y-19606430D01*
X48931396Y-19250000D01*
X48860498Y-18893570D01*
X48658596Y-18591404D01*
X48356430Y-18389502D01*
X48089970Y-18336500D01*
X47910030Y-18336500D01*
X47643570Y-18389502D01*
X47341404Y-18591404D01*
X47139502Y-18893570D01*
X47068604Y-19250000D01*
X47139502Y-19606430D01*
X47341404Y-19908596D01*
X47643570Y-20110498D01*
X47910030Y-20163500D01*
X48089970Y-20163500D01*
X48356430Y-20110498D01*
X48382228Y-20093261D01*
X48674001Y-20385034D01*
X48674001Y-20614459D01*
X48658596Y-20591404D01*
X48356430Y-20389502D01*
X48089970Y-20336500D01*
X47910030Y-20336500D01*
X47643570Y-20389502D01*
X47341404Y-20591404D01*
X47326000Y-20614458D01*
X47326000Y-20282101D01*
X47332385Y-20250000D01*
X47326000Y-20217899D01*
X47326000Y-20217895D01*
X47307085Y-20122801D01*
X47235032Y-20014968D01*
X47207815Y-19996782D01*
X46843261Y-19632228D01*
X46860498Y-19606430D01*
X46931396Y-19250000D01*
X46860498Y-18893570D01*
X46658596Y-18591404D01*
X46356430Y-18389502D01*
X46089970Y-18336500D01*
X45910030Y-18336500D01*
X45643570Y-18389502D01*
X45341404Y-18591404D01*
X45139502Y-18893570D01*
X45068604Y-19250000D01*
X45139502Y-19606430D01*
X45341404Y-19908596D01*
X45643570Y-20110498D01*
X45910030Y-20163500D01*
X46089970Y-20163500D01*
X46356430Y-20110498D01*
X46382228Y-20093261D01*
X46674001Y-20385034D01*
X46674001Y-20614459D01*
X46658596Y-20591404D01*
X46356430Y-20389502D01*
X46089970Y-20336500D01*
X45910030Y-20336500D01*
X45643570Y-20389502D01*
X45341404Y-20591404D01*
X45326000Y-20614458D01*
X45326000Y-20282101D01*
X45332385Y-20250000D01*
X45326000Y-20217899D01*
X45326000Y-20217895D01*
X45307085Y-20122801D01*
X45235032Y-20014968D01*
X45207815Y-19996782D01*
X44843261Y-19632228D01*
X44860498Y-19606430D01*
X44931396Y-19250000D01*
X44860498Y-18893570D01*
X44658596Y-18591404D01*
X44356430Y-18389502D01*
X44089970Y-18336500D01*
X43910030Y-18336500D01*
X43643570Y-18389502D01*
X43341404Y-18591404D01*
X43139502Y-18893570D01*
X43068604Y-19250000D01*
X43139502Y-19606430D01*
X43341404Y-19908596D01*
X43643570Y-20110498D01*
X43910030Y-20163500D01*
X44089970Y-20163500D01*
X44356430Y-20110498D01*
X44382228Y-20093261D01*
X44674001Y-20385034D01*
X44674001Y-20614459D01*
X44658596Y-20591404D01*
X44356430Y-20389502D01*
X44089970Y-20336500D01*
X43910030Y-20336500D01*
X43643570Y-20389502D01*
X43341404Y-20591404D01*
X43326000Y-20614458D01*
X43326000Y-20282101D01*
X43332385Y-20250000D01*
X43326000Y-20217899D01*
X43326000Y-20217895D01*
X43307085Y-20122801D01*
X43235032Y-20014968D01*
X43207815Y-19996782D01*
X42843261Y-19632228D01*
X42860498Y-19606430D01*
X42931396Y-19250000D01*
X42860498Y-18893570D01*
X42658596Y-18591404D01*
X42356430Y-18389502D01*
X42089970Y-18336500D01*
X41910030Y-18336500D01*
X41643570Y-18389502D01*
X41341404Y-18591404D01*
X41139502Y-18893570D01*
X41068604Y-19250000D01*
X41139502Y-19606430D01*
X41341404Y-19908596D01*
X41643570Y-20110498D01*
X41910030Y-20163500D01*
X42089970Y-20163500D01*
X42356430Y-20110498D01*
X42382228Y-20093261D01*
X42674001Y-20385034D01*
X42674001Y-20614459D01*
X42658596Y-20591404D01*
X42356430Y-20389502D01*
X42089970Y-20336500D01*
X41910030Y-20336500D01*
X41643570Y-20389502D01*
X41341404Y-20591404D01*
X41326000Y-20614458D01*
X41326000Y-20282101D01*
X41332385Y-20250000D01*
X41326000Y-20217899D01*
X41326000Y-20217895D01*
X41307085Y-20122801D01*
X41235032Y-20014968D01*
X41207815Y-19996782D01*
X40843261Y-19632228D01*
X40860498Y-19606430D01*
X40931396Y-19250000D01*
X40860498Y-18893570D01*
X40658596Y-18591404D01*
X40356430Y-18389502D01*
X40089970Y-18336500D01*
X39910030Y-18336500D01*
X39643570Y-18389502D01*
X39341404Y-18591404D01*
X39139502Y-18893570D01*
X39068604Y-19250000D01*
X39139502Y-19606430D01*
X39341404Y-19908596D01*
X39643570Y-20110498D01*
X39910030Y-20163500D01*
X40089970Y-20163500D01*
X40356430Y-20110498D01*
X40382228Y-20093261D01*
X40674001Y-20385034D01*
X40674001Y-20614459D01*
X40658596Y-20591404D01*
X40356430Y-20389502D01*
X40089970Y-20336500D01*
X39910030Y-20336500D01*
X39643570Y-20389502D01*
X39341404Y-20591404D01*
X39326000Y-20614458D01*
X39326000Y-20282101D01*
X39332385Y-20250000D01*
X39326000Y-20217899D01*
X39326000Y-20217895D01*
X39307085Y-20122801D01*
X39235032Y-20014968D01*
X39207815Y-19996782D01*
X38843261Y-19632228D01*
X38860498Y-19606430D01*
X38931396Y-19250000D01*
X38860498Y-18893570D01*
X38658596Y-18591404D01*
X38356430Y-18389502D01*
X38089970Y-18336500D01*
X37910030Y-18336500D01*
X37643570Y-18389502D01*
X37341404Y-18591404D01*
X37139502Y-18893570D01*
X37068604Y-19250000D01*
X37139502Y-19606430D01*
X37341404Y-19908596D01*
X37643570Y-20110498D01*
X37910030Y-20163500D01*
X38089970Y-20163500D01*
X38356430Y-20110498D01*
X38382228Y-20093261D01*
X38674001Y-20385034D01*
X38674001Y-20614459D01*
X38658596Y-20591404D01*
X38356430Y-20389502D01*
X38089970Y-20336500D01*
X37910030Y-20336500D01*
X37643570Y-20389502D01*
X37341404Y-20591404D01*
X37326000Y-20614458D01*
X37326000Y-20282101D01*
X37332385Y-20250000D01*
X37326000Y-20217899D01*
X37326000Y-20217895D01*
X37307085Y-20122801D01*
X37235032Y-20014968D01*
X37207815Y-19996782D01*
X36843261Y-19632228D01*
X36860498Y-19606430D01*
X36931396Y-19250000D01*
X36860498Y-18893570D01*
X36658596Y-18591404D01*
X36356430Y-18389502D01*
X36089970Y-18336500D01*
X35910030Y-18336500D01*
X35643570Y-18389502D01*
X35341404Y-18591404D01*
X35139502Y-18893570D01*
X35068604Y-19250000D01*
X35139502Y-19606430D01*
X35341404Y-19908596D01*
X35643570Y-20110498D01*
X35910030Y-20163500D01*
X36089970Y-20163500D01*
X36356430Y-20110498D01*
X36382228Y-20093261D01*
X36674001Y-20385034D01*
X36674001Y-20614459D01*
X36658596Y-20591404D01*
X36356430Y-20389502D01*
X36089970Y-20336500D01*
X35910030Y-20336500D01*
X35643570Y-20389502D01*
X35341404Y-20591404D01*
X35326000Y-20614458D01*
X35326000Y-20282101D01*
X35332385Y-20250000D01*
X35326000Y-20217899D01*
X35326000Y-20217895D01*
X35307085Y-20122801D01*
X35235032Y-20014968D01*
X35207815Y-19996782D01*
X34843261Y-19632228D01*
X34860498Y-19606430D01*
X34931396Y-19250000D01*
X34860498Y-18893570D01*
X34658596Y-18591404D01*
X34356430Y-18389502D01*
X34089970Y-18336500D01*
X33910030Y-18336500D01*
X33643570Y-18389502D01*
X33341404Y-18591404D01*
X33139502Y-18893570D01*
X33068604Y-19250000D01*
X33139502Y-19606430D01*
X33341404Y-19908596D01*
X33643570Y-20110498D01*
X33910030Y-20163500D01*
X34089970Y-20163500D01*
X34356430Y-20110498D01*
X34382228Y-20093261D01*
X34674001Y-20385034D01*
X34674001Y-20614459D01*
X34658596Y-20591404D01*
X34356430Y-20389502D01*
X34089970Y-20336500D01*
X33910030Y-20336500D01*
X33643570Y-20389502D01*
X33341404Y-20591404D01*
X33326000Y-20614458D01*
X33326000Y-20282101D01*
X33332385Y-20250000D01*
X33326000Y-20217899D01*
X33326000Y-20217895D01*
X33307085Y-20122801D01*
X33235032Y-20014968D01*
X33207815Y-19996782D01*
X32843261Y-19632228D01*
X32860498Y-19606430D01*
X32931396Y-19250000D01*
X32860498Y-18893570D01*
X32658596Y-18591404D01*
X32356430Y-18389502D01*
X32089970Y-18336500D01*
X31910030Y-18336500D01*
X31643570Y-18389502D01*
X31341404Y-18591404D01*
X31139502Y-18893570D01*
X31068604Y-19250000D01*
X31139502Y-19606430D01*
X31341404Y-19908596D01*
X31643570Y-20110498D01*
X31910030Y-20163500D01*
X32089970Y-20163500D01*
X32356430Y-20110498D01*
X32382228Y-20093261D01*
X32674001Y-20385034D01*
X32674001Y-20614459D01*
X32658596Y-20591404D01*
X32356430Y-20389502D01*
X32089970Y-20336500D01*
X31910030Y-20336500D01*
X31643570Y-20389502D01*
X31341404Y-20591404D01*
X31326000Y-20614458D01*
X31326000Y-20282101D01*
X31332385Y-20250000D01*
X31326000Y-20217899D01*
X31326000Y-20217895D01*
X31307085Y-20122801D01*
X31235032Y-20014968D01*
X31207815Y-19996782D01*
X30843261Y-19632228D01*
X30860498Y-19606430D01*
X30931396Y-19250000D01*
X30860498Y-18893570D01*
X30658596Y-18591404D01*
X30356430Y-18389502D01*
X30089970Y-18336500D01*
X29910030Y-18336500D01*
X29643570Y-18389502D01*
X29341404Y-18591404D01*
X29139502Y-18893570D01*
X29068604Y-19250000D01*
X29139502Y-19606430D01*
X29341404Y-19908596D01*
X29643570Y-20110498D01*
X29910030Y-20163500D01*
X30089970Y-20163500D01*
X30356430Y-20110498D01*
X30382228Y-20093261D01*
X30674000Y-20385033D01*
X30674000Y-20614458D01*
X30658596Y-20591404D01*
X30356430Y-20389502D01*
X30089970Y-20336500D01*
X29910030Y-20336500D01*
X29643570Y-20389502D01*
X29341404Y-20591404D01*
X29326000Y-20614458D01*
X29326000Y-20282101D01*
X29332385Y-20250000D01*
X29326000Y-20217899D01*
X29326000Y-20217895D01*
X29307085Y-20122801D01*
X29235032Y-20014968D01*
X29207815Y-19996782D01*
X28843261Y-19632228D01*
X28860498Y-19606430D01*
X28931396Y-19250000D01*
X28860498Y-18893570D01*
X28658596Y-18591404D01*
X28356430Y-18389502D01*
X28089970Y-18336500D01*
X27910030Y-18336500D01*
X27643570Y-18389502D01*
X27341404Y-18591404D01*
X27139502Y-18893570D01*
X27068604Y-19250000D01*
X27139502Y-19606430D01*
X27341404Y-19908596D01*
X27643570Y-20110498D01*
X27910030Y-20163500D01*
X28089970Y-20163500D01*
X28356430Y-20110498D01*
X28382228Y-20093261D01*
X28674001Y-20385034D01*
X28674001Y-20614459D01*
X28658596Y-20591404D01*
X28356430Y-20389502D01*
X28089970Y-20336500D01*
X27910030Y-20336500D01*
X27643570Y-20389502D01*
X27341404Y-20591404D01*
X27326000Y-20614458D01*
X27326000Y-20282101D01*
X27332385Y-20250000D01*
X27326000Y-20217899D01*
X27326000Y-20217895D01*
X27307085Y-20122801D01*
X27235032Y-20014968D01*
X27207815Y-19996782D01*
X26843261Y-19632228D01*
X26860498Y-19606430D01*
X26931396Y-19250000D01*
X26860498Y-18893570D01*
X26658596Y-18591404D01*
X26356430Y-18389502D01*
X26089970Y-18336500D01*
X25910030Y-18336500D01*
X25643570Y-18389502D01*
X25341404Y-18591404D01*
X25139502Y-18893570D01*
X25068604Y-19250000D01*
X25139502Y-19606430D01*
X25341404Y-19908596D01*
X25643570Y-20110498D01*
X25910030Y-20163500D01*
X26089970Y-20163500D01*
X26356430Y-20110498D01*
X26382228Y-20093261D01*
X26620795Y-20331828D01*
X25325000Y-20331828D01*
X25231942Y-20350338D01*
X25153051Y-20403051D01*
X25100338Y-20481942D01*
X25081828Y-20575000D01*
X25081828Y-21925000D01*
X25100338Y-22018058D01*
X25153051Y-22096949D01*
X25231942Y-22149662D01*
X25325000Y-22168172D01*
X26675000Y-22168172D01*
X26768058Y-22149662D01*
X26846949Y-22096949D01*
X26862557Y-22073590D01*
X27924001Y-23135035D01*
X27924000Y-25359113D01*
X27875338Y-25431942D01*
X27856828Y-25525000D01*
X27856828Y-27075000D01*
X27875338Y-27168058D01*
X27928051Y-27246949D01*
X28006942Y-27299662D01*
X28100000Y-27318172D01*
X28400000Y-27318172D01*
X28493058Y-27299662D01*
X28500000Y-27295024D01*
X28506942Y-27299662D01*
X28600000Y-27318172D01*
X28900000Y-27318172D01*
X28993058Y-27299662D01*
X29000000Y-27295024D01*
X29006942Y-27299662D01*
X29100000Y-27318172D01*
X29400000Y-27318172D01*
X29493058Y-27299662D01*
X29500000Y-27295024D01*
X29506942Y-27299662D01*
X29600000Y-27318172D01*
X29900000Y-27318172D01*
X29993058Y-27299662D01*
X30051044Y-27260917D01*
X30062107Y-27265500D01*
X30127375Y-27265500D01*
X30175000Y-27217875D01*
X30175000Y-26490500D01*
X30143172Y-26490500D01*
X30143172Y-26109500D01*
X30175000Y-26109500D01*
X30175000Y-25382125D01*
X30127375Y-25334500D01*
X30076000Y-25334500D01*
X30076000Y-22635033D01*
X30207818Y-22503216D01*
X30235032Y-22485032D01*
X30253216Y-22457818D01*
X30253218Y-22457816D01*
X30271736Y-22430102D01*
X30307085Y-22377199D01*
X30326000Y-22282105D01*
X30326000Y-22282101D01*
X30332385Y-22250001D01*
X30326000Y-22217901D01*
X30326000Y-22116551D01*
X30356430Y-22110498D01*
X30658596Y-21908596D01*
X30689855Y-21861814D01*
X30692915Y-21877198D01*
X30746782Y-21957815D01*
X30746785Y-21957818D01*
X30764969Y-21985032D01*
X30792183Y-22003216D01*
X30924000Y-22135034D01*
X30924001Y-24967894D01*
X30917615Y-25000000D01*
X30942915Y-25127198D01*
X30996782Y-25207815D01*
X30996785Y-25207818D01*
X31014969Y-25235032D01*
X31042183Y-25253216D01*
X31075640Y-25286673D01*
X31006942Y-25300338D01*
X31000000Y-25304976D01*
X30993058Y-25300338D01*
X30900000Y-25281828D01*
X30600000Y-25281828D01*
X30506942Y-25300338D01*
X30448956Y-25339083D01*
X30437893Y-25334500D01*
X30372625Y-25334500D01*
X30325000Y-25382125D01*
X30325000Y-26109500D01*
X30356828Y-26109500D01*
X30356828Y-26490500D01*
X30325000Y-26490500D01*
X30325000Y-27217875D01*
X30372625Y-27265500D01*
X30384500Y-27265500D01*
X30384501Y-28464003D01*
X30377341Y-28500000D01*
X30405707Y-28642610D01*
X30466100Y-28732994D01*
X30466102Y-28732996D01*
X30486491Y-28763510D01*
X30517005Y-28783899D01*
X30529396Y-28796290D01*
X30488876Y-29000000D01*
X30546813Y-29291270D01*
X30711804Y-29538196D01*
X30958730Y-29703187D01*
X31176480Y-29746500D01*
X32380500Y-29746500D01*
X32380500Y-30311011D01*
X32416444Y-30491716D01*
X32553366Y-30696634D01*
X32758283Y-30833556D01*
X33000000Y-30881636D01*
X33241716Y-30833556D01*
X33446634Y-30696634D01*
X33583556Y-30491717D01*
X33619500Y-30311012D01*
X33619500Y-29746500D01*
X39880501Y-29746500D01*
X39880501Y-30311012D01*
X39916445Y-30491717D01*
X40053367Y-30696634D01*
X40258284Y-30833556D01*
X40500000Y-30881636D01*
X40741717Y-30833556D01*
X40946634Y-30696634D01*
X41083556Y-30491717D01*
X41119500Y-30311012D01*
X41119500Y-29746500D01*
X42690791Y-29746500D01*
X44253500Y-31309210D01*
X44253501Y-35676476D01*
X44253500Y-35676481D01*
X44253500Y-38130500D01*
X43688988Y-38130500D01*
X43508283Y-38166444D01*
X43303366Y-38303366D01*
X43166444Y-38508283D01*
X43118364Y-38750000D01*
X43166444Y-38991717D01*
X43303366Y-39196634D01*
X43508283Y-39333556D01*
X43688988Y-39369500D01*
X44253501Y-39369500D01*
X44253501Y-41676476D01*
X44253500Y-41676481D01*
X44253501Y-42690789D01*
X42690791Y-44253500D01*
X39869500Y-44253500D01*
X39869500Y-43688988D01*
X39833556Y-43508283D01*
X39696634Y-43303366D01*
X39491716Y-43166444D01*
X39250000Y-43118364D01*
X39008283Y-43166444D01*
X38803366Y-43303366D01*
X38666444Y-43508284D01*
X38630500Y-43688989D01*
X38630500Y-44253500D01*
X32119500Y-44253500D01*
X32119500Y-43688988D01*
X32083556Y-43508283D01*
X31946634Y-43303366D01*
X31741716Y-43166444D01*
X31500000Y-43118364D01*
X31258283Y-43166444D01*
X31053366Y-43303366D01*
X30916444Y-43508284D01*
X30880500Y-43688989D01*
X30880500Y-44253500D01*
X30809210Y-44253500D01*
X29746500Y-43190791D01*
X29746500Y-38573519D01*
X29761124Y-38500000D01*
X29746500Y-38426480D01*
X29746500Y-37238125D01*
X33809500Y-37238125D01*
X33809500Y-40037893D01*
X33838502Y-40107909D01*
X33892090Y-40161498D01*
X33962107Y-40190500D01*
X36761875Y-40190500D01*
X36809500Y-40142875D01*
X36809500Y-37190500D01*
X37190500Y-37190500D01*
X37190500Y-40142875D01*
X37238125Y-40190500D01*
X40037893Y-40190500D01*
X40107910Y-40161498D01*
X40161498Y-40107909D01*
X40190500Y-40037893D01*
X40190500Y-37238125D01*
X40142875Y-37190500D01*
X37190500Y-37190500D01*
X36809500Y-37190500D01*
X33857125Y-37190500D01*
X33809500Y-37238125D01*
X29746500Y-37238125D01*
X29746500Y-36426480D01*
X29703187Y-36208730D01*
X29538196Y-35961804D01*
X29291270Y-35796813D01*
X29000000Y-35738876D01*
X28708731Y-35796813D01*
X28577498Y-35884500D01*
X27318172Y-35884500D01*
X27318172Y-35600000D01*
X27299662Y-35506942D01*
X27295024Y-35500000D01*
X27299662Y-35493058D01*
X27318172Y-35400000D01*
X27318172Y-35100000D01*
X27299662Y-35006942D01*
X27295024Y-35000000D01*
X27299662Y-34993058D01*
X27318172Y-34900000D01*
X27318172Y-34600000D01*
X27299662Y-34506942D01*
X27295024Y-34500000D01*
X27299662Y-34493058D01*
X27318172Y-34400000D01*
X27318172Y-34100000D01*
X27299662Y-34006942D01*
X27295024Y-34000000D01*
X27299662Y-33993058D01*
X27305818Y-33962107D01*
X33809500Y-33962107D01*
X33809500Y-36761875D01*
X33857125Y-36809500D01*
X36809500Y-36809500D01*
X36809500Y-33857125D01*
X37190500Y-33857125D01*
X37190500Y-36809500D01*
X40142875Y-36809500D01*
X40190500Y-36761875D01*
X40190500Y-33962107D01*
X40161498Y-33892091D01*
X40107910Y-33838502D01*
X40037893Y-33809500D01*
X37238125Y-33809500D01*
X37190500Y-33857125D01*
X36809500Y-33857125D01*
X36761875Y-33809500D01*
X33962107Y-33809500D01*
X33892090Y-33838502D01*
X33838502Y-33892091D01*
X33809500Y-33962107D01*
X27305818Y-33962107D01*
X27318172Y-33900000D01*
X27318172Y-33600000D01*
X27299662Y-33506942D01*
X27295024Y-33500000D01*
X27299662Y-33493058D01*
X27318172Y-33400000D01*
X27318172Y-33100000D01*
X27299662Y-33006942D01*
X27295024Y-33000000D01*
X27299662Y-32993058D01*
X27318172Y-32900000D01*
X27318172Y-32600000D01*
X27299662Y-32506942D01*
X27295024Y-32500000D01*
X27299662Y-32493058D01*
X27318172Y-32400000D01*
X27318172Y-32100000D01*
X27299662Y-32006942D01*
X27295024Y-32000000D01*
X27299662Y-31993058D01*
X27318172Y-31900000D01*
X27318172Y-31600000D01*
X27299662Y-31506942D01*
X27295024Y-31500000D01*
X27299662Y-31493058D01*
X27318172Y-31400000D01*
X27318172Y-31100000D01*
X27299662Y-31006942D01*
X27295024Y-31000000D01*
X27299662Y-30993058D01*
X27318172Y-30900000D01*
X27318172Y-30615500D01*
X27353946Y-30615500D01*
X27444964Y-30706518D01*
X27642886Y-30788500D01*
X27857114Y-30788500D01*
X28055036Y-30706518D01*
X28206518Y-30555036D01*
X28288500Y-30357114D01*
X28288500Y-30142886D01*
X28206518Y-29944964D01*
X28055036Y-29793482D01*
X27857114Y-29711500D01*
X27642886Y-29711500D01*
X27444964Y-29793482D01*
X27353946Y-29884500D01*
X27318172Y-29884500D01*
X27318172Y-29615500D01*
X28603946Y-29615500D01*
X28694964Y-29706518D01*
X28892886Y-29788500D01*
X29107114Y-29788500D01*
X29305036Y-29706518D01*
X29456518Y-29555036D01*
X29538500Y-29357114D01*
X29538500Y-29142886D01*
X29456518Y-28944964D01*
X29305036Y-28793482D01*
X29107114Y-28711500D01*
X28892886Y-28711500D01*
X28694964Y-28793482D01*
X28603946Y-28884500D01*
X27265500Y-28884500D01*
X27265500Y-28872625D01*
X27217875Y-28825000D01*
X26490500Y-28825000D01*
X26490500Y-28856828D01*
X26109500Y-28856828D01*
X26109500Y-28825000D01*
X25382125Y-28825000D01*
X25334500Y-28872625D01*
X25334500Y-28937893D01*
X25339083Y-28948956D01*
X25300338Y-29006942D01*
X25281828Y-29100000D01*
X25281828Y-29320794D01*
X24076000Y-28114967D01*
X24076000Y-28100000D01*
X25281828Y-28100000D01*
X25281828Y-28400000D01*
X25300338Y-28493058D01*
X25339083Y-28551044D01*
X25334500Y-28562107D01*
X25334500Y-28627375D01*
X25382125Y-28675000D01*
X26109500Y-28675000D01*
X26109500Y-28643172D01*
X26490500Y-28643172D01*
X26490500Y-28675000D01*
X27217875Y-28675000D01*
X27265500Y-28627375D01*
X27265500Y-28615500D01*
X27353946Y-28615500D01*
X27444964Y-28706518D01*
X27642886Y-28788500D01*
X27857114Y-28788500D01*
X28055036Y-28706518D01*
X28206518Y-28555036D01*
X28288500Y-28357114D01*
X28288500Y-28142886D01*
X28206518Y-27944964D01*
X28055036Y-27793482D01*
X27857114Y-27711500D01*
X27642886Y-27711500D01*
X27444964Y-27793482D01*
X27353946Y-27884500D01*
X27181770Y-27884500D01*
X27168058Y-27875338D01*
X27075000Y-27856828D01*
X25525000Y-27856828D01*
X25431942Y-27875338D01*
X25353051Y-27928051D01*
X25300338Y-28006942D01*
X25281828Y-28100000D01*
X24076000Y-28100000D01*
X24076000Y-27532099D01*
X24082385Y-27499999D01*
X24076000Y-27467899D01*
X24076000Y-27467895D01*
X24057085Y-27372801D01*
X24013174Y-27307085D01*
X24003218Y-27292184D01*
X24003216Y-27292182D01*
X23985032Y-27264968D01*
X23957817Y-27246784D01*
X23093261Y-26382227D01*
X23110498Y-26356430D01*
X23181396Y-26000000D01*
X23110498Y-25643570D01*
X22908596Y-25341404D01*
X22606430Y-25139502D01*
X22339970Y-25086500D01*
X22160030Y-25086500D01*
X21893570Y-25139502D01*
X21591404Y-25341404D01*
X21389502Y-25643570D01*
X21318604Y-26000000D01*
X21389502Y-26356430D01*
X21591404Y-26658596D01*
X21614458Y-26674000D01*
X21282101Y-26674000D01*
X21250000Y-26667615D01*
X21217899Y-26674000D01*
X21217895Y-26674000D01*
X21122801Y-26692915D01*
X21115500Y-26697793D01*
X21115500Y-26238125D01*
X21067875Y-26190500D01*
X20440500Y-26190500D01*
X20440500Y-26817875D01*
X20488125Y-26865500D01*
X20923467Y-26865500D01*
X20632228Y-27156739D01*
X20606430Y-27139502D01*
X20339970Y-27086500D01*
X20160030Y-27086500D01*
X19893570Y-27139502D01*
X19591404Y-27341404D01*
X19389502Y-27643570D01*
X19318604Y-28000000D01*
X17563500Y-28000000D01*
X17563500Y-26238125D01*
X19384500Y-26238125D01*
X19384500Y-26712893D01*
X19413502Y-26782909D01*
X19467090Y-26836498D01*
X19537107Y-26865500D01*
X20011875Y-26865500D01*
X20059500Y-26817875D01*
X20059500Y-26190500D01*
X19432125Y-26190500D01*
X19384500Y-26238125D01*
X17563500Y-26238125D01*
X17563500Y-25287107D01*
X19384500Y-25287107D01*
X19384500Y-25761875D01*
X19432125Y-25809500D01*
X20059500Y-25809500D01*
X20059500Y-25182125D01*
X20440500Y-25182125D01*
X20440500Y-25809500D01*
X21067875Y-25809500D01*
X21115500Y-25761875D01*
X21115500Y-25287107D01*
X21086498Y-25217091D01*
X21032910Y-25163502D01*
X20962893Y-25134500D01*
X20488125Y-25134500D01*
X20440500Y-25182125D01*
X20059500Y-25182125D01*
X20011875Y-25134500D01*
X19537107Y-25134500D01*
X19467090Y-25163502D01*
X19413502Y-25217091D01*
X19384500Y-25287107D01*
X17563500Y-25287107D01*
X17563500Y-20634300D01*
X19161500Y-20634300D01*
X19161500Y-21365700D01*
X19441395Y-22041426D01*
X19958574Y-22558605D01*
X20634300Y-22838500D01*
X21365700Y-22838500D01*
X22041426Y-22558605D01*
X22558605Y-22041426D01*
X22838500Y-21365700D01*
X22838500Y-20634300D01*
X22558605Y-19958574D01*
X22041426Y-19441395D01*
X21365700Y-19161500D01*
X20634300Y-19161500D01*
X19958574Y-19441395D01*
X19441395Y-19958574D01*
X19161500Y-20634300D01*
X17563500Y-20634300D01*
X17563500Y-17563500D01*
X56436500Y-17563500D01*
X56436500Y-56436500D01*
G36*
X39694964Y-45793482D02*
X39543482Y-45944964D01*
X39461500Y-46142886D01*
X39461500Y-46357114D01*
X39543482Y-46555036D01*
X39670274Y-46681828D01*
X39600000Y-46681828D01*
X39506942Y-46700338D01*
X39500000Y-46704976D01*
X39493058Y-46700338D01*
X39400000Y-46681828D01*
X39100000Y-46681828D01*
X39006942Y-46700338D01*
X39000000Y-46704976D01*
X38993058Y-46700338D01*
X38900000Y-46681828D01*
X38600000Y-46681828D01*
X38506942Y-46700338D01*
X38448956Y-46739083D01*
X38437893Y-46734500D01*
X38372625Y-46734500D01*
X38325000Y-46782125D01*
X38325000Y-47509500D01*
X38356828Y-47509500D01*
X38356828Y-47890500D01*
X38325000Y-47890500D01*
X38325000Y-48617875D01*
X38372625Y-48665500D01*
X38424000Y-48665500D01*
X38424001Y-50864965D01*
X38382227Y-50906739D01*
X38356430Y-50889502D01*
X38089970Y-50836500D01*
X37910030Y-50836500D01*
X37643570Y-50889502D01*
X37576000Y-50934651D01*
X37576000Y-48713398D01*
X37600000Y-48718172D01*
X37900000Y-48718172D01*
X37993058Y-48699662D01*
X38051044Y-48660917D01*
X38062107Y-48665500D01*
X38127375Y-48665500D01*
X38175000Y-48617875D01*
X38175000Y-47890500D01*
X38143172Y-47890500D01*
X38143172Y-47509500D01*
X38175000Y-47509500D01*
X38175000Y-46782125D01*
X38127375Y-46734500D01*
X38115500Y-46734500D01*
X38115500Y-45746500D01*
X39808389Y-45746500D01*
X39694964Y-45793482D01*
X39694964Y-45793482D01*
G37*
X39694964Y-45793482D02*
X39543482Y-45944964D01*
X39461500Y-46142886D01*
X39461500Y-46357114D01*
X39543482Y-46555036D01*
X39670274Y-46681828D01*
X39600000Y-46681828D01*
X39506942Y-46700338D01*
X39500000Y-46704976D01*
X39493058Y-46700338D01*
X39400000Y-46681828D01*
X39100000Y-46681828D01*
X39006942Y-46700338D01*
X39000000Y-46704976D01*
X38993058Y-46700338D01*
X38900000Y-46681828D01*
X38600000Y-46681828D01*
X38506942Y-46700338D01*
X38448956Y-46739083D01*
X38437893Y-46734500D01*
X38372625Y-46734500D01*
X38325000Y-46782125D01*
X38325000Y-47509500D01*
X38356828Y-47509500D01*
X38356828Y-47890500D01*
X38325000Y-47890500D01*
X38325000Y-48617875D01*
X38372625Y-48665500D01*
X38424000Y-48665500D01*
X38424001Y-50864965D01*
X38382227Y-50906739D01*
X38356430Y-50889502D01*
X38089970Y-50836500D01*
X37910030Y-50836500D01*
X37643570Y-50889502D01*
X37576000Y-50934651D01*
X37576000Y-48713398D01*
X37600000Y-48718172D01*
X37900000Y-48718172D01*
X37993058Y-48699662D01*
X38051044Y-48660917D01*
X38062107Y-48665500D01*
X38127375Y-48665500D01*
X38175000Y-48617875D01*
X38175000Y-47890500D01*
X38143172Y-47890500D01*
X38143172Y-47509500D01*
X38175000Y-47509500D01*
X38175000Y-46782125D01*
X38127375Y-46734500D01*
X38115500Y-46734500D01*
X38115500Y-45746500D01*
X39808389Y-45746500D01*
X39694964Y-45793482D01*
G36*
X37384501Y-46681828D02*
X37100000Y-46681828D01*
X37006942Y-46700338D01*
X37000000Y-46704976D01*
X36993058Y-46700338D01*
X36900000Y-46681828D01*
X36600000Y-46681828D01*
X36506942Y-46700338D01*
X36500000Y-46704976D01*
X36493058Y-46700338D01*
X36400000Y-46681828D01*
X36100000Y-46681828D01*
X36006942Y-46700338D01*
X36000000Y-46704976D01*
X35993058Y-46700338D01*
X35900000Y-46681828D01*
X35600000Y-46681828D01*
X35506942Y-46700338D01*
X35500000Y-46704976D01*
X35493058Y-46700338D01*
X35400000Y-46681828D01*
X35100000Y-46681828D01*
X35006942Y-46700338D01*
X35000000Y-46704976D01*
X34993058Y-46700338D01*
X34900000Y-46681828D01*
X34600000Y-46681828D01*
X34506942Y-46700338D01*
X34500000Y-46704976D01*
X34493058Y-46700338D01*
X34400000Y-46681828D01*
X34100000Y-46681828D01*
X34006942Y-46700338D01*
X33948956Y-46739083D01*
X33937893Y-46734500D01*
X33872625Y-46734500D01*
X33825000Y-46782125D01*
X33825000Y-47509500D01*
X33856828Y-47509500D01*
X33856828Y-47890500D01*
X33825000Y-47890500D01*
X33825000Y-48617875D01*
X33872625Y-48665500D01*
X33924001Y-48665500D01*
X33924001Y-49114966D01*
X33614967Y-49424000D01*
X32787034Y-49424000D01*
X32957818Y-49253216D01*
X32985032Y-49235032D01*
X33003216Y-49207818D01*
X33003218Y-49207816D01*
X33030079Y-49167615D01*
X33057085Y-49127199D01*
X33076000Y-49032105D01*
X33076000Y-49032101D01*
X33082385Y-49000001D01*
X33076000Y-48967901D01*
X33076000Y-48713398D01*
X33100000Y-48718172D01*
X33400000Y-48718172D01*
X33493058Y-48699662D01*
X33551044Y-48660917D01*
X33562107Y-48665500D01*
X33627375Y-48665500D01*
X33675000Y-48617875D01*
X33675000Y-47890500D01*
X33643172Y-47890500D01*
X33643172Y-47509500D01*
X33675000Y-47509500D01*
X33675000Y-46782125D01*
X33627375Y-46734500D01*
X33615500Y-46734500D01*
X33615500Y-45746500D01*
X37384500Y-45746500D01*
X37384501Y-46681828D01*
X37384501Y-46681828D01*
G37*
X37384501Y-46681828D02*
X37100000Y-46681828D01*
X37006942Y-46700338D01*
X37000000Y-46704976D01*
X36993058Y-46700338D01*
X36900000Y-46681828D01*
X36600000Y-46681828D01*
X36506942Y-46700338D01*
X36500000Y-46704976D01*
X36493058Y-46700338D01*
X36400000Y-46681828D01*
X36100000Y-46681828D01*
X36006942Y-46700338D01*
X36000000Y-46704976D01*
X35993058Y-46700338D01*
X35900000Y-46681828D01*
X35600000Y-46681828D01*
X35506942Y-46700338D01*
X35500000Y-46704976D01*
X35493058Y-46700338D01*
X35400000Y-46681828D01*
X35100000Y-46681828D01*
X35006942Y-46700338D01*
X35000000Y-46704976D01*
X34993058Y-46700338D01*
X34900000Y-46681828D01*
X34600000Y-46681828D01*
X34506942Y-46700338D01*
X34500000Y-46704976D01*
X34493058Y-46700338D01*
X34400000Y-46681828D01*
X34100000Y-46681828D01*
X34006942Y-46700338D01*
X33948956Y-46739083D01*
X33937893Y-46734500D01*
X33872625Y-46734500D01*
X33825000Y-46782125D01*
X33825000Y-47509500D01*
X33856828Y-47509500D01*
X33856828Y-47890500D01*
X33825000Y-47890500D01*
X33825000Y-48617875D01*
X33872625Y-48665500D01*
X33924001Y-48665500D01*
X33924001Y-49114966D01*
X33614967Y-49424000D01*
X32787034Y-49424000D01*
X32957818Y-49253216D01*
X32985032Y-49235032D01*
X33003216Y-49207818D01*
X33003218Y-49207816D01*
X33030079Y-49167615D01*
X33057085Y-49127199D01*
X33076000Y-49032105D01*
X33076000Y-49032101D01*
X33082385Y-49000001D01*
X33076000Y-48967901D01*
X33076000Y-48713398D01*
X33100000Y-48718172D01*
X33400000Y-48718172D01*
X33493058Y-48699662D01*
X33551044Y-48660917D01*
X33562107Y-48665500D01*
X33627375Y-48665500D01*
X33675000Y-48617875D01*
X33675000Y-47890500D01*
X33643172Y-47890500D01*
X33643172Y-47509500D01*
X33675000Y-47509500D01*
X33675000Y-46782125D01*
X33627375Y-46734500D01*
X33615500Y-46734500D01*
X33615500Y-45746500D01*
X37384500Y-45746500D01*
X37384501Y-46681828D01*
G36*
X30426480Y-45746500D02*
X30426483Y-45746500D01*
X30499999Y-45761123D01*
X30573515Y-45746500D01*
X32058389Y-45746500D01*
X31944964Y-45793482D01*
X31793482Y-45944964D01*
X31711500Y-46142886D01*
X31711500Y-46357114D01*
X31793482Y-46555036D01*
X31884500Y-46646054D01*
X31884500Y-46681828D01*
X31600000Y-46681828D01*
X31506942Y-46700338D01*
X31500000Y-46704976D01*
X31493058Y-46700338D01*
X31400000Y-46681828D01*
X31100000Y-46681828D01*
X31006942Y-46700338D01*
X31000000Y-46704976D01*
X30993058Y-46700338D01*
X30900000Y-46681828D01*
X30600000Y-46681828D01*
X30506942Y-46700338D01*
X30448956Y-46739083D01*
X30437893Y-46734500D01*
X30372625Y-46734500D01*
X30325000Y-46782125D01*
X30325000Y-47509500D01*
X30356828Y-47509500D01*
X30356828Y-47890500D01*
X30325000Y-47890500D01*
X30325000Y-48617875D01*
X30372625Y-48665500D01*
X30424001Y-48665500D01*
X30424001Y-49114966D01*
X30114967Y-49424000D01*
X28787033Y-49424000D01*
X29457817Y-48753217D01*
X29485032Y-48735032D01*
X29503216Y-48707818D01*
X29503218Y-48707816D01*
X29508464Y-48699965D01*
X29600000Y-48718172D01*
X29900000Y-48718172D01*
X29993058Y-48699662D01*
X30051044Y-48660917D01*
X30062107Y-48665500D01*
X30127375Y-48665500D01*
X30175000Y-48617875D01*
X30175000Y-47890500D01*
X30143172Y-47890500D01*
X30143172Y-47509500D01*
X30175000Y-47509500D01*
X30175000Y-46782125D01*
X30127375Y-46734500D01*
X30115500Y-46734500D01*
X30115500Y-45901394D01*
X30296291Y-45720604D01*
X30426480Y-45746500D01*
X30426480Y-45746500D01*
G37*
X30426480Y-45746500D02*
X30426483Y-45746500D01*
X30499999Y-45761123D01*
X30573515Y-45746500D01*
X32058389Y-45746500D01*
X31944964Y-45793482D01*
X31793482Y-45944964D01*
X31711500Y-46142886D01*
X31711500Y-46357114D01*
X31793482Y-46555036D01*
X31884500Y-46646054D01*
X31884500Y-46681828D01*
X31600000Y-46681828D01*
X31506942Y-46700338D01*
X31500000Y-46704976D01*
X31493058Y-46700338D01*
X31400000Y-46681828D01*
X31100000Y-46681828D01*
X31006942Y-46700338D01*
X31000000Y-46704976D01*
X30993058Y-46700338D01*
X30900000Y-46681828D01*
X30600000Y-46681828D01*
X30506942Y-46700338D01*
X30448956Y-46739083D01*
X30437893Y-46734500D01*
X30372625Y-46734500D01*
X30325000Y-46782125D01*
X30325000Y-47509500D01*
X30356828Y-47509500D01*
X30356828Y-47890500D01*
X30325000Y-47890500D01*
X30325000Y-48617875D01*
X30372625Y-48665500D01*
X30424001Y-48665500D01*
X30424001Y-49114966D01*
X30114967Y-49424000D01*
X28787033Y-49424000D01*
X29457817Y-48753217D01*
X29485032Y-48735032D01*
X29503216Y-48707818D01*
X29503218Y-48707816D01*
X29508464Y-48699965D01*
X29600000Y-48718172D01*
X29900000Y-48718172D01*
X29993058Y-48699662D01*
X30051044Y-48660917D01*
X30062107Y-48665500D01*
X30127375Y-48665500D01*
X30175000Y-48617875D01*
X30175000Y-47890500D01*
X30143172Y-47890500D01*
X30143172Y-47509500D01*
X30175000Y-47509500D01*
X30175000Y-46782125D01*
X30127375Y-46734500D01*
X30115500Y-46734500D01*
X30115500Y-45901394D01*
X30296291Y-45720604D01*
X30426480Y-45746500D01*
G36*
X25300338Y-40993058D02*
X25339083Y-41051044D01*
X25334500Y-41062107D01*
X25334500Y-41127375D01*
X25382125Y-41175000D01*
X26109500Y-41175000D01*
X26109500Y-41143172D01*
X26490500Y-41143172D01*
X26490500Y-41175000D01*
X27217875Y-41175000D01*
X27265500Y-41127375D01*
X27265500Y-41115500D01*
X28253500Y-41115500D01*
X28253501Y-42558390D01*
X28206518Y-42444964D01*
X28055036Y-42293482D01*
X27857114Y-42211500D01*
X27728394Y-42211500D01*
X27533901Y-42017007D01*
X27513510Y-41986490D01*
X27392611Y-41905707D01*
X27318172Y-41890900D01*
X27318172Y-41600000D01*
X27299662Y-41506942D01*
X27260917Y-41448956D01*
X27265500Y-41437893D01*
X27265500Y-41372625D01*
X27217875Y-41325000D01*
X26490500Y-41325000D01*
X26490500Y-41356828D01*
X26109500Y-41356828D01*
X26109500Y-41325000D01*
X25382125Y-41325000D01*
X25334500Y-41372625D01*
X25334500Y-41424000D01*
X24787034Y-41424000D01*
X25286673Y-40924360D01*
X25300338Y-40993058D01*
X25300338Y-40993058D01*
G37*
X25300338Y-40993058D02*
X25339083Y-41051044D01*
X25334500Y-41062107D01*
X25334500Y-41127375D01*
X25382125Y-41175000D01*
X26109500Y-41175000D01*
X26109500Y-41143172D01*
X26490500Y-41143172D01*
X26490500Y-41175000D01*
X27217875Y-41175000D01*
X27265500Y-41127375D01*
X27265500Y-41115500D01*
X28253500Y-41115500D01*
X28253501Y-42558390D01*
X28206518Y-42444964D01*
X28055036Y-42293482D01*
X27857114Y-42211500D01*
X27728394Y-42211500D01*
X27533901Y-42017007D01*
X27513510Y-41986490D01*
X27392611Y-41905707D01*
X27318172Y-41890900D01*
X27318172Y-41600000D01*
X27299662Y-41506942D01*
X27260917Y-41448956D01*
X27265500Y-41437893D01*
X27265500Y-41372625D01*
X27217875Y-41325000D01*
X26490500Y-41325000D01*
X26490500Y-41356828D01*
X26109500Y-41356828D01*
X26109500Y-41325000D01*
X25382125Y-41325000D01*
X25334500Y-41372625D01*
X25334500Y-41424000D01*
X24787034Y-41424000D01*
X25286673Y-40924360D01*
X25300338Y-40993058D01*
G36*
X45793482Y-40555036D02*
X45944964Y-40706518D01*
X46142886Y-40788500D01*
X46357114Y-40788500D01*
X46555036Y-40706518D01*
X46646054Y-40615500D01*
X46681828Y-40615500D01*
X46681828Y-40900000D01*
X46700338Y-40993058D01*
X46739083Y-41051044D01*
X46734500Y-41062107D01*
X46734500Y-41127375D01*
X46782125Y-41175000D01*
X47509500Y-41175000D01*
X47509500Y-41143172D01*
X47890500Y-41143172D01*
X47890500Y-41175000D01*
X48617875Y-41175000D01*
X48665500Y-41127375D01*
X48665500Y-41076000D01*
X49114967Y-41076000D01*
X49962966Y-41924000D01*
X48713398Y-41924000D01*
X48718172Y-41900000D01*
X48718172Y-41600000D01*
X48699662Y-41506942D01*
X48660917Y-41448956D01*
X48665500Y-41437893D01*
X48665500Y-41372625D01*
X48617875Y-41325000D01*
X47890500Y-41325000D01*
X47890500Y-41356828D01*
X47509500Y-41356828D01*
X47509500Y-41325000D01*
X46782125Y-41325000D01*
X46734500Y-41372625D01*
X46734500Y-41384500D01*
X45746500Y-41384500D01*
X45746500Y-40441611D01*
X45793482Y-40555036D01*
X45793482Y-40555036D01*
G37*
X45793482Y-40555036D02*
X45944964Y-40706518D01*
X46142886Y-40788500D01*
X46357114Y-40788500D01*
X46555036Y-40706518D01*
X46646054Y-40615500D01*
X46681828Y-40615500D01*
X46681828Y-40900000D01*
X46700338Y-40993058D01*
X46739083Y-41051044D01*
X46734500Y-41062107D01*
X46734500Y-41127375D01*
X46782125Y-41175000D01*
X47509500Y-41175000D01*
X47509500Y-41143172D01*
X47890500Y-41143172D01*
X47890500Y-41175000D01*
X48617875Y-41175000D01*
X48665500Y-41127375D01*
X48665500Y-41076000D01*
X49114967Y-41076000D01*
X49962966Y-41924000D01*
X48713398Y-41924000D01*
X48718172Y-41900000D01*
X48718172Y-41600000D01*
X48699662Y-41506942D01*
X48660917Y-41448956D01*
X48665500Y-41437893D01*
X48665500Y-41372625D01*
X48617875Y-41325000D01*
X47890500Y-41325000D01*
X47890500Y-41356828D01*
X47509500Y-41356828D01*
X47509500Y-41325000D01*
X46782125Y-41325000D01*
X46734500Y-41372625D01*
X46734500Y-41384500D01*
X45746500Y-41384500D01*
X45746500Y-40441611D01*
X45793482Y-40555036D01*
G36*
X28253500Y-38426480D02*
X28238876Y-38500000D01*
X28253500Y-38573519D01*
X28253501Y-40176476D01*
X28253500Y-40176481D01*
X28253500Y-40384500D01*
X27318172Y-40384500D01*
X27318172Y-40100000D01*
X27299662Y-40006942D01*
X27295024Y-40000000D01*
X27299662Y-39993058D01*
X27318172Y-39900000D01*
X27318172Y-39600000D01*
X27299662Y-39506942D01*
X27295024Y-39500000D01*
X27299662Y-39493058D01*
X27318172Y-39400000D01*
X27318172Y-39100000D01*
X27299662Y-39006942D01*
X27295024Y-39000000D01*
X27299662Y-38993058D01*
X27318172Y-38900000D01*
X27318172Y-38600000D01*
X27299662Y-38506942D01*
X27260917Y-38448956D01*
X27265500Y-38437893D01*
X27265500Y-38372625D01*
X27217875Y-38325000D01*
X26490500Y-38325000D01*
X26490500Y-38356828D01*
X26109500Y-38356828D01*
X26109500Y-38325000D01*
X25382125Y-38325000D01*
X25334500Y-38372625D01*
X25334500Y-38424000D01*
X23787034Y-38424000D01*
X24135034Y-38076000D01*
X25334500Y-38076000D01*
X25334500Y-38127375D01*
X25382125Y-38175000D01*
X26109500Y-38175000D01*
X26109500Y-38143172D01*
X26490500Y-38143172D01*
X26490500Y-38175000D01*
X27217875Y-38175000D01*
X27265500Y-38127375D01*
X27265500Y-38062107D01*
X27260917Y-38051044D01*
X27299662Y-37993058D01*
X27318172Y-37900000D01*
X27318172Y-37600000D01*
X27299662Y-37506942D01*
X27260917Y-37448956D01*
X27265500Y-37437893D01*
X27265500Y-37372625D01*
X27217875Y-37325000D01*
X26490500Y-37325000D01*
X26490500Y-37356828D01*
X26109500Y-37356828D01*
X26109500Y-37325000D01*
X25382125Y-37325000D01*
X25334500Y-37372625D01*
X25334500Y-37424000D01*
X24032101Y-37424000D01*
X24000000Y-37417615D01*
X23967899Y-37424000D01*
X23967895Y-37424000D01*
X23872801Y-37442915D01*
X23792184Y-37496782D01*
X23792182Y-37496784D01*
X23764968Y-37514968D01*
X23746784Y-37542183D01*
X23154686Y-38134280D01*
X23181396Y-38000000D01*
X23110498Y-37643570D01*
X23093261Y-37617773D01*
X23635034Y-37076000D01*
X25334500Y-37076000D01*
X25334500Y-37127375D01*
X25382125Y-37175000D01*
X26109500Y-37175000D01*
X26109500Y-37143172D01*
X26490500Y-37143172D01*
X26490500Y-37175000D01*
X27217875Y-37175000D01*
X27265500Y-37127375D01*
X27265500Y-37062107D01*
X27260917Y-37051044D01*
X27299662Y-36993058D01*
X27318172Y-36900000D01*
X27318172Y-36615500D01*
X28253501Y-36615500D01*
X28253500Y-38426480D01*
X28253500Y-38426480D01*
G37*
X28253500Y-38426480D02*
X28238876Y-38500000D01*
X28253500Y-38573519D01*
X28253501Y-40176476D01*
X28253500Y-40176481D01*
X28253500Y-40384500D01*
X27318172Y-40384500D01*
X27318172Y-40100000D01*
X27299662Y-40006942D01*
X27295024Y-40000000D01*
X27299662Y-39993058D01*
X27318172Y-39900000D01*
X27318172Y-39600000D01*
X27299662Y-39506942D01*
X27295024Y-39500000D01*
X27299662Y-39493058D01*
X27318172Y-39400000D01*
X27318172Y-39100000D01*
X27299662Y-39006942D01*
X27295024Y-39000000D01*
X27299662Y-38993058D01*
X27318172Y-38900000D01*
X27318172Y-38600000D01*
X27299662Y-38506942D01*
X27260917Y-38448956D01*
X27265500Y-38437893D01*
X27265500Y-38372625D01*
X27217875Y-38325000D01*
X26490500Y-38325000D01*
X26490500Y-38356828D01*
X26109500Y-38356828D01*
X26109500Y-38325000D01*
X25382125Y-38325000D01*
X25334500Y-38372625D01*
X25334500Y-38424000D01*
X23787034Y-38424000D01*
X24135034Y-38076000D01*
X25334500Y-38076000D01*
X25334500Y-38127375D01*
X25382125Y-38175000D01*
X26109500Y-38175000D01*
X26109500Y-38143172D01*
X26490500Y-38143172D01*
X26490500Y-38175000D01*
X27217875Y-38175000D01*
X27265500Y-38127375D01*
X27265500Y-38062107D01*
X27260917Y-38051044D01*
X27299662Y-37993058D01*
X27318172Y-37900000D01*
X27318172Y-37600000D01*
X27299662Y-37506942D01*
X27260917Y-37448956D01*
X27265500Y-37437893D01*
X27265500Y-37372625D01*
X27217875Y-37325000D01*
X26490500Y-37325000D01*
X26490500Y-37356828D01*
X26109500Y-37356828D01*
X26109500Y-37325000D01*
X25382125Y-37325000D01*
X25334500Y-37372625D01*
X25334500Y-37424000D01*
X24032101Y-37424000D01*
X24000000Y-37417615D01*
X23967899Y-37424000D01*
X23967895Y-37424000D01*
X23872801Y-37442915D01*
X23792184Y-37496782D01*
X23792182Y-37496784D01*
X23764968Y-37514968D01*
X23746784Y-37542183D01*
X23154686Y-38134280D01*
X23181396Y-38000000D01*
X23110498Y-37643570D01*
X23093261Y-37617773D01*
X23635034Y-37076000D01*
X25334500Y-37076000D01*
X25334500Y-37127375D01*
X25382125Y-37175000D01*
X26109500Y-37175000D01*
X26109500Y-37143172D01*
X26490500Y-37143172D01*
X26490500Y-37175000D01*
X27217875Y-37175000D01*
X27265500Y-37127375D01*
X27265500Y-37062107D01*
X27260917Y-37051044D01*
X27299662Y-36993058D01*
X27318172Y-36900000D01*
X27318172Y-36615500D01*
X28253501Y-36615500D01*
X28253500Y-38426480D01*
G36*
X45793482Y-31555036D02*
X45944964Y-31706518D01*
X46142886Y-31788500D01*
X46357114Y-31788500D01*
X46555036Y-31706518D01*
X46646054Y-31615500D01*
X46681828Y-31615500D01*
X46681828Y-31900000D01*
X46700338Y-31993058D01*
X46704976Y-32000000D01*
X46700338Y-32006942D01*
X46681828Y-32100000D01*
X46681828Y-32400000D01*
X46700338Y-32493058D01*
X46704976Y-32500000D01*
X46700338Y-32506942D01*
X46681828Y-32600000D01*
X46681828Y-32900000D01*
X46700338Y-32993058D01*
X46704976Y-33000000D01*
X46700338Y-33006942D01*
X46681828Y-33100000D01*
X46681828Y-33400000D01*
X46700338Y-33493058D01*
X46739083Y-33551044D01*
X46734500Y-33562107D01*
X46734500Y-33627375D01*
X46782125Y-33675000D01*
X47509500Y-33675000D01*
X47509500Y-33643172D01*
X47890500Y-33643172D01*
X47890500Y-33675000D01*
X48617875Y-33675000D01*
X48665500Y-33627375D01*
X48665500Y-33576000D01*
X50864967Y-33576000D01*
X50906739Y-33617773D01*
X50889502Y-33643570D01*
X50818604Y-34000000D01*
X50889502Y-34356430D01*
X51091404Y-34658596D01*
X51138186Y-34689855D01*
X51122801Y-34692915D01*
X51042184Y-34746782D01*
X51042182Y-34746784D01*
X51014968Y-34764968D01*
X50996784Y-34792183D01*
X49864967Y-35924000D01*
X48713398Y-35924000D01*
X48718172Y-35900000D01*
X48718172Y-35600000D01*
X48699662Y-35506942D01*
X48660917Y-35448956D01*
X48665500Y-35437893D01*
X48665500Y-35372625D01*
X48617875Y-35325000D01*
X47890500Y-35325000D01*
X47890500Y-35356828D01*
X47509500Y-35356828D01*
X47509500Y-35325000D01*
X46782125Y-35325000D01*
X46734500Y-35372625D01*
X46734500Y-35384500D01*
X45746500Y-35384500D01*
X45746500Y-34872625D01*
X46734500Y-34872625D01*
X46734500Y-34937893D01*
X46760226Y-35000000D01*
X46734500Y-35062107D01*
X46734500Y-35127375D01*
X46782125Y-35175000D01*
X47509500Y-35175000D01*
X47509500Y-34825000D01*
X47890500Y-34825000D01*
X47890500Y-35175000D01*
X48617875Y-35175000D01*
X48665500Y-35127375D01*
X48665500Y-35062107D01*
X48639774Y-35000000D01*
X48665500Y-34937893D01*
X48665500Y-34872625D01*
X48617875Y-34825000D01*
X47890500Y-34825000D01*
X47509500Y-34825000D01*
X46782125Y-34825000D01*
X46734500Y-34872625D01*
X45746500Y-34872625D01*
X45746500Y-34372625D01*
X46734500Y-34372625D01*
X46734500Y-34437893D01*
X46760226Y-34500000D01*
X46734500Y-34562107D01*
X46734500Y-34627375D01*
X46782125Y-34675000D01*
X47509500Y-34675000D01*
X47509500Y-34325000D01*
X47890500Y-34325000D01*
X47890500Y-34675000D01*
X48617875Y-34675000D01*
X48665500Y-34627375D01*
X48665500Y-34562107D01*
X48639774Y-34500000D01*
X48665500Y-34437893D01*
X48665500Y-34372625D01*
X48617875Y-34325000D01*
X47890500Y-34325000D01*
X47509500Y-34325000D01*
X46782125Y-34325000D01*
X46734500Y-34372625D01*
X45746500Y-34372625D01*
X45746500Y-33872625D01*
X46734500Y-33872625D01*
X46734500Y-33937893D01*
X46760226Y-33999999D01*
X46734500Y-34062107D01*
X46734500Y-34127375D01*
X46782125Y-34175000D01*
X47509500Y-34175000D01*
X47509500Y-33825000D01*
X47890500Y-33825000D01*
X47890500Y-34175000D01*
X48617875Y-34175000D01*
X48665500Y-34127375D01*
X48665500Y-34062107D01*
X48639774Y-33999999D01*
X48665500Y-33937893D01*
X48665500Y-33872625D01*
X48617875Y-33825000D01*
X47890500Y-33825000D01*
X47509500Y-33825000D01*
X46782125Y-33825000D01*
X46734500Y-33872625D01*
X45746500Y-33872625D01*
X45746500Y-31441611D01*
X45793482Y-31555036D01*
X45793482Y-31555036D01*
G37*
X45793482Y-31555036D02*
X45944964Y-31706518D01*
X46142886Y-31788500D01*
X46357114Y-31788500D01*
X46555036Y-31706518D01*
X46646054Y-31615500D01*
X46681828Y-31615500D01*
X46681828Y-31900000D01*
X46700338Y-31993058D01*
X46704976Y-32000000D01*
X46700338Y-32006942D01*
X46681828Y-32100000D01*
X46681828Y-32400000D01*
X46700338Y-32493058D01*
X46704976Y-32500000D01*
X46700338Y-32506942D01*
X46681828Y-32600000D01*
X46681828Y-32900000D01*
X46700338Y-32993058D01*
X46704976Y-33000000D01*
X46700338Y-33006942D01*
X46681828Y-33100000D01*
X46681828Y-33400000D01*
X46700338Y-33493058D01*
X46739083Y-33551044D01*
X46734500Y-33562107D01*
X46734500Y-33627375D01*
X46782125Y-33675000D01*
X47509500Y-33675000D01*
X47509500Y-33643172D01*
X47890500Y-33643172D01*
X47890500Y-33675000D01*
X48617875Y-33675000D01*
X48665500Y-33627375D01*
X48665500Y-33576000D01*
X50864967Y-33576000D01*
X50906739Y-33617773D01*
X50889502Y-33643570D01*
X50818604Y-34000000D01*
X50889502Y-34356430D01*
X51091404Y-34658596D01*
X51138186Y-34689855D01*
X51122801Y-34692915D01*
X51042184Y-34746782D01*
X51042182Y-34746784D01*
X51014968Y-34764968D01*
X50996784Y-34792183D01*
X49864967Y-35924000D01*
X48713398Y-35924000D01*
X48718172Y-35900000D01*
X48718172Y-35600000D01*
X48699662Y-35506942D01*
X48660917Y-35448956D01*
X48665500Y-35437893D01*
X48665500Y-35372625D01*
X48617875Y-35325000D01*
X47890500Y-35325000D01*
X47890500Y-35356828D01*
X47509500Y-35356828D01*
X47509500Y-35325000D01*
X46782125Y-35325000D01*
X46734500Y-35372625D01*
X46734500Y-35384500D01*
X45746500Y-35384500D01*
X45746500Y-34872625D01*
X46734500Y-34872625D01*
X46734500Y-34937893D01*
X46760226Y-35000000D01*
X46734500Y-35062107D01*
X46734500Y-35127375D01*
X46782125Y-35175000D01*
X47509500Y-35175000D01*
X47509500Y-34825000D01*
X47890500Y-34825000D01*
X47890500Y-35175000D01*
X48617875Y-35175000D01*
X48665500Y-35127375D01*
X48665500Y-35062107D01*
X48639774Y-35000000D01*
X48665500Y-34937893D01*
X48665500Y-34872625D01*
X48617875Y-34825000D01*
X47890500Y-34825000D01*
X47509500Y-34825000D01*
X46782125Y-34825000D01*
X46734500Y-34872625D01*
X45746500Y-34872625D01*
X45746500Y-34372625D01*
X46734500Y-34372625D01*
X46734500Y-34437893D01*
X46760226Y-34500000D01*
X46734500Y-34562107D01*
X46734500Y-34627375D01*
X46782125Y-34675000D01*
X47509500Y-34675000D01*
X47509500Y-34325000D01*
X47890500Y-34325000D01*
X47890500Y-34675000D01*
X48617875Y-34675000D01*
X48665500Y-34627375D01*
X48665500Y-34562107D01*
X48639774Y-34500000D01*
X48665500Y-34437893D01*
X48665500Y-34372625D01*
X48617875Y-34325000D01*
X47890500Y-34325000D01*
X47509500Y-34325000D01*
X46782125Y-34325000D01*
X46734500Y-34372625D01*
X45746500Y-34372625D01*
X45746500Y-33872625D01*
X46734500Y-33872625D01*
X46734500Y-33937893D01*
X46760226Y-33999999D01*
X46734500Y-34062107D01*
X46734500Y-34127375D01*
X46782125Y-34175000D01*
X47509500Y-34175000D01*
X47509500Y-33825000D01*
X47890500Y-33825000D01*
X47890500Y-34175000D01*
X48617875Y-34175000D01*
X48665500Y-34127375D01*
X48665500Y-34062107D01*
X48639774Y-33999999D01*
X48665500Y-33937893D01*
X48665500Y-33872625D01*
X48617875Y-33825000D01*
X47890500Y-33825000D01*
X47509500Y-33825000D01*
X46782125Y-33825000D01*
X46734500Y-33872625D01*
X45746500Y-33872625D01*
X45746500Y-31441611D01*
X45793482Y-31555036D01*
G36*
X35341404Y-21908596D02*
X35643570Y-22110498D01*
X35672678Y-22116288D01*
X35542183Y-22246784D01*
X35514969Y-22264968D01*
X35496785Y-22292182D01*
X35496782Y-22292185D01*
X35442915Y-22372802D01*
X35417615Y-22500000D01*
X35424001Y-22532106D01*
X35424000Y-25286602D01*
X35400000Y-25281828D01*
X35100000Y-25281828D01*
X35006942Y-25300338D01*
X34948956Y-25339083D01*
X34937893Y-25334500D01*
X34872625Y-25334500D01*
X34825000Y-25382125D01*
X34825000Y-26109500D01*
X34856828Y-26109500D01*
X34856828Y-26490500D01*
X34825000Y-26490500D01*
X34825000Y-27217875D01*
X34872625Y-27265500D01*
X34884500Y-27265500D01*
X34884501Y-28253500D01*
X33441611Y-28253500D01*
X33555036Y-28206518D01*
X33706518Y-28055036D01*
X33788500Y-27857114D01*
X33788500Y-27642886D01*
X33706518Y-27444964D01*
X33615500Y-27353946D01*
X33615500Y-27318172D01*
X33900000Y-27318172D01*
X33993058Y-27299662D01*
X34000000Y-27295024D01*
X34006942Y-27299662D01*
X34100000Y-27318172D01*
X34400000Y-27318172D01*
X34493058Y-27299662D01*
X34551044Y-27260917D01*
X34562107Y-27265500D01*
X34627375Y-27265500D01*
X34675000Y-27217875D01*
X34675000Y-26490500D01*
X34643172Y-26490500D01*
X34643172Y-26109500D01*
X34675000Y-26109500D01*
X34675000Y-25382125D01*
X34627375Y-25334500D01*
X34576000Y-25334500D01*
X34576000Y-22635033D01*
X35207818Y-22003216D01*
X35235032Y-21985032D01*
X35253216Y-21957818D01*
X35253218Y-21957816D01*
X35307085Y-21877199D01*
X35310145Y-21861814D01*
X35341404Y-21908596D01*
X35341404Y-21908596D01*
G37*
X35341404Y-21908596D02*
X35643570Y-22110498D01*
X35672678Y-22116288D01*
X35542183Y-22246784D01*
X35514969Y-22264968D01*
X35496785Y-22292182D01*
X35496782Y-22292185D01*
X35442915Y-22372802D01*
X35417615Y-22500000D01*
X35424001Y-22532106D01*
X35424000Y-25286602D01*
X35400000Y-25281828D01*
X35100000Y-25281828D01*
X35006942Y-25300338D01*
X34948956Y-25339083D01*
X34937893Y-25334500D01*
X34872625Y-25334500D01*
X34825000Y-25382125D01*
X34825000Y-26109500D01*
X34856828Y-26109500D01*
X34856828Y-26490500D01*
X34825000Y-26490500D01*
X34825000Y-27217875D01*
X34872625Y-27265500D01*
X34884500Y-27265500D01*
X34884501Y-28253500D01*
X33441611Y-28253500D01*
X33555036Y-28206518D01*
X33706518Y-28055036D01*
X33788500Y-27857114D01*
X33788500Y-27642886D01*
X33706518Y-27444964D01*
X33615500Y-27353946D01*
X33615500Y-27318172D01*
X33900000Y-27318172D01*
X33993058Y-27299662D01*
X34000000Y-27295024D01*
X34006942Y-27299662D01*
X34100000Y-27318172D01*
X34400000Y-27318172D01*
X34493058Y-27299662D01*
X34551044Y-27260917D01*
X34562107Y-27265500D01*
X34627375Y-27265500D01*
X34675000Y-27217875D01*
X34675000Y-26490500D01*
X34643172Y-26490500D01*
X34643172Y-26109500D01*
X34675000Y-26109500D01*
X34675000Y-25382125D01*
X34627375Y-25334500D01*
X34576000Y-25334500D01*
X34576000Y-22635033D01*
X35207818Y-22003216D01*
X35235032Y-21985032D01*
X35253216Y-21957818D01*
X35253218Y-21957816D01*
X35307085Y-21877199D01*
X35310145Y-21861814D01*
X35341404Y-21908596D01*
G36*
X39643570Y-22110498D02*
X39910030Y-22163500D01*
X40089970Y-22163500D01*
X40134280Y-22154686D01*
X39542183Y-22746784D01*
X39514969Y-22764968D01*
X39496785Y-22792182D01*
X39496782Y-22792185D01*
X39442915Y-22872802D01*
X39417615Y-23000000D01*
X39424001Y-23032106D01*
X39424000Y-25286602D01*
X39400000Y-25281828D01*
X39100000Y-25281828D01*
X39006942Y-25300338D01*
X38948956Y-25339083D01*
X38937893Y-25334500D01*
X38872625Y-25334500D01*
X38825000Y-25382125D01*
X38825000Y-26109500D01*
X38856828Y-26109500D01*
X38856828Y-26490500D01*
X38825000Y-26490500D01*
X38825000Y-27217875D01*
X38872625Y-27265500D01*
X38884500Y-27265500D01*
X38884501Y-28253500D01*
X38441611Y-28253500D01*
X38555036Y-28206518D01*
X38706518Y-28055036D01*
X38788500Y-27857114D01*
X38788500Y-27642886D01*
X38706518Y-27444964D01*
X38615500Y-27353946D01*
X38615500Y-27265500D01*
X38627375Y-27265500D01*
X38675000Y-27217875D01*
X38675000Y-26490500D01*
X38643172Y-26490500D01*
X38643172Y-26109500D01*
X38675000Y-26109500D01*
X38675000Y-25382125D01*
X38627375Y-25334500D01*
X38562107Y-25334500D01*
X38551044Y-25339083D01*
X38493058Y-25300338D01*
X38400000Y-25281828D01*
X38100000Y-25281828D01*
X38076000Y-25286602D01*
X38076000Y-23635033D01*
X39617772Y-22093261D01*
X39643570Y-22110498D01*
X39643570Y-22110498D01*
G37*
X39643570Y-22110498D02*
X39910030Y-22163500D01*
X40089970Y-22163500D01*
X40134280Y-22154686D01*
X39542183Y-22746784D01*
X39514969Y-22764968D01*
X39496785Y-22792182D01*
X39496782Y-22792185D01*
X39442915Y-22872802D01*
X39417615Y-23000000D01*
X39424001Y-23032106D01*
X39424000Y-25286602D01*
X39400000Y-25281828D01*
X39100000Y-25281828D01*
X39006942Y-25300338D01*
X38948956Y-25339083D01*
X38937893Y-25334500D01*
X38872625Y-25334500D01*
X38825000Y-25382125D01*
X38825000Y-26109500D01*
X38856828Y-26109500D01*
X38856828Y-26490500D01*
X38825000Y-26490500D01*
X38825000Y-27217875D01*
X38872625Y-27265500D01*
X38884500Y-27265500D01*
X38884501Y-28253500D01*
X38441611Y-28253500D01*
X38555036Y-28206518D01*
X38706518Y-28055036D01*
X38788500Y-27857114D01*
X38788500Y-27642886D01*
X38706518Y-27444964D01*
X38615500Y-27353946D01*
X38615500Y-27265500D01*
X38627375Y-27265500D01*
X38675000Y-27217875D01*
X38675000Y-26490500D01*
X38643172Y-26490500D01*
X38643172Y-26109500D01*
X38675000Y-26109500D01*
X38675000Y-25382125D01*
X38627375Y-25334500D01*
X38562107Y-25334500D01*
X38551044Y-25339083D01*
X38493058Y-25300338D01*
X38400000Y-25281828D01*
X38100000Y-25281828D01*
X38076000Y-25286602D01*
X38076000Y-23635033D01*
X39617772Y-22093261D01*
X39643570Y-22110498D01*
G36*
X42424000Y-25286602D02*
X42400000Y-25281828D01*
X42100000Y-25281828D01*
X42006942Y-25300338D01*
X42000000Y-25304976D01*
X41993058Y-25300338D01*
X41900000Y-25281828D01*
X41600000Y-25281828D01*
X41506942Y-25300338D01*
X41448956Y-25339083D01*
X41437893Y-25334500D01*
X41372625Y-25334500D01*
X41325000Y-25382125D01*
X41325000Y-26109500D01*
X41356828Y-26109500D01*
X41356828Y-26490500D01*
X41325000Y-26490500D01*
X41325000Y-27217875D01*
X41372625Y-27265500D01*
X41384500Y-27265500D01*
X41384501Y-28253500D01*
X39615500Y-28253500D01*
X39615500Y-27318172D01*
X39900000Y-27318172D01*
X39993058Y-27299662D01*
X40000000Y-27295024D01*
X40006942Y-27299662D01*
X40100000Y-27318172D01*
X40400000Y-27318172D01*
X40493058Y-27299662D01*
X40500000Y-27295024D01*
X40506942Y-27299662D01*
X40600000Y-27318172D01*
X40900000Y-27318172D01*
X40993058Y-27299662D01*
X41051044Y-27260917D01*
X41062107Y-27265500D01*
X41127375Y-27265500D01*
X41175000Y-27217875D01*
X41175000Y-26490500D01*
X41143172Y-26490500D01*
X41143172Y-26109500D01*
X41175000Y-26109500D01*
X41175000Y-25382125D01*
X41127375Y-25334500D01*
X41076000Y-25334500D01*
X41076000Y-24135033D01*
X42424001Y-22787032D01*
X42424000Y-25286602D01*
X42424000Y-25286602D01*
G37*
X42424000Y-25286602D02*
X42400000Y-25281828D01*
X42100000Y-25281828D01*
X42006942Y-25300338D01*
X42000000Y-25304976D01*
X41993058Y-25300338D01*
X41900000Y-25281828D01*
X41600000Y-25281828D01*
X41506942Y-25300338D01*
X41448956Y-25339083D01*
X41437893Y-25334500D01*
X41372625Y-25334500D01*
X41325000Y-25382125D01*
X41325000Y-26109500D01*
X41356828Y-26109500D01*
X41356828Y-26490500D01*
X41325000Y-26490500D01*
X41325000Y-27217875D01*
X41372625Y-27265500D01*
X41384500Y-27265500D01*
X41384501Y-28253500D01*
X39615500Y-28253500D01*
X39615500Y-27318172D01*
X39900000Y-27318172D01*
X39993058Y-27299662D01*
X40000000Y-27295024D01*
X40006942Y-27299662D01*
X40100000Y-27318172D01*
X40400000Y-27318172D01*
X40493058Y-27299662D01*
X40500000Y-27295024D01*
X40506942Y-27299662D01*
X40600000Y-27318172D01*
X40900000Y-27318172D01*
X40993058Y-27299662D01*
X41051044Y-27260917D01*
X41062107Y-27265500D01*
X41127375Y-27265500D01*
X41175000Y-27217875D01*
X41175000Y-26490500D01*
X41143172Y-26490500D01*
X41143172Y-26109500D01*
X41175000Y-26109500D01*
X41175000Y-25382125D01*
X41127375Y-25334500D01*
X41076000Y-25334500D01*
X41076000Y-24135033D01*
X42424001Y-22787032D01*
X42424000Y-25286602D01*
G36*
X32674000Y-22217899D02*
X32667615Y-22250000D01*
X32674000Y-22282101D01*
X32674000Y-22282104D01*
X32692915Y-22377198D01*
X32764968Y-22485032D01*
X32792185Y-22503218D01*
X32924001Y-22635035D01*
X32924000Y-24864967D01*
X32542183Y-25246784D01*
X32514969Y-25264968D01*
X32500001Y-25287370D01*
X32485032Y-25264968D01*
X32457815Y-25246782D01*
X32076000Y-24864967D01*
X32076000Y-22635033D01*
X32207818Y-22503216D01*
X32235032Y-22485032D01*
X32253216Y-22457818D01*
X32253218Y-22457816D01*
X32271736Y-22430102D01*
X32307085Y-22377199D01*
X32326000Y-22282105D01*
X32326000Y-22282101D01*
X32332385Y-22250001D01*
X32326000Y-22217901D01*
X32326000Y-22116551D01*
X32356430Y-22110498D01*
X32658596Y-21908596D01*
X32674000Y-21885542D01*
X32674000Y-22217899D01*
X32674000Y-22217899D01*
G37*
X32674000Y-22217899D02*
X32667615Y-22250000D01*
X32674000Y-22282101D01*
X32674000Y-22282104D01*
X32692915Y-22377198D01*
X32764968Y-22485032D01*
X32792185Y-22503218D01*
X32924001Y-22635035D01*
X32924000Y-24864967D01*
X32542183Y-25246784D01*
X32514969Y-25264968D01*
X32500001Y-25287370D01*
X32485032Y-25264968D01*
X32457815Y-25246782D01*
X32076000Y-24864967D01*
X32076000Y-22635033D01*
X32207818Y-22503216D01*
X32235032Y-22485032D01*
X32253216Y-22457818D01*
X32253218Y-22457816D01*
X32271736Y-22430102D01*
X32307085Y-22377199D01*
X32326000Y-22282105D01*
X32326000Y-22282101D01*
X32332385Y-22250001D01*
X32326000Y-22217901D01*
X32326000Y-22116551D01*
X32356430Y-22110498D01*
X32658596Y-21908596D01*
X32674000Y-21885542D01*
X32674000Y-22217899D01*
M02*
