%TF.GenerationSoftware,KiCad,Pcbnew,(5.0.0)*%
%TF.CreationDate,2020-04-09T18:14:40+01:00*%
%TF.ProjectId,HeikouBoxCore,4865696B6F75426F78436F72652E6B69,rev?*%
%TF.SameCoordinates,Original*%
%TF.FileFunction,Soldermask,Top*%
%TF.FilePolarity,Negative*%
%FSLAX46Y46*%
G04 Gerber Fmt 4.6, Leading zero omitted, Abs format (unit mm)*
G04 Created by KiCad (PCBNEW (5.0.0)) date 04/09/20 18:14:40*
%MOMM*%
%LPD*%
G01*
G04 APERTURE LIST*
%ADD10C,0.150000*%
%ADD11C,3.300000*%
%ADD12O,1.450000X1.450000*%
%ADD13R,1.450000X1.450000*%
%ADD14R,1.650000X0.400000*%
%ADD15R,0.400000X1.650000*%
%ADD16R,6.100000X6.100000*%
G04 APERTURE END LIST*
D10*
X17000000Y-57000000D02*
X17000000Y-17000000D01*
X57000000Y-57000000D02*
X17000000Y-57000000D01*
X57000000Y-17000000D02*
X57000000Y-57000000D01*
X17000000Y-17000000D02*
X57000000Y-17000000D01*
D11*
X21000000Y-21000000D03*
X53000000Y-21000000D03*
X53000000Y-53000000D03*
X21000000Y-53000000D03*
D12*
X28000000Y-21250000D03*
X40000000Y-21250000D03*
X30000000Y-21250000D03*
X48000000Y-21250000D03*
X26000000Y-19250000D03*
D13*
X26000000Y-21250000D03*
D12*
X40000000Y-19250000D03*
X44000000Y-19250000D03*
X44000000Y-21250000D03*
X34000000Y-21250000D03*
X46000000Y-21250000D03*
X30000000Y-19250000D03*
X32000000Y-19250000D03*
X38000000Y-19250000D03*
X38000000Y-21250000D03*
X34000000Y-19250000D03*
X48000000Y-19250000D03*
X32000000Y-21250000D03*
X36000000Y-19250000D03*
X42000000Y-19250000D03*
X36000000Y-21250000D03*
X28000000Y-19250000D03*
X46000000Y-19250000D03*
X42000000Y-21250000D03*
X51750000Y-38000000D03*
X51750000Y-32000000D03*
X53750000Y-42000000D03*
X53750000Y-48000000D03*
X53750000Y-44000000D03*
X51750000Y-42000000D03*
X53750000Y-38000000D03*
X53750000Y-46000000D03*
X53750000Y-30000000D03*
X53750000Y-40000000D03*
X51750000Y-48000000D03*
X53750000Y-28000000D03*
X51750000Y-36000000D03*
D13*
X51750000Y-26000000D03*
D12*
X53750000Y-26000000D03*
X51750000Y-46000000D03*
X51750000Y-34000000D03*
X53750000Y-36000000D03*
X51750000Y-44000000D03*
X51750000Y-28000000D03*
X51750000Y-40000000D03*
X51750000Y-30000000D03*
X53750000Y-34000000D03*
X53750000Y-32000000D03*
X38000000Y-53750000D03*
X32000000Y-53750000D03*
X42000000Y-51750000D03*
X48000000Y-51750000D03*
X44000000Y-51750000D03*
X42000000Y-53750000D03*
X38000000Y-51750000D03*
X46000000Y-51750000D03*
X30000000Y-51750000D03*
X40000000Y-51750000D03*
X48000000Y-53750000D03*
X28000000Y-51750000D03*
X36000000Y-53750000D03*
D13*
X26000000Y-53750000D03*
D12*
X26000000Y-51750000D03*
X46000000Y-53750000D03*
X34000000Y-53750000D03*
X36000000Y-51750000D03*
X44000000Y-53750000D03*
X28000000Y-53750000D03*
X40000000Y-53750000D03*
X30000000Y-53750000D03*
X34000000Y-51750000D03*
X32000000Y-51750000D03*
X22250000Y-26000000D03*
X22250000Y-30000000D03*
X22250000Y-32000000D03*
X20250000Y-36000000D03*
X20250000Y-28000000D03*
D13*
X20250000Y-26000000D03*
D12*
X20250000Y-30000000D03*
X22250000Y-36000000D03*
X20250000Y-40000000D03*
X20250000Y-44000000D03*
X22250000Y-46000000D03*
X20250000Y-48000000D03*
X22250000Y-28000000D03*
X22250000Y-34000000D03*
X22250000Y-40000000D03*
X20250000Y-34000000D03*
X20250000Y-46000000D03*
X22250000Y-38000000D03*
X20250000Y-42000000D03*
X22250000Y-44000000D03*
X22250000Y-48000000D03*
X22250000Y-42000000D03*
X20250000Y-32000000D03*
X20250000Y-38000000D03*
D14*
X26300000Y-28250000D03*
X26300000Y-28750000D03*
X26300000Y-29250000D03*
X26300000Y-29750000D03*
X26300000Y-30250000D03*
X26300000Y-30750000D03*
X26300000Y-31250000D03*
X26300000Y-31750000D03*
X26300000Y-32250000D03*
X26300000Y-32750000D03*
X26300000Y-33250000D03*
X26300000Y-33750000D03*
X26300000Y-34250000D03*
X26300000Y-34750000D03*
X26300000Y-35250000D03*
X26300000Y-35750000D03*
X26300000Y-36250000D03*
X26300000Y-36750000D03*
X26300000Y-37250000D03*
X26300000Y-37750000D03*
X26300000Y-38250000D03*
X26300000Y-38750000D03*
X26300000Y-39250000D03*
X26300000Y-39750000D03*
X26300000Y-40250000D03*
X26300000Y-40750000D03*
X26300000Y-41250000D03*
X26300000Y-41750000D03*
X26300000Y-42250000D03*
X26300000Y-42750000D03*
X26300000Y-43250000D03*
X26300000Y-43750000D03*
X26300000Y-44250000D03*
X26300000Y-44750000D03*
X26300000Y-45250000D03*
X26300000Y-45750000D03*
D15*
X28250000Y-47700000D03*
X28750000Y-47700000D03*
X29250000Y-47700000D03*
X29750000Y-47700000D03*
X30250000Y-47700000D03*
X30750000Y-47700000D03*
X31250000Y-47700000D03*
X31750000Y-47700000D03*
X32250000Y-47700000D03*
X32750000Y-47700000D03*
X33250000Y-47700000D03*
X33750000Y-47700000D03*
X34250000Y-47700000D03*
X34750000Y-47700000D03*
X35250000Y-47700000D03*
X35750000Y-47700000D03*
X36250000Y-47700000D03*
X36750000Y-47700000D03*
X37250000Y-47700000D03*
X37750000Y-47700000D03*
X38250000Y-47700000D03*
X38750000Y-47700000D03*
X39250000Y-47700000D03*
X39750000Y-47700000D03*
X40250000Y-47700000D03*
X40750000Y-47700000D03*
X41250000Y-47700000D03*
X41750000Y-47700000D03*
X42250000Y-47700000D03*
X42750000Y-47700000D03*
X43250000Y-47700000D03*
X43750000Y-47700000D03*
X44250000Y-47700000D03*
X44750000Y-47700000D03*
X45250000Y-47700000D03*
X45750000Y-47700000D03*
D14*
X47700000Y-45750000D03*
X47700000Y-45250000D03*
X47700000Y-44750000D03*
X47700000Y-44250000D03*
X47700000Y-43750000D03*
X47700000Y-43250000D03*
X47700000Y-42750000D03*
X47700000Y-42250000D03*
X47700000Y-41750000D03*
X47700000Y-41250000D03*
X47700000Y-40750000D03*
X47700000Y-40250000D03*
X47700000Y-39750000D03*
X47700000Y-39250000D03*
X47700000Y-38750000D03*
X47700000Y-38250000D03*
X47700000Y-37750000D03*
X47700000Y-37250000D03*
X47700000Y-36750000D03*
X47700000Y-36250000D03*
X47700000Y-35750000D03*
X47700000Y-35250000D03*
X47700000Y-34750000D03*
X47700000Y-34250000D03*
X47700000Y-33750000D03*
X47700000Y-33250000D03*
X47700000Y-32750000D03*
X47700000Y-32250000D03*
X47700000Y-31750000D03*
X47700000Y-31250000D03*
X47700000Y-30750000D03*
X47700000Y-30250000D03*
X47700000Y-29750000D03*
X47700000Y-29250000D03*
X47700000Y-28750000D03*
X47700000Y-28250000D03*
D15*
X45750000Y-26300000D03*
X45250000Y-26300000D03*
X44750000Y-26300000D03*
X44250000Y-26300000D03*
X43750000Y-26300000D03*
X43250000Y-26300000D03*
X42750000Y-26300000D03*
X42250000Y-26300000D03*
X41750000Y-26300000D03*
X41250000Y-26300000D03*
X40750000Y-26300000D03*
X40250000Y-26300000D03*
X39750000Y-26300000D03*
X39250000Y-26300000D03*
X38750000Y-26300000D03*
X38250000Y-26300000D03*
X37750000Y-26300000D03*
X37250000Y-26300000D03*
X36750000Y-26300000D03*
X36250000Y-26300000D03*
X35750000Y-26300000D03*
X35250000Y-26300000D03*
X34750000Y-26300000D03*
X34250000Y-26300000D03*
X33750000Y-26300000D03*
X33250000Y-26300000D03*
X32750000Y-26300000D03*
X32250000Y-26300000D03*
X31750000Y-26300000D03*
X31250000Y-26300000D03*
X30750000Y-26300000D03*
X30250000Y-26300000D03*
X29750000Y-26300000D03*
X29250000Y-26300000D03*
X28750000Y-26300000D03*
X28250000Y-26300000D03*
D16*
X37000000Y-37000000D03*
M02*
