%TF.GenerationSoftware,KiCad,Pcbnew,(5.0.0)*%
%TF.CreationDate,2020-04-09T18:14:40+01:00*%
%TF.ProjectId,HeikouBoxCore,4865696B6F75426F78436F72652E6B69,rev?*%
%TF.SameCoordinates,Original*%
%TF.FileFunction,Legend,Bot*%
%TF.FilePolarity,Positive*%
%FSLAX46Y46*%
G04 Gerber Fmt 4.6, Leading zero omitted, Abs format (unit mm)*
G04 Created by KiCad (PCBNEW (5.0.0)) date 04/09/20 18:14:40*
%MOMM*%
%LPD*%
G01*
G04 APERTURE LIST*
%ADD10C,0.150000*%
%ADD11C,0.120000*%
G04 APERTURE END LIST*
D10*
X17000000Y-57000000D02*
X17000000Y-17000000D01*
X57000000Y-57000000D02*
X17000000Y-57000000D01*
X57000000Y-17000000D02*
X57000000Y-57000000D01*
X17000000Y-17000000D02*
X57000000Y-17000000D01*
D11*
X27000000Y-22310000D02*
X49060000Y-22310000D01*
X24940000Y-18190000D02*
X49060000Y-18190000D01*
X24940000Y-20250000D02*
X24940000Y-18190000D01*
X49060000Y-22310000D02*
X49060000Y-18190000D01*
X26000000Y-22310000D02*
X24940000Y-22310000D01*
X24940000Y-22310000D02*
X24940000Y-21250000D01*
X27000000Y-20250000D02*
X24940000Y-20250000D01*
X27000000Y-22310000D02*
X27000000Y-20250000D01*
X50690000Y-49060000D02*
X54810000Y-49060000D01*
X50690000Y-26000000D02*
X50690000Y-24940000D01*
X52750000Y-24940000D02*
X54810000Y-24940000D01*
X52750000Y-27000000D02*
X52750000Y-24940000D01*
X50690000Y-27000000D02*
X52750000Y-27000000D01*
X54810000Y-24940000D02*
X54810000Y-49060000D01*
X50690000Y-27000000D02*
X50690000Y-49060000D01*
X50690000Y-24940000D02*
X51750000Y-24940000D01*
X49060000Y-54810000D02*
X49060000Y-50690000D01*
X26000000Y-54810000D02*
X24940000Y-54810000D01*
X24940000Y-52750000D02*
X24940000Y-50690000D01*
X27000000Y-52750000D02*
X24940000Y-52750000D01*
X27000000Y-54810000D02*
X27000000Y-52750000D01*
X24940000Y-50690000D02*
X49060000Y-50690000D01*
X27000000Y-54810000D02*
X49060000Y-54810000D01*
X24940000Y-54810000D02*
X24940000Y-53750000D01*
X21250000Y-24940000D02*
X23310000Y-24940000D01*
X21250000Y-27000000D02*
X21250000Y-24940000D01*
X19190000Y-24940000D02*
X20250000Y-24940000D01*
X23310000Y-24940000D02*
X23310000Y-49060000D01*
X19190000Y-49060000D02*
X23310000Y-49060000D01*
X19190000Y-27000000D02*
X21250000Y-27000000D01*
X19190000Y-26000000D02*
X19190000Y-24940000D01*
X19190000Y-27000000D02*
X19190000Y-49060000D01*
X26671267Y-29760000D02*
X26328733Y-29760000D01*
X26671267Y-28740000D02*
X26328733Y-28740000D01*
X44260000Y-38828733D02*
X44260000Y-39171267D01*
X43240000Y-38828733D02*
X43240000Y-39171267D01*
X33078733Y-29740000D02*
X33421267Y-29740000D01*
X33078733Y-30760000D02*
X33421267Y-30760000D01*
X40421267Y-30760000D02*
X40078733Y-30760000D01*
X40421267Y-29740000D02*
X40078733Y-29740000D01*
X47078733Y-27240000D02*
X47421267Y-27240000D01*
X47078733Y-28260000D02*
X47421267Y-28260000D01*
X39671267Y-44260000D02*
X39328733Y-44260000D01*
X39671267Y-43240000D02*
X39328733Y-43240000D01*
X33171267Y-44260000D02*
X32828733Y-44260000D01*
X33171267Y-43240000D02*
X32828733Y-43240000D01*
X28490000Y-36828733D02*
X28490000Y-37171267D01*
X29510000Y-36828733D02*
X29510000Y-37171267D01*
X31740000Y-26671267D02*
X31740000Y-26328733D01*
X32760000Y-26671267D02*
X32760000Y-26328733D01*
X37740000Y-26671267D02*
X37740000Y-26328733D01*
X38760000Y-26671267D02*
X38760000Y-26328733D01*
X41490000Y-26671267D02*
X41490000Y-26328733D01*
X42510000Y-26671267D02*
X42510000Y-26328733D01*
X47328733Y-30760000D02*
X47671267Y-30760000D01*
X47328733Y-29740000D02*
X47671267Y-29740000D01*
X45240000Y-47421267D02*
X45240000Y-47078733D01*
X46260000Y-47421267D02*
X46260000Y-47078733D01*
X40240000Y-47421267D02*
X40240000Y-47078733D01*
X41260000Y-47421267D02*
X41260000Y-47078733D01*
X32240000Y-47671267D02*
X32240000Y-47328733D01*
X33260000Y-47671267D02*
X33260000Y-47328733D01*
X28740000Y-47671267D02*
X28740000Y-47328733D01*
X29760000Y-47671267D02*
X29760000Y-47328733D01*
X25990000Y-44921267D02*
X25990000Y-44578733D01*
X27010000Y-44921267D02*
X27010000Y-44578733D01*
X29766000Y-29988733D02*
X29766000Y-30331267D01*
X30786000Y-29988733D02*
X30786000Y-30331267D01*
X44260000Y-30078733D02*
X44260000Y-30421267D01*
X43240000Y-30078733D02*
X43240000Y-30421267D01*
X44260000Y-43578733D02*
X44260000Y-43921267D01*
X43240000Y-43578733D02*
X43240000Y-43921267D01*
X30010000Y-43578733D02*
X30010000Y-43921267D01*
X28990000Y-43578733D02*
X28990000Y-43921267D01*
X47671267Y-44760000D02*
X47328733Y-44760000D01*
X47671267Y-43740000D02*
X47328733Y-43740000D01*
X47578733Y-39990000D02*
X47921267Y-39990000D01*
X47578733Y-41010000D02*
X47921267Y-41010000D01*
X25238748Y-48960000D02*
X25761252Y-48960000D01*
X25238748Y-47540000D02*
X25761252Y-47540000D01*
X24988748Y-26210000D02*
X25511252Y-26210000D01*
X24988748Y-24790000D02*
X25511252Y-24790000D01*
X49011252Y-47290000D02*
X48488748Y-47290000D01*
X49011252Y-48710000D02*
X48488748Y-48710000D01*
D10*
X26625000Y-28267857D02*
X26660714Y-28303571D01*
X26767857Y-28339285D01*
X26839285Y-28339285D01*
X26946428Y-28303571D01*
X27017857Y-28232142D01*
X27053571Y-28160714D01*
X27089285Y-28017857D01*
X27089285Y-27910714D01*
X27053571Y-27767857D01*
X27017857Y-27696428D01*
X26946428Y-27625000D01*
X26839285Y-27589285D01*
X26767857Y-27589285D01*
X26660714Y-27625000D01*
X26625000Y-27660714D01*
X26375000Y-27589285D02*
X25875000Y-27589285D01*
X26196428Y-28339285D01*
X42767857Y-38875000D02*
X42803571Y-38839285D01*
X42839285Y-38732142D01*
X42839285Y-38660714D01*
X42803571Y-38553571D01*
X42732142Y-38482142D01*
X42660714Y-38446428D01*
X42517857Y-38410714D01*
X42410714Y-38410714D01*
X42267857Y-38446428D01*
X42196428Y-38482142D01*
X42125000Y-38553571D01*
X42089285Y-38660714D01*
X42089285Y-38732142D01*
X42125000Y-38839285D01*
X42160714Y-38875000D01*
X42089285Y-39125000D02*
X42089285Y-39589285D01*
X42375000Y-39339285D01*
X42375000Y-39446428D01*
X42410714Y-39517857D01*
X42446428Y-39553571D01*
X42517857Y-39589285D01*
X42696428Y-39589285D01*
X42767857Y-39553571D01*
X42803571Y-39517857D01*
X42839285Y-39446428D01*
X42839285Y-39232142D01*
X42803571Y-39160714D01*
X42767857Y-39125000D01*
X33375000Y-29267857D02*
X33410714Y-29303571D01*
X33517857Y-29339285D01*
X33589285Y-29339285D01*
X33696428Y-29303571D01*
X33767857Y-29232142D01*
X33803571Y-29160714D01*
X33839285Y-29017857D01*
X33839285Y-28910714D01*
X33803571Y-28767857D01*
X33767857Y-28696428D01*
X33696428Y-28625000D01*
X33589285Y-28589285D01*
X33517857Y-28589285D01*
X33410714Y-28625000D01*
X33375000Y-28660714D01*
X32660714Y-29339285D02*
X33089285Y-29339285D01*
X32875000Y-29339285D02*
X32875000Y-28589285D01*
X32946428Y-28696428D01*
X33017857Y-28767857D01*
X33089285Y-28803571D01*
X40375000Y-29267857D02*
X40410714Y-29303571D01*
X40517857Y-29339285D01*
X40589285Y-29339285D01*
X40696428Y-29303571D01*
X40767857Y-29232142D01*
X40803571Y-29160714D01*
X40839285Y-29017857D01*
X40839285Y-28910714D01*
X40803571Y-28767857D01*
X40767857Y-28696428D01*
X40696428Y-28625000D01*
X40589285Y-28589285D01*
X40517857Y-28589285D01*
X40410714Y-28625000D01*
X40375000Y-28660714D01*
X40089285Y-28660714D02*
X40053571Y-28625000D01*
X39982142Y-28589285D01*
X39803571Y-28589285D01*
X39732142Y-28625000D01*
X39696428Y-28660714D01*
X39660714Y-28732142D01*
X39660714Y-28803571D01*
X39696428Y-28910714D01*
X40125000Y-29339285D01*
X39660714Y-29339285D01*
X47732142Y-26767857D02*
X47767857Y-26803571D01*
X47875000Y-26839285D01*
X47946428Y-26839285D01*
X48053571Y-26803571D01*
X48125000Y-26732142D01*
X48160714Y-26660714D01*
X48196428Y-26517857D01*
X48196428Y-26410714D01*
X48160714Y-26267857D01*
X48125000Y-26196428D01*
X48053571Y-26125000D01*
X47946428Y-26089285D01*
X47875000Y-26089285D01*
X47767857Y-26125000D01*
X47732142Y-26160714D01*
X47017857Y-26839285D02*
X47446428Y-26839285D01*
X47232142Y-26839285D02*
X47232142Y-26089285D01*
X47303571Y-26196428D01*
X47375000Y-26267857D01*
X47446428Y-26303571D01*
X46303571Y-26839285D02*
X46732142Y-26839285D01*
X46517857Y-26839285D02*
X46517857Y-26089285D01*
X46589285Y-26196428D01*
X46660714Y-26267857D01*
X46732142Y-26303571D01*
X39625000Y-42767857D02*
X39660714Y-42803571D01*
X39767857Y-42839285D01*
X39839285Y-42839285D01*
X39946428Y-42803571D01*
X40017857Y-42732142D01*
X40053571Y-42660714D01*
X40089285Y-42517857D01*
X40089285Y-42410714D01*
X40053571Y-42267857D01*
X40017857Y-42196428D01*
X39946428Y-42125000D01*
X39839285Y-42089285D01*
X39767857Y-42089285D01*
X39660714Y-42125000D01*
X39625000Y-42160714D01*
X38982142Y-42339285D02*
X38982142Y-42839285D01*
X39160714Y-42053571D02*
X39339285Y-42589285D01*
X38875000Y-42589285D01*
X33125000Y-42767857D02*
X33160714Y-42803571D01*
X33267857Y-42839285D01*
X33339285Y-42839285D01*
X33446428Y-42803571D01*
X33517857Y-42732142D01*
X33553571Y-42660714D01*
X33589285Y-42517857D01*
X33589285Y-42410714D01*
X33553571Y-42267857D01*
X33517857Y-42196428D01*
X33446428Y-42125000D01*
X33339285Y-42089285D01*
X33267857Y-42089285D01*
X33160714Y-42125000D01*
X33125000Y-42160714D01*
X32446428Y-42089285D02*
X32803571Y-42089285D01*
X32839285Y-42446428D01*
X32803571Y-42410714D01*
X32732142Y-42375000D01*
X32553571Y-42375000D01*
X32482142Y-42410714D01*
X32446428Y-42446428D01*
X32410714Y-42517857D01*
X32410714Y-42696428D01*
X32446428Y-42767857D01*
X32482142Y-42803571D01*
X32553571Y-42839285D01*
X32732142Y-42839285D01*
X32803571Y-42803571D01*
X32839285Y-42767857D01*
X28017857Y-36125000D02*
X28053571Y-36089285D01*
X28089285Y-35982142D01*
X28089285Y-35910714D01*
X28053571Y-35803571D01*
X27982142Y-35732142D01*
X27910714Y-35696428D01*
X27767857Y-35660714D01*
X27660714Y-35660714D01*
X27517857Y-35696428D01*
X27446428Y-35732142D01*
X27375000Y-35803571D01*
X27339285Y-35910714D01*
X27339285Y-35982142D01*
X27375000Y-36089285D01*
X27410714Y-36125000D01*
X27339285Y-36767857D02*
X27339285Y-36625000D01*
X27375000Y-36553571D01*
X27410714Y-36517857D01*
X27517857Y-36446428D01*
X27660714Y-36410714D01*
X27946428Y-36410714D01*
X28017857Y-36446428D01*
X28053571Y-36482142D01*
X28089285Y-36553571D01*
X28089285Y-36696428D01*
X28053571Y-36767857D01*
X28017857Y-36803571D01*
X27946428Y-36839285D01*
X27767857Y-36839285D01*
X27696428Y-36803571D01*
X27660714Y-36767857D01*
X27625000Y-36696428D01*
X27625000Y-36553571D01*
X27660714Y-36482142D01*
X27696428Y-36446428D01*
X27767857Y-36410714D01*
X31267857Y-26375000D02*
X31303571Y-26339285D01*
X31339285Y-26232142D01*
X31339285Y-26160714D01*
X31303571Y-26053571D01*
X31232142Y-25982142D01*
X31160714Y-25946428D01*
X31017857Y-25910714D01*
X30910714Y-25910714D01*
X30767857Y-25946428D01*
X30696428Y-25982142D01*
X30625000Y-26053571D01*
X30589285Y-26160714D01*
X30589285Y-26232142D01*
X30625000Y-26339285D01*
X30660714Y-26375000D01*
X30910714Y-26803571D02*
X30875000Y-26732142D01*
X30839285Y-26696428D01*
X30767857Y-26660714D01*
X30732142Y-26660714D01*
X30660714Y-26696428D01*
X30625000Y-26732142D01*
X30589285Y-26803571D01*
X30589285Y-26946428D01*
X30625000Y-27017857D01*
X30660714Y-27053571D01*
X30732142Y-27089285D01*
X30767857Y-27089285D01*
X30839285Y-27053571D01*
X30875000Y-27017857D01*
X30910714Y-26946428D01*
X30910714Y-26803571D01*
X30946428Y-26732142D01*
X30982142Y-26696428D01*
X31053571Y-26660714D01*
X31196428Y-26660714D01*
X31267857Y-26696428D01*
X31303571Y-26732142D01*
X31339285Y-26803571D01*
X31339285Y-26946428D01*
X31303571Y-27017857D01*
X31267857Y-27053571D01*
X31196428Y-27089285D01*
X31053571Y-27089285D01*
X30982142Y-27053571D01*
X30946428Y-27017857D01*
X30910714Y-26946428D01*
X37267857Y-26375000D02*
X37303571Y-26339285D01*
X37339285Y-26232142D01*
X37339285Y-26160714D01*
X37303571Y-26053571D01*
X37232142Y-25982142D01*
X37160714Y-25946428D01*
X37017857Y-25910714D01*
X36910714Y-25910714D01*
X36767857Y-25946428D01*
X36696428Y-25982142D01*
X36625000Y-26053571D01*
X36589285Y-26160714D01*
X36589285Y-26232142D01*
X36625000Y-26339285D01*
X36660714Y-26375000D01*
X37339285Y-26732142D02*
X37339285Y-26875000D01*
X37303571Y-26946428D01*
X37267857Y-26982142D01*
X37160714Y-27053571D01*
X37017857Y-27089285D01*
X36732142Y-27089285D01*
X36660714Y-27053571D01*
X36625000Y-27017857D01*
X36589285Y-26946428D01*
X36589285Y-26803571D01*
X36625000Y-26732142D01*
X36660714Y-26696428D01*
X36732142Y-26660714D01*
X36910714Y-26660714D01*
X36982142Y-26696428D01*
X37017857Y-26732142D01*
X37053571Y-26803571D01*
X37053571Y-26946428D01*
X37017857Y-27017857D01*
X36982142Y-27053571D01*
X36910714Y-27089285D01*
X41017857Y-26017857D02*
X41053571Y-25982142D01*
X41089285Y-25875000D01*
X41089285Y-25803571D01*
X41053571Y-25696428D01*
X40982142Y-25625000D01*
X40910714Y-25589285D01*
X40767857Y-25553571D01*
X40660714Y-25553571D01*
X40517857Y-25589285D01*
X40446428Y-25625000D01*
X40375000Y-25696428D01*
X40339285Y-25803571D01*
X40339285Y-25875000D01*
X40375000Y-25982142D01*
X40410714Y-26017857D01*
X41089285Y-26732142D02*
X41089285Y-26303571D01*
X41089285Y-26517857D02*
X40339285Y-26517857D01*
X40446428Y-26446428D01*
X40517857Y-26375000D01*
X40553571Y-26303571D01*
X40339285Y-27196428D02*
X40339285Y-27267857D01*
X40375000Y-27339285D01*
X40410714Y-27375000D01*
X40482142Y-27410714D01*
X40625000Y-27446428D01*
X40803571Y-27446428D01*
X40946428Y-27410714D01*
X41017857Y-27375000D01*
X41053571Y-27339285D01*
X41089285Y-27267857D01*
X41089285Y-27196428D01*
X41053571Y-27125000D01*
X41017857Y-27089285D01*
X40946428Y-27053571D01*
X40803571Y-27017857D01*
X40625000Y-27017857D01*
X40482142Y-27053571D01*
X40410714Y-27089285D01*
X40375000Y-27125000D01*
X40339285Y-27196428D01*
X47982142Y-29267857D02*
X48017857Y-29303571D01*
X48125000Y-29339285D01*
X48196428Y-29339285D01*
X48303571Y-29303571D01*
X48375000Y-29232142D01*
X48410714Y-29160714D01*
X48446428Y-29017857D01*
X48446428Y-28910714D01*
X48410714Y-28767857D01*
X48375000Y-28696428D01*
X48303571Y-28625000D01*
X48196428Y-28589285D01*
X48125000Y-28589285D01*
X48017857Y-28625000D01*
X47982142Y-28660714D01*
X47267857Y-29339285D02*
X47696428Y-29339285D01*
X47482142Y-29339285D02*
X47482142Y-28589285D01*
X47553571Y-28696428D01*
X47625000Y-28767857D01*
X47696428Y-28803571D01*
X46982142Y-28660714D02*
X46946428Y-28625000D01*
X46875000Y-28589285D01*
X46696428Y-28589285D01*
X46625000Y-28625000D01*
X46589285Y-28660714D01*
X46553571Y-28732142D01*
X46553571Y-28803571D01*
X46589285Y-28910714D01*
X47017857Y-29339285D01*
X46553571Y-29339285D01*
X44767857Y-47017857D02*
X44803571Y-46982142D01*
X44839285Y-46875000D01*
X44839285Y-46803571D01*
X44803571Y-46696428D01*
X44732142Y-46625000D01*
X44660714Y-46589285D01*
X44517857Y-46553571D01*
X44410714Y-46553571D01*
X44267857Y-46589285D01*
X44196428Y-46625000D01*
X44125000Y-46696428D01*
X44089285Y-46803571D01*
X44089285Y-46875000D01*
X44125000Y-46982142D01*
X44160714Y-47017857D01*
X44839285Y-47732142D02*
X44839285Y-47303571D01*
X44839285Y-47517857D02*
X44089285Y-47517857D01*
X44196428Y-47446428D01*
X44267857Y-47375000D01*
X44303571Y-47303571D01*
X44089285Y-48410714D02*
X44089285Y-48053571D01*
X44446428Y-48017857D01*
X44410714Y-48053571D01*
X44375000Y-48125000D01*
X44375000Y-48303571D01*
X44410714Y-48375000D01*
X44446428Y-48410714D01*
X44517857Y-48446428D01*
X44696428Y-48446428D01*
X44767857Y-48410714D01*
X44803571Y-48375000D01*
X44839285Y-48303571D01*
X44839285Y-48125000D01*
X44803571Y-48053571D01*
X44767857Y-48017857D01*
X39767857Y-47017857D02*
X39803571Y-46982142D01*
X39839285Y-46875000D01*
X39839285Y-46803571D01*
X39803571Y-46696428D01*
X39732142Y-46625000D01*
X39660714Y-46589285D01*
X39517857Y-46553571D01*
X39410714Y-46553571D01*
X39267857Y-46589285D01*
X39196428Y-46625000D01*
X39125000Y-46696428D01*
X39089285Y-46803571D01*
X39089285Y-46875000D01*
X39125000Y-46982142D01*
X39160714Y-47017857D01*
X39839285Y-47732142D02*
X39839285Y-47303571D01*
X39839285Y-47517857D02*
X39089285Y-47517857D01*
X39196428Y-47446428D01*
X39267857Y-47375000D01*
X39303571Y-47303571D01*
X39089285Y-48375000D02*
X39089285Y-48232142D01*
X39125000Y-48160714D01*
X39160714Y-48125000D01*
X39267857Y-48053571D01*
X39410714Y-48017857D01*
X39696428Y-48017857D01*
X39767857Y-48053571D01*
X39803571Y-48089285D01*
X39839285Y-48160714D01*
X39839285Y-48303571D01*
X39803571Y-48375000D01*
X39767857Y-48410714D01*
X39696428Y-48446428D01*
X39517857Y-48446428D01*
X39446428Y-48410714D01*
X39410714Y-48375000D01*
X39375000Y-48303571D01*
X39375000Y-48160714D01*
X39410714Y-48089285D01*
X39446428Y-48053571D01*
X39517857Y-48017857D01*
X31767857Y-47017857D02*
X31803571Y-46982142D01*
X31839285Y-46875000D01*
X31839285Y-46803571D01*
X31803571Y-46696428D01*
X31732142Y-46625000D01*
X31660714Y-46589285D01*
X31517857Y-46553571D01*
X31410714Y-46553571D01*
X31267857Y-46589285D01*
X31196428Y-46625000D01*
X31125000Y-46696428D01*
X31089285Y-46803571D01*
X31089285Y-46875000D01*
X31125000Y-46982142D01*
X31160714Y-47017857D01*
X31839285Y-47732142D02*
X31839285Y-47303571D01*
X31839285Y-47517857D02*
X31089285Y-47517857D01*
X31196428Y-47446428D01*
X31267857Y-47375000D01*
X31303571Y-47303571D01*
X31089285Y-47982142D02*
X31089285Y-48482142D01*
X31839285Y-48160714D01*
X28267857Y-47017857D02*
X28303571Y-46982142D01*
X28339285Y-46875000D01*
X28339285Y-46803571D01*
X28303571Y-46696428D01*
X28232142Y-46625000D01*
X28160714Y-46589285D01*
X28017857Y-46553571D01*
X27910714Y-46553571D01*
X27767857Y-46589285D01*
X27696428Y-46625000D01*
X27625000Y-46696428D01*
X27589285Y-46803571D01*
X27589285Y-46875000D01*
X27625000Y-46982142D01*
X27660714Y-47017857D01*
X28339285Y-47732142D02*
X28339285Y-47303571D01*
X28339285Y-47517857D02*
X27589285Y-47517857D01*
X27696428Y-47446428D01*
X27767857Y-47375000D01*
X27803571Y-47303571D01*
X27910714Y-48160714D02*
X27875000Y-48089285D01*
X27839285Y-48053571D01*
X27767857Y-48017857D01*
X27732142Y-48017857D01*
X27660714Y-48053571D01*
X27625000Y-48089285D01*
X27589285Y-48160714D01*
X27589285Y-48303571D01*
X27625000Y-48375000D01*
X27660714Y-48410714D01*
X27732142Y-48446428D01*
X27767857Y-48446428D01*
X27839285Y-48410714D01*
X27875000Y-48375000D01*
X27910714Y-48303571D01*
X27910714Y-48160714D01*
X27946428Y-48089285D01*
X27982142Y-48053571D01*
X28053571Y-48017857D01*
X28196428Y-48017857D01*
X28267857Y-48053571D01*
X28303571Y-48089285D01*
X28339285Y-48160714D01*
X28339285Y-48303571D01*
X28303571Y-48375000D01*
X28267857Y-48410714D01*
X28196428Y-48446428D01*
X28053571Y-48446428D01*
X27982142Y-48410714D01*
X27946428Y-48375000D01*
X27910714Y-48303571D01*
X25517857Y-44267857D02*
X25553571Y-44232142D01*
X25589285Y-44125000D01*
X25589285Y-44053571D01*
X25553571Y-43946428D01*
X25482142Y-43875000D01*
X25410714Y-43839285D01*
X25267857Y-43803571D01*
X25160714Y-43803571D01*
X25017857Y-43839285D01*
X24946428Y-43875000D01*
X24875000Y-43946428D01*
X24839285Y-44053571D01*
X24839285Y-44125000D01*
X24875000Y-44232142D01*
X24910714Y-44267857D01*
X25589285Y-44982142D02*
X25589285Y-44553571D01*
X25589285Y-44767857D02*
X24839285Y-44767857D01*
X24946428Y-44696428D01*
X25017857Y-44625000D01*
X25053571Y-44553571D01*
X25589285Y-45339285D02*
X25589285Y-45482142D01*
X25553571Y-45553571D01*
X25517857Y-45589285D01*
X25410714Y-45660714D01*
X25267857Y-45696428D01*
X24982142Y-45696428D01*
X24910714Y-45660714D01*
X24875000Y-45625000D01*
X24839285Y-45553571D01*
X24839285Y-45410714D01*
X24875000Y-45339285D01*
X24910714Y-45303571D01*
X24982142Y-45267857D01*
X25160714Y-45267857D01*
X25232142Y-45303571D01*
X25267857Y-45339285D01*
X25303571Y-45410714D01*
X25303571Y-45553571D01*
X25267857Y-45625000D01*
X25232142Y-45660714D01*
X25160714Y-45696428D01*
X29267857Y-30017857D02*
X29303571Y-29982142D01*
X29339285Y-29875000D01*
X29339285Y-29803571D01*
X29303571Y-29696428D01*
X29232142Y-29625000D01*
X29160714Y-29589285D01*
X29017857Y-29553571D01*
X28910714Y-29553571D01*
X28767857Y-29589285D01*
X28696428Y-29625000D01*
X28625000Y-29696428D01*
X28589285Y-29803571D01*
X28589285Y-29875000D01*
X28625000Y-29982142D01*
X28660714Y-30017857D01*
X28660714Y-30303571D02*
X28625000Y-30339285D01*
X28589285Y-30410714D01*
X28589285Y-30589285D01*
X28625000Y-30660714D01*
X28660714Y-30696428D01*
X28732142Y-30732142D01*
X28803571Y-30732142D01*
X28910714Y-30696428D01*
X29339285Y-30267857D01*
X29339285Y-30732142D01*
X28589285Y-31196428D02*
X28589285Y-31267857D01*
X28625000Y-31339285D01*
X28660714Y-31375000D01*
X28732142Y-31410714D01*
X28875000Y-31446428D01*
X29053571Y-31446428D01*
X29196428Y-31410714D01*
X29267857Y-31375000D01*
X29303571Y-31339285D01*
X29339285Y-31267857D01*
X29339285Y-31196428D01*
X29303571Y-31125000D01*
X29267857Y-31089285D01*
X29196428Y-31053571D01*
X29053571Y-31017857D01*
X28875000Y-31017857D01*
X28732142Y-31053571D01*
X28660714Y-31089285D01*
X28625000Y-31125000D01*
X28589285Y-31196428D01*
X42767857Y-29767857D02*
X42803571Y-29732142D01*
X42839285Y-29625000D01*
X42839285Y-29553571D01*
X42803571Y-29446428D01*
X42732142Y-29375000D01*
X42660714Y-29339285D01*
X42517857Y-29303571D01*
X42410714Y-29303571D01*
X42267857Y-29339285D01*
X42196428Y-29375000D01*
X42125000Y-29446428D01*
X42089285Y-29553571D01*
X42089285Y-29625000D01*
X42125000Y-29732142D01*
X42160714Y-29767857D01*
X42160714Y-30053571D02*
X42125000Y-30089285D01*
X42089285Y-30160714D01*
X42089285Y-30339285D01*
X42125000Y-30410714D01*
X42160714Y-30446428D01*
X42232142Y-30482142D01*
X42303571Y-30482142D01*
X42410714Y-30446428D01*
X42839285Y-30017857D01*
X42839285Y-30482142D01*
X42839285Y-31196428D02*
X42839285Y-30767857D01*
X42839285Y-30982142D02*
X42089285Y-30982142D01*
X42196428Y-30910714D01*
X42267857Y-30839285D01*
X42303571Y-30767857D01*
X42767857Y-43267857D02*
X42803571Y-43232142D01*
X42839285Y-43125000D01*
X42839285Y-43053571D01*
X42803571Y-42946428D01*
X42732142Y-42875000D01*
X42660714Y-42839285D01*
X42517857Y-42803571D01*
X42410714Y-42803571D01*
X42267857Y-42839285D01*
X42196428Y-42875000D01*
X42125000Y-42946428D01*
X42089285Y-43053571D01*
X42089285Y-43125000D01*
X42125000Y-43232142D01*
X42160714Y-43267857D01*
X42160714Y-43553571D02*
X42125000Y-43589285D01*
X42089285Y-43660714D01*
X42089285Y-43839285D01*
X42125000Y-43910714D01*
X42160714Y-43946428D01*
X42232142Y-43982142D01*
X42303571Y-43982142D01*
X42410714Y-43946428D01*
X42839285Y-43517857D01*
X42839285Y-43982142D01*
X42160714Y-44267857D02*
X42125000Y-44303571D01*
X42089285Y-44375000D01*
X42089285Y-44553571D01*
X42125000Y-44625000D01*
X42160714Y-44660714D01*
X42232142Y-44696428D01*
X42303571Y-44696428D01*
X42410714Y-44660714D01*
X42839285Y-44232142D01*
X42839285Y-44696428D01*
X30017857Y-40517857D02*
X30053571Y-40482142D01*
X30089285Y-40375000D01*
X30089285Y-40303571D01*
X30053571Y-40196428D01*
X29982142Y-40125000D01*
X29910714Y-40089285D01*
X29767857Y-40053571D01*
X29660714Y-40053571D01*
X29517857Y-40089285D01*
X29446428Y-40125000D01*
X29375000Y-40196428D01*
X29339285Y-40303571D01*
X29339285Y-40375000D01*
X29375000Y-40482142D01*
X29410714Y-40517857D01*
X29410714Y-40803571D02*
X29375000Y-40839285D01*
X29339285Y-40910714D01*
X29339285Y-41089285D01*
X29375000Y-41160714D01*
X29410714Y-41196428D01*
X29482142Y-41232142D01*
X29553571Y-41232142D01*
X29660714Y-41196428D01*
X30089285Y-40767857D01*
X30089285Y-41232142D01*
X29339285Y-41482142D02*
X29339285Y-41946428D01*
X29625000Y-41696428D01*
X29625000Y-41803571D01*
X29660714Y-41875000D01*
X29696428Y-41910714D01*
X29767857Y-41946428D01*
X29946428Y-41946428D01*
X30017857Y-41910714D01*
X30053571Y-41875000D01*
X30089285Y-41803571D01*
X30089285Y-41589285D01*
X30053571Y-41517857D01*
X30017857Y-41482142D01*
X47982142Y-43267857D02*
X48017857Y-43303571D01*
X48125000Y-43339285D01*
X48196428Y-43339285D01*
X48303571Y-43303571D01*
X48375000Y-43232142D01*
X48410714Y-43160714D01*
X48446428Y-43017857D01*
X48446428Y-42910714D01*
X48410714Y-42767857D01*
X48375000Y-42696428D01*
X48303571Y-42625000D01*
X48196428Y-42589285D01*
X48125000Y-42589285D01*
X48017857Y-42625000D01*
X47982142Y-42660714D01*
X47267857Y-43339285D02*
X47696428Y-43339285D01*
X47482142Y-43339285D02*
X47482142Y-42589285D01*
X47553571Y-42696428D01*
X47625000Y-42767857D01*
X47696428Y-42803571D01*
X46625000Y-42839285D02*
X46625000Y-43339285D01*
X46803571Y-42553571D02*
X46982142Y-43089285D01*
X46517857Y-43089285D01*
X48232142Y-39517857D02*
X48267857Y-39553571D01*
X48375000Y-39589285D01*
X48446428Y-39589285D01*
X48553571Y-39553571D01*
X48625000Y-39482142D01*
X48660714Y-39410714D01*
X48696428Y-39267857D01*
X48696428Y-39160714D01*
X48660714Y-39017857D01*
X48625000Y-38946428D01*
X48553571Y-38875000D01*
X48446428Y-38839285D01*
X48375000Y-38839285D01*
X48267857Y-38875000D01*
X48232142Y-38910714D01*
X47517857Y-39589285D02*
X47946428Y-39589285D01*
X47732142Y-39589285D02*
X47732142Y-38839285D01*
X47803571Y-38946428D01*
X47875000Y-39017857D01*
X47946428Y-39053571D01*
X47267857Y-38839285D02*
X46803571Y-38839285D01*
X47053571Y-39125000D01*
X46946428Y-39125000D01*
X46875000Y-39160714D01*
X46839285Y-39196428D01*
X46803571Y-39267857D01*
X46803571Y-39446428D01*
X46839285Y-39517857D01*
X46875000Y-39553571D01*
X46946428Y-39589285D01*
X47160714Y-39589285D01*
X47232142Y-39553571D01*
X47267857Y-39517857D01*
X25732142Y-47017857D02*
X25767857Y-47053571D01*
X25875000Y-47089285D01*
X25946428Y-47089285D01*
X26053571Y-47053571D01*
X26125000Y-46982142D01*
X26160714Y-46910714D01*
X26196428Y-46767857D01*
X26196428Y-46660714D01*
X26160714Y-46517857D01*
X26125000Y-46446428D01*
X26053571Y-46375000D01*
X25946428Y-46339285D01*
X25875000Y-46339285D01*
X25767857Y-46375000D01*
X25732142Y-46410714D01*
X25446428Y-46410714D02*
X25410714Y-46375000D01*
X25339285Y-46339285D01*
X25160714Y-46339285D01*
X25089285Y-46375000D01*
X25053571Y-46410714D01*
X25017857Y-46482142D01*
X25017857Y-46553571D01*
X25053571Y-46660714D01*
X25482142Y-47089285D01*
X25017857Y-47089285D01*
X24375000Y-46589285D02*
X24375000Y-47089285D01*
X24553571Y-46303571D02*
X24732142Y-46839285D01*
X24267857Y-46839285D01*
X25732142Y-24267857D02*
X25767857Y-24303571D01*
X25875000Y-24339285D01*
X25946428Y-24339285D01*
X26053571Y-24303571D01*
X26125000Y-24232142D01*
X26160714Y-24160714D01*
X26196428Y-24017857D01*
X26196428Y-23910714D01*
X26160714Y-23767857D01*
X26125000Y-23696428D01*
X26053571Y-23625000D01*
X25946428Y-23589285D01*
X25875000Y-23589285D01*
X25767857Y-23625000D01*
X25732142Y-23660714D01*
X25446428Y-23660714D02*
X25410714Y-23625000D01*
X25339285Y-23589285D01*
X25160714Y-23589285D01*
X25089285Y-23625000D01*
X25053571Y-23660714D01*
X25017857Y-23732142D01*
X25017857Y-23803571D01*
X25053571Y-23910714D01*
X25482142Y-24339285D01*
X25017857Y-24339285D01*
X24339285Y-23589285D02*
X24696428Y-23589285D01*
X24732142Y-23946428D01*
X24696428Y-23910714D01*
X24625000Y-23875000D01*
X24446428Y-23875000D01*
X24375000Y-23910714D01*
X24339285Y-23946428D01*
X24303571Y-24017857D01*
X24303571Y-24196428D01*
X24339285Y-24267857D01*
X24375000Y-24303571D01*
X24446428Y-24339285D01*
X24625000Y-24339285D01*
X24696428Y-24303571D01*
X24732142Y-24267857D01*
X49482142Y-49767857D02*
X49517857Y-49803571D01*
X49625000Y-49839285D01*
X49696428Y-49839285D01*
X49803571Y-49803571D01*
X49875000Y-49732142D01*
X49910714Y-49660714D01*
X49946428Y-49517857D01*
X49946428Y-49410714D01*
X49910714Y-49267857D01*
X49875000Y-49196428D01*
X49803571Y-49125000D01*
X49696428Y-49089285D01*
X49625000Y-49089285D01*
X49517857Y-49125000D01*
X49482142Y-49160714D01*
X49196428Y-49160714D02*
X49160714Y-49125000D01*
X49089285Y-49089285D01*
X48910714Y-49089285D01*
X48839285Y-49125000D01*
X48803571Y-49160714D01*
X48767857Y-49232142D01*
X48767857Y-49303571D01*
X48803571Y-49410714D01*
X49232142Y-49839285D01*
X48767857Y-49839285D01*
X48125000Y-49089285D02*
X48267857Y-49089285D01*
X48339285Y-49125000D01*
X48375000Y-49160714D01*
X48446428Y-49267857D01*
X48482142Y-49410714D01*
X48482142Y-49696428D01*
X48446428Y-49767857D01*
X48410714Y-49803571D01*
X48339285Y-49839285D01*
X48196428Y-49839285D01*
X48125000Y-49803571D01*
X48089285Y-49767857D01*
X48053571Y-49696428D01*
X48053571Y-49517857D01*
X48089285Y-49446428D01*
X48125000Y-49410714D01*
X48196428Y-49375000D01*
X48339285Y-49375000D01*
X48410714Y-49410714D01*
X48446428Y-49446428D01*
X48482142Y-49517857D01*
M02*
