M48
;DRILL file {KiCad (5.0.0)} date 04/09/20 18:14:36
;FORMAT={-:-/ absolute / inch / decimal}
FMAT,2
INCH,TZ
T1C0.0118
T2C0.0315
T3C0.1181
T4C0.1260
%
G90
G05
M72
T1
X0.9843Y-1.122
X1.0335Y-1.0433
X1.0433Y-1.8307
X1.0433Y-1.8602
X1.0433Y-1.939
X1.0728Y-1.0039
X1.0827Y-1.4665
X1.0827Y-1.5059
X1.0925Y-1.1122
X1.0925Y-1.1909
X1.0925Y-1.6339
X1.0925Y-1.6831
X1.0925Y-1.752
X1.1122Y-1.8209
X1.1319Y-1.8209
X1.1417Y-1.1516
X1.1417Y-1.3878
X1.1417Y-1.5157
X1.1417Y-1.5846
X1.1417Y-1.7717
X1.1811Y-1.9291
X1.1909Y-1.6831
X1.192Y-1.2474
X1.2008Y-0.9843
X1.2402Y-1.0925
X1.2402Y-1.7224
X1.2697Y-1.8209
X1.2795Y-0.9744
X1.2992Y-1.1909
X1.3091Y-1.0925
X1.3189Y-1.378
X1.3189Y-1.4567
X1.3189Y-1.5354
X1.3189Y-1.9291
X1.3681Y-1.7224
X1.378Y-0.9843
X1.378Y-1.1909
X1.378Y-1.3189
X1.378Y-1.5945
X1.4567Y-1.3189
X1.4567Y-1.5945
X1.4961Y-1.9291
X1.5059Y-1.0925
X1.5157Y-1.1909
X1.5256Y-0.9744
X1.5354Y-1.3189
X1.5354Y-1.5945
X1.5453Y-1.7224
X1.5748Y-1.8209
X1.5945Y-1.1909
X1.5945Y-1.378
X1.5945Y-1.4567
X1.5945Y-1.5354
X1.6142Y-1.9291
X1.624Y-1.7224
X1.6339Y-0.9744
X1.6732Y-1.0925
X1.7224Y-1.25
X1.7224Y-1.5256
X1.7224Y-1.6043
X1.7224Y-1.6535
X1.7618Y-1.8209
X1.7717Y-1.1417
X1.7717Y-1.7618
X1.8012Y-1.0925
X1.8209Y-1.2303
X1.8209Y-1.5846
X1.8209Y-1.7028
X1.8209Y-1.8012
X1.8406Y-1.8898
X1.8799Y-1.9291
X1.9094Y-1.8307
X1.9291Y-1.0925
X1.9291Y-1.3386
X1.9291Y-1.3583
X1.9291Y-1.378
X1.9291Y-1.3976
X1.9291Y-1.6339
X1.9291Y-1.7815
T2
X0.7972Y-1.0236
X0.7972Y-1.1024
X0.7972Y-1.1811
X0.7972Y-1.2598
X0.7972Y-1.3386
X0.7972Y-1.4173
X0.7972Y-1.4961
X0.7972Y-1.5748
X0.7972Y-1.6535
X0.7972Y-1.7323
X0.7972Y-1.811
X0.7972Y-1.8898
X0.876Y-1.0236
X0.876Y-1.1024
X0.876Y-1.1811
X0.876Y-1.2598
X0.876Y-1.3386
X0.876Y-1.4173
X0.876Y-1.4961
X0.876Y-1.5748
X0.876Y-1.6535
X0.876Y-1.7323
X0.876Y-1.811
X0.876Y-1.8898
X1.0236Y-0.7579
X1.0236Y-0.8366
X1.0236Y-2.0374
X1.0236Y-2.1161
X1.1024Y-0.7579
X1.1024Y-0.8366
X1.1024Y-2.0374
X1.1024Y-2.1161
X1.1811Y-0.7579
X1.1811Y-0.8366
X1.1811Y-2.0374
X1.1811Y-2.1161
X1.2598Y-0.7579
X1.2598Y-0.8366
X1.2598Y-2.0374
X1.2598Y-2.1161
X1.3386Y-0.7579
X1.3386Y-0.8366
X1.3386Y-2.0374
X1.3386Y-2.1161
X1.4173Y-0.7579
X1.4173Y-0.8366
X1.4173Y-2.0374
X1.4173Y-2.1161
X1.4961Y-0.7579
X1.4961Y-0.8366
X1.4961Y-2.0374
X1.4961Y-2.1161
X1.5748Y-0.7579
X1.5748Y-0.8366
X1.5748Y-2.0374
X1.5748Y-2.1161
X1.6535Y-0.7579
X1.6535Y-0.8366
X1.6535Y-2.0374
X1.6535Y-2.1161
X1.7323Y-0.7579
X1.7323Y-0.8366
X1.7323Y-2.0374
X1.7323Y-2.1161
X1.811Y-0.7579
X1.811Y-0.8366
X1.811Y-2.0374
X1.811Y-2.1161
X1.8898Y-0.7579
X1.8898Y-0.8366
X1.8898Y-2.0374
X1.8898Y-2.1161
X2.0374Y-1.0236
X2.0374Y-1.1024
X2.0374Y-1.1811
X2.0374Y-1.2598
X2.0374Y-1.3386
X2.0374Y-1.4173
X2.0374Y-1.4961
X2.0374Y-1.5748
X2.0374Y-1.6535
X2.0374Y-1.7323
X2.0374Y-1.811
X2.0374Y-1.8898
X2.1161Y-1.0236
X2.1161Y-1.1024
X2.1161Y-1.1811
X2.1161Y-1.2598
X2.1161Y-1.3386
X2.1161Y-1.4173
X2.1161Y-1.4961
X2.1161Y-1.5748
X2.1161Y-1.6535
X2.1161Y-1.7323
X2.1161Y-1.811
X2.1161Y-1.8898
T3
X1.4567Y-1.4567
T4
X0.8268Y-0.8268
X0.8268Y-2.0866
X2.0866Y-0.8268
X2.0866Y-2.0866
T0
M30
