%TF.GenerationSoftware,KiCad,Pcbnew,(5.1.6)-1*%
%TF.CreationDate,2020-08-24T19:14:35+01:00*%
%TF.ProjectId,HeikouBoxCore,4865696b-6f75-4426-9f78-436f72652e6b,rev?*%
%TF.SameCoordinates,Original*%
%TF.FileFunction,Legend,Bot*%
%TF.FilePolarity,Positive*%
%FSLAX46Y46*%
G04 Gerber Fmt 4.6, Leading zero omitted, Abs format (unit mm)*
G04 Created by KiCad (PCBNEW (5.1.6)-1) date 2020-08-24 19:14:35*
%MOMM*%
%LPD*%
G01*
G04 APERTURE LIST*
%TA.AperFunction,Profile*%
%ADD10C,0.150000*%
%TD*%
%ADD11C,0.120000*%
%ADD12C,0.150000*%
G04 APERTURE END LIST*
D10*
X17000000Y-57000000D02*
X17000000Y-17000000D01*
X57000000Y-57000000D02*
X17000000Y-57000000D01*
X57000000Y-17000000D02*
X57000000Y-57000000D01*
X17000000Y-17000000D02*
X57000000Y-17000000D01*
D11*
X23060000Y-49060000D02*
X18940000Y-49060000D01*
X18940000Y-27000000D02*
X18940000Y-49060000D01*
X23060000Y-24940000D02*
X23060000Y-49060000D01*
X21000000Y-27000000D02*
X18940000Y-27000000D01*
X21000000Y-27000000D02*
X21000000Y-24940000D01*
X23060000Y-24940000D02*
X21000000Y-24940000D01*
X18940000Y-26000000D02*
X18940000Y-24940000D01*
X20000000Y-24940000D02*
X18940000Y-24940000D01*
X49060000Y-50940000D02*
X49060000Y-55060000D01*
X27000000Y-55060000D02*
X49060000Y-55060000D01*
X24940000Y-50940000D02*
X49060000Y-50940000D01*
X27000000Y-53000000D02*
X27000000Y-55060000D01*
X27000000Y-53000000D02*
X24940000Y-53000000D01*
X24940000Y-50940000D02*
X24940000Y-53000000D01*
X26000000Y-55060000D02*
X24940000Y-55060000D01*
X24940000Y-54000000D02*
X24940000Y-55060000D01*
X55060000Y-49060000D02*
X50940000Y-49060000D01*
X50940000Y-27000000D02*
X50940000Y-49060000D01*
X55060000Y-24940000D02*
X55060000Y-49060000D01*
X53000000Y-27000000D02*
X50940000Y-27000000D01*
X53000000Y-27000000D02*
X53000000Y-24940000D01*
X55060000Y-24940000D02*
X53000000Y-24940000D01*
X50940000Y-26000000D02*
X50940000Y-24940000D01*
X52000000Y-24940000D02*
X50940000Y-24940000D01*
X49060000Y-17940000D02*
X49060000Y-22060000D01*
X27000000Y-22060000D02*
X49060000Y-22060000D01*
X24940000Y-17940000D02*
X49060000Y-17940000D01*
X27000000Y-20000000D02*
X27000000Y-22060000D01*
X27000000Y-20000000D02*
X24940000Y-20000000D01*
X24940000Y-17940000D02*
X24940000Y-20000000D01*
X26000000Y-22060000D02*
X24940000Y-22060000D01*
X24940000Y-21000000D02*
X24940000Y-22060000D01*
X26671267Y-28740000D02*
X26328733Y-28740000D01*
X26671267Y-29760000D02*
X26328733Y-29760000D01*
X43240000Y-38828733D02*
X43240000Y-39171267D01*
X44260000Y-38828733D02*
X44260000Y-39171267D01*
X33078733Y-30760000D02*
X33421267Y-30760000D01*
X33078733Y-29740000D02*
X33421267Y-29740000D01*
X40421267Y-29740000D02*
X40078733Y-29740000D01*
X40421267Y-30760000D02*
X40078733Y-30760000D01*
X47328733Y-29010000D02*
X47671267Y-29010000D01*
X47328733Y-27990000D02*
X47671267Y-27990000D01*
X39671267Y-43240000D02*
X39328733Y-43240000D01*
X39671267Y-44260000D02*
X39328733Y-44260000D01*
X33171267Y-43240000D02*
X32828733Y-43240000D01*
X33171267Y-44260000D02*
X32828733Y-44260000D01*
X29510000Y-36828733D02*
X29510000Y-37171267D01*
X28490000Y-36828733D02*
X28490000Y-37171267D01*
X32760000Y-26671267D02*
X32760000Y-26328733D01*
X31740000Y-26671267D02*
X31740000Y-26328733D01*
X39510000Y-26671267D02*
X39510000Y-26328733D01*
X38490000Y-26671267D02*
X38490000Y-26328733D01*
X42510000Y-26671267D02*
X42510000Y-26328733D01*
X41490000Y-26671267D02*
X41490000Y-26328733D01*
X47328733Y-29740000D02*
X47671267Y-29740000D01*
X47328733Y-30760000D02*
X47671267Y-30760000D01*
X46010000Y-47671267D02*
X46010000Y-47328733D01*
X44990000Y-47671267D02*
X44990000Y-47328733D01*
X41260000Y-47671267D02*
X41260000Y-47328733D01*
X40240000Y-47671267D02*
X40240000Y-47328733D01*
X33260000Y-47671267D02*
X33260000Y-47328733D01*
X32240000Y-47671267D02*
X32240000Y-47328733D01*
X29760000Y-47421267D02*
X29760000Y-47078733D01*
X28740000Y-47421267D02*
X28740000Y-47078733D01*
X27010000Y-44921267D02*
X27010000Y-44578733D01*
X25990000Y-44921267D02*
X25990000Y-44578733D01*
X31010000Y-29988733D02*
X31010000Y-30331267D01*
X29990000Y-29988733D02*
X29990000Y-30331267D01*
X42990000Y-30078733D02*
X42990000Y-30421267D01*
X44010000Y-30078733D02*
X44010000Y-30421267D01*
X42990000Y-43578733D02*
X42990000Y-43921267D01*
X44010000Y-43578733D02*
X44010000Y-43921267D01*
X28990000Y-43578733D02*
X28990000Y-43921267D01*
X30010000Y-43578733D02*
X30010000Y-43921267D01*
X47671267Y-43740000D02*
X47328733Y-43740000D01*
X47671267Y-44760000D02*
X47328733Y-44760000D01*
X47328733Y-41010000D02*
X47671267Y-41010000D01*
X47328733Y-39990000D02*
X47671267Y-39990000D01*
X25738748Y-47540000D02*
X26261252Y-47540000D01*
X25738748Y-48960000D02*
X26261252Y-48960000D01*
X25488748Y-25040000D02*
X26011252Y-25040000D01*
X25488748Y-26460000D02*
X26011252Y-26460000D01*
X48511252Y-48710000D02*
X47988748Y-48710000D01*
X48511252Y-47290000D02*
X47988748Y-47290000D01*
D12*
X21333333Y-23392380D02*
X21333333Y-24106666D01*
X21380952Y-24249523D01*
X21476190Y-24344761D01*
X21619047Y-24392380D01*
X21714285Y-24392380D01*
X20333333Y-24392380D02*
X20904761Y-24392380D01*
X20619047Y-24392380D02*
X20619047Y-23392380D01*
X20714285Y-23535238D01*
X20809523Y-23630476D01*
X20904761Y-23678095D01*
X23840476Y-37452380D02*
X24316666Y-37452380D01*
X24316666Y-36452380D01*
X24273333Y-52452380D02*
X24273333Y-53166666D01*
X24320952Y-53309523D01*
X24416190Y-53404761D01*
X24559047Y-53452380D01*
X24654285Y-53452380D01*
X23844761Y-52547619D02*
X23797142Y-52500000D01*
X23701904Y-52452380D01*
X23463809Y-52452380D01*
X23368571Y-52500000D01*
X23320952Y-52547619D01*
X23273333Y-52642857D01*
X23273333Y-52738095D01*
X23320952Y-52880952D01*
X23892380Y-53452380D01*
X23273333Y-53452380D01*
X36928571Y-50128571D02*
X36785714Y-50176190D01*
X36738095Y-50223809D01*
X36690476Y-50319047D01*
X36690476Y-50461904D01*
X36738095Y-50557142D01*
X36785714Y-50604761D01*
X36880952Y-50652380D01*
X37261904Y-50652380D01*
X37261904Y-49652380D01*
X36928571Y-49652380D01*
X36833333Y-49700000D01*
X36785714Y-49747619D01*
X36738095Y-49842857D01*
X36738095Y-49938095D01*
X36785714Y-50033333D01*
X36833333Y-50080952D01*
X36928571Y-50128571D01*
X37261904Y-50128571D01*
X53333333Y-23392380D02*
X53333333Y-24106666D01*
X53380952Y-24249523D01*
X53476190Y-24344761D01*
X53619047Y-24392380D01*
X53714285Y-24392380D01*
X52952380Y-23392380D02*
X52333333Y-23392380D01*
X52666666Y-23773333D01*
X52523809Y-23773333D01*
X52428571Y-23820952D01*
X52380952Y-23868571D01*
X52333333Y-23963809D01*
X52333333Y-24201904D01*
X52380952Y-24297142D01*
X52428571Y-24344761D01*
X52523809Y-24392380D01*
X52809523Y-24392380D01*
X52904761Y-24344761D01*
X52952380Y-24297142D01*
X49540476Y-37452380D02*
X49873809Y-36976190D01*
X50111904Y-37452380D02*
X50111904Y-36452380D01*
X49730952Y-36452380D01*
X49635714Y-36500000D01*
X49588095Y-36547619D01*
X49540476Y-36642857D01*
X49540476Y-36785714D01*
X49588095Y-36880952D01*
X49635714Y-36928571D01*
X49730952Y-36976190D01*
X50111904Y-36976190D01*
X24273333Y-19452380D02*
X24273333Y-20166666D01*
X24320952Y-20309523D01*
X24416190Y-20404761D01*
X24559047Y-20452380D01*
X24654285Y-20452380D01*
X23368571Y-19785714D02*
X23368571Y-20452380D01*
X23606666Y-19404761D02*
X23844761Y-20119047D01*
X23225714Y-20119047D01*
X37285714Y-22352380D02*
X36714285Y-22352380D01*
X37000000Y-23352380D02*
X37000000Y-22352380D01*
X26625000Y-28267857D02*
X26660714Y-28303571D01*
X26767857Y-28339285D01*
X26839285Y-28339285D01*
X26946428Y-28303571D01*
X27017857Y-28232142D01*
X27053571Y-28160714D01*
X27089285Y-28017857D01*
X27089285Y-27910714D01*
X27053571Y-27767857D01*
X27017857Y-27696428D01*
X26946428Y-27625000D01*
X26839285Y-27589285D01*
X26767857Y-27589285D01*
X26660714Y-27625000D01*
X26625000Y-27660714D01*
X26375000Y-27589285D02*
X25875000Y-27589285D01*
X26196428Y-28339285D01*
X45375000Y-39267857D02*
X45410714Y-39303571D01*
X45517857Y-39339285D01*
X45589285Y-39339285D01*
X45696428Y-39303571D01*
X45767857Y-39232142D01*
X45803571Y-39160714D01*
X45839285Y-39017857D01*
X45839285Y-38910714D01*
X45803571Y-38767857D01*
X45767857Y-38696428D01*
X45696428Y-38625000D01*
X45589285Y-38589285D01*
X45517857Y-38589285D01*
X45410714Y-38625000D01*
X45375000Y-38660714D01*
X45125000Y-38589285D02*
X44660714Y-38589285D01*
X44910714Y-38875000D01*
X44803571Y-38875000D01*
X44732142Y-38910714D01*
X44696428Y-38946428D01*
X44660714Y-39017857D01*
X44660714Y-39196428D01*
X44696428Y-39267857D01*
X44732142Y-39303571D01*
X44803571Y-39339285D01*
X45017857Y-39339285D01*
X45089285Y-39303571D01*
X45125000Y-39267857D01*
X33375000Y-29267857D02*
X33410714Y-29303571D01*
X33517857Y-29339285D01*
X33589285Y-29339285D01*
X33696428Y-29303571D01*
X33767857Y-29232142D01*
X33803571Y-29160714D01*
X33839285Y-29017857D01*
X33839285Y-28910714D01*
X33803571Y-28767857D01*
X33767857Y-28696428D01*
X33696428Y-28625000D01*
X33589285Y-28589285D01*
X33517857Y-28589285D01*
X33410714Y-28625000D01*
X33375000Y-28660714D01*
X32660714Y-29339285D02*
X33089285Y-29339285D01*
X32875000Y-29339285D02*
X32875000Y-28589285D01*
X32946428Y-28696428D01*
X33017857Y-28767857D01*
X33089285Y-28803571D01*
X40375000Y-29267857D02*
X40410714Y-29303571D01*
X40517857Y-29339285D01*
X40589285Y-29339285D01*
X40696428Y-29303571D01*
X40767857Y-29232142D01*
X40803571Y-29160714D01*
X40839285Y-29017857D01*
X40839285Y-28910714D01*
X40803571Y-28767857D01*
X40767857Y-28696428D01*
X40696428Y-28625000D01*
X40589285Y-28589285D01*
X40517857Y-28589285D01*
X40410714Y-28625000D01*
X40375000Y-28660714D01*
X40089285Y-28660714D02*
X40053571Y-28625000D01*
X39982142Y-28589285D01*
X39803571Y-28589285D01*
X39732142Y-28625000D01*
X39696428Y-28660714D01*
X39660714Y-28732142D01*
X39660714Y-28803571D01*
X39696428Y-28910714D01*
X40125000Y-29339285D01*
X39660714Y-29339285D01*
X47482142Y-27517857D02*
X47517857Y-27553571D01*
X47625000Y-27589285D01*
X47696428Y-27589285D01*
X47803571Y-27553571D01*
X47875000Y-27482142D01*
X47910714Y-27410714D01*
X47946428Y-27267857D01*
X47946428Y-27160714D01*
X47910714Y-27017857D01*
X47875000Y-26946428D01*
X47803571Y-26875000D01*
X47696428Y-26839285D01*
X47625000Y-26839285D01*
X47517857Y-26875000D01*
X47482142Y-26910714D01*
X46767857Y-27589285D02*
X47196428Y-27589285D01*
X46982142Y-27589285D02*
X46982142Y-26839285D01*
X47053571Y-26946428D01*
X47125000Y-27017857D01*
X47196428Y-27053571D01*
X46053571Y-27589285D02*
X46482142Y-27589285D01*
X46267857Y-27589285D02*
X46267857Y-26839285D01*
X46339285Y-26946428D01*
X46410714Y-27017857D01*
X46482142Y-27053571D01*
X39625000Y-42767857D02*
X39660714Y-42803571D01*
X39767857Y-42839285D01*
X39839285Y-42839285D01*
X39946428Y-42803571D01*
X40017857Y-42732142D01*
X40053571Y-42660714D01*
X40089285Y-42517857D01*
X40089285Y-42410714D01*
X40053571Y-42267857D01*
X40017857Y-42196428D01*
X39946428Y-42125000D01*
X39839285Y-42089285D01*
X39767857Y-42089285D01*
X39660714Y-42125000D01*
X39625000Y-42160714D01*
X38982142Y-42339285D02*
X38982142Y-42839285D01*
X39160714Y-42053571D02*
X39339285Y-42589285D01*
X38875000Y-42589285D01*
X33125000Y-42767857D02*
X33160714Y-42803571D01*
X33267857Y-42839285D01*
X33339285Y-42839285D01*
X33446428Y-42803571D01*
X33517857Y-42732142D01*
X33553571Y-42660714D01*
X33589285Y-42517857D01*
X33589285Y-42410714D01*
X33553571Y-42267857D01*
X33517857Y-42196428D01*
X33446428Y-42125000D01*
X33339285Y-42089285D01*
X33267857Y-42089285D01*
X33160714Y-42125000D01*
X33125000Y-42160714D01*
X32446428Y-42089285D02*
X32803571Y-42089285D01*
X32839285Y-42446428D01*
X32803571Y-42410714D01*
X32732142Y-42375000D01*
X32553571Y-42375000D01*
X32482142Y-42410714D01*
X32446428Y-42446428D01*
X32410714Y-42517857D01*
X32410714Y-42696428D01*
X32446428Y-42767857D01*
X32482142Y-42803571D01*
X32553571Y-42839285D01*
X32732142Y-42839285D01*
X32803571Y-42803571D01*
X32839285Y-42767857D01*
X30625000Y-37267857D02*
X30660714Y-37303571D01*
X30767857Y-37339285D01*
X30839285Y-37339285D01*
X30946428Y-37303571D01*
X31017857Y-37232142D01*
X31053571Y-37160714D01*
X31089285Y-37017857D01*
X31089285Y-36910714D01*
X31053571Y-36767857D01*
X31017857Y-36696428D01*
X30946428Y-36625000D01*
X30839285Y-36589285D01*
X30767857Y-36589285D01*
X30660714Y-36625000D01*
X30625000Y-36660714D01*
X29982142Y-36589285D02*
X30125000Y-36589285D01*
X30196428Y-36625000D01*
X30232142Y-36660714D01*
X30303571Y-36767857D01*
X30339285Y-36910714D01*
X30339285Y-37196428D01*
X30303571Y-37267857D01*
X30267857Y-37303571D01*
X30196428Y-37339285D01*
X30053571Y-37339285D01*
X29982142Y-37303571D01*
X29946428Y-37267857D01*
X29910714Y-37196428D01*
X29910714Y-37017857D01*
X29946428Y-36946428D01*
X29982142Y-36910714D01*
X30053571Y-36875000D01*
X30196428Y-36875000D01*
X30267857Y-36910714D01*
X30303571Y-36946428D01*
X30339285Y-37017857D01*
X30875000Y-26767857D02*
X30910714Y-26803571D01*
X31017857Y-26839285D01*
X31089285Y-26839285D01*
X31196428Y-26803571D01*
X31267857Y-26732142D01*
X31303571Y-26660714D01*
X31339285Y-26517857D01*
X31339285Y-26410714D01*
X31303571Y-26267857D01*
X31267857Y-26196428D01*
X31196428Y-26125000D01*
X31089285Y-26089285D01*
X31017857Y-26089285D01*
X30910714Y-26125000D01*
X30875000Y-26160714D01*
X30446428Y-26410714D02*
X30517857Y-26375000D01*
X30553571Y-26339285D01*
X30589285Y-26267857D01*
X30589285Y-26232142D01*
X30553571Y-26160714D01*
X30517857Y-26125000D01*
X30446428Y-26089285D01*
X30303571Y-26089285D01*
X30232142Y-26125000D01*
X30196428Y-26160714D01*
X30160714Y-26232142D01*
X30160714Y-26267857D01*
X30196428Y-26339285D01*
X30232142Y-26375000D01*
X30303571Y-26410714D01*
X30446428Y-26410714D01*
X30517857Y-26446428D01*
X30553571Y-26482142D01*
X30589285Y-26553571D01*
X30589285Y-26696428D01*
X30553571Y-26767857D01*
X30517857Y-26803571D01*
X30446428Y-26839285D01*
X30303571Y-26839285D01*
X30232142Y-26803571D01*
X30196428Y-26767857D01*
X30160714Y-26696428D01*
X30160714Y-26553571D01*
X30196428Y-26482142D01*
X30232142Y-26446428D01*
X30303571Y-26410714D01*
X37625000Y-26767857D02*
X37660714Y-26803571D01*
X37767857Y-26839285D01*
X37839285Y-26839285D01*
X37946428Y-26803571D01*
X38017857Y-26732142D01*
X38053571Y-26660714D01*
X38089285Y-26517857D01*
X38089285Y-26410714D01*
X38053571Y-26267857D01*
X38017857Y-26196428D01*
X37946428Y-26125000D01*
X37839285Y-26089285D01*
X37767857Y-26089285D01*
X37660714Y-26125000D01*
X37625000Y-26160714D01*
X37267857Y-26839285D02*
X37125000Y-26839285D01*
X37053571Y-26803571D01*
X37017857Y-26767857D01*
X36946428Y-26660714D01*
X36910714Y-26517857D01*
X36910714Y-26232142D01*
X36946428Y-26160714D01*
X36982142Y-26125000D01*
X37053571Y-26089285D01*
X37196428Y-26089285D01*
X37267857Y-26125000D01*
X37303571Y-26160714D01*
X37339285Y-26232142D01*
X37339285Y-26410714D01*
X37303571Y-26482142D01*
X37267857Y-26517857D01*
X37196428Y-26553571D01*
X37053571Y-26553571D01*
X36982142Y-26517857D01*
X36946428Y-26482142D01*
X36910714Y-26410714D01*
X44232142Y-26767857D02*
X44267857Y-26803571D01*
X44375000Y-26839285D01*
X44446428Y-26839285D01*
X44553571Y-26803571D01*
X44625000Y-26732142D01*
X44660714Y-26660714D01*
X44696428Y-26517857D01*
X44696428Y-26410714D01*
X44660714Y-26267857D01*
X44625000Y-26196428D01*
X44553571Y-26125000D01*
X44446428Y-26089285D01*
X44375000Y-26089285D01*
X44267857Y-26125000D01*
X44232142Y-26160714D01*
X43517857Y-26839285D02*
X43946428Y-26839285D01*
X43732142Y-26839285D02*
X43732142Y-26089285D01*
X43803571Y-26196428D01*
X43875000Y-26267857D01*
X43946428Y-26303571D01*
X43053571Y-26089285D02*
X42982142Y-26089285D01*
X42910714Y-26125000D01*
X42875000Y-26160714D01*
X42839285Y-26232142D01*
X42803571Y-26375000D01*
X42803571Y-26553571D01*
X42839285Y-26696428D01*
X42875000Y-26767857D01*
X42910714Y-26803571D01*
X42982142Y-26839285D01*
X43053571Y-26839285D01*
X43125000Y-26803571D01*
X43160714Y-26767857D01*
X43196428Y-26696428D01*
X43232142Y-26553571D01*
X43232142Y-26375000D01*
X43196428Y-26232142D01*
X43160714Y-26160714D01*
X43125000Y-26125000D01*
X43053571Y-26089285D01*
X47982142Y-31767857D02*
X48017857Y-31803571D01*
X48125000Y-31839285D01*
X48196428Y-31839285D01*
X48303571Y-31803571D01*
X48375000Y-31732142D01*
X48410714Y-31660714D01*
X48446428Y-31517857D01*
X48446428Y-31410714D01*
X48410714Y-31267857D01*
X48375000Y-31196428D01*
X48303571Y-31125000D01*
X48196428Y-31089285D01*
X48125000Y-31089285D01*
X48017857Y-31125000D01*
X47982142Y-31160714D01*
X47267857Y-31839285D02*
X47696428Y-31839285D01*
X47482142Y-31839285D02*
X47482142Y-31089285D01*
X47553571Y-31196428D01*
X47625000Y-31267857D01*
X47696428Y-31303571D01*
X46982142Y-31160714D02*
X46946428Y-31125000D01*
X46875000Y-31089285D01*
X46696428Y-31089285D01*
X46625000Y-31125000D01*
X46589285Y-31160714D01*
X46553571Y-31232142D01*
X46553571Y-31303571D01*
X46589285Y-31410714D01*
X47017857Y-31839285D01*
X46553571Y-31839285D01*
X44232142Y-47767857D02*
X44267857Y-47803571D01*
X44375000Y-47839285D01*
X44446428Y-47839285D01*
X44553571Y-47803571D01*
X44625000Y-47732142D01*
X44660714Y-47660714D01*
X44696428Y-47517857D01*
X44696428Y-47410714D01*
X44660714Y-47267857D01*
X44625000Y-47196428D01*
X44553571Y-47125000D01*
X44446428Y-47089285D01*
X44375000Y-47089285D01*
X44267857Y-47125000D01*
X44232142Y-47160714D01*
X43517857Y-47839285D02*
X43946428Y-47839285D01*
X43732142Y-47839285D02*
X43732142Y-47089285D01*
X43803571Y-47196428D01*
X43875000Y-47267857D01*
X43946428Y-47303571D01*
X42839285Y-47089285D02*
X43196428Y-47089285D01*
X43232142Y-47446428D01*
X43196428Y-47410714D01*
X43125000Y-47375000D01*
X42946428Y-47375000D01*
X42875000Y-47410714D01*
X42839285Y-47446428D01*
X42803571Y-47517857D01*
X42803571Y-47696428D01*
X42839285Y-47767857D01*
X42875000Y-47803571D01*
X42946428Y-47839285D01*
X43125000Y-47839285D01*
X43196428Y-47803571D01*
X43232142Y-47767857D01*
X41232142Y-45517857D02*
X41267857Y-45553571D01*
X41375000Y-45589285D01*
X41446428Y-45589285D01*
X41553571Y-45553571D01*
X41625000Y-45482142D01*
X41660714Y-45410714D01*
X41696428Y-45267857D01*
X41696428Y-45160714D01*
X41660714Y-45017857D01*
X41625000Y-44946428D01*
X41553571Y-44875000D01*
X41446428Y-44839285D01*
X41375000Y-44839285D01*
X41267857Y-44875000D01*
X41232142Y-44910714D01*
X40517857Y-45589285D02*
X40946428Y-45589285D01*
X40732142Y-45589285D02*
X40732142Y-44839285D01*
X40803571Y-44946428D01*
X40875000Y-45017857D01*
X40946428Y-45053571D01*
X39875000Y-44839285D02*
X40017857Y-44839285D01*
X40089285Y-44875000D01*
X40125000Y-44910714D01*
X40196428Y-45017857D01*
X40232142Y-45160714D01*
X40232142Y-45446428D01*
X40196428Y-45517857D01*
X40160714Y-45553571D01*
X40089285Y-45589285D01*
X39946428Y-45589285D01*
X39875000Y-45553571D01*
X39839285Y-45517857D01*
X39803571Y-45446428D01*
X39803571Y-45267857D01*
X39839285Y-45196428D01*
X39875000Y-45160714D01*
X39946428Y-45125000D01*
X40089285Y-45125000D01*
X40160714Y-45160714D01*
X40196428Y-45196428D01*
X40232142Y-45267857D01*
X33232142Y-45517857D02*
X33267857Y-45553571D01*
X33375000Y-45589285D01*
X33446428Y-45589285D01*
X33553571Y-45553571D01*
X33625000Y-45482142D01*
X33660714Y-45410714D01*
X33696428Y-45267857D01*
X33696428Y-45160714D01*
X33660714Y-45017857D01*
X33625000Y-44946428D01*
X33553571Y-44875000D01*
X33446428Y-44839285D01*
X33375000Y-44839285D01*
X33267857Y-44875000D01*
X33232142Y-44910714D01*
X32517857Y-45589285D02*
X32946428Y-45589285D01*
X32732142Y-45589285D02*
X32732142Y-44839285D01*
X32803571Y-44946428D01*
X32875000Y-45017857D01*
X32946428Y-45053571D01*
X32267857Y-44839285D02*
X31767857Y-44839285D01*
X32089285Y-45589285D01*
X29732142Y-50017857D02*
X29767857Y-50053571D01*
X29875000Y-50089285D01*
X29946428Y-50089285D01*
X30053571Y-50053571D01*
X30125000Y-49982142D01*
X30160714Y-49910714D01*
X30196428Y-49767857D01*
X30196428Y-49660714D01*
X30160714Y-49517857D01*
X30125000Y-49446428D01*
X30053571Y-49375000D01*
X29946428Y-49339285D01*
X29875000Y-49339285D01*
X29767857Y-49375000D01*
X29732142Y-49410714D01*
X29017857Y-50089285D02*
X29446428Y-50089285D01*
X29232142Y-50089285D02*
X29232142Y-49339285D01*
X29303571Y-49446428D01*
X29375000Y-49517857D01*
X29446428Y-49553571D01*
X28589285Y-49660714D02*
X28660714Y-49625000D01*
X28696428Y-49589285D01*
X28732142Y-49517857D01*
X28732142Y-49482142D01*
X28696428Y-49410714D01*
X28660714Y-49375000D01*
X28589285Y-49339285D01*
X28446428Y-49339285D01*
X28375000Y-49375000D01*
X28339285Y-49410714D01*
X28303571Y-49482142D01*
X28303571Y-49517857D01*
X28339285Y-49589285D01*
X28375000Y-49625000D01*
X28446428Y-49660714D01*
X28589285Y-49660714D01*
X28660714Y-49696428D01*
X28696428Y-49732142D01*
X28732142Y-49803571D01*
X28732142Y-49946428D01*
X28696428Y-50017857D01*
X28660714Y-50053571D01*
X28589285Y-50089285D01*
X28446428Y-50089285D01*
X28375000Y-50053571D01*
X28339285Y-50017857D01*
X28303571Y-49946428D01*
X28303571Y-49803571D01*
X28339285Y-49732142D01*
X28375000Y-49696428D01*
X28446428Y-49660714D01*
X26982142Y-42767857D02*
X27017857Y-42803571D01*
X27125000Y-42839285D01*
X27196428Y-42839285D01*
X27303571Y-42803571D01*
X27375000Y-42732142D01*
X27410714Y-42660714D01*
X27446428Y-42517857D01*
X27446428Y-42410714D01*
X27410714Y-42267857D01*
X27375000Y-42196428D01*
X27303571Y-42125000D01*
X27196428Y-42089285D01*
X27125000Y-42089285D01*
X27017857Y-42125000D01*
X26982142Y-42160714D01*
X26267857Y-42839285D02*
X26696428Y-42839285D01*
X26482142Y-42839285D02*
X26482142Y-42089285D01*
X26553571Y-42196428D01*
X26625000Y-42267857D01*
X26696428Y-42303571D01*
X25910714Y-42839285D02*
X25767857Y-42839285D01*
X25696428Y-42803571D01*
X25660714Y-42767857D01*
X25589285Y-42660714D01*
X25553571Y-42517857D01*
X25553571Y-42232142D01*
X25589285Y-42160714D01*
X25625000Y-42125000D01*
X25696428Y-42089285D01*
X25839285Y-42089285D01*
X25910714Y-42125000D01*
X25946428Y-42160714D01*
X25982142Y-42232142D01*
X25982142Y-42410714D01*
X25946428Y-42482142D01*
X25910714Y-42517857D01*
X25839285Y-42553571D01*
X25696428Y-42553571D01*
X25625000Y-42517857D01*
X25589285Y-42482142D01*
X25553571Y-42410714D01*
X29232142Y-31267857D02*
X29267857Y-31303571D01*
X29375000Y-31339285D01*
X29446428Y-31339285D01*
X29553571Y-31303571D01*
X29625000Y-31232142D01*
X29660714Y-31160714D01*
X29696428Y-31017857D01*
X29696428Y-30910714D01*
X29660714Y-30767857D01*
X29625000Y-30696428D01*
X29553571Y-30625000D01*
X29446428Y-30589285D01*
X29375000Y-30589285D01*
X29267857Y-30625000D01*
X29232142Y-30660714D01*
X28946428Y-30660714D02*
X28910714Y-30625000D01*
X28839285Y-30589285D01*
X28660714Y-30589285D01*
X28589285Y-30625000D01*
X28553571Y-30660714D01*
X28517857Y-30732142D01*
X28517857Y-30803571D01*
X28553571Y-30910714D01*
X28982142Y-31339285D01*
X28517857Y-31339285D01*
X28053571Y-30589285D02*
X27982142Y-30589285D01*
X27910714Y-30625000D01*
X27875000Y-30660714D01*
X27839285Y-30732142D01*
X27803571Y-30875000D01*
X27803571Y-31053571D01*
X27839285Y-31196428D01*
X27875000Y-31267857D01*
X27910714Y-31303571D01*
X27982142Y-31339285D01*
X28053571Y-31339285D01*
X28125000Y-31303571D01*
X28160714Y-31267857D01*
X28196428Y-31196428D01*
X28232142Y-31053571D01*
X28232142Y-30875000D01*
X28196428Y-30732142D01*
X28160714Y-30660714D01*
X28125000Y-30625000D01*
X28053571Y-30589285D01*
X43982142Y-33017857D02*
X44017857Y-33053571D01*
X44125000Y-33089285D01*
X44196428Y-33089285D01*
X44303571Y-33053571D01*
X44375000Y-32982142D01*
X44410714Y-32910714D01*
X44446428Y-32767857D01*
X44446428Y-32660714D01*
X44410714Y-32517857D01*
X44375000Y-32446428D01*
X44303571Y-32375000D01*
X44196428Y-32339285D01*
X44125000Y-32339285D01*
X44017857Y-32375000D01*
X43982142Y-32410714D01*
X43696428Y-32410714D02*
X43660714Y-32375000D01*
X43589285Y-32339285D01*
X43410714Y-32339285D01*
X43339285Y-32375000D01*
X43303571Y-32410714D01*
X43267857Y-32482142D01*
X43267857Y-32553571D01*
X43303571Y-32660714D01*
X43732142Y-33089285D01*
X43267857Y-33089285D01*
X42553571Y-33089285D02*
X42982142Y-33089285D01*
X42767857Y-33089285D02*
X42767857Y-32339285D01*
X42839285Y-32446428D01*
X42910714Y-32517857D01*
X42982142Y-32553571D01*
X43982142Y-46267857D02*
X44017857Y-46303571D01*
X44125000Y-46339285D01*
X44196428Y-46339285D01*
X44303571Y-46303571D01*
X44375000Y-46232142D01*
X44410714Y-46160714D01*
X44446428Y-46017857D01*
X44446428Y-45910714D01*
X44410714Y-45767857D01*
X44375000Y-45696428D01*
X44303571Y-45625000D01*
X44196428Y-45589285D01*
X44125000Y-45589285D01*
X44017857Y-45625000D01*
X43982142Y-45660714D01*
X43696428Y-45660714D02*
X43660714Y-45625000D01*
X43589285Y-45589285D01*
X43410714Y-45589285D01*
X43339285Y-45625000D01*
X43303571Y-45660714D01*
X43267857Y-45732142D01*
X43267857Y-45803571D01*
X43303571Y-45910714D01*
X43732142Y-46339285D01*
X43267857Y-46339285D01*
X42982142Y-45660714D02*
X42946428Y-45625000D01*
X42875000Y-45589285D01*
X42696428Y-45589285D01*
X42625000Y-45625000D01*
X42589285Y-45660714D01*
X42553571Y-45732142D01*
X42553571Y-45803571D01*
X42589285Y-45910714D01*
X43017857Y-46339285D01*
X42553571Y-46339285D01*
X29982142Y-41767857D02*
X30017857Y-41803571D01*
X30125000Y-41839285D01*
X30196428Y-41839285D01*
X30303571Y-41803571D01*
X30375000Y-41732142D01*
X30410714Y-41660714D01*
X30446428Y-41517857D01*
X30446428Y-41410714D01*
X30410714Y-41267857D01*
X30375000Y-41196428D01*
X30303571Y-41125000D01*
X30196428Y-41089285D01*
X30125000Y-41089285D01*
X30017857Y-41125000D01*
X29982142Y-41160714D01*
X29696428Y-41160714D02*
X29660714Y-41125000D01*
X29589285Y-41089285D01*
X29410714Y-41089285D01*
X29339285Y-41125000D01*
X29303571Y-41160714D01*
X29267857Y-41232142D01*
X29267857Y-41303571D01*
X29303571Y-41410714D01*
X29732142Y-41839285D01*
X29267857Y-41839285D01*
X29017857Y-41089285D02*
X28553571Y-41089285D01*
X28803571Y-41375000D01*
X28696428Y-41375000D01*
X28625000Y-41410714D01*
X28589285Y-41446428D01*
X28553571Y-41517857D01*
X28553571Y-41696428D01*
X28589285Y-41767857D01*
X28625000Y-41803571D01*
X28696428Y-41839285D01*
X28910714Y-41839285D01*
X28982142Y-41803571D01*
X29017857Y-41767857D01*
X47982142Y-43267857D02*
X48017857Y-43303571D01*
X48125000Y-43339285D01*
X48196428Y-43339285D01*
X48303571Y-43303571D01*
X48375000Y-43232142D01*
X48410714Y-43160714D01*
X48446428Y-43017857D01*
X48446428Y-42910714D01*
X48410714Y-42767857D01*
X48375000Y-42696428D01*
X48303571Y-42625000D01*
X48196428Y-42589285D01*
X48125000Y-42589285D01*
X48017857Y-42625000D01*
X47982142Y-42660714D01*
X47267857Y-43339285D02*
X47696428Y-43339285D01*
X47482142Y-43339285D02*
X47482142Y-42589285D01*
X47553571Y-42696428D01*
X47625000Y-42767857D01*
X47696428Y-42803571D01*
X46625000Y-42839285D02*
X46625000Y-43339285D01*
X46803571Y-42553571D02*
X46982142Y-43089285D01*
X46517857Y-43089285D01*
X47982142Y-39517857D02*
X48017857Y-39553571D01*
X48125000Y-39589285D01*
X48196428Y-39589285D01*
X48303571Y-39553571D01*
X48375000Y-39482142D01*
X48410714Y-39410714D01*
X48446428Y-39267857D01*
X48446428Y-39160714D01*
X48410714Y-39017857D01*
X48375000Y-38946428D01*
X48303571Y-38875000D01*
X48196428Y-38839285D01*
X48125000Y-38839285D01*
X48017857Y-38875000D01*
X47982142Y-38910714D01*
X47267857Y-39589285D02*
X47696428Y-39589285D01*
X47482142Y-39589285D02*
X47482142Y-38839285D01*
X47553571Y-38946428D01*
X47625000Y-39017857D01*
X47696428Y-39053571D01*
X47017857Y-38839285D02*
X46553571Y-38839285D01*
X46803571Y-39125000D01*
X46696428Y-39125000D01*
X46625000Y-39160714D01*
X46589285Y-39196428D01*
X46553571Y-39267857D01*
X46553571Y-39446428D01*
X46589285Y-39517857D01*
X46625000Y-39553571D01*
X46696428Y-39589285D01*
X46910714Y-39589285D01*
X46982142Y-39553571D01*
X47017857Y-39517857D01*
X26232142Y-50017857D02*
X26267857Y-50053571D01*
X26375000Y-50089285D01*
X26446428Y-50089285D01*
X26553571Y-50053571D01*
X26625000Y-49982142D01*
X26660714Y-49910714D01*
X26696428Y-49767857D01*
X26696428Y-49660714D01*
X26660714Y-49517857D01*
X26625000Y-49446428D01*
X26553571Y-49375000D01*
X26446428Y-49339285D01*
X26375000Y-49339285D01*
X26267857Y-49375000D01*
X26232142Y-49410714D01*
X25946428Y-49410714D02*
X25910714Y-49375000D01*
X25839285Y-49339285D01*
X25660714Y-49339285D01*
X25589285Y-49375000D01*
X25553571Y-49410714D01*
X25517857Y-49482142D01*
X25517857Y-49553571D01*
X25553571Y-49660714D01*
X25982142Y-50089285D01*
X25517857Y-50089285D01*
X24875000Y-49589285D02*
X24875000Y-50089285D01*
X25053571Y-49303571D02*
X25232142Y-49839285D01*
X24767857Y-49839285D01*
X25982142Y-24517857D02*
X26017857Y-24553571D01*
X26125000Y-24589285D01*
X26196428Y-24589285D01*
X26303571Y-24553571D01*
X26375000Y-24482142D01*
X26410714Y-24410714D01*
X26446428Y-24267857D01*
X26446428Y-24160714D01*
X26410714Y-24017857D01*
X26375000Y-23946428D01*
X26303571Y-23875000D01*
X26196428Y-23839285D01*
X26125000Y-23839285D01*
X26017857Y-23875000D01*
X25982142Y-23910714D01*
X25696428Y-23910714D02*
X25660714Y-23875000D01*
X25589285Y-23839285D01*
X25410714Y-23839285D01*
X25339285Y-23875000D01*
X25303571Y-23910714D01*
X25267857Y-23982142D01*
X25267857Y-24053571D01*
X25303571Y-24160714D01*
X25732142Y-24589285D01*
X25267857Y-24589285D01*
X24589285Y-23839285D02*
X24946428Y-23839285D01*
X24982142Y-24196428D01*
X24946428Y-24160714D01*
X24875000Y-24125000D01*
X24696428Y-24125000D01*
X24625000Y-24160714D01*
X24589285Y-24196428D01*
X24553571Y-24267857D01*
X24553571Y-24446428D01*
X24589285Y-24517857D01*
X24625000Y-24553571D01*
X24696428Y-24589285D01*
X24875000Y-24589285D01*
X24946428Y-24553571D01*
X24982142Y-24517857D01*
X48982142Y-49767857D02*
X49017857Y-49803571D01*
X49125000Y-49839285D01*
X49196428Y-49839285D01*
X49303571Y-49803571D01*
X49375000Y-49732142D01*
X49410714Y-49660714D01*
X49446428Y-49517857D01*
X49446428Y-49410714D01*
X49410714Y-49267857D01*
X49375000Y-49196428D01*
X49303571Y-49125000D01*
X49196428Y-49089285D01*
X49125000Y-49089285D01*
X49017857Y-49125000D01*
X48982142Y-49160714D01*
X48696428Y-49160714D02*
X48660714Y-49125000D01*
X48589285Y-49089285D01*
X48410714Y-49089285D01*
X48339285Y-49125000D01*
X48303571Y-49160714D01*
X48267857Y-49232142D01*
X48267857Y-49303571D01*
X48303571Y-49410714D01*
X48732142Y-49839285D01*
X48267857Y-49839285D01*
X47625000Y-49089285D02*
X47767857Y-49089285D01*
X47839285Y-49125000D01*
X47875000Y-49160714D01*
X47946428Y-49267857D01*
X47982142Y-49410714D01*
X47982142Y-49696428D01*
X47946428Y-49767857D01*
X47910714Y-49803571D01*
X47839285Y-49839285D01*
X47696428Y-49839285D01*
X47625000Y-49803571D01*
X47589285Y-49767857D01*
X47553571Y-49696428D01*
X47553571Y-49517857D01*
X47589285Y-49446428D01*
X47625000Y-49410714D01*
X47696428Y-49375000D01*
X47839285Y-49375000D01*
X47910714Y-49410714D01*
X47946428Y-49446428D01*
X47982142Y-49517857D01*
M02*
