M48
; DRILL file {KiCad (5.1.6)-1} date 08/24/20 18:06:51
; FORMAT={-:-/ absolute / inch / decimal}
; #@! TF.CreationDate,2020-08-24T18:06:51+01:00
; #@! TF.GenerationSoftware,Kicad,Pcbnew,(5.1.6)-1
FMAT,2
INCH
T1C0.0118
T2C0.0315
T3C0.2362
T4C0.1260
%
G90
G05
T1
X0.9843Y-1.1122
X1.0433Y-1.0531
X1.0531Y-0.9646
X1.063Y-1.8504
X1.063Y-1.9488
X1.0827Y-1.4665
X1.0827Y-1.5059
X1.0925Y-1.1122
X1.0925Y-1.1909
X1.0925Y-1.6339
X1.0925Y-1.6831
X1.0925Y-1.752
X1.1024Y-1.811
X1.1319Y-1.8209
X1.1417Y-1.1614
X1.1417Y-1.3878
X1.1417Y-1.5157
X1.1417Y-1.5846
X1.1417Y-1.7717
X1.1811Y-1.9291
X1.1909Y-1.6831
X1.2008Y-0.9843
X1.2008Y-1.2598
X1.2402Y-1.0925
X1.2402Y-1.7224
X1.2598Y-1.8209
X1.2795Y-1.4567
X1.2992Y-1.1909
X1.3091Y-1.0925
X1.3189Y-1.9291
X1.3287Y-1.3287
X1.3287Y-1.5846
X1.3681Y-1.7224
X1.378Y-0.9843
X1.378Y-1.1909
X1.4567Y-1.2795
X1.4567Y-1.6339
X1.4961Y-1.9291
X1.5059Y-1.0925
X1.5157Y-1.1909
X1.5256Y-0.9646
X1.5453Y-1.7224
X1.5748Y-1.8209
X1.5846Y-1.3287
X1.5846Y-1.5846
X1.5945Y-1.1909
X1.6043Y-1.939
X1.624Y-1.7224
X1.6339Y-0.9646
X1.6339Y-1.4567
X1.6732Y-1.0925
X1.7126Y-1.2598
X1.7126Y-1.6535
X1.7224Y-1.5256
X1.7224Y-1.6043
X1.752Y-1.1417
X1.7618Y-1.8209
X1.7717Y-1.752
X1.8012Y-1.0925
X1.8209Y-1.2303
X1.8209Y-1.5748
X1.8209Y-1.7028
X1.8209Y-1.8012
X1.8307Y-1.939
X1.8602Y-1.8406
X1.8996Y-1.0827
X1.9291Y-1.3386
X1.9291Y-1.378
X1.9291Y-1.6339
X1.9291Y-1.7815
X1.939Y-1.3583
X1.939Y-1.3976
T2
X0.7874Y-1.0236
X0.7874Y-1.1024
X0.7874Y-1.1811
X0.7874Y-1.2598
X0.7874Y-1.3386
X0.7874Y-1.4173
X0.7874Y-1.4961
X0.7874Y-1.5748
X0.7874Y-1.6535
X0.7874Y-1.7323
X0.7874Y-1.811
X0.7874Y-1.8898
X0.8661Y-1.0236
X0.8661Y-1.1024
X0.8661Y-1.1811
X0.8661Y-1.2598
X0.8661Y-1.3386
X0.8661Y-1.4173
X0.8661Y-1.4961
X0.8661Y-1.5748
X0.8661Y-1.6535
X0.8661Y-1.7323
X0.8661Y-1.811
X0.8661Y-1.8898
X2.0472Y-1.0236
X2.0472Y-1.1024
X2.0472Y-1.1811
X2.0472Y-1.2598
X2.0472Y-1.3386
X2.0472Y-1.4173
X2.0472Y-1.4961
X2.0472Y-1.5748
X2.0472Y-1.6535
X2.0472Y-1.7323
X2.0472Y-1.811
X2.0472Y-1.8898
X2.126Y-1.0236
X2.126Y-1.1024
X2.126Y-1.1811
X2.126Y-1.2598
X2.126Y-1.3386
X2.126Y-1.4173
X2.126Y-1.4961
X2.126Y-1.5748
X2.126Y-1.6535
X2.126Y-1.7323
X2.126Y-1.811
X2.126Y-1.8898
X1.0236Y-0.748
X1.0236Y-0.8268
X1.1024Y-0.748
X1.1024Y-0.8268
X1.1811Y-0.748
X1.1811Y-0.8268
X1.2598Y-0.748
X1.2598Y-0.8268
X1.3386Y-0.748
X1.3386Y-0.8268
X1.4173Y-0.748
X1.4173Y-0.8268
X1.4961Y-0.748
X1.4961Y-0.8268
X1.5748Y-0.748
X1.5748Y-0.8268
X1.6535Y-0.748
X1.6535Y-0.8268
X1.7323Y-0.748
X1.7323Y-0.8268
X1.811Y-0.748
X1.811Y-0.8268
X1.8898Y-0.748
X1.8898Y-0.8268
X1.0236Y-2.0472
X1.0236Y-2.126
X1.1024Y-2.0472
X1.1024Y-2.126
X1.1811Y-2.0472
X1.1811Y-2.126
X1.2598Y-2.0472
X1.2598Y-2.126
X1.3386Y-2.0472
X1.3386Y-2.126
X1.4173Y-2.0472
X1.4173Y-2.126
X1.4961Y-2.0472
X1.4961Y-2.126
X1.5748Y-2.0472
X1.5748Y-2.126
X1.6535Y-2.0472
X1.6535Y-2.126
X1.7323Y-2.0472
X1.7323Y-2.126
X1.811Y-2.0472
X1.811Y-2.126
X1.8898Y-2.0472
X1.8898Y-2.126
T3
X1.4567Y-1.4567
T4
X2.0866Y-2.0866
X2.0866Y-0.8268
X0.8268Y-2.0866
X0.8268Y-0.8268
T0
M30
