%TF.GenerationSoftware,KiCad,Pcbnew,(5.0.0)*%
%TF.CreationDate,2020-04-09T18:14:40+01:00*%
%TF.ProjectId,HeikouBoxCore,4865696B6F75426F78436F72652E6B69,rev?*%
%TF.SameCoordinates,Original*%
%TF.FileFunction,Soldermask,Bot*%
%TF.FilePolarity,Negative*%
%FSLAX46Y46*%
G04 Gerber Fmt 4.6, Leading zero omitted, Abs format (unit mm)*
G04 Created by KiCad (PCBNEW (5.0.0)) date 04/09/20 18:14:40*
%MOMM*%
%LPD*%
G01*
G04 APERTURE LIST*
%ADD10C,0.150000*%
%ADD11C,3.300000*%
%ADD12O,1.450000X1.450000*%
%ADD13R,1.450000X1.450000*%
%ADD14C,1.050000*%
%ADD15R,6.100000X6.100000*%
%ADD16C,1.250000*%
G04 APERTURE END LIST*
D10*
X17000000Y-57000000D02*
X17000000Y-17000000D01*
X57000000Y-57000000D02*
X17000000Y-57000000D01*
X57000000Y-17000000D02*
X57000000Y-57000000D01*
X17000000Y-17000000D02*
X57000000Y-17000000D01*
D11*
X21000000Y-21000000D03*
X53000000Y-21000000D03*
X53000000Y-53000000D03*
X21000000Y-53000000D03*
D12*
X28000000Y-21250000D03*
X40000000Y-21250000D03*
X30000000Y-21250000D03*
X48000000Y-21250000D03*
X26000000Y-19250000D03*
D13*
X26000000Y-21250000D03*
D12*
X40000000Y-19250000D03*
X44000000Y-19250000D03*
X44000000Y-21250000D03*
X34000000Y-21250000D03*
X46000000Y-21250000D03*
X30000000Y-19250000D03*
X32000000Y-19250000D03*
X38000000Y-19250000D03*
X38000000Y-21250000D03*
X34000000Y-19250000D03*
X48000000Y-19250000D03*
X32000000Y-21250000D03*
X36000000Y-19250000D03*
X42000000Y-19250000D03*
X36000000Y-21250000D03*
X28000000Y-19250000D03*
X46000000Y-19250000D03*
X42000000Y-21250000D03*
X51750000Y-38000000D03*
X51750000Y-32000000D03*
X53750000Y-42000000D03*
X53750000Y-48000000D03*
X53750000Y-44000000D03*
X51750000Y-42000000D03*
X53750000Y-38000000D03*
X53750000Y-46000000D03*
X53750000Y-30000000D03*
X53750000Y-40000000D03*
X51750000Y-48000000D03*
X53750000Y-28000000D03*
X51750000Y-36000000D03*
D13*
X51750000Y-26000000D03*
D12*
X53750000Y-26000000D03*
X51750000Y-46000000D03*
X51750000Y-34000000D03*
X53750000Y-36000000D03*
X51750000Y-44000000D03*
X51750000Y-28000000D03*
X51750000Y-40000000D03*
X51750000Y-30000000D03*
X53750000Y-34000000D03*
X53750000Y-32000000D03*
X38000000Y-53750000D03*
X32000000Y-53750000D03*
X42000000Y-51750000D03*
X48000000Y-51750000D03*
X44000000Y-51750000D03*
X42000000Y-53750000D03*
X38000000Y-51750000D03*
X46000000Y-51750000D03*
X30000000Y-51750000D03*
X40000000Y-51750000D03*
X48000000Y-53750000D03*
X28000000Y-51750000D03*
X36000000Y-53750000D03*
D13*
X26000000Y-53750000D03*
D12*
X26000000Y-51750000D03*
X46000000Y-53750000D03*
X34000000Y-53750000D03*
X36000000Y-51750000D03*
X44000000Y-53750000D03*
X28000000Y-53750000D03*
X40000000Y-53750000D03*
X30000000Y-53750000D03*
X34000000Y-51750000D03*
X32000000Y-51750000D03*
X22250000Y-26000000D03*
X22250000Y-30000000D03*
X22250000Y-32000000D03*
X20250000Y-36000000D03*
X20250000Y-28000000D03*
D13*
X20250000Y-26000000D03*
D12*
X20250000Y-30000000D03*
X22250000Y-36000000D03*
X20250000Y-40000000D03*
X20250000Y-44000000D03*
X22250000Y-46000000D03*
X20250000Y-48000000D03*
X22250000Y-28000000D03*
X22250000Y-34000000D03*
X22250000Y-40000000D03*
X20250000Y-34000000D03*
X20250000Y-46000000D03*
X22250000Y-38000000D03*
X20250000Y-42000000D03*
X22250000Y-44000000D03*
X22250000Y-48000000D03*
X22250000Y-42000000D03*
X20250000Y-32000000D03*
X20250000Y-38000000D03*
D10*
G36*
X25963229Y-28726264D02*
X25988711Y-28730044D01*
X26013700Y-28736303D01*
X26037954Y-28744982D01*
X26061242Y-28755996D01*
X26083337Y-28769239D01*
X26104028Y-28784585D01*
X26123116Y-28801884D01*
X26140415Y-28820972D01*
X26155761Y-28841663D01*
X26169004Y-28863758D01*
X26180018Y-28887046D01*
X26188697Y-28911300D01*
X26194956Y-28936289D01*
X26198736Y-28961771D01*
X26200000Y-28987500D01*
X26200000Y-29512500D01*
X26198736Y-29538229D01*
X26194956Y-29563711D01*
X26188697Y-29588700D01*
X26180018Y-29612954D01*
X26169004Y-29636242D01*
X26155761Y-29658337D01*
X26140415Y-29679028D01*
X26123116Y-29698116D01*
X26104028Y-29715415D01*
X26083337Y-29730761D01*
X26061242Y-29744004D01*
X26037954Y-29755018D01*
X26013700Y-29763697D01*
X25988711Y-29769956D01*
X25963229Y-29773736D01*
X25937500Y-29775000D01*
X25312500Y-29775000D01*
X25286771Y-29773736D01*
X25261289Y-29769956D01*
X25236300Y-29763697D01*
X25212046Y-29755018D01*
X25188758Y-29744004D01*
X25166663Y-29730761D01*
X25145972Y-29715415D01*
X25126884Y-29698116D01*
X25109585Y-29679028D01*
X25094239Y-29658337D01*
X25080996Y-29636242D01*
X25069982Y-29612954D01*
X25061303Y-29588700D01*
X25055044Y-29563711D01*
X25051264Y-29538229D01*
X25050000Y-29512500D01*
X25050000Y-28987500D01*
X25051264Y-28961771D01*
X25055044Y-28936289D01*
X25061303Y-28911300D01*
X25069982Y-28887046D01*
X25080996Y-28863758D01*
X25094239Y-28841663D01*
X25109585Y-28820972D01*
X25126884Y-28801884D01*
X25145972Y-28784585D01*
X25166663Y-28769239D01*
X25188758Y-28755996D01*
X25212046Y-28744982D01*
X25236300Y-28736303D01*
X25261289Y-28730044D01*
X25286771Y-28726264D01*
X25312500Y-28725000D01*
X25937500Y-28725000D01*
X25963229Y-28726264D01*
X25963229Y-28726264D01*
G37*
D14*
X25625000Y-29250000D03*
D10*
G36*
X27713229Y-28726264D02*
X27738711Y-28730044D01*
X27763700Y-28736303D01*
X27787954Y-28744982D01*
X27811242Y-28755996D01*
X27833337Y-28769239D01*
X27854028Y-28784585D01*
X27873116Y-28801884D01*
X27890415Y-28820972D01*
X27905761Y-28841663D01*
X27919004Y-28863758D01*
X27930018Y-28887046D01*
X27938697Y-28911300D01*
X27944956Y-28936289D01*
X27948736Y-28961771D01*
X27950000Y-28987500D01*
X27950000Y-29512500D01*
X27948736Y-29538229D01*
X27944956Y-29563711D01*
X27938697Y-29588700D01*
X27930018Y-29612954D01*
X27919004Y-29636242D01*
X27905761Y-29658337D01*
X27890415Y-29679028D01*
X27873116Y-29698116D01*
X27854028Y-29715415D01*
X27833337Y-29730761D01*
X27811242Y-29744004D01*
X27787954Y-29755018D01*
X27763700Y-29763697D01*
X27738711Y-29769956D01*
X27713229Y-29773736D01*
X27687500Y-29775000D01*
X27062500Y-29775000D01*
X27036771Y-29773736D01*
X27011289Y-29769956D01*
X26986300Y-29763697D01*
X26962046Y-29755018D01*
X26938758Y-29744004D01*
X26916663Y-29730761D01*
X26895972Y-29715415D01*
X26876884Y-29698116D01*
X26859585Y-29679028D01*
X26844239Y-29658337D01*
X26830996Y-29636242D01*
X26819982Y-29612954D01*
X26811303Y-29588700D01*
X26805044Y-29563711D01*
X26801264Y-29538229D01*
X26800000Y-29512500D01*
X26800000Y-28987500D01*
X26801264Y-28961771D01*
X26805044Y-28936289D01*
X26811303Y-28911300D01*
X26819982Y-28887046D01*
X26830996Y-28863758D01*
X26844239Y-28841663D01*
X26859585Y-28820972D01*
X26876884Y-28801884D01*
X26895972Y-28784585D01*
X26916663Y-28769239D01*
X26938758Y-28755996D01*
X26962046Y-28744982D01*
X26986300Y-28736303D01*
X27011289Y-28730044D01*
X27036771Y-28726264D01*
X27062500Y-28725000D01*
X27687500Y-28725000D01*
X27713229Y-28726264D01*
X27713229Y-28726264D01*
G37*
D14*
X27375000Y-29250000D03*
D10*
G36*
X44038229Y-39301264D02*
X44063711Y-39305044D01*
X44088700Y-39311303D01*
X44112954Y-39319982D01*
X44136242Y-39330996D01*
X44158337Y-39344239D01*
X44179028Y-39359585D01*
X44198116Y-39376884D01*
X44215415Y-39395972D01*
X44230761Y-39416663D01*
X44244004Y-39438758D01*
X44255018Y-39462046D01*
X44263697Y-39486300D01*
X44269956Y-39511289D01*
X44273736Y-39536771D01*
X44275000Y-39562500D01*
X44275000Y-40187500D01*
X44273736Y-40213229D01*
X44269956Y-40238711D01*
X44263697Y-40263700D01*
X44255018Y-40287954D01*
X44244004Y-40311242D01*
X44230761Y-40333337D01*
X44215415Y-40354028D01*
X44198116Y-40373116D01*
X44179028Y-40390415D01*
X44158337Y-40405761D01*
X44136242Y-40419004D01*
X44112954Y-40430018D01*
X44088700Y-40438697D01*
X44063711Y-40444956D01*
X44038229Y-40448736D01*
X44012500Y-40450000D01*
X43487500Y-40450000D01*
X43461771Y-40448736D01*
X43436289Y-40444956D01*
X43411300Y-40438697D01*
X43387046Y-40430018D01*
X43363758Y-40419004D01*
X43341663Y-40405761D01*
X43320972Y-40390415D01*
X43301884Y-40373116D01*
X43284585Y-40354028D01*
X43269239Y-40333337D01*
X43255996Y-40311242D01*
X43244982Y-40287954D01*
X43236303Y-40263700D01*
X43230044Y-40238711D01*
X43226264Y-40213229D01*
X43225000Y-40187500D01*
X43225000Y-39562500D01*
X43226264Y-39536771D01*
X43230044Y-39511289D01*
X43236303Y-39486300D01*
X43244982Y-39462046D01*
X43255996Y-39438758D01*
X43269239Y-39416663D01*
X43284585Y-39395972D01*
X43301884Y-39376884D01*
X43320972Y-39359585D01*
X43341663Y-39344239D01*
X43363758Y-39330996D01*
X43387046Y-39319982D01*
X43411300Y-39311303D01*
X43436289Y-39305044D01*
X43461771Y-39301264D01*
X43487500Y-39300000D01*
X44012500Y-39300000D01*
X44038229Y-39301264D01*
X44038229Y-39301264D01*
G37*
D14*
X43750000Y-39875000D03*
D10*
G36*
X44038229Y-37551264D02*
X44063711Y-37555044D01*
X44088700Y-37561303D01*
X44112954Y-37569982D01*
X44136242Y-37580996D01*
X44158337Y-37594239D01*
X44179028Y-37609585D01*
X44198116Y-37626884D01*
X44215415Y-37645972D01*
X44230761Y-37666663D01*
X44244004Y-37688758D01*
X44255018Y-37712046D01*
X44263697Y-37736300D01*
X44269956Y-37761289D01*
X44273736Y-37786771D01*
X44275000Y-37812500D01*
X44275000Y-38437500D01*
X44273736Y-38463229D01*
X44269956Y-38488711D01*
X44263697Y-38513700D01*
X44255018Y-38537954D01*
X44244004Y-38561242D01*
X44230761Y-38583337D01*
X44215415Y-38604028D01*
X44198116Y-38623116D01*
X44179028Y-38640415D01*
X44158337Y-38655761D01*
X44136242Y-38669004D01*
X44112954Y-38680018D01*
X44088700Y-38688697D01*
X44063711Y-38694956D01*
X44038229Y-38698736D01*
X44012500Y-38700000D01*
X43487500Y-38700000D01*
X43461771Y-38698736D01*
X43436289Y-38694956D01*
X43411300Y-38688697D01*
X43387046Y-38680018D01*
X43363758Y-38669004D01*
X43341663Y-38655761D01*
X43320972Y-38640415D01*
X43301884Y-38623116D01*
X43284585Y-38604028D01*
X43269239Y-38583337D01*
X43255996Y-38561242D01*
X43244982Y-38537954D01*
X43236303Y-38513700D01*
X43230044Y-38488711D01*
X43226264Y-38463229D01*
X43225000Y-38437500D01*
X43225000Y-37812500D01*
X43226264Y-37786771D01*
X43230044Y-37761289D01*
X43236303Y-37736300D01*
X43244982Y-37712046D01*
X43255996Y-37688758D01*
X43269239Y-37666663D01*
X43284585Y-37645972D01*
X43301884Y-37626884D01*
X43320972Y-37609585D01*
X43341663Y-37594239D01*
X43363758Y-37580996D01*
X43387046Y-37569982D01*
X43411300Y-37561303D01*
X43436289Y-37555044D01*
X43461771Y-37551264D01*
X43487500Y-37550000D01*
X44012500Y-37550000D01*
X44038229Y-37551264D01*
X44038229Y-37551264D01*
G37*
D14*
X43750000Y-38125000D03*
D10*
G36*
X34463229Y-29726264D02*
X34488711Y-29730044D01*
X34513700Y-29736303D01*
X34537954Y-29744982D01*
X34561242Y-29755996D01*
X34583337Y-29769239D01*
X34604028Y-29784585D01*
X34623116Y-29801884D01*
X34640415Y-29820972D01*
X34655761Y-29841663D01*
X34669004Y-29863758D01*
X34680018Y-29887046D01*
X34688697Y-29911300D01*
X34694956Y-29936289D01*
X34698736Y-29961771D01*
X34700000Y-29987500D01*
X34700000Y-30512500D01*
X34698736Y-30538229D01*
X34694956Y-30563711D01*
X34688697Y-30588700D01*
X34680018Y-30612954D01*
X34669004Y-30636242D01*
X34655761Y-30658337D01*
X34640415Y-30679028D01*
X34623116Y-30698116D01*
X34604028Y-30715415D01*
X34583337Y-30730761D01*
X34561242Y-30744004D01*
X34537954Y-30755018D01*
X34513700Y-30763697D01*
X34488711Y-30769956D01*
X34463229Y-30773736D01*
X34437500Y-30775000D01*
X33812500Y-30775000D01*
X33786771Y-30773736D01*
X33761289Y-30769956D01*
X33736300Y-30763697D01*
X33712046Y-30755018D01*
X33688758Y-30744004D01*
X33666663Y-30730761D01*
X33645972Y-30715415D01*
X33626884Y-30698116D01*
X33609585Y-30679028D01*
X33594239Y-30658337D01*
X33580996Y-30636242D01*
X33569982Y-30612954D01*
X33561303Y-30588700D01*
X33555044Y-30563711D01*
X33551264Y-30538229D01*
X33550000Y-30512500D01*
X33550000Y-29987500D01*
X33551264Y-29961771D01*
X33555044Y-29936289D01*
X33561303Y-29911300D01*
X33569982Y-29887046D01*
X33580996Y-29863758D01*
X33594239Y-29841663D01*
X33609585Y-29820972D01*
X33626884Y-29801884D01*
X33645972Y-29784585D01*
X33666663Y-29769239D01*
X33688758Y-29755996D01*
X33712046Y-29744982D01*
X33736300Y-29736303D01*
X33761289Y-29730044D01*
X33786771Y-29726264D01*
X33812500Y-29725000D01*
X34437500Y-29725000D01*
X34463229Y-29726264D01*
X34463229Y-29726264D01*
G37*
D14*
X34125000Y-30250000D03*
D10*
G36*
X32713229Y-29726264D02*
X32738711Y-29730044D01*
X32763700Y-29736303D01*
X32787954Y-29744982D01*
X32811242Y-29755996D01*
X32833337Y-29769239D01*
X32854028Y-29784585D01*
X32873116Y-29801884D01*
X32890415Y-29820972D01*
X32905761Y-29841663D01*
X32919004Y-29863758D01*
X32930018Y-29887046D01*
X32938697Y-29911300D01*
X32944956Y-29936289D01*
X32948736Y-29961771D01*
X32950000Y-29987500D01*
X32950000Y-30512500D01*
X32948736Y-30538229D01*
X32944956Y-30563711D01*
X32938697Y-30588700D01*
X32930018Y-30612954D01*
X32919004Y-30636242D01*
X32905761Y-30658337D01*
X32890415Y-30679028D01*
X32873116Y-30698116D01*
X32854028Y-30715415D01*
X32833337Y-30730761D01*
X32811242Y-30744004D01*
X32787954Y-30755018D01*
X32763700Y-30763697D01*
X32738711Y-30769956D01*
X32713229Y-30773736D01*
X32687500Y-30775000D01*
X32062500Y-30775000D01*
X32036771Y-30773736D01*
X32011289Y-30769956D01*
X31986300Y-30763697D01*
X31962046Y-30755018D01*
X31938758Y-30744004D01*
X31916663Y-30730761D01*
X31895972Y-30715415D01*
X31876884Y-30698116D01*
X31859585Y-30679028D01*
X31844239Y-30658337D01*
X31830996Y-30636242D01*
X31819982Y-30612954D01*
X31811303Y-30588700D01*
X31805044Y-30563711D01*
X31801264Y-30538229D01*
X31800000Y-30512500D01*
X31800000Y-29987500D01*
X31801264Y-29961771D01*
X31805044Y-29936289D01*
X31811303Y-29911300D01*
X31819982Y-29887046D01*
X31830996Y-29863758D01*
X31844239Y-29841663D01*
X31859585Y-29820972D01*
X31876884Y-29801884D01*
X31895972Y-29784585D01*
X31916663Y-29769239D01*
X31938758Y-29755996D01*
X31962046Y-29744982D01*
X31986300Y-29736303D01*
X32011289Y-29730044D01*
X32036771Y-29726264D01*
X32062500Y-29725000D01*
X32687500Y-29725000D01*
X32713229Y-29726264D01*
X32713229Y-29726264D01*
G37*
D14*
X32375000Y-30250000D03*
D10*
G36*
X39713229Y-29726264D02*
X39738711Y-29730044D01*
X39763700Y-29736303D01*
X39787954Y-29744982D01*
X39811242Y-29755996D01*
X39833337Y-29769239D01*
X39854028Y-29784585D01*
X39873116Y-29801884D01*
X39890415Y-29820972D01*
X39905761Y-29841663D01*
X39919004Y-29863758D01*
X39930018Y-29887046D01*
X39938697Y-29911300D01*
X39944956Y-29936289D01*
X39948736Y-29961771D01*
X39950000Y-29987500D01*
X39950000Y-30512500D01*
X39948736Y-30538229D01*
X39944956Y-30563711D01*
X39938697Y-30588700D01*
X39930018Y-30612954D01*
X39919004Y-30636242D01*
X39905761Y-30658337D01*
X39890415Y-30679028D01*
X39873116Y-30698116D01*
X39854028Y-30715415D01*
X39833337Y-30730761D01*
X39811242Y-30744004D01*
X39787954Y-30755018D01*
X39763700Y-30763697D01*
X39738711Y-30769956D01*
X39713229Y-30773736D01*
X39687500Y-30775000D01*
X39062500Y-30775000D01*
X39036771Y-30773736D01*
X39011289Y-30769956D01*
X38986300Y-30763697D01*
X38962046Y-30755018D01*
X38938758Y-30744004D01*
X38916663Y-30730761D01*
X38895972Y-30715415D01*
X38876884Y-30698116D01*
X38859585Y-30679028D01*
X38844239Y-30658337D01*
X38830996Y-30636242D01*
X38819982Y-30612954D01*
X38811303Y-30588700D01*
X38805044Y-30563711D01*
X38801264Y-30538229D01*
X38800000Y-30512500D01*
X38800000Y-29987500D01*
X38801264Y-29961771D01*
X38805044Y-29936289D01*
X38811303Y-29911300D01*
X38819982Y-29887046D01*
X38830996Y-29863758D01*
X38844239Y-29841663D01*
X38859585Y-29820972D01*
X38876884Y-29801884D01*
X38895972Y-29784585D01*
X38916663Y-29769239D01*
X38938758Y-29755996D01*
X38962046Y-29744982D01*
X38986300Y-29736303D01*
X39011289Y-29730044D01*
X39036771Y-29726264D01*
X39062500Y-29725000D01*
X39687500Y-29725000D01*
X39713229Y-29726264D01*
X39713229Y-29726264D01*
G37*
D14*
X39375000Y-30250000D03*
D10*
G36*
X41463229Y-29726264D02*
X41488711Y-29730044D01*
X41513700Y-29736303D01*
X41537954Y-29744982D01*
X41561242Y-29755996D01*
X41583337Y-29769239D01*
X41604028Y-29784585D01*
X41623116Y-29801884D01*
X41640415Y-29820972D01*
X41655761Y-29841663D01*
X41669004Y-29863758D01*
X41680018Y-29887046D01*
X41688697Y-29911300D01*
X41694956Y-29936289D01*
X41698736Y-29961771D01*
X41700000Y-29987500D01*
X41700000Y-30512500D01*
X41698736Y-30538229D01*
X41694956Y-30563711D01*
X41688697Y-30588700D01*
X41680018Y-30612954D01*
X41669004Y-30636242D01*
X41655761Y-30658337D01*
X41640415Y-30679028D01*
X41623116Y-30698116D01*
X41604028Y-30715415D01*
X41583337Y-30730761D01*
X41561242Y-30744004D01*
X41537954Y-30755018D01*
X41513700Y-30763697D01*
X41488711Y-30769956D01*
X41463229Y-30773736D01*
X41437500Y-30775000D01*
X40812500Y-30775000D01*
X40786771Y-30773736D01*
X40761289Y-30769956D01*
X40736300Y-30763697D01*
X40712046Y-30755018D01*
X40688758Y-30744004D01*
X40666663Y-30730761D01*
X40645972Y-30715415D01*
X40626884Y-30698116D01*
X40609585Y-30679028D01*
X40594239Y-30658337D01*
X40580996Y-30636242D01*
X40569982Y-30612954D01*
X40561303Y-30588700D01*
X40555044Y-30563711D01*
X40551264Y-30538229D01*
X40550000Y-30512500D01*
X40550000Y-29987500D01*
X40551264Y-29961771D01*
X40555044Y-29936289D01*
X40561303Y-29911300D01*
X40569982Y-29887046D01*
X40580996Y-29863758D01*
X40594239Y-29841663D01*
X40609585Y-29820972D01*
X40626884Y-29801884D01*
X40645972Y-29784585D01*
X40666663Y-29769239D01*
X40688758Y-29755996D01*
X40712046Y-29744982D01*
X40736300Y-29736303D01*
X40761289Y-29730044D01*
X40786771Y-29726264D01*
X40812500Y-29725000D01*
X41437500Y-29725000D01*
X41463229Y-29726264D01*
X41463229Y-29726264D01*
G37*
D14*
X41125000Y-30250000D03*
D10*
G36*
X48463229Y-27226264D02*
X48488711Y-27230044D01*
X48513700Y-27236303D01*
X48537954Y-27244982D01*
X48561242Y-27255996D01*
X48583337Y-27269239D01*
X48604028Y-27284585D01*
X48623116Y-27301884D01*
X48640415Y-27320972D01*
X48655761Y-27341663D01*
X48669004Y-27363758D01*
X48680018Y-27387046D01*
X48688697Y-27411300D01*
X48694956Y-27436289D01*
X48698736Y-27461771D01*
X48700000Y-27487500D01*
X48700000Y-28012500D01*
X48698736Y-28038229D01*
X48694956Y-28063711D01*
X48688697Y-28088700D01*
X48680018Y-28112954D01*
X48669004Y-28136242D01*
X48655761Y-28158337D01*
X48640415Y-28179028D01*
X48623116Y-28198116D01*
X48604028Y-28215415D01*
X48583337Y-28230761D01*
X48561242Y-28244004D01*
X48537954Y-28255018D01*
X48513700Y-28263697D01*
X48488711Y-28269956D01*
X48463229Y-28273736D01*
X48437500Y-28275000D01*
X47812500Y-28275000D01*
X47786771Y-28273736D01*
X47761289Y-28269956D01*
X47736300Y-28263697D01*
X47712046Y-28255018D01*
X47688758Y-28244004D01*
X47666663Y-28230761D01*
X47645972Y-28215415D01*
X47626884Y-28198116D01*
X47609585Y-28179028D01*
X47594239Y-28158337D01*
X47580996Y-28136242D01*
X47569982Y-28112954D01*
X47561303Y-28088700D01*
X47555044Y-28063711D01*
X47551264Y-28038229D01*
X47550000Y-28012500D01*
X47550000Y-27487500D01*
X47551264Y-27461771D01*
X47555044Y-27436289D01*
X47561303Y-27411300D01*
X47569982Y-27387046D01*
X47580996Y-27363758D01*
X47594239Y-27341663D01*
X47609585Y-27320972D01*
X47626884Y-27301884D01*
X47645972Y-27284585D01*
X47666663Y-27269239D01*
X47688758Y-27255996D01*
X47712046Y-27244982D01*
X47736300Y-27236303D01*
X47761289Y-27230044D01*
X47786771Y-27226264D01*
X47812500Y-27225000D01*
X48437500Y-27225000D01*
X48463229Y-27226264D01*
X48463229Y-27226264D01*
G37*
D14*
X48125000Y-27750000D03*
D10*
G36*
X46713229Y-27226264D02*
X46738711Y-27230044D01*
X46763700Y-27236303D01*
X46787954Y-27244982D01*
X46811242Y-27255996D01*
X46833337Y-27269239D01*
X46854028Y-27284585D01*
X46873116Y-27301884D01*
X46890415Y-27320972D01*
X46905761Y-27341663D01*
X46919004Y-27363758D01*
X46930018Y-27387046D01*
X46938697Y-27411300D01*
X46944956Y-27436289D01*
X46948736Y-27461771D01*
X46950000Y-27487500D01*
X46950000Y-28012500D01*
X46948736Y-28038229D01*
X46944956Y-28063711D01*
X46938697Y-28088700D01*
X46930018Y-28112954D01*
X46919004Y-28136242D01*
X46905761Y-28158337D01*
X46890415Y-28179028D01*
X46873116Y-28198116D01*
X46854028Y-28215415D01*
X46833337Y-28230761D01*
X46811242Y-28244004D01*
X46787954Y-28255018D01*
X46763700Y-28263697D01*
X46738711Y-28269956D01*
X46713229Y-28273736D01*
X46687500Y-28275000D01*
X46062500Y-28275000D01*
X46036771Y-28273736D01*
X46011289Y-28269956D01*
X45986300Y-28263697D01*
X45962046Y-28255018D01*
X45938758Y-28244004D01*
X45916663Y-28230761D01*
X45895972Y-28215415D01*
X45876884Y-28198116D01*
X45859585Y-28179028D01*
X45844239Y-28158337D01*
X45830996Y-28136242D01*
X45819982Y-28112954D01*
X45811303Y-28088700D01*
X45805044Y-28063711D01*
X45801264Y-28038229D01*
X45800000Y-28012500D01*
X45800000Y-27487500D01*
X45801264Y-27461771D01*
X45805044Y-27436289D01*
X45811303Y-27411300D01*
X45819982Y-27387046D01*
X45830996Y-27363758D01*
X45844239Y-27341663D01*
X45859585Y-27320972D01*
X45876884Y-27301884D01*
X45895972Y-27284585D01*
X45916663Y-27269239D01*
X45938758Y-27255996D01*
X45962046Y-27244982D01*
X45986300Y-27236303D01*
X46011289Y-27230044D01*
X46036771Y-27226264D01*
X46062500Y-27225000D01*
X46687500Y-27225000D01*
X46713229Y-27226264D01*
X46713229Y-27226264D01*
G37*
D14*
X46375000Y-27750000D03*
D10*
G36*
X38963229Y-43226264D02*
X38988711Y-43230044D01*
X39013700Y-43236303D01*
X39037954Y-43244982D01*
X39061242Y-43255996D01*
X39083337Y-43269239D01*
X39104028Y-43284585D01*
X39123116Y-43301884D01*
X39140415Y-43320972D01*
X39155761Y-43341663D01*
X39169004Y-43363758D01*
X39180018Y-43387046D01*
X39188697Y-43411300D01*
X39194956Y-43436289D01*
X39198736Y-43461771D01*
X39200000Y-43487500D01*
X39200000Y-44012500D01*
X39198736Y-44038229D01*
X39194956Y-44063711D01*
X39188697Y-44088700D01*
X39180018Y-44112954D01*
X39169004Y-44136242D01*
X39155761Y-44158337D01*
X39140415Y-44179028D01*
X39123116Y-44198116D01*
X39104028Y-44215415D01*
X39083337Y-44230761D01*
X39061242Y-44244004D01*
X39037954Y-44255018D01*
X39013700Y-44263697D01*
X38988711Y-44269956D01*
X38963229Y-44273736D01*
X38937500Y-44275000D01*
X38312500Y-44275000D01*
X38286771Y-44273736D01*
X38261289Y-44269956D01*
X38236300Y-44263697D01*
X38212046Y-44255018D01*
X38188758Y-44244004D01*
X38166663Y-44230761D01*
X38145972Y-44215415D01*
X38126884Y-44198116D01*
X38109585Y-44179028D01*
X38094239Y-44158337D01*
X38080996Y-44136242D01*
X38069982Y-44112954D01*
X38061303Y-44088700D01*
X38055044Y-44063711D01*
X38051264Y-44038229D01*
X38050000Y-44012500D01*
X38050000Y-43487500D01*
X38051264Y-43461771D01*
X38055044Y-43436289D01*
X38061303Y-43411300D01*
X38069982Y-43387046D01*
X38080996Y-43363758D01*
X38094239Y-43341663D01*
X38109585Y-43320972D01*
X38126884Y-43301884D01*
X38145972Y-43284585D01*
X38166663Y-43269239D01*
X38188758Y-43255996D01*
X38212046Y-43244982D01*
X38236300Y-43236303D01*
X38261289Y-43230044D01*
X38286771Y-43226264D01*
X38312500Y-43225000D01*
X38937500Y-43225000D01*
X38963229Y-43226264D01*
X38963229Y-43226264D01*
G37*
D14*
X38625000Y-43750000D03*
D10*
G36*
X40713229Y-43226264D02*
X40738711Y-43230044D01*
X40763700Y-43236303D01*
X40787954Y-43244982D01*
X40811242Y-43255996D01*
X40833337Y-43269239D01*
X40854028Y-43284585D01*
X40873116Y-43301884D01*
X40890415Y-43320972D01*
X40905761Y-43341663D01*
X40919004Y-43363758D01*
X40930018Y-43387046D01*
X40938697Y-43411300D01*
X40944956Y-43436289D01*
X40948736Y-43461771D01*
X40950000Y-43487500D01*
X40950000Y-44012500D01*
X40948736Y-44038229D01*
X40944956Y-44063711D01*
X40938697Y-44088700D01*
X40930018Y-44112954D01*
X40919004Y-44136242D01*
X40905761Y-44158337D01*
X40890415Y-44179028D01*
X40873116Y-44198116D01*
X40854028Y-44215415D01*
X40833337Y-44230761D01*
X40811242Y-44244004D01*
X40787954Y-44255018D01*
X40763700Y-44263697D01*
X40738711Y-44269956D01*
X40713229Y-44273736D01*
X40687500Y-44275000D01*
X40062500Y-44275000D01*
X40036771Y-44273736D01*
X40011289Y-44269956D01*
X39986300Y-44263697D01*
X39962046Y-44255018D01*
X39938758Y-44244004D01*
X39916663Y-44230761D01*
X39895972Y-44215415D01*
X39876884Y-44198116D01*
X39859585Y-44179028D01*
X39844239Y-44158337D01*
X39830996Y-44136242D01*
X39819982Y-44112954D01*
X39811303Y-44088700D01*
X39805044Y-44063711D01*
X39801264Y-44038229D01*
X39800000Y-44012500D01*
X39800000Y-43487500D01*
X39801264Y-43461771D01*
X39805044Y-43436289D01*
X39811303Y-43411300D01*
X39819982Y-43387046D01*
X39830996Y-43363758D01*
X39844239Y-43341663D01*
X39859585Y-43320972D01*
X39876884Y-43301884D01*
X39895972Y-43284585D01*
X39916663Y-43269239D01*
X39938758Y-43255996D01*
X39962046Y-43244982D01*
X39986300Y-43236303D01*
X40011289Y-43230044D01*
X40036771Y-43226264D01*
X40062500Y-43225000D01*
X40687500Y-43225000D01*
X40713229Y-43226264D01*
X40713229Y-43226264D01*
G37*
D14*
X40375000Y-43750000D03*
D10*
G36*
X32463229Y-43226264D02*
X32488711Y-43230044D01*
X32513700Y-43236303D01*
X32537954Y-43244982D01*
X32561242Y-43255996D01*
X32583337Y-43269239D01*
X32604028Y-43284585D01*
X32623116Y-43301884D01*
X32640415Y-43320972D01*
X32655761Y-43341663D01*
X32669004Y-43363758D01*
X32680018Y-43387046D01*
X32688697Y-43411300D01*
X32694956Y-43436289D01*
X32698736Y-43461771D01*
X32700000Y-43487500D01*
X32700000Y-44012500D01*
X32698736Y-44038229D01*
X32694956Y-44063711D01*
X32688697Y-44088700D01*
X32680018Y-44112954D01*
X32669004Y-44136242D01*
X32655761Y-44158337D01*
X32640415Y-44179028D01*
X32623116Y-44198116D01*
X32604028Y-44215415D01*
X32583337Y-44230761D01*
X32561242Y-44244004D01*
X32537954Y-44255018D01*
X32513700Y-44263697D01*
X32488711Y-44269956D01*
X32463229Y-44273736D01*
X32437500Y-44275000D01*
X31812500Y-44275000D01*
X31786771Y-44273736D01*
X31761289Y-44269956D01*
X31736300Y-44263697D01*
X31712046Y-44255018D01*
X31688758Y-44244004D01*
X31666663Y-44230761D01*
X31645972Y-44215415D01*
X31626884Y-44198116D01*
X31609585Y-44179028D01*
X31594239Y-44158337D01*
X31580996Y-44136242D01*
X31569982Y-44112954D01*
X31561303Y-44088700D01*
X31555044Y-44063711D01*
X31551264Y-44038229D01*
X31550000Y-44012500D01*
X31550000Y-43487500D01*
X31551264Y-43461771D01*
X31555044Y-43436289D01*
X31561303Y-43411300D01*
X31569982Y-43387046D01*
X31580996Y-43363758D01*
X31594239Y-43341663D01*
X31609585Y-43320972D01*
X31626884Y-43301884D01*
X31645972Y-43284585D01*
X31666663Y-43269239D01*
X31688758Y-43255996D01*
X31712046Y-43244982D01*
X31736300Y-43236303D01*
X31761289Y-43230044D01*
X31786771Y-43226264D01*
X31812500Y-43225000D01*
X32437500Y-43225000D01*
X32463229Y-43226264D01*
X32463229Y-43226264D01*
G37*
D14*
X32125000Y-43750000D03*
D10*
G36*
X34213229Y-43226264D02*
X34238711Y-43230044D01*
X34263700Y-43236303D01*
X34287954Y-43244982D01*
X34311242Y-43255996D01*
X34333337Y-43269239D01*
X34354028Y-43284585D01*
X34373116Y-43301884D01*
X34390415Y-43320972D01*
X34405761Y-43341663D01*
X34419004Y-43363758D01*
X34430018Y-43387046D01*
X34438697Y-43411300D01*
X34444956Y-43436289D01*
X34448736Y-43461771D01*
X34450000Y-43487500D01*
X34450000Y-44012500D01*
X34448736Y-44038229D01*
X34444956Y-44063711D01*
X34438697Y-44088700D01*
X34430018Y-44112954D01*
X34419004Y-44136242D01*
X34405761Y-44158337D01*
X34390415Y-44179028D01*
X34373116Y-44198116D01*
X34354028Y-44215415D01*
X34333337Y-44230761D01*
X34311242Y-44244004D01*
X34287954Y-44255018D01*
X34263700Y-44263697D01*
X34238711Y-44269956D01*
X34213229Y-44273736D01*
X34187500Y-44275000D01*
X33562500Y-44275000D01*
X33536771Y-44273736D01*
X33511289Y-44269956D01*
X33486300Y-44263697D01*
X33462046Y-44255018D01*
X33438758Y-44244004D01*
X33416663Y-44230761D01*
X33395972Y-44215415D01*
X33376884Y-44198116D01*
X33359585Y-44179028D01*
X33344239Y-44158337D01*
X33330996Y-44136242D01*
X33319982Y-44112954D01*
X33311303Y-44088700D01*
X33305044Y-44063711D01*
X33301264Y-44038229D01*
X33300000Y-44012500D01*
X33300000Y-43487500D01*
X33301264Y-43461771D01*
X33305044Y-43436289D01*
X33311303Y-43411300D01*
X33319982Y-43387046D01*
X33330996Y-43363758D01*
X33344239Y-43341663D01*
X33359585Y-43320972D01*
X33376884Y-43301884D01*
X33395972Y-43284585D01*
X33416663Y-43269239D01*
X33438758Y-43255996D01*
X33462046Y-43244982D01*
X33486300Y-43236303D01*
X33511289Y-43230044D01*
X33536771Y-43226264D01*
X33562500Y-43225000D01*
X34187500Y-43225000D01*
X34213229Y-43226264D01*
X34213229Y-43226264D01*
G37*
D14*
X33875000Y-43750000D03*
D10*
G36*
X29288229Y-35551264D02*
X29313711Y-35555044D01*
X29338700Y-35561303D01*
X29362954Y-35569982D01*
X29386242Y-35580996D01*
X29408337Y-35594239D01*
X29429028Y-35609585D01*
X29448116Y-35626884D01*
X29465415Y-35645972D01*
X29480761Y-35666663D01*
X29494004Y-35688758D01*
X29505018Y-35712046D01*
X29513697Y-35736300D01*
X29519956Y-35761289D01*
X29523736Y-35786771D01*
X29525000Y-35812500D01*
X29525000Y-36437500D01*
X29523736Y-36463229D01*
X29519956Y-36488711D01*
X29513697Y-36513700D01*
X29505018Y-36537954D01*
X29494004Y-36561242D01*
X29480761Y-36583337D01*
X29465415Y-36604028D01*
X29448116Y-36623116D01*
X29429028Y-36640415D01*
X29408337Y-36655761D01*
X29386242Y-36669004D01*
X29362954Y-36680018D01*
X29338700Y-36688697D01*
X29313711Y-36694956D01*
X29288229Y-36698736D01*
X29262500Y-36700000D01*
X28737500Y-36700000D01*
X28711771Y-36698736D01*
X28686289Y-36694956D01*
X28661300Y-36688697D01*
X28637046Y-36680018D01*
X28613758Y-36669004D01*
X28591663Y-36655761D01*
X28570972Y-36640415D01*
X28551884Y-36623116D01*
X28534585Y-36604028D01*
X28519239Y-36583337D01*
X28505996Y-36561242D01*
X28494982Y-36537954D01*
X28486303Y-36513700D01*
X28480044Y-36488711D01*
X28476264Y-36463229D01*
X28475000Y-36437500D01*
X28475000Y-35812500D01*
X28476264Y-35786771D01*
X28480044Y-35761289D01*
X28486303Y-35736300D01*
X28494982Y-35712046D01*
X28505996Y-35688758D01*
X28519239Y-35666663D01*
X28534585Y-35645972D01*
X28551884Y-35626884D01*
X28570972Y-35609585D01*
X28591663Y-35594239D01*
X28613758Y-35580996D01*
X28637046Y-35569982D01*
X28661300Y-35561303D01*
X28686289Y-35555044D01*
X28711771Y-35551264D01*
X28737500Y-35550000D01*
X29262500Y-35550000D01*
X29288229Y-35551264D01*
X29288229Y-35551264D01*
G37*
D14*
X29000000Y-36125000D03*
D10*
G36*
X29288229Y-37301264D02*
X29313711Y-37305044D01*
X29338700Y-37311303D01*
X29362954Y-37319982D01*
X29386242Y-37330996D01*
X29408337Y-37344239D01*
X29429028Y-37359585D01*
X29448116Y-37376884D01*
X29465415Y-37395972D01*
X29480761Y-37416663D01*
X29494004Y-37438758D01*
X29505018Y-37462046D01*
X29513697Y-37486300D01*
X29519956Y-37511289D01*
X29523736Y-37536771D01*
X29525000Y-37562500D01*
X29525000Y-38187500D01*
X29523736Y-38213229D01*
X29519956Y-38238711D01*
X29513697Y-38263700D01*
X29505018Y-38287954D01*
X29494004Y-38311242D01*
X29480761Y-38333337D01*
X29465415Y-38354028D01*
X29448116Y-38373116D01*
X29429028Y-38390415D01*
X29408337Y-38405761D01*
X29386242Y-38419004D01*
X29362954Y-38430018D01*
X29338700Y-38438697D01*
X29313711Y-38444956D01*
X29288229Y-38448736D01*
X29262500Y-38450000D01*
X28737500Y-38450000D01*
X28711771Y-38448736D01*
X28686289Y-38444956D01*
X28661300Y-38438697D01*
X28637046Y-38430018D01*
X28613758Y-38419004D01*
X28591663Y-38405761D01*
X28570972Y-38390415D01*
X28551884Y-38373116D01*
X28534585Y-38354028D01*
X28519239Y-38333337D01*
X28505996Y-38311242D01*
X28494982Y-38287954D01*
X28486303Y-38263700D01*
X28480044Y-38238711D01*
X28476264Y-38213229D01*
X28475000Y-38187500D01*
X28475000Y-37562500D01*
X28476264Y-37536771D01*
X28480044Y-37511289D01*
X28486303Y-37486300D01*
X28494982Y-37462046D01*
X28505996Y-37438758D01*
X28519239Y-37416663D01*
X28534585Y-37395972D01*
X28551884Y-37376884D01*
X28570972Y-37359585D01*
X28591663Y-37344239D01*
X28613758Y-37330996D01*
X28637046Y-37319982D01*
X28661300Y-37311303D01*
X28686289Y-37305044D01*
X28711771Y-37301264D01*
X28737500Y-37300000D01*
X29262500Y-37300000D01*
X29288229Y-37301264D01*
X29288229Y-37301264D01*
G37*
D14*
X29000000Y-37875000D03*
D10*
G36*
X32538229Y-25051264D02*
X32563711Y-25055044D01*
X32588700Y-25061303D01*
X32612954Y-25069982D01*
X32636242Y-25080996D01*
X32658337Y-25094239D01*
X32679028Y-25109585D01*
X32698116Y-25126884D01*
X32715415Y-25145972D01*
X32730761Y-25166663D01*
X32744004Y-25188758D01*
X32755018Y-25212046D01*
X32763697Y-25236300D01*
X32769956Y-25261289D01*
X32773736Y-25286771D01*
X32775000Y-25312500D01*
X32775000Y-25937500D01*
X32773736Y-25963229D01*
X32769956Y-25988711D01*
X32763697Y-26013700D01*
X32755018Y-26037954D01*
X32744004Y-26061242D01*
X32730761Y-26083337D01*
X32715415Y-26104028D01*
X32698116Y-26123116D01*
X32679028Y-26140415D01*
X32658337Y-26155761D01*
X32636242Y-26169004D01*
X32612954Y-26180018D01*
X32588700Y-26188697D01*
X32563711Y-26194956D01*
X32538229Y-26198736D01*
X32512500Y-26200000D01*
X31987500Y-26200000D01*
X31961771Y-26198736D01*
X31936289Y-26194956D01*
X31911300Y-26188697D01*
X31887046Y-26180018D01*
X31863758Y-26169004D01*
X31841663Y-26155761D01*
X31820972Y-26140415D01*
X31801884Y-26123116D01*
X31784585Y-26104028D01*
X31769239Y-26083337D01*
X31755996Y-26061242D01*
X31744982Y-26037954D01*
X31736303Y-26013700D01*
X31730044Y-25988711D01*
X31726264Y-25963229D01*
X31725000Y-25937500D01*
X31725000Y-25312500D01*
X31726264Y-25286771D01*
X31730044Y-25261289D01*
X31736303Y-25236300D01*
X31744982Y-25212046D01*
X31755996Y-25188758D01*
X31769239Y-25166663D01*
X31784585Y-25145972D01*
X31801884Y-25126884D01*
X31820972Y-25109585D01*
X31841663Y-25094239D01*
X31863758Y-25080996D01*
X31887046Y-25069982D01*
X31911300Y-25061303D01*
X31936289Y-25055044D01*
X31961771Y-25051264D01*
X31987500Y-25050000D01*
X32512500Y-25050000D01*
X32538229Y-25051264D01*
X32538229Y-25051264D01*
G37*
D14*
X32250000Y-25625000D03*
D10*
G36*
X32538229Y-26801264D02*
X32563711Y-26805044D01*
X32588700Y-26811303D01*
X32612954Y-26819982D01*
X32636242Y-26830996D01*
X32658337Y-26844239D01*
X32679028Y-26859585D01*
X32698116Y-26876884D01*
X32715415Y-26895972D01*
X32730761Y-26916663D01*
X32744004Y-26938758D01*
X32755018Y-26962046D01*
X32763697Y-26986300D01*
X32769956Y-27011289D01*
X32773736Y-27036771D01*
X32775000Y-27062500D01*
X32775000Y-27687500D01*
X32773736Y-27713229D01*
X32769956Y-27738711D01*
X32763697Y-27763700D01*
X32755018Y-27787954D01*
X32744004Y-27811242D01*
X32730761Y-27833337D01*
X32715415Y-27854028D01*
X32698116Y-27873116D01*
X32679028Y-27890415D01*
X32658337Y-27905761D01*
X32636242Y-27919004D01*
X32612954Y-27930018D01*
X32588700Y-27938697D01*
X32563711Y-27944956D01*
X32538229Y-27948736D01*
X32512500Y-27950000D01*
X31987500Y-27950000D01*
X31961771Y-27948736D01*
X31936289Y-27944956D01*
X31911300Y-27938697D01*
X31887046Y-27930018D01*
X31863758Y-27919004D01*
X31841663Y-27905761D01*
X31820972Y-27890415D01*
X31801884Y-27873116D01*
X31784585Y-27854028D01*
X31769239Y-27833337D01*
X31755996Y-27811242D01*
X31744982Y-27787954D01*
X31736303Y-27763700D01*
X31730044Y-27738711D01*
X31726264Y-27713229D01*
X31725000Y-27687500D01*
X31725000Y-27062500D01*
X31726264Y-27036771D01*
X31730044Y-27011289D01*
X31736303Y-26986300D01*
X31744982Y-26962046D01*
X31755996Y-26938758D01*
X31769239Y-26916663D01*
X31784585Y-26895972D01*
X31801884Y-26876884D01*
X31820972Y-26859585D01*
X31841663Y-26844239D01*
X31863758Y-26830996D01*
X31887046Y-26819982D01*
X31911300Y-26811303D01*
X31936289Y-26805044D01*
X31961771Y-26801264D01*
X31987500Y-26800000D01*
X32512500Y-26800000D01*
X32538229Y-26801264D01*
X32538229Y-26801264D01*
G37*
D14*
X32250000Y-27375000D03*
D10*
G36*
X38538229Y-25051264D02*
X38563711Y-25055044D01*
X38588700Y-25061303D01*
X38612954Y-25069982D01*
X38636242Y-25080996D01*
X38658337Y-25094239D01*
X38679028Y-25109585D01*
X38698116Y-25126884D01*
X38715415Y-25145972D01*
X38730761Y-25166663D01*
X38744004Y-25188758D01*
X38755018Y-25212046D01*
X38763697Y-25236300D01*
X38769956Y-25261289D01*
X38773736Y-25286771D01*
X38775000Y-25312500D01*
X38775000Y-25937500D01*
X38773736Y-25963229D01*
X38769956Y-25988711D01*
X38763697Y-26013700D01*
X38755018Y-26037954D01*
X38744004Y-26061242D01*
X38730761Y-26083337D01*
X38715415Y-26104028D01*
X38698116Y-26123116D01*
X38679028Y-26140415D01*
X38658337Y-26155761D01*
X38636242Y-26169004D01*
X38612954Y-26180018D01*
X38588700Y-26188697D01*
X38563711Y-26194956D01*
X38538229Y-26198736D01*
X38512500Y-26200000D01*
X37987500Y-26200000D01*
X37961771Y-26198736D01*
X37936289Y-26194956D01*
X37911300Y-26188697D01*
X37887046Y-26180018D01*
X37863758Y-26169004D01*
X37841663Y-26155761D01*
X37820972Y-26140415D01*
X37801884Y-26123116D01*
X37784585Y-26104028D01*
X37769239Y-26083337D01*
X37755996Y-26061242D01*
X37744982Y-26037954D01*
X37736303Y-26013700D01*
X37730044Y-25988711D01*
X37726264Y-25963229D01*
X37725000Y-25937500D01*
X37725000Y-25312500D01*
X37726264Y-25286771D01*
X37730044Y-25261289D01*
X37736303Y-25236300D01*
X37744982Y-25212046D01*
X37755996Y-25188758D01*
X37769239Y-25166663D01*
X37784585Y-25145972D01*
X37801884Y-25126884D01*
X37820972Y-25109585D01*
X37841663Y-25094239D01*
X37863758Y-25080996D01*
X37887046Y-25069982D01*
X37911300Y-25061303D01*
X37936289Y-25055044D01*
X37961771Y-25051264D01*
X37987500Y-25050000D01*
X38512500Y-25050000D01*
X38538229Y-25051264D01*
X38538229Y-25051264D01*
G37*
D14*
X38250000Y-25625000D03*
D10*
G36*
X38538229Y-26801264D02*
X38563711Y-26805044D01*
X38588700Y-26811303D01*
X38612954Y-26819982D01*
X38636242Y-26830996D01*
X38658337Y-26844239D01*
X38679028Y-26859585D01*
X38698116Y-26876884D01*
X38715415Y-26895972D01*
X38730761Y-26916663D01*
X38744004Y-26938758D01*
X38755018Y-26962046D01*
X38763697Y-26986300D01*
X38769956Y-27011289D01*
X38773736Y-27036771D01*
X38775000Y-27062500D01*
X38775000Y-27687500D01*
X38773736Y-27713229D01*
X38769956Y-27738711D01*
X38763697Y-27763700D01*
X38755018Y-27787954D01*
X38744004Y-27811242D01*
X38730761Y-27833337D01*
X38715415Y-27854028D01*
X38698116Y-27873116D01*
X38679028Y-27890415D01*
X38658337Y-27905761D01*
X38636242Y-27919004D01*
X38612954Y-27930018D01*
X38588700Y-27938697D01*
X38563711Y-27944956D01*
X38538229Y-27948736D01*
X38512500Y-27950000D01*
X37987500Y-27950000D01*
X37961771Y-27948736D01*
X37936289Y-27944956D01*
X37911300Y-27938697D01*
X37887046Y-27930018D01*
X37863758Y-27919004D01*
X37841663Y-27905761D01*
X37820972Y-27890415D01*
X37801884Y-27873116D01*
X37784585Y-27854028D01*
X37769239Y-27833337D01*
X37755996Y-27811242D01*
X37744982Y-27787954D01*
X37736303Y-27763700D01*
X37730044Y-27738711D01*
X37726264Y-27713229D01*
X37725000Y-27687500D01*
X37725000Y-27062500D01*
X37726264Y-27036771D01*
X37730044Y-27011289D01*
X37736303Y-26986300D01*
X37744982Y-26962046D01*
X37755996Y-26938758D01*
X37769239Y-26916663D01*
X37784585Y-26895972D01*
X37801884Y-26876884D01*
X37820972Y-26859585D01*
X37841663Y-26844239D01*
X37863758Y-26830996D01*
X37887046Y-26819982D01*
X37911300Y-26811303D01*
X37936289Y-26805044D01*
X37961771Y-26801264D01*
X37987500Y-26800000D01*
X38512500Y-26800000D01*
X38538229Y-26801264D01*
X38538229Y-26801264D01*
G37*
D14*
X38250000Y-27375000D03*
D10*
G36*
X42288229Y-25051264D02*
X42313711Y-25055044D01*
X42338700Y-25061303D01*
X42362954Y-25069982D01*
X42386242Y-25080996D01*
X42408337Y-25094239D01*
X42429028Y-25109585D01*
X42448116Y-25126884D01*
X42465415Y-25145972D01*
X42480761Y-25166663D01*
X42494004Y-25188758D01*
X42505018Y-25212046D01*
X42513697Y-25236300D01*
X42519956Y-25261289D01*
X42523736Y-25286771D01*
X42525000Y-25312500D01*
X42525000Y-25937500D01*
X42523736Y-25963229D01*
X42519956Y-25988711D01*
X42513697Y-26013700D01*
X42505018Y-26037954D01*
X42494004Y-26061242D01*
X42480761Y-26083337D01*
X42465415Y-26104028D01*
X42448116Y-26123116D01*
X42429028Y-26140415D01*
X42408337Y-26155761D01*
X42386242Y-26169004D01*
X42362954Y-26180018D01*
X42338700Y-26188697D01*
X42313711Y-26194956D01*
X42288229Y-26198736D01*
X42262500Y-26200000D01*
X41737500Y-26200000D01*
X41711771Y-26198736D01*
X41686289Y-26194956D01*
X41661300Y-26188697D01*
X41637046Y-26180018D01*
X41613758Y-26169004D01*
X41591663Y-26155761D01*
X41570972Y-26140415D01*
X41551884Y-26123116D01*
X41534585Y-26104028D01*
X41519239Y-26083337D01*
X41505996Y-26061242D01*
X41494982Y-26037954D01*
X41486303Y-26013700D01*
X41480044Y-25988711D01*
X41476264Y-25963229D01*
X41475000Y-25937500D01*
X41475000Y-25312500D01*
X41476264Y-25286771D01*
X41480044Y-25261289D01*
X41486303Y-25236300D01*
X41494982Y-25212046D01*
X41505996Y-25188758D01*
X41519239Y-25166663D01*
X41534585Y-25145972D01*
X41551884Y-25126884D01*
X41570972Y-25109585D01*
X41591663Y-25094239D01*
X41613758Y-25080996D01*
X41637046Y-25069982D01*
X41661300Y-25061303D01*
X41686289Y-25055044D01*
X41711771Y-25051264D01*
X41737500Y-25050000D01*
X42262500Y-25050000D01*
X42288229Y-25051264D01*
X42288229Y-25051264D01*
G37*
D14*
X42000000Y-25625000D03*
D10*
G36*
X42288229Y-26801264D02*
X42313711Y-26805044D01*
X42338700Y-26811303D01*
X42362954Y-26819982D01*
X42386242Y-26830996D01*
X42408337Y-26844239D01*
X42429028Y-26859585D01*
X42448116Y-26876884D01*
X42465415Y-26895972D01*
X42480761Y-26916663D01*
X42494004Y-26938758D01*
X42505018Y-26962046D01*
X42513697Y-26986300D01*
X42519956Y-27011289D01*
X42523736Y-27036771D01*
X42525000Y-27062500D01*
X42525000Y-27687500D01*
X42523736Y-27713229D01*
X42519956Y-27738711D01*
X42513697Y-27763700D01*
X42505018Y-27787954D01*
X42494004Y-27811242D01*
X42480761Y-27833337D01*
X42465415Y-27854028D01*
X42448116Y-27873116D01*
X42429028Y-27890415D01*
X42408337Y-27905761D01*
X42386242Y-27919004D01*
X42362954Y-27930018D01*
X42338700Y-27938697D01*
X42313711Y-27944956D01*
X42288229Y-27948736D01*
X42262500Y-27950000D01*
X41737500Y-27950000D01*
X41711771Y-27948736D01*
X41686289Y-27944956D01*
X41661300Y-27938697D01*
X41637046Y-27930018D01*
X41613758Y-27919004D01*
X41591663Y-27905761D01*
X41570972Y-27890415D01*
X41551884Y-27873116D01*
X41534585Y-27854028D01*
X41519239Y-27833337D01*
X41505996Y-27811242D01*
X41494982Y-27787954D01*
X41486303Y-27763700D01*
X41480044Y-27738711D01*
X41476264Y-27713229D01*
X41475000Y-27687500D01*
X41475000Y-27062500D01*
X41476264Y-27036771D01*
X41480044Y-27011289D01*
X41486303Y-26986300D01*
X41494982Y-26962046D01*
X41505996Y-26938758D01*
X41519239Y-26916663D01*
X41534585Y-26895972D01*
X41551884Y-26876884D01*
X41570972Y-26859585D01*
X41591663Y-26844239D01*
X41613758Y-26830996D01*
X41637046Y-26819982D01*
X41661300Y-26811303D01*
X41686289Y-26805044D01*
X41711771Y-26801264D01*
X41737500Y-26800000D01*
X42262500Y-26800000D01*
X42288229Y-26801264D01*
X42288229Y-26801264D01*
G37*
D14*
X42000000Y-27375000D03*
D10*
G36*
X46963229Y-29726264D02*
X46988711Y-29730044D01*
X47013700Y-29736303D01*
X47037954Y-29744982D01*
X47061242Y-29755996D01*
X47083337Y-29769239D01*
X47104028Y-29784585D01*
X47123116Y-29801884D01*
X47140415Y-29820972D01*
X47155761Y-29841663D01*
X47169004Y-29863758D01*
X47180018Y-29887046D01*
X47188697Y-29911300D01*
X47194956Y-29936289D01*
X47198736Y-29961771D01*
X47200000Y-29987500D01*
X47200000Y-30512500D01*
X47198736Y-30538229D01*
X47194956Y-30563711D01*
X47188697Y-30588700D01*
X47180018Y-30612954D01*
X47169004Y-30636242D01*
X47155761Y-30658337D01*
X47140415Y-30679028D01*
X47123116Y-30698116D01*
X47104028Y-30715415D01*
X47083337Y-30730761D01*
X47061242Y-30744004D01*
X47037954Y-30755018D01*
X47013700Y-30763697D01*
X46988711Y-30769956D01*
X46963229Y-30773736D01*
X46937500Y-30775000D01*
X46312500Y-30775000D01*
X46286771Y-30773736D01*
X46261289Y-30769956D01*
X46236300Y-30763697D01*
X46212046Y-30755018D01*
X46188758Y-30744004D01*
X46166663Y-30730761D01*
X46145972Y-30715415D01*
X46126884Y-30698116D01*
X46109585Y-30679028D01*
X46094239Y-30658337D01*
X46080996Y-30636242D01*
X46069982Y-30612954D01*
X46061303Y-30588700D01*
X46055044Y-30563711D01*
X46051264Y-30538229D01*
X46050000Y-30512500D01*
X46050000Y-29987500D01*
X46051264Y-29961771D01*
X46055044Y-29936289D01*
X46061303Y-29911300D01*
X46069982Y-29887046D01*
X46080996Y-29863758D01*
X46094239Y-29841663D01*
X46109585Y-29820972D01*
X46126884Y-29801884D01*
X46145972Y-29784585D01*
X46166663Y-29769239D01*
X46188758Y-29755996D01*
X46212046Y-29744982D01*
X46236300Y-29736303D01*
X46261289Y-29730044D01*
X46286771Y-29726264D01*
X46312500Y-29725000D01*
X46937500Y-29725000D01*
X46963229Y-29726264D01*
X46963229Y-29726264D01*
G37*
D14*
X46625000Y-30250000D03*
D10*
G36*
X48713229Y-29726264D02*
X48738711Y-29730044D01*
X48763700Y-29736303D01*
X48787954Y-29744982D01*
X48811242Y-29755996D01*
X48833337Y-29769239D01*
X48854028Y-29784585D01*
X48873116Y-29801884D01*
X48890415Y-29820972D01*
X48905761Y-29841663D01*
X48919004Y-29863758D01*
X48930018Y-29887046D01*
X48938697Y-29911300D01*
X48944956Y-29936289D01*
X48948736Y-29961771D01*
X48950000Y-29987500D01*
X48950000Y-30512500D01*
X48948736Y-30538229D01*
X48944956Y-30563711D01*
X48938697Y-30588700D01*
X48930018Y-30612954D01*
X48919004Y-30636242D01*
X48905761Y-30658337D01*
X48890415Y-30679028D01*
X48873116Y-30698116D01*
X48854028Y-30715415D01*
X48833337Y-30730761D01*
X48811242Y-30744004D01*
X48787954Y-30755018D01*
X48763700Y-30763697D01*
X48738711Y-30769956D01*
X48713229Y-30773736D01*
X48687500Y-30775000D01*
X48062500Y-30775000D01*
X48036771Y-30773736D01*
X48011289Y-30769956D01*
X47986300Y-30763697D01*
X47962046Y-30755018D01*
X47938758Y-30744004D01*
X47916663Y-30730761D01*
X47895972Y-30715415D01*
X47876884Y-30698116D01*
X47859585Y-30679028D01*
X47844239Y-30658337D01*
X47830996Y-30636242D01*
X47819982Y-30612954D01*
X47811303Y-30588700D01*
X47805044Y-30563711D01*
X47801264Y-30538229D01*
X47800000Y-30512500D01*
X47800000Y-29987500D01*
X47801264Y-29961771D01*
X47805044Y-29936289D01*
X47811303Y-29911300D01*
X47819982Y-29887046D01*
X47830996Y-29863758D01*
X47844239Y-29841663D01*
X47859585Y-29820972D01*
X47876884Y-29801884D01*
X47895972Y-29784585D01*
X47916663Y-29769239D01*
X47938758Y-29755996D01*
X47962046Y-29744982D01*
X47986300Y-29736303D01*
X48011289Y-29730044D01*
X48036771Y-29726264D01*
X48062500Y-29725000D01*
X48687500Y-29725000D01*
X48713229Y-29726264D01*
X48713229Y-29726264D01*
G37*
D14*
X48375000Y-30250000D03*
D10*
G36*
X46038229Y-45801264D02*
X46063711Y-45805044D01*
X46088700Y-45811303D01*
X46112954Y-45819982D01*
X46136242Y-45830996D01*
X46158337Y-45844239D01*
X46179028Y-45859585D01*
X46198116Y-45876884D01*
X46215415Y-45895972D01*
X46230761Y-45916663D01*
X46244004Y-45938758D01*
X46255018Y-45962046D01*
X46263697Y-45986300D01*
X46269956Y-46011289D01*
X46273736Y-46036771D01*
X46275000Y-46062500D01*
X46275000Y-46687500D01*
X46273736Y-46713229D01*
X46269956Y-46738711D01*
X46263697Y-46763700D01*
X46255018Y-46787954D01*
X46244004Y-46811242D01*
X46230761Y-46833337D01*
X46215415Y-46854028D01*
X46198116Y-46873116D01*
X46179028Y-46890415D01*
X46158337Y-46905761D01*
X46136242Y-46919004D01*
X46112954Y-46930018D01*
X46088700Y-46938697D01*
X46063711Y-46944956D01*
X46038229Y-46948736D01*
X46012500Y-46950000D01*
X45487500Y-46950000D01*
X45461771Y-46948736D01*
X45436289Y-46944956D01*
X45411300Y-46938697D01*
X45387046Y-46930018D01*
X45363758Y-46919004D01*
X45341663Y-46905761D01*
X45320972Y-46890415D01*
X45301884Y-46873116D01*
X45284585Y-46854028D01*
X45269239Y-46833337D01*
X45255996Y-46811242D01*
X45244982Y-46787954D01*
X45236303Y-46763700D01*
X45230044Y-46738711D01*
X45226264Y-46713229D01*
X45225000Y-46687500D01*
X45225000Y-46062500D01*
X45226264Y-46036771D01*
X45230044Y-46011289D01*
X45236303Y-45986300D01*
X45244982Y-45962046D01*
X45255996Y-45938758D01*
X45269239Y-45916663D01*
X45284585Y-45895972D01*
X45301884Y-45876884D01*
X45320972Y-45859585D01*
X45341663Y-45844239D01*
X45363758Y-45830996D01*
X45387046Y-45819982D01*
X45411300Y-45811303D01*
X45436289Y-45805044D01*
X45461771Y-45801264D01*
X45487500Y-45800000D01*
X46012500Y-45800000D01*
X46038229Y-45801264D01*
X46038229Y-45801264D01*
G37*
D14*
X45750000Y-46375000D03*
D10*
G36*
X46038229Y-47551264D02*
X46063711Y-47555044D01*
X46088700Y-47561303D01*
X46112954Y-47569982D01*
X46136242Y-47580996D01*
X46158337Y-47594239D01*
X46179028Y-47609585D01*
X46198116Y-47626884D01*
X46215415Y-47645972D01*
X46230761Y-47666663D01*
X46244004Y-47688758D01*
X46255018Y-47712046D01*
X46263697Y-47736300D01*
X46269956Y-47761289D01*
X46273736Y-47786771D01*
X46275000Y-47812500D01*
X46275000Y-48437500D01*
X46273736Y-48463229D01*
X46269956Y-48488711D01*
X46263697Y-48513700D01*
X46255018Y-48537954D01*
X46244004Y-48561242D01*
X46230761Y-48583337D01*
X46215415Y-48604028D01*
X46198116Y-48623116D01*
X46179028Y-48640415D01*
X46158337Y-48655761D01*
X46136242Y-48669004D01*
X46112954Y-48680018D01*
X46088700Y-48688697D01*
X46063711Y-48694956D01*
X46038229Y-48698736D01*
X46012500Y-48700000D01*
X45487500Y-48700000D01*
X45461771Y-48698736D01*
X45436289Y-48694956D01*
X45411300Y-48688697D01*
X45387046Y-48680018D01*
X45363758Y-48669004D01*
X45341663Y-48655761D01*
X45320972Y-48640415D01*
X45301884Y-48623116D01*
X45284585Y-48604028D01*
X45269239Y-48583337D01*
X45255996Y-48561242D01*
X45244982Y-48537954D01*
X45236303Y-48513700D01*
X45230044Y-48488711D01*
X45226264Y-48463229D01*
X45225000Y-48437500D01*
X45225000Y-47812500D01*
X45226264Y-47786771D01*
X45230044Y-47761289D01*
X45236303Y-47736300D01*
X45244982Y-47712046D01*
X45255996Y-47688758D01*
X45269239Y-47666663D01*
X45284585Y-47645972D01*
X45301884Y-47626884D01*
X45320972Y-47609585D01*
X45341663Y-47594239D01*
X45363758Y-47580996D01*
X45387046Y-47569982D01*
X45411300Y-47561303D01*
X45436289Y-47555044D01*
X45461771Y-47551264D01*
X45487500Y-47550000D01*
X46012500Y-47550000D01*
X46038229Y-47551264D01*
X46038229Y-47551264D01*
G37*
D14*
X45750000Y-48125000D03*
D10*
G36*
X41038229Y-45801264D02*
X41063711Y-45805044D01*
X41088700Y-45811303D01*
X41112954Y-45819982D01*
X41136242Y-45830996D01*
X41158337Y-45844239D01*
X41179028Y-45859585D01*
X41198116Y-45876884D01*
X41215415Y-45895972D01*
X41230761Y-45916663D01*
X41244004Y-45938758D01*
X41255018Y-45962046D01*
X41263697Y-45986300D01*
X41269956Y-46011289D01*
X41273736Y-46036771D01*
X41275000Y-46062500D01*
X41275000Y-46687500D01*
X41273736Y-46713229D01*
X41269956Y-46738711D01*
X41263697Y-46763700D01*
X41255018Y-46787954D01*
X41244004Y-46811242D01*
X41230761Y-46833337D01*
X41215415Y-46854028D01*
X41198116Y-46873116D01*
X41179028Y-46890415D01*
X41158337Y-46905761D01*
X41136242Y-46919004D01*
X41112954Y-46930018D01*
X41088700Y-46938697D01*
X41063711Y-46944956D01*
X41038229Y-46948736D01*
X41012500Y-46950000D01*
X40487500Y-46950000D01*
X40461771Y-46948736D01*
X40436289Y-46944956D01*
X40411300Y-46938697D01*
X40387046Y-46930018D01*
X40363758Y-46919004D01*
X40341663Y-46905761D01*
X40320972Y-46890415D01*
X40301884Y-46873116D01*
X40284585Y-46854028D01*
X40269239Y-46833337D01*
X40255996Y-46811242D01*
X40244982Y-46787954D01*
X40236303Y-46763700D01*
X40230044Y-46738711D01*
X40226264Y-46713229D01*
X40225000Y-46687500D01*
X40225000Y-46062500D01*
X40226264Y-46036771D01*
X40230044Y-46011289D01*
X40236303Y-45986300D01*
X40244982Y-45962046D01*
X40255996Y-45938758D01*
X40269239Y-45916663D01*
X40284585Y-45895972D01*
X40301884Y-45876884D01*
X40320972Y-45859585D01*
X40341663Y-45844239D01*
X40363758Y-45830996D01*
X40387046Y-45819982D01*
X40411300Y-45811303D01*
X40436289Y-45805044D01*
X40461771Y-45801264D01*
X40487500Y-45800000D01*
X41012500Y-45800000D01*
X41038229Y-45801264D01*
X41038229Y-45801264D01*
G37*
D14*
X40750000Y-46375000D03*
D10*
G36*
X41038229Y-47551264D02*
X41063711Y-47555044D01*
X41088700Y-47561303D01*
X41112954Y-47569982D01*
X41136242Y-47580996D01*
X41158337Y-47594239D01*
X41179028Y-47609585D01*
X41198116Y-47626884D01*
X41215415Y-47645972D01*
X41230761Y-47666663D01*
X41244004Y-47688758D01*
X41255018Y-47712046D01*
X41263697Y-47736300D01*
X41269956Y-47761289D01*
X41273736Y-47786771D01*
X41275000Y-47812500D01*
X41275000Y-48437500D01*
X41273736Y-48463229D01*
X41269956Y-48488711D01*
X41263697Y-48513700D01*
X41255018Y-48537954D01*
X41244004Y-48561242D01*
X41230761Y-48583337D01*
X41215415Y-48604028D01*
X41198116Y-48623116D01*
X41179028Y-48640415D01*
X41158337Y-48655761D01*
X41136242Y-48669004D01*
X41112954Y-48680018D01*
X41088700Y-48688697D01*
X41063711Y-48694956D01*
X41038229Y-48698736D01*
X41012500Y-48700000D01*
X40487500Y-48700000D01*
X40461771Y-48698736D01*
X40436289Y-48694956D01*
X40411300Y-48688697D01*
X40387046Y-48680018D01*
X40363758Y-48669004D01*
X40341663Y-48655761D01*
X40320972Y-48640415D01*
X40301884Y-48623116D01*
X40284585Y-48604028D01*
X40269239Y-48583337D01*
X40255996Y-48561242D01*
X40244982Y-48537954D01*
X40236303Y-48513700D01*
X40230044Y-48488711D01*
X40226264Y-48463229D01*
X40225000Y-48437500D01*
X40225000Y-47812500D01*
X40226264Y-47786771D01*
X40230044Y-47761289D01*
X40236303Y-47736300D01*
X40244982Y-47712046D01*
X40255996Y-47688758D01*
X40269239Y-47666663D01*
X40284585Y-47645972D01*
X40301884Y-47626884D01*
X40320972Y-47609585D01*
X40341663Y-47594239D01*
X40363758Y-47580996D01*
X40387046Y-47569982D01*
X40411300Y-47561303D01*
X40436289Y-47555044D01*
X40461771Y-47551264D01*
X40487500Y-47550000D01*
X41012500Y-47550000D01*
X41038229Y-47551264D01*
X41038229Y-47551264D01*
G37*
D14*
X40750000Y-48125000D03*
D10*
G36*
X33038229Y-46051264D02*
X33063711Y-46055044D01*
X33088700Y-46061303D01*
X33112954Y-46069982D01*
X33136242Y-46080996D01*
X33158337Y-46094239D01*
X33179028Y-46109585D01*
X33198116Y-46126884D01*
X33215415Y-46145972D01*
X33230761Y-46166663D01*
X33244004Y-46188758D01*
X33255018Y-46212046D01*
X33263697Y-46236300D01*
X33269956Y-46261289D01*
X33273736Y-46286771D01*
X33275000Y-46312500D01*
X33275000Y-46937500D01*
X33273736Y-46963229D01*
X33269956Y-46988711D01*
X33263697Y-47013700D01*
X33255018Y-47037954D01*
X33244004Y-47061242D01*
X33230761Y-47083337D01*
X33215415Y-47104028D01*
X33198116Y-47123116D01*
X33179028Y-47140415D01*
X33158337Y-47155761D01*
X33136242Y-47169004D01*
X33112954Y-47180018D01*
X33088700Y-47188697D01*
X33063711Y-47194956D01*
X33038229Y-47198736D01*
X33012500Y-47200000D01*
X32487500Y-47200000D01*
X32461771Y-47198736D01*
X32436289Y-47194956D01*
X32411300Y-47188697D01*
X32387046Y-47180018D01*
X32363758Y-47169004D01*
X32341663Y-47155761D01*
X32320972Y-47140415D01*
X32301884Y-47123116D01*
X32284585Y-47104028D01*
X32269239Y-47083337D01*
X32255996Y-47061242D01*
X32244982Y-47037954D01*
X32236303Y-47013700D01*
X32230044Y-46988711D01*
X32226264Y-46963229D01*
X32225000Y-46937500D01*
X32225000Y-46312500D01*
X32226264Y-46286771D01*
X32230044Y-46261289D01*
X32236303Y-46236300D01*
X32244982Y-46212046D01*
X32255996Y-46188758D01*
X32269239Y-46166663D01*
X32284585Y-46145972D01*
X32301884Y-46126884D01*
X32320972Y-46109585D01*
X32341663Y-46094239D01*
X32363758Y-46080996D01*
X32387046Y-46069982D01*
X32411300Y-46061303D01*
X32436289Y-46055044D01*
X32461771Y-46051264D01*
X32487500Y-46050000D01*
X33012500Y-46050000D01*
X33038229Y-46051264D01*
X33038229Y-46051264D01*
G37*
D14*
X32750000Y-46625000D03*
D10*
G36*
X33038229Y-47801264D02*
X33063711Y-47805044D01*
X33088700Y-47811303D01*
X33112954Y-47819982D01*
X33136242Y-47830996D01*
X33158337Y-47844239D01*
X33179028Y-47859585D01*
X33198116Y-47876884D01*
X33215415Y-47895972D01*
X33230761Y-47916663D01*
X33244004Y-47938758D01*
X33255018Y-47962046D01*
X33263697Y-47986300D01*
X33269956Y-48011289D01*
X33273736Y-48036771D01*
X33275000Y-48062500D01*
X33275000Y-48687500D01*
X33273736Y-48713229D01*
X33269956Y-48738711D01*
X33263697Y-48763700D01*
X33255018Y-48787954D01*
X33244004Y-48811242D01*
X33230761Y-48833337D01*
X33215415Y-48854028D01*
X33198116Y-48873116D01*
X33179028Y-48890415D01*
X33158337Y-48905761D01*
X33136242Y-48919004D01*
X33112954Y-48930018D01*
X33088700Y-48938697D01*
X33063711Y-48944956D01*
X33038229Y-48948736D01*
X33012500Y-48950000D01*
X32487500Y-48950000D01*
X32461771Y-48948736D01*
X32436289Y-48944956D01*
X32411300Y-48938697D01*
X32387046Y-48930018D01*
X32363758Y-48919004D01*
X32341663Y-48905761D01*
X32320972Y-48890415D01*
X32301884Y-48873116D01*
X32284585Y-48854028D01*
X32269239Y-48833337D01*
X32255996Y-48811242D01*
X32244982Y-48787954D01*
X32236303Y-48763700D01*
X32230044Y-48738711D01*
X32226264Y-48713229D01*
X32225000Y-48687500D01*
X32225000Y-48062500D01*
X32226264Y-48036771D01*
X32230044Y-48011289D01*
X32236303Y-47986300D01*
X32244982Y-47962046D01*
X32255996Y-47938758D01*
X32269239Y-47916663D01*
X32284585Y-47895972D01*
X32301884Y-47876884D01*
X32320972Y-47859585D01*
X32341663Y-47844239D01*
X32363758Y-47830996D01*
X32387046Y-47819982D01*
X32411300Y-47811303D01*
X32436289Y-47805044D01*
X32461771Y-47801264D01*
X32487500Y-47800000D01*
X33012500Y-47800000D01*
X33038229Y-47801264D01*
X33038229Y-47801264D01*
G37*
D14*
X32750000Y-48375000D03*
D10*
G36*
X29538229Y-46051264D02*
X29563711Y-46055044D01*
X29588700Y-46061303D01*
X29612954Y-46069982D01*
X29636242Y-46080996D01*
X29658337Y-46094239D01*
X29679028Y-46109585D01*
X29698116Y-46126884D01*
X29715415Y-46145972D01*
X29730761Y-46166663D01*
X29744004Y-46188758D01*
X29755018Y-46212046D01*
X29763697Y-46236300D01*
X29769956Y-46261289D01*
X29773736Y-46286771D01*
X29775000Y-46312500D01*
X29775000Y-46937500D01*
X29773736Y-46963229D01*
X29769956Y-46988711D01*
X29763697Y-47013700D01*
X29755018Y-47037954D01*
X29744004Y-47061242D01*
X29730761Y-47083337D01*
X29715415Y-47104028D01*
X29698116Y-47123116D01*
X29679028Y-47140415D01*
X29658337Y-47155761D01*
X29636242Y-47169004D01*
X29612954Y-47180018D01*
X29588700Y-47188697D01*
X29563711Y-47194956D01*
X29538229Y-47198736D01*
X29512500Y-47200000D01*
X28987500Y-47200000D01*
X28961771Y-47198736D01*
X28936289Y-47194956D01*
X28911300Y-47188697D01*
X28887046Y-47180018D01*
X28863758Y-47169004D01*
X28841663Y-47155761D01*
X28820972Y-47140415D01*
X28801884Y-47123116D01*
X28784585Y-47104028D01*
X28769239Y-47083337D01*
X28755996Y-47061242D01*
X28744982Y-47037954D01*
X28736303Y-47013700D01*
X28730044Y-46988711D01*
X28726264Y-46963229D01*
X28725000Y-46937500D01*
X28725000Y-46312500D01*
X28726264Y-46286771D01*
X28730044Y-46261289D01*
X28736303Y-46236300D01*
X28744982Y-46212046D01*
X28755996Y-46188758D01*
X28769239Y-46166663D01*
X28784585Y-46145972D01*
X28801884Y-46126884D01*
X28820972Y-46109585D01*
X28841663Y-46094239D01*
X28863758Y-46080996D01*
X28887046Y-46069982D01*
X28911300Y-46061303D01*
X28936289Y-46055044D01*
X28961771Y-46051264D01*
X28987500Y-46050000D01*
X29512500Y-46050000D01*
X29538229Y-46051264D01*
X29538229Y-46051264D01*
G37*
D14*
X29250000Y-46625000D03*
D10*
G36*
X29538229Y-47801264D02*
X29563711Y-47805044D01*
X29588700Y-47811303D01*
X29612954Y-47819982D01*
X29636242Y-47830996D01*
X29658337Y-47844239D01*
X29679028Y-47859585D01*
X29698116Y-47876884D01*
X29715415Y-47895972D01*
X29730761Y-47916663D01*
X29744004Y-47938758D01*
X29755018Y-47962046D01*
X29763697Y-47986300D01*
X29769956Y-48011289D01*
X29773736Y-48036771D01*
X29775000Y-48062500D01*
X29775000Y-48687500D01*
X29773736Y-48713229D01*
X29769956Y-48738711D01*
X29763697Y-48763700D01*
X29755018Y-48787954D01*
X29744004Y-48811242D01*
X29730761Y-48833337D01*
X29715415Y-48854028D01*
X29698116Y-48873116D01*
X29679028Y-48890415D01*
X29658337Y-48905761D01*
X29636242Y-48919004D01*
X29612954Y-48930018D01*
X29588700Y-48938697D01*
X29563711Y-48944956D01*
X29538229Y-48948736D01*
X29512500Y-48950000D01*
X28987500Y-48950000D01*
X28961771Y-48948736D01*
X28936289Y-48944956D01*
X28911300Y-48938697D01*
X28887046Y-48930018D01*
X28863758Y-48919004D01*
X28841663Y-48905761D01*
X28820972Y-48890415D01*
X28801884Y-48873116D01*
X28784585Y-48854028D01*
X28769239Y-48833337D01*
X28755996Y-48811242D01*
X28744982Y-48787954D01*
X28736303Y-48763700D01*
X28730044Y-48738711D01*
X28726264Y-48713229D01*
X28725000Y-48687500D01*
X28725000Y-48062500D01*
X28726264Y-48036771D01*
X28730044Y-48011289D01*
X28736303Y-47986300D01*
X28744982Y-47962046D01*
X28755996Y-47938758D01*
X28769239Y-47916663D01*
X28784585Y-47895972D01*
X28801884Y-47876884D01*
X28820972Y-47859585D01*
X28841663Y-47844239D01*
X28863758Y-47830996D01*
X28887046Y-47819982D01*
X28911300Y-47811303D01*
X28936289Y-47805044D01*
X28961771Y-47801264D01*
X28987500Y-47800000D01*
X29512500Y-47800000D01*
X29538229Y-47801264D01*
X29538229Y-47801264D01*
G37*
D14*
X29250000Y-48375000D03*
D10*
G36*
X26788229Y-43301264D02*
X26813711Y-43305044D01*
X26838700Y-43311303D01*
X26862954Y-43319982D01*
X26886242Y-43330996D01*
X26908337Y-43344239D01*
X26929028Y-43359585D01*
X26948116Y-43376884D01*
X26965415Y-43395972D01*
X26980761Y-43416663D01*
X26994004Y-43438758D01*
X27005018Y-43462046D01*
X27013697Y-43486300D01*
X27019956Y-43511289D01*
X27023736Y-43536771D01*
X27025000Y-43562500D01*
X27025000Y-44187500D01*
X27023736Y-44213229D01*
X27019956Y-44238711D01*
X27013697Y-44263700D01*
X27005018Y-44287954D01*
X26994004Y-44311242D01*
X26980761Y-44333337D01*
X26965415Y-44354028D01*
X26948116Y-44373116D01*
X26929028Y-44390415D01*
X26908337Y-44405761D01*
X26886242Y-44419004D01*
X26862954Y-44430018D01*
X26838700Y-44438697D01*
X26813711Y-44444956D01*
X26788229Y-44448736D01*
X26762500Y-44450000D01*
X26237500Y-44450000D01*
X26211771Y-44448736D01*
X26186289Y-44444956D01*
X26161300Y-44438697D01*
X26137046Y-44430018D01*
X26113758Y-44419004D01*
X26091663Y-44405761D01*
X26070972Y-44390415D01*
X26051884Y-44373116D01*
X26034585Y-44354028D01*
X26019239Y-44333337D01*
X26005996Y-44311242D01*
X25994982Y-44287954D01*
X25986303Y-44263700D01*
X25980044Y-44238711D01*
X25976264Y-44213229D01*
X25975000Y-44187500D01*
X25975000Y-43562500D01*
X25976264Y-43536771D01*
X25980044Y-43511289D01*
X25986303Y-43486300D01*
X25994982Y-43462046D01*
X26005996Y-43438758D01*
X26019239Y-43416663D01*
X26034585Y-43395972D01*
X26051884Y-43376884D01*
X26070972Y-43359585D01*
X26091663Y-43344239D01*
X26113758Y-43330996D01*
X26137046Y-43319982D01*
X26161300Y-43311303D01*
X26186289Y-43305044D01*
X26211771Y-43301264D01*
X26237500Y-43300000D01*
X26762500Y-43300000D01*
X26788229Y-43301264D01*
X26788229Y-43301264D01*
G37*
D14*
X26500000Y-43875000D03*
D10*
G36*
X26788229Y-45051264D02*
X26813711Y-45055044D01*
X26838700Y-45061303D01*
X26862954Y-45069982D01*
X26886242Y-45080996D01*
X26908337Y-45094239D01*
X26929028Y-45109585D01*
X26948116Y-45126884D01*
X26965415Y-45145972D01*
X26980761Y-45166663D01*
X26994004Y-45188758D01*
X27005018Y-45212046D01*
X27013697Y-45236300D01*
X27019956Y-45261289D01*
X27023736Y-45286771D01*
X27025000Y-45312500D01*
X27025000Y-45937500D01*
X27023736Y-45963229D01*
X27019956Y-45988711D01*
X27013697Y-46013700D01*
X27005018Y-46037954D01*
X26994004Y-46061242D01*
X26980761Y-46083337D01*
X26965415Y-46104028D01*
X26948116Y-46123116D01*
X26929028Y-46140415D01*
X26908337Y-46155761D01*
X26886242Y-46169004D01*
X26862954Y-46180018D01*
X26838700Y-46188697D01*
X26813711Y-46194956D01*
X26788229Y-46198736D01*
X26762500Y-46200000D01*
X26237500Y-46200000D01*
X26211771Y-46198736D01*
X26186289Y-46194956D01*
X26161300Y-46188697D01*
X26137046Y-46180018D01*
X26113758Y-46169004D01*
X26091663Y-46155761D01*
X26070972Y-46140415D01*
X26051884Y-46123116D01*
X26034585Y-46104028D01*
X26019239Y-46083337D01*
X26005996Y-46061242D01*
X25994982Y-46037954D01*
X25986303Y-46013700D01*
X25980044Y-45988711D01*
X25976264Y-45963229D01*
X25975000Y-45937500D01*
X25975000Y-45312500D01*
X25976264Y-45286771D01*
X25980044Y-45261289D01*
X25986303Y-45236300D01*
X25994982Y-45212046D01*
X26005996Y-45188758D01*
X26019239Y-45166663D01*
X26034585Y-45145972D01*
X26051884Y-45126884D01*
X26070972Y-45109585D01*
X26091663Y-45094239D01*
X26113758Y-45080996D01*
X26137046Y-45069982D01*
X26161300Y-45061303D01*
X26186289Y-45055044D01*
X26211771Y-45051264D01*
X26237500Y-45050000D01*
X26762500Y-45050000D01*
X26788229Y-45051264D01*
X26788229Y-45051264D01*
G37*
D14*
X26500000Y-45625000D03*
D10*
G36*
X30564229Y-28711264D02*
X30589711Y-28715044D01*
X30614700Y-28721303D01*
X30638954Y-28729982D01*
X30662242Y-28740996D01*
X30684337Y-28754239D01*
X30705028Y-28769585D01*
X30724116Y-28786884D01*
X30741415Y-28805972D01*
X30756761Y-28826663D01*
X30770004Y-28848758D01*
X30781018Y-28872046D01*
X30789697Y-28896300D01*
X30795956Y-28921289D01*
X30799736Y-28946771D01*
X30801000Y-28972500D01*
X30801000Y-29597500D01*
X30799736Y-29623229D01*
X30795956Y-29648711D01*
X30789697Y-29673700D01*
X30781018Y-29697954D01*
X30770004Y-29721242D01*
X30756761Y-29743337D01*
X30741415Y-29764028D01*
X30724116Y-29783116D01*
X30705028Y-29800415D01*
X30684337Y-29815761D01*
X30662242Y-29829004D01*
X30638954Y-29840018D01*
X30614700Y-29848697D01*
X30589711Y-29854956D01*
X30564229Y-29858736D01*
X30538500Y-29860000D01*
X30013500Y-29860000D01*
X29987771Y-29858736D01*
X29962289Y-29854956D01*
X29937300Y-29848697D01*
X29913046Y-29840018D01*
X29889758Y-29829004D01*
X29867663Y-29815761D01*
X29846972Y-29800415D01*
X29827884Y-29783116D01*
X29810585Y-29764028D01*
X29795239Y-29743337D01*
X29781996Y-29721242D01*
X29770982Y-29697954D01*
X29762303Y-29673700D01*
X29756044Y-29648711D01*
X29752264Y-29623229D01*
X29751000Y-29597500D01*
X29751000Y-28972500D01*
X29752264Y-28946771D01*
X29756044Y-28921289D01*
X29762303Y-28896300D01*
X29770982Y-28872046D01*
X29781996Y-28848758D01*
X29795239Y-28826663D01*
X29810585Y-28805972D01*
X29827884Y-28786884D01*
X29846972Y-28769585D01*
X29867663Y-28754239D01*
X29889758Y-28740996D01*
X29913046Y-28729982D01*
X29937300Y-28721303D01*
X29962289Y-28715044D01*
X29987771Y-28711264D01*
X30013500Y-28710000D01*
X30538500Y-28710000D01*
X30564229Y-28711264D01*
X30564229Y-28711264D01*
G37*
D14*
X30276000Y-29285000D03*
D10*
G36*
X30564229Y-30461264D02*
X30589711Y-30465044D01*
X30614700Y-30471303D01*
X30638954Y-30479982D01*
X30662242Y-30490996D01*
X30684337Y-30504239D01*
X30705028Y-30519585D01*
X30724116Y-30536884D01*
X30741415Y-30555972D01*
X30756761Y-30576663D01*
X30770004Y-30598758D01*
X30781018Y-30622046D01*
X30789697Y-30646300D01*
X30795956Y-30671289D01*
X30799736Y-30696771D01*
X30801000Y-30722500D01*
X30801000Y-31347500D01*
X30799736Y-31373229D01*
X30795956Y-31398711D01*
X30789697Y-31423700D01*
X30781018Y-31447954D01*
X30770004Y-31471242D01*
X30756761Y-31493337D01*
X30741415Y-31514028D01*
X30724116Y-31533116D01*
X30705028Y-31550415D01*
X30684337Y-31565761D01*
X30662242Y-31579004D01*
X30638954Y-31590018D01*
X30614700Y-31598697D01*
X30589711Y-31604956D01*
X30564229Y-31608736D01*
X30538500Y-31610000D01*
X30013500Y-31610000D01*
X29987771Y-31608736D01*
X29962289Y-31604956D01*
X29937300Y-31598697D01*
X29913046Y-31590018D01*
X29889758Y-31579004D01*
X29867663Y-31565761D01*
X29846972Y-31550415D01*
X29827884Y-31533116D01*
X29810585Y-31514028D01*
X29795239Y-31493337D01*
X29781996Y-31471242D01*
X29770982Y-31447954D01*
X29762303Y-31423700D01*
X29756044Y-31398711D01*
X29752264Y-31373229D01*
X29751000Y-31347500D01*
X29751000Y-30722500D01*
X29752264Y-30696771D01*
X29756044Y-30671289D01*
X29762303Y-30646300D01*
X29770982Y-30622046D01*
X29781996Y-30598758D01*
X29795239Y-30576663D01*
X29810585Y-30555972D01*
X29827884Y-30536884D01*
X29846972Y-30519585D01*
X29867663Y-30504239D01*
X29889758Y-30490996D01*
X29913046Y-30479982D01*
X29937300Y-30471303D01*
X29962289Y-30465044D01*
X29987771Y-30461264D01*
X30013500Y-30460000D01*
X30538500Y-30460000D01*
X30564229Y-30461264D01*
X30564229Y-30461264D01*
G37*
D14*
X30276000Y-31035000D03*
D10*
G36*
X44038229Y-30551264D02*
X44063711Y-30555044D01*
X44088700Y-30561303D01*
X44112954Y-30569982D01*
X44136242Y-30580996D01*
X44158337Y-30594239D01*
X44179028Y-30609585D01*
X44198116Y-30626884D01*
X44215415Y-30645972D01*
X44230761Y-30666663D01*
X44244004Y-30688758D01*
X44255018Y-30712046D01*
X44263697Y-30736300D01*
X44269956Y-30761289D01*
X44273736Y-30786771D01*
X44275000Y-30812500D01*
X44275000Y-31437500D01*
X44273736Y-31463229D01*
X44269956Y-31488711D01*
X44263697Y-31513700D01*
X44255018Y-31537954D01*
X44244004Y-31561242D01*
X44230761Y-31583337D01*
X44215415Y-31604028D01*
X44198116Y-31623116D01*
X44179028Y-31640415D01*
X44158337Y-31655761D01*
X44136242Y-31669004D01*
X44112954Y-31680018D01*
X44088700Y-31688697D01*
X44063711Y-31694956D01*
X44038229Y-31698736D01*
X44012500Y-31700000D01*
X43487500Y-31700000D01*
X43461771Y-31698736D01*
X43436289Y-31694956D01*
X43411300Y-31688697D01*
X43387046Y-31680018D01*
X43363758Y-31669004D01*
X43341663Y-31655761D01*
X43320972Y-31640415D01*
X43301884Y-31623116D01*
X43284585Y-31604028D01*
X43269239Y-31583337D01*
X43255996Y-31561242D01*
X43244982Y-31537954D01*
X43236303Y-31513700D01*
X43230044Y-31488711D01*
X43226264Y-31463229D01*
X43225000Y-31437500D01*
X43225000Y-30812500D01*
X43226264Y-30786771D01*
X43230044Y-30761289D01*
X43236303Y-30736300D01*
X43244982Y-30712046D01*
X43255996Y-30688758D01*
X43269239Y-30666663D01*
X43284585Y-30645972D01*
X43301884Y-30626884D01*
X43320972Y-30609585D01*
X43341663Y-30594239D01*
X43363758Y-30580996D01*
X43387046Y-30569982D01*
X43411300Y-30561303D01*
X43436289Y-30555044D01*
X43461771Y-30551264D01*
X43487500Y-30550000D01*
X44012500Y-30550000D01*
X44038229Y-30551264D01*
X44038229Y-30551264D01*
G37*
D14*
X43750000Y-31125000D03*
D10*
G36*
X44038229Y-28801264D02*
X44063711Y-28805044D01*
X44088700Y-28811303D01*
X44112954Y-28819982D01*
X44136242Y-28830996D01*
X44158337Y-28844239D01*
X44179028Y-28859585D01*
X44198116Y-28876884D01*
X44215415Y-28895972D01*
X44230761Y-28916663D01*
X44244004Y-28938758D01*
X44255018Y-28962046D01*
X44263697Y-28986300D01*
X44269956Y-29011289D01*
X44273736Y-29036771D01*
X44275000Y-29062500D01*
X44275000Y-29687500D01*
X44273736Y-29713229D01*
X44269956Y-29738711D01*
X44263697Y-29763700D01*
X44255018Y-29787954D01*
X44244004Y-29811242D01*
X44230761Y-29833337D01*
X44215415Y-29854028D01*
X44198116Y-29873116D01*
X44179028Y-29890415D01*
X44158337Y-29905761D01*
X44136242Y-29919004D01*
X44112954Y-29930018D01*
X44088700Y-29938697D01*
X44063711Y-29944956D01*
X44038229Y-29948736D01*
X44012500Y-29950000D01*
X43487500Y-29950000D01*
X43461771Y-29948736D01*
X43436289Y-29944956D01*
X43411300Y-29938697D01*
X43387046Y-29930018D01*
X43363758Y-29919004D01*
X43341663Y-29905761D01*
X43320972Y-29890415D01*
X43301884Y-29873116D01*
X43284585Y-29854028D01*
X43269239Y-29833337D01*
X43255996Y-29811242D01*
X43244982Y-29787954D01*
X43236303Y-29763700D01*
X43230044Y-29738711D01*
X43226264Y-29713229D01*
X43225000Y-29687500D01*
X43225000Y-29062500D01*
X43226264Y-29036771D01*
X43230044Y-29011289D01*
X43236303Y-28986300D01*
X43244982Y-28962046D01*
X43255996Y-28938758D01*
X43269239Y-28916663D01*
X43284585Y-28895972D01*
X43301884Y-28876884D01*
X43320972Y-28859585D01*
X43341663Y-28844239D01*
X43363758Y-28830996D01*
X43387046Y-28819982D01*
X43411300Y-28811303D01*
X43436289Y-28805044D01*
X43461771Y-28801264D01*
X43487500Y-28800000D01*
X44012500Y-28800000D01*
X44038229Y-28801264D01*
X44038229Y-28801264D01*
G37*
D14*
X43750000Y-29375000D03*
D10*
G36*
X44038229Y-44051264D02*
X44063711Y-44055044D01*
X44088700Y-44061303D01*
X44112954Y-44069982D01*
X44136242Y-44080996D01*
X44158337Y-44094239D01*
X44179028Y-44109585D01*
X44198116Y-44126884D01*
X44215415Y-44145972D01*
X44230761Y-44166663D01*
X44244004Y-44188758D01*
X44255018Y-44212046D01*
X44263697Y-44236300D01*
X44269956Y-44261289D01*
X44273736Y-44286771D01*
X44275000Y-44312500D01*
X44275000Y-44937500D01*
X44273736Y-44963229D01*
X44269956Y-44988711D01*
X44263697Y-45013700D01*
X44255018Y-45037954D01*
X44244004Y-45061242D01*
X44230761Y-45083337D01*
X44215415Y-45104028D01*
X44198116Y-45123116D01*
X44179028Y-45140415D01*
X44158337Y-45155761D01*
X44136242Y-45169004D01*
X44112954Y-45180018D01*
X44088700Y-45188697D01*
X44063711Y-45194956D01*
X44038229Y-45198736D01*
X44012500Y-45200000D01*
X43487500Y-45200000D01*
X43461771Y-45198736D01*
X43436289Y-45194956D01*
X43411300Y-45188697D01*
X43387046Y-45180018D01*
X43363758Y-45169004D01*
X43341663Y-45155761D01*
X43320972Y-45140415D01*
X43301884Y-45123116D01*
X43284585Y-45104028D01*
X43269239Y-45083337D01*
X43255996Y-45061242D01*
X43244982Y-45037954D01*
X43236303Y-45013700D01*
X43230044Y-44988711D01*
X43226264Y-44963229D01*
X43225000Y-44937500D01*
X43225000Y-44312500D01*
X43226264Y-44286771D01*
X43230044Y-44261289D01*
X43236303Y-44236300D01*
X43244982Y-44212046D01*
X43255996Y-44188758D01*
X43269239Y-44166663D01*
X43284585Y-44145972D01*
X43301884Y-44126884D01*
X43320972Y-44109585D01*
X43341663Y-44094239D01*
X43363758Y-44080996D01*
X43387046Y-44069982D01*
X43411300Y-44061303D01*
X43436289Y-44055044D01*
X43461771Y-44051264D01*
X43487500Y-44050000D01*
X44012500Y-44050000D01*
X44038229Y-44051264D01*
X44038229Y-44051264D01*
G37*
D14*
X43750000Y-44625000D03*
D10*
G36*
X44038229Y-42301264D02*
X44063711Y-42305044D01*
X44088700Y-42311303D01*
X44112954Y-42319982D01*
X44136242Y-42330996D01*
X44158337Y-42344239D01*
X44179028Y-42359585D01*
X44198116Y-42376884D01*
X44215415Y-42395972D01*
X44230761Y-42416663D01*
X44244004Y-42438758D01*
X44255018Y-42462046D01*
X44263697Y-42486300D01*
X44269956Y-42511289D01*
X44273736Y-42536771D01*
X44275000Y-42562500D01*
X44275000Y-43187500D01*
X44273736Y-43213229D01*
X44269956Y-43238711D01*
X44263697Y-43263700D01*
X44255018Y-43287954D01*
X44244004Y-43311242D01*
X44230761Y-43333337D01*
X44215415Y-43354028D01*
X44198116Y-43373116D01*
X44179028Y-43390415D01*
X44158337Y-43405761D01*
X44136242Y-43419004D01*
X44112954Y-43430018D01*
X44088700Y-43438697D01*
X44063711Y-43444956D01*
X44038229Y-43448736D01*
X44012500Y-43450000D01*
X43487500Y-43450000D01*
X43461771Y-43448736D01*
X43436289Y-43444956D01*
X43411300Y-43438697D01*
X43387046Y-43430018D01*
X43363758Y-43419004D01*
X43341663Y-43405761D01*
X43320972Y-43390415D01*
X43301884Y-43373116D01*
X43284585Y-43354028D01*
X43269239Y-43333337D01*
X43255996Y-43311242D01*
X43244982Y-43287954D01*
X43236303Y-43263700D01*
X43230044Y-43238711D01*
X43226264Y-43213229D01*
X43225000Y-43187500D01*
X43225000Y-42562500D01*
X43226264Y-42536771D01*
X43230044Y-42511289D01*
X43236303Y-42486300D01*
X43244982Y-42462046D01*
X43255996Y-42438758D01*
X43269239Y-42416663D01*
X43284585Y-42395972D01*
X43301884Y-42376884D01*
X43320972Y-42359585D01*
X43341663Y-42344239D01*
X43363758Y-42330996D01*
X43387046Y-42319982D01*
X43411300Y-42311303D01*
X43436289Y-42305044D01*
X43461771Y-42301264D01*
X43487500Y-42300000D01*
X44012500Y-42300000D01*
X44038229Y-42301264D01*
X44038229Y-42301264D01*
G37*
D14*
X43750000Y-42875000D03*
D10*
G36*
X29788229Y-44051264D02*
X29813711Y-44055044D01*
X29838700Y-44061303D01*
X29862954Y-44069982D01*
X29886242Y-44080996D01*
X29908337Y-44094239D01*
X29929028Y-44109585D01*
X29948116Y-44126884D01*
X29965415Y-44145972D01*
X29980761Y-44166663D01*
X29994004Y-44188758D01*
X30005018Y-44212046D01*
X30013697Y-44236300D01*
X30019956Y-44261289D01*
X30023736Y-44286771D01*
X30025000Y-44312500D01*
X30025000Y-44937500D01*
X30023736Y-44963229D01*
X30019956Y-44988711D01*
X30013697Y-45013700D01*
X30005018Y-45037954D01*
X29994004Y-45061242D01*
X29980761Y-45083337D01*
X29965415Y-45104028D01*
X29948116Y-45123116D01*
X29929028Y-45140415D01*
X29908337Y-45155761D01*
X29886242Y-45169004D01*
X29862954Y-45180018D01*
X29838700Y-45188697D01*
X29813711Y-45194956D01*
X29788229Y-45198736D01*
X29762500Y-45200000D01*
X29237500Y-45200000D01*
X29211771Y-45198736D01*
X29186289Y-45194956D01*
X29161300Y-45188697D01*
X29137046Y-45180018D01*
X29113758Y-45169004D01*
X29091663Y-45155761D01*
X29070972Y-45140415D01*
X29051884Y-45123116D01*
X29034585Y-45104028D01*
X29019239Y-45083337D01*
X29005996Y-45061242D01*
X28994982Y-45037954D01*
X28986303Y-45013700D01*
X28980044Y-44988711D01*
X28976264Y-44963229D01*
X28975000Y-44937500D01*
X28975000Y-44312500D01*
X28976264Y-44286771D01*
X28980044Y-44261289D01*
X28986303Y-44236300D01*
X28994982Y-44212046D01*
X29005996Y-44188758D01*
X29019239Y-44166663D01*
X29034585Y-44145972D01*
X29051884Y-44126884D01*
X29070972Y-44109585D01*
X29091663Y-44094239D01*
X29113758Y-44080996D01*
X29137046Y-44069982D01*
X29161300Y-44061303D01*
X29186289Y-44055044D01*
X29211771Y-44051264D01*
X29237500Y-44050000D01*
X29762500Y-44050000D01*
X29788229Y-44051264D01*
X29788229Y-44051264D01*
G37*
D14*
X29500000Y-44625000D03*
D10*
G36*
X29788229Y-42301264D02*
X29813711Y-42305044D01*
X29838700Y-42311303D01*
X29862954Y-42319982D01*
X29886242Y-42330996D01*
X29908337Y-42344239D01*
X29929028Y-42359585D01*
X29948116Y-42376884D01*
X29965415Y-42395972D01*
X29980761Y-42416663D01*
X29994004Y-42438758D01*
X30005018Y-42462046D01*
X30013697Y-42486300D01*
X30019956Y-42511289D01*
X30023736Y-42536771D01*
X30025000Y-42562500D01*
X30025000Y-43187500D01*
X30023736Y-43213229D01*
X30019956Y-43238711D01*
X30013697Y-43263700D01*
X30005018Y-43287954D01*
X29994004Y-43311242D01*
X29980761Y-43333337D01*
X29965415Y-43354028D01*
X29948116Y-43373116D01*
X29929028Y-43390415D01*
X29908337Y-43405761D01*
X29886242Y-43419004D01*
X29862954Y-43430018D01*
X29838700Y-43438697D01*
X29813711Y-43444956D01*
X29788229Y-43448736D01*
X29762500Y-43450000D01*
X29237500Y-43450000D01*
X29211771Y-43448736D01*
X29186289Y-43444956D01*
X29161300Y-43438697D01*
X29137046Y-43430018D01*
X29113758Y-43419004D01*
X29091663Y-43405761D01*
X29070972Y-43390415D01*
X29051884Y-43373116D01*
X29034585Y-43354028D01*
X29019239Y-43333337D01*
X29005996Y-43311242D01*
X28994982Y-43287954D01*
X28986303Y-43263700D01*
X28980044Y-43238711D01*
X28976264Y-43213229D01*
X28975000Y-43187500D01*
X28975000Y-42562500D01*
X28976264Y-42536771D01*
X28980044Y-42511289D01*
X28986303Y-42486300D01*
X28994982Y-42462046D01*
X29005996Y-42438758D01*
X29019239Y-42416663D01*
X29034585Y-42395972D01*
X29051884Y-42376884D01*
X29070972Y-42359585D01*
X29091663Y-42344239D01*
X29113758Y-42330996D01*
X29137046Y-42319982D01*
X29161300Y-42311303D01*
X29186289Y-42305044D01*
X29211771Y-42301264D01*
X29237500Y-42300000D01*
X29762500Y-42300000D01*
X29788229Y-42301264D01*
X29788229Y-42301264D01*
G37*
D14*
X29500000Y-42875000D03*
D10*
G36*
X46963229Y-43726264D02*
X46988711Y-43730044D01*
X47013700Y-43736303D01*
X47037954Y-43744982D01*
X47061242Y-43755996D01*
X47083337Y-43769239D01*
X47104028Y-43784585D01*
X47123116Y-43801884D01*
X47140415Y-43820972D01*
X47155761Y-43841663D01*
X47169004Y-43863758D01*
X47180018Y-43887046D01*
X47188697Y-43911300D01*
X47194956Y-43936289D01*
X47198736Y-43961771D01*
X47200000Y-43987500D01*
X47200000Y-44512500D01*
X47198736Y-44538229D01*
X47194956Y-44563711D01*
X47188697Y-44588700D01*
X47180018Y-44612954D01*
X47169004Y-44636242D01*
X47155761Y-44658337D01*
X47140415Y-44679028D01*
X47123116Y-44698116D01*
X47104028Y-44715415D01*
X47083337Y-44730761D01*
X47061242Y-44744004D01*
X47037954Y-44755018D01*
X47013700Y-44763697D01*
X46988711Y-44769956D01*
X46963229Y-44773736D01*
X46937500Y-44775000D01*
X46312500Y-44775000D01*
X46286771Y-44773736D01*
X46261289Y-44769956D01*
X46236300Y-44763697D01*
X46212046Y-44755018D01*
X46188758Y-44744004D01*
X46166663Y-44730761D01*
X46145972Y-44715415D01*
X46126884Y-44698116D01*
X46109585Y-44679028D01*
X46094239Y-44658337D01*
X46080996Y-44636242D01*
X46069982Y-44612954D01*
X46061303Y-44588700D01*
X46055044Y-44563711D01*
X46051264Y-44538229D01*
X46050000Y-44512500D01*
X46050000Y-43987500D01*
X46051264Y-43961771D01*
X46055044Y-43936289D01*
X46061303Y-43911300D01*
X46069982Y-43887046D01*
X46080996Y-43863758D01*
X46094239Y-43841663D01*
X46109585Y-43820972D01*
X46126884Y-43801884D01*
X46145972Y-43784585D01*
X46166663Y-43769239D01*
X46188758Y-43755996D01*
X46212046Y-43744982D01*
X46236300Y-43736303D01*
X46261289Y-43730044D01*
X46286771Y-43726264D01*
X46312500Y-43725000D01*
X46937500Y-43725000D01*
X46963229Y-43726264D01*
X46963229Y-43726264D01*
G37*
D14*
X46625000Y-44250000D03*
D10*
G36*
X48713229Y-43726264D02*
X48738711Y-43730044D01*
X48763700Y-43736303D01*
X48787954Y-43744982D01*
X48811242Y-43755996D01*
X48833337Y-43769239D01*
X48854028Y-43784585D01*
X48873116Y-43801884D01*
X48890415Y-43820972D01*
X48905761Y-43841663D01*
X48919004Y-43863758D01*
X48930018Y-43887046D01*
X48938697Y-43911300D01*
X48944956Y-43936289D01*
X48948736Y-43961771D01*
X48950000Y-43987500D01*
X48950000Y-44512500D01*
X48948736Y-44538229D01*
X48944956Y-44563711D01*
X48938697Y-44588700D01*
X48930018Y-44612954D01*
X48919004Y-44636242D01*
X48905761Y-44658337D01*
X48890415Y-44679028D01*
X48873116Y-44698116D01*
X48854028Y-44715415D01*
X48833337Y-44730761D01*
X48811242Y-44744004D01*
X48787954Y-44755018D01*
X48763700Y-44763697D01*
X48738711Y-44769956D01*
X48713229Y-44773736D01*
X48687500Y-44775000D01*
X48062500Y-44775000D01*
X48036771Y-44773736D01*
X48011289Y-44769956D01*
X47986300Y-44763697D01*
X47962046Y-44755018D01*
X47938758Y-44744004D01*
X47916663Y-44730761D01*
X47895972Y-44715415D01*
X47876884Y-44698116D01*
X47859585Y-44679028D01*
X47844239Y-44658337D01*
X47830996Y-44636242D01*
X47819982Y-44612954D01*
X47811303Y-44588700D01*
X47805044Y-44563711D01*
X47801264Y-44538229D01*
X47800000Y-44512500D01*
X47800000Y-43987500D01*
X47801264Y-43961771D01*
X47805044Y-43936289D01*
X47811303Y-43911300D01*
X47819982Y-43887046D01*
X47830996Y-43863758D01*
X47844239Y-43841663D01*
X47859585Y-43820972D01*
X47876884Y-43801884D01*
X47895972Y-43784585D01*
X47916663Y-43769239D01*
X47938758Y-43755996D01*
X47962046Y-43744982D01*
X47986300Y-43736303D01*
X48011289Y-43730044D01*
X48036771Y-43726264D01*
X48062500Y-43725000D01*
X48687500Y-43725000D01*
X48713229Y-43726264D01*
X48713229Y-43726264D01*
G37*
D14*
X48375000Y-44250000D03*
D10*
G36*
X48963229Y-39976264D02*
X48988711Y-39980044D01*
X49013700Y-39986303D01*
X49037954Y-39994982D01*
X49061242Y-40005996D01*
X49083337Y-40019239D01*
X49104028Y-40034585D01*
X49123116Y-40051884D01*
X49140415Y-40070972D01*
X49155761Y-40091663D01*
X49169004Y-40113758D01*
X49180018Y-40137046D01*
X49188697Y-40161300D01*
X49194956Y-40186289D01*
X49198736Y-40211771D01*
X49200000Y-40237500D01*
X49200000Y-40762500D01*
X49198736Y-40788229D01*
X49194956Y-40813711D01*
X49188697Y-40838700D01*
X49180018Y-40862954D01*
X49169004Y-40886242D01*
X49155761Y-40908337D01*
X49140415Y-40929028D01*
X49123116Y-40948116D01*
X49104028Y-40965415D01*
X49083337Y-40980761D01*
X49061242Y-40994004D01*
X49037954Y-41005018D01*
X49013700Y-41013697D01*
X48988711Y-41019956D01*
X48963229Y-41023736D01*
X48937500Y-41025000D01*
X48312500Y-41025000D01*
X48286771Y-41023736D01*
X48261289Y-41019956D01*
X48236300Y-41013697D01*
X48212046Y-41005018D01*
X48188758Y-40994004D01*
X48166663Y-40980761D01*
X48145972Y-40965415D01*
X48126884Y-40948116D01*
X48109585Y-40929028D01*
X48094239Y-40908337D01*
X48080996Y-40886242D01*
X48069982Y-40862954D01*
X48061303Y-40838700D01*
X48055044Y-40813711D01*
X48051264Y-40788229D01*
X48050000Y-40762500D01*
X48050000Y-40237500D01*
X48051264Y-40211771D01*
X48055044Y-40186289D01*
X48061303Y-40161300D01*
X48069982Y-40137046D01*
X48080996Y-40113758D01*
X48094239Y-40091663D01*
X48109585Y-40070972D01*
X48126884Y-40051884D01*
X48145972Y-40034585D01*
X48166663Y-40019239D01*
X48188758Y-40005996D01*
X48212046Y-39994982D01*
X48236300Y-39986303D01*
X48261289Y-39980044D01*
X48286771Y-39976264D01*
X48312500Y-39975000D01*
X48937500Y-39975000D01*
X48963229Y-39976264D01*
X48963229Y-39976264D01*
G37*
D14*
X48625000Y-40500000D03*
D10*
G36*
X47213229Y-39976264D02*
X47238711Y-39980044D01*
X47263700Y-39986303D01*
X47287954Y-39994982D01*
X47311242Y-40005996D01*
X47333337Y-40019239D01*
X47354028Y-40034585D01*
X47373116Y-40051884D01*
X47390415Y-40070972D01*
X47405761Y-40091663D01*
X47419004Y-40113758D01*
X47430018Y-40137046D01*
X47438697Y-40161300D01*
X47444956Y-40186289D01*
X47448736Y-40211771D01*
X47450000Y-40237500D01*
X47450000Y-40762500D01*
X47448736Y-40788229D01*
X47444956Y-40813711D01*
X47438697Y-40838700D01*
X47430018Y-40862954D01*
X47419004Y-40886242D01*
X47405761Y-40908337D01*
X47390415Y-40929028D01*
X47373116Y-40948116D01*
X47354028Y-40965415D01*
X47333337Y-40980761D01*
X47311242Y-40994004D01*
X47287954Y-41005018D01*
X47263700Y-41013697D01*
X47238711Y-41019956D01*
X47213229Y-41023736D01*
X47187500Y-41025000D01*
X46562500Y-41025000D01*
X46536771Y-41023736D01*
X46511289Y-41019956D01*
X46486300Y-41013697D01*
X46462046Y-41005018D01*
X46438758Y-40994004D01*
X46416663Y-40980761D01*
X46395972Y-40965415D01*
X46376884Y-40948116D01*
X46359585Y-40929028D01*
X46344239Y-40908337D01*
X46330996Y-40886242D01*
X46319982Y-40862954D01*
X46311303Y-40838700D01*
X46305044Y-40813711D01*
X46301264Y-40788229D01*
X46300000Y-40762500D01*
X46300000Y-40237500D01*
X46301264Y-40211771D01*
X46305044Y-40186289D01*
X46311303Y-40161300D01*
X46319982Y-40137046D01*
X46330996Y-40113758D01*
X46344239Y-40091663D01*
X46359585Y-40070972D01*
X46376884Y-40051884D01*
X46395972Y-40034585D01*
X46416663Y-40019239D01*
X46438758Y-40005996D01*
X46462046Y-39994982D01*
X46486300Y-39986303D01*
X46511289Y-39980044D01*
X46536771Y-39976264D01*
X46562500Y-39975000D01*
X47187500Y-39975000D01*
X47213229Y-39976264D01*
X47213229Y-39976264D01*
G37*
D14*
X46875000Y-40500000D03*
D15*
X37000000Y-37000000D03*
D10*
G36*
X24854897Y-47501308D02*
X24881275Y-47505221D01*
X24907143Y-47511701D01*
X24932252Y-47520685D01*
X24956358Y-47532086D01*
X24979232Y-47545796D01*
X25000651Y-47561682D01*
X25020410Y-47579590D01*
X25038318Y-47599349D01*
X25054204Y-47620768D01*
X25067914Y-47643642D01*
X25079315Y-47667748D01*
X25088299Y-47692857D01*
X25094779Y-47718725D01*
X25098692Y-47745103D01*
X25100000Y-47771738D01*
X25100000Y-48728262D01*
X25098692Y-48754897D01*
X25094779Y-48781275D01*
X25088299Y-48807143D01*
X25079315Y-48832252D01*
X25067914Y-48856358D01*
X25054204Y-48879232D01*
X25038318Y-48900651D01*
X25020410Y-48920410D01*
X25000651Y-48938318D01*
X24979232Y-48954204D01*
X24956358Y-48967914D01*
X24932252Y-48979315D01*
X24907143Y-48988299D01*
X24881275Y-48994779D01*
X24854897Y-48998692D01*
X24828262Y-49000000D01*
X24121738Y-49000000D01*
X24095103Y-48998692D01*
X24068725Y-48994779D01*
X24042857Y-48988299D01*
X24017748Y-48979315D01*
X23993642Y-48967914D01*
X23970768Y-48954204D01*
X23949349Y-48938318D01*
X23929590Y-48920410D01*
X23911682Y-48900651D01*
X23895796Y-48879232D01*
X23882086Y-48856358D01*
X23870685Y-48832252D01*
X23861701Y-48807143D01*
X23855221Y-48781275D01*
X23851308Y-48754897D01*
X23850000Y-48728262D01*
X23850000Y-47771738D01*
X23851308Y-47745103D01*
X23855221Y-47718725D01*
X23861701Y-47692857D01*
X23870685Y-47667748D01*
X23882086Y-47643642D01*
X23895796Y-47620768D01*
X23911682Y-47599349D01*
X23929590Y-47579590D01*
X23949349Y-47561682D01*
X23970768Y-47545796D01*
X23993642Y-47532086D01*
X24017748Y-47520685D01*
X24042857Y-47511701D01*
X24068725Y-47505221D01*
X24095103Y-47501308D01*
X24121738Y-47500000D01*
X24828262Y-47500000D01*
X24854897Y-47501308D01*
X24854897Y-47501308D01*
G37*
D16*
X24475000Y-48250000D03*
D10*
G36*
X26904897Y-47501308D02*
X26931275Y-47505221D01*
X26957143Y-47511701D01*
X26982252Y-47520685D01*
X27006358Y-47532086D01*
X27029232Y-47545796D01*
X27050651Y-47561682D01*
X27070410Y-47579590D01*
X27088318Y-47599349D01*
X27104204Y-47620768D01*
X27117914Y-47643642D01*
X27129315Y-47667748D01*
X27138299Y-47692857D01*
X27144779Y-47718725D01*
X27148692Y-47745103D01*
X27150000Y-47771738D01*
X27150000Y-48728262D01*
X27148692Y-48754897D01*
X27144779Y-48781275D01*
X27138299Y-48807143D01*
X27129315Y-48832252D01*
X27117914Y-48856358D01*
X27104204Y-48879232D01*
X27088318Y-48900651D01*
X27070410Y-48920410D01*
X27050651Y-48938318D01*
X27029232Y-48954204D01*
X27006358Y-48967914D01*
X26982252Y-48979315D01*
X26957143Y-48988299D01*
X26931275Y-48994779D01*
X26904897Y-48998692D01*
X26878262Y-49000000D01*
X26171738Y-49000000D01*
X26145103Y-48998692D01*
X26118725Y-48994779D01*
X26092857Y-48988299D01*
X26067748Y-48979315D01*
X26043642Y-48967914D01*
X26020768Y-48954204D01*
X25999349Y-48938318D01*
X25979590Y-48920410D01*
X25961682Y-48900651D01*
X25945796Y-48879232D01*
X25932086Y-48856358D01*
X25920685Y-48832252D01*
X25911701Y-48807143D01*
X25905221Y-48781275D01*
X25901308Y-48754897D01*
X25900000Y-48728262D01*
X25900000Y-47771738D01*
X25901308Y-47745103D01*
X25905221Y-47718725D01*
X25911701Y-47692857D01*
X25920685Y-47667748D01*
X25932086Y-47643642D01*
X25945796Y-47620768D01*
X25961682Y-47599349D01*
X25979590Y-47579590D01*
X25999349Y-47561682D01*
X26020768Y-47545796D01*
X26043642Y-47532086D01*
X26067748Y-47520685D01*
X26092857Y-47511701D01*
X26118725Y-47505221D01*
X26145103Y-47501308D01*
X26171738Y-47500000D01*
X26878262Y-47500000D01*
X26904897Y-47501308D01*
X26904897Y-47501308D01*
G37*
D16*
X26525000Y-48250000D03*
D10*
G36*
X24604897Y-24751308D02*
X24631275Y-24755221D01*
X24657143Y-24761701D01*
X24682252Y-24770685D01*
X24706358Y-24782086D01*
X24729232Y-24795796D01*
X24750651Y-24811682D01*
X24770410Y-24829590D01*
X24788318Y-24849349D01*
X24804204Y-24870768D01*
X24817914Y-24893642D01*
X24829315Y-24917748D01*
X24838299Y-24942857D01*
X24844779Y-24968725D01*
X24848692Y-24995103D01*
X24850000Y-25021738D01*
X24850000Y-25978262D01*
X24848692Y-26004897D01*
X24844779Y-26031275D01*
X24838299Y-26057143D01*
X24829315Y-26082252D01*
X24817914Y-26106358D01*
X24804204Y-26129232D01*
X24788318Y-26150651D01*
X24770410Y-26170410D01*
X24750651Y-26188318D01*
X24729232Y-26204204D01*
X24706358Y-26217914D01*
X24682252Y-26229315D01*
X24657143Y-26238299D01*
X24631275Y-26244779D01*
X24604897Y-26248692D01*
X24578262Y-26250000D01*
X23871738Y-26250000D01*
X23845103Y-26248692D01*
X23818725Y-26244779D01*
X23792857Y-26238299D01*
X23767748Y-26229315D01*
X23743642Y-26217914D01*
X23720768Y-26204204D01*
X23699349Y-26188318D01*
X23679590Y-26170410D01*
X23661682Y-26150651D01*
X23645796Y-26129232D01*
X23632086Y-26106358D01*
X23620685Y-26082252D01*
X23611701Y-26057143D01*
X23605221Y-26031275D01*
X23601308Y-26004897D01*
X23600000Y-25978262D01*
X23600000Y-25021738D01*
X23601308Y-24995103D01*
X23605221Y-24968725D01*
X23611701Y-24942857D01*
X23620685Y-24917748D01*
X23632086Y-24893642D01*
X23645796Y-24870768D01*
X23661682Y-24849349D01*
X23679590Y-24829590D01*
X23699349Y-24811682D01*
X23720768Y-24795796D01*
X23743642Y-24782086D01*
X23767748Y-24770685D01*
X23792857Y-24761701D01*
X23818725Y-24755221D01*
X23845103Y-24751308D01*
X23871738Y-24750000D01*
X24578262Y-24750000D01*
X24604897Y-24751308D01*
X24604897Y-24751308D01*
G37*
D16*
X24225000Y-25500000D03*
D10*
G36*
X26654897Y-24751308D02*
X26681275Y-24755221D01*
X26707143Y-24761701D01*
X26732252Y-24770685D01*
X26756358Y-24782086D01*
X26779232Y-24795796D01*
X26800651Y-24811682D01*
X26820410Y-24829590D01*
X26838318Y-24849349D01*
X26854204Y-24870768D01*
X26867914Y-24893642D01*
X26879315Y-24917748D01*
X26888299Y-24942857D01*
X26894779Y-24968725D01*
X26898692Y-24995103D01*
X26900000Y-25021738D01*
X26900000Y-25978262D01*
X26898692Y-26004897D01*
X26894779Y-26031275D01*
X26888299Y-26057143D01*
X26879315Y-26082252D01*
X26867914Y-26106358D01*
X26854204Y-26129232D01*
X26838318Y-26150651D01*
X26820410Y-26170410D01*
X26800651Y-26188318D01*
X26779232Y-26204204D01*
X26756358Y-26217914D01*
X26732252Y-26229315D01*
X26707143Y-26238299D01*
X26681275Y-26244779D01*
X26654897Y-26248692D01*
X26628262Y-26250000D01*
X25921738Y-26250000D01*
X25895103Y-26248692D01*
X25868725Y-26244779D01*
X25842857Y-26238299D01*
X25817748Y-26229315D01*
X25793642Y-26217914D01*
X25770768Y-26204204D01*
X25749349Y-26188318D01*
X25729590Y-26170410D01*
X25711682Y-26150651D01*
X25695796Y-26129232D01*
X25682086Y-26106358D01*
X25670685Y-26082252D01*
X25661701Y-26057143D01*
X25655221Y-26031275D01*
X25651308Y-26004897D01*
X25650000Y-25978262D01*
X25650000Y-25021738D01*
X25651308Y-24995103D01*
X25655221Y-24968725D01*
X25661701Y-24942857D01*
X25670685Y-24917748D01*
X25682086Y-24893642D01*
X25695796Y-24870768D01*
X25711682Y-24849349D01*
X25729590Y-24829590D01*
X25749349Y-24811682D01*
X25770768Y-24795796D01*
X25793642Y-24782086D01*
X25817748Y-24770685D01*
X25842857Y-24761701D01*
X25868725Y-24755221D01*
X25895103Y-24751308D01*
X25921738Y-24750000D01*
X26628262Y-24750000D01*
X26654897Y-24751308D01*
X26654897Y-24751308D01*
G37*
D16*
X26275000Y-25500000D03*
D10*
G36*
X50154897Y-47251308D02*
X50181275Y-47255221D01*
X50207143Y-47261701D01*
X50232252Y-47270685D01*
X50256358Y-47282086D01*
X50279232Y-47295796D01*
X50300651Y-47311682D01*
X50320410Y-47329590D01*
X50338318Y-47349349D01*
X50354204Y-47370768D01*
X50367914Y-47393642D01*
X50379315Y-47417748D01*
X50388299Y-47442857D01*
X50394779Y-47468725D01*
X50398692Y-47495103D01*
X50400000Y-47521738D01*
X50400000Y-48478262D01*
X50398692Y-48504897D01*
X50394779Y-48531275D01*
X50388299Y-48557143D01*
X50379315Y-48582252D01*
X50367914Y-48606358D01*
X50354204Y-48629232D01*
X50338318Y-48650651D01*
X50320410Y-48670410D01*
X50300651Y-48688318D01*
X50279232Y-48704204D01*
X50256358Y-48717914D01*
X50232252Y-48729315D01*
X50207143Y-48738299D01*
X50181275Y-48744779D01*
X50154897Y-48748692D01*
X50128262Y-48750000D01*
X49421738Y-48750000D01*
X49395103Y-48748692D01*
X49368725Y-48744779D01*
X49342857Y-48738299D01*
X49317748Y-48729315D01*
X49293642Y-48717914D01*
X49270768Y-48704204D01*
X49249349Y-48688318D01*
X49229590Y-48670410D01*
X49211682Y-48650651D01*
X49195796Y-48629232D01*
X49182086Y-48606358D01*
X49170685Y-48582252D01*
X49161701Y-48557143D01*
X49155221Y-48531275D01*
X49151308Y-48504897D01*
X49150000Y-48478262D01*
X49150000Y-47521738D01*
X49151308Y-47495103D01*
X49155221Y-47468725D01*
X49161701Y-47442857D01*
X49170685Y-47417748D01*
X49182086Y-47393642D01*
X49195796Y-47370768D01*
X49211682Y-47349349D01*
X49229590Y-47329590D01*
X49249349Y-47311682D01*
X49270768Y-47295796D01*
X49293642Y-47282086D01*
X49317748Y-47270685D01*
X49342857Y-47261701D01*
X49368725Y-47255221D01*
X49395103Y-47251308D01*
X49421738Y-47250000D01*
X50128262Y-47250000D01*
X50154897Y-47251308D01*
X50154897Y-47251308D01*
G37*
D16*
X49775000Y-48000000D03*
D10*
G36*
X48104897Y-47251308D02*
X48131275Y-47255221D01*
X48157143Y-47261701D01*
X48182252Y-47270685D01*
X48206358Y-47282086D01*
X48229232Y-47295796D01*
X48250651Y-47311682D01*
X48270410Y-47329590D01*
X48288318Y-47349349D01*
X48304204Y-47370768D01*
X48317914Y-47393642D01*
X48329315Y-47417748D01*
X48338299Y-47442857D01*
X48344779Y-47468725D01*
X48348692Y-47495103D01*
X48350000Y-47521738D01*
X48350000Y-48478262D01*
X48348692Y-48504897D01*
X48344779Y-48531275D01*
X48338299Y-48557143D01*
X48329315Y-48582252D01*
X48317914Y-48606358D01*
X48304204Y-48629232D01*
X48288318Y-48650651D01*
X48270410Y-48670410D01*
X48250651Y-48688318D01*
X48229232Y-48704204D01*
X48206358Y-48717914D01*
X48182252Y-48729315D01*
X48157143Y-48738299D01*
X48131275Y-48744779D01*
X48104897Y-48748692D01*
X48078262Y-48750000D01*
X47371738Y-48750000D01*
X47345103Y-48748692D01*
X47318725Y-48744779D01*
X47292857Y-48738299D01*
X47267748Y-48729315D01*
X47243642Y-48717914D01*
X47220768Y-48704204D01*
X47199349Y-48688318D01*
X47179590Y-48670410D01*
X47161682Y-48650651D01*
X47145796Y-48629232D01*
X47132086Y-48606358D01*
X47120685Y-48582252D01*
X47111701Y-48557143D01*
X47105221Y-48531275D01*
X47101308Y-48504897D01*
X47100000Y-48478262D01*
X47100000Y-47521738D01*
X47101308Y-47495103D01*
X47105221Y-47468725D01*
X47111701Y-47442857D01*
X47120685Y-47417748D01*
X47132086Y-47393642D01*
X47145796Y-47370768D01*
X47161682Y-47349349D01*
X47179590Y-47329590D01*
X47199349Y-47311682D01*
X47220768Y-47295796D01*
X47243642Y-47282086D01*
X47267748Y-47270685D01*
X47292857Y-47261701D01*
X47318725Y-47255221D01*
X47345103Y-47251308D01*
X47371738Y-47250000D01*
X48078262Y-47250000D01*
X48104897Y-47251308D01*
X48104897Y-47251308D01*
G37*
D16*
X47725000Y-48000000D03*
M02*
